<svg version="1.1" xmlns="http://www.w3.org/2000/svg" viewBox="0 0 740 700" width="1480" height="1400">
  <!-- svg-source:excalidraw -->
  
  <defs>
    <style class="style-fonts">
      @font-face {
        font-family: "Virgil";
        src: url("https://excalidraw.com/Virgil.woff2");
      }
      @font-face {
        font-family: "Cascadia";
        src: url("https://excalidraw.com/Cascadia.woff2");
      }
    </style>
    
  </defs>
  <rect x="0" y="0" width="740" height="700" fill="#ffffff"></rect><g stroke-linecap="round"><g transform="translate(10 50) rotate(0 360 0)"><path d="M0 0 C120 0, 600 0, 720 0 M0 0 C120 0, 600 0, 720 0" stroke="#1e1e1e" stroke-width="4" fill="none"></path></g><g transform="translate(10 50) rotate(0 360 0)"><path d="M691.81 10.26 C698.18 7.94, 704.55 5.62, 720 0 M691.81 10.26 C702.27 6.45, 712.74 2.64, 720 0" stroke="#1e1e1e" stroke-width="4" fill="none"></path></g><g transform="translate(10 50) rotate(0 360 0)"><path d="M691.81 -10.26 C698.18 -7.94, 704.55 -5.62, 720 0 M691.81 -10.26 C702.27 -6.45, 712.74 -2.64, 720 0" stroke="#1e1e1e" stroke-width="4" fill="none"></path></g></g><mask></mask><g stroke-linecap="round"><g transform="translate(150 50) rotate(0 10 20)"><path d="M0 0 C2.64 1.67, 12.53 3.33, 15.86 10 C19.2 16.67, 19.31 35, 20 40 M0 0 C2.64 1.67, 12.53 3.33, 15.86 10 C19.2 16.67, 19.31 35, 20 40" stroke="#1e1e1e" stroke-width="4" fill="none"></path></g></g><mask></mask><g stroke-linecap="round"><g transform="translate(170 90) rotate(0 10.008727973440443 10.245970957545751)"><path d="M0 0 C0.61 3.1, 0.32 15.29, 3.65 18.62 C6.99 21.95, 17.29 19.77, 20.02 20 M0 0 C0.61 3.1, 0.32 15.29, 3.65 18.62 C6.99 21.95, 17.29 19.77, 20.02 20" stroke="#1e1e1e" stroke-width="4" fill="none"></path></g></g><mask></mask><g stroke-linecap="round" transform="translate(110 110) rotate(0 250 290)"><path d="M32 0 M32 0 C147.99 0, 263.98 0, 468 0 M32 0 C200.03 0, 368.05 0, 468 0 M468 0 C489.33 0, 500 10.67, 500 32 M468 0 C489.33 0, 500 10.67, 500 32 M500 32 C500 196.08, 500 360.17, 500 548 M500 32 C500 164.6, 500 297.2, 500 548 M500 548 C500 569.33, 489.33 580, 468 580 M500 548 C500 569.33, 489.33 580, 468 580 M468 580 C332.88 580, 197.75 580, 32 580 M468 580 C313.84 580, 159.68 580, 32 580 M32 580 C10.67 580, 0 569.33, 0 548 M32 580 C10.67 580, 0 569.33, 0 548 M0 548 C0 391.28, 0 234.55, 0 32 M0 548 C0 345.71, 0 143.42, 0 32 M0 32 C0 10.67, 10.67 0, 32 0 M0 32 C0 10.67, 10.67 0, 32 0" stroke="#1e1e1e" stroke-width="4" fill="none"></path></g><g stroke-linecap="round"><g transform="translate(190 110) rotate(0 10 20)"><path d="M0 0 C2.64 1.67, 12.53 3.33, 15.86 10 C19.2 16.67, 19.31 35, 20 40 M0 0 C2.64 1.67, 12.53 3.33, 15.86 10 C19.2 16.67, 19.31 35, 20 40" stroke="#1e1e1e" stroke-width="4" fill="none"></path></g></g><mask></mask><g stroke-linecap="round"><g transform="translate(210 150) rotate(0 10.008727973440443 10.245970957545751)"><path d="M0 0 C0.61 3.1, 0.32 15.29, 3.65 18.62 C6.99 21.95, 17.29 19.77, 20.02 20 M0 0 C0.61 3.1, 0.32 15.29, 3.65 18.62 C6.99 21.95, 17.29 19.77, 20.02 20" stroke="#1e1e1e" stroke-width="4" fill="none"></path></g></g><mask></mask><g stroke-linecap="round"><g transform="translate(630.0174559468808 50) rotate(0 -10 19.999999999999986)"><path d="M0 0 C-2.64 1.67, -12.53 3.33, -15.86 10 C-19.2 16.67, -19.31 35, -20 40 M0 0 C-2.64 1.67, -12.53 3.33, -15.86 10 C-19.2 16.67, -19.31 35, -20 40" stroke="#1e1e1e" stroke-width="4" fill="none"></path></g></g><mask></mask><g stroke-linecap="round"><g transform="translate(610.0174559468808 90) rotate(0 -10.008727973440386 10.245970957545737)"><path d="M0 0 C-0.61 3.1, -0.32 15.29, -3.65 18.62 C-6.99 21.95, -17.29 19.77, -20.02 20 M0 0 C-0.61 3.1, -0.32 15.29, -3.65 18.62 C-6.99 21.95, -17.29 19.77, -20.02 20" stroke="#1e1e1e" stroke-width="4" fill="none"></path></g></g><mask></mask><g stroke-linecap="round"><g transform="translate(230 170) rotate(0 150 0)"><path d="M0 0 C50 0, 250 0, 300 0 M0 0 C50 0, 250 0, 300 0" stroke="#1e1e1e" stroke-width="4" fill="none"></path></g></g><mask></mask><g stroke-linecap="round"><g transform="translate(570.017455946881 110) rotate(0 -10 19.999999999999986)"><path d="M0 0 C-2.64 1.67, -12.53 3.33, -15.86 10 C-19.2 16.67, -19.31 35, -20 40 M0 0 C-2.64 1.67, -12.53 3.33, -15.86 10 C-19.2 16.67, -19.31 35, -20 40" stroke="#1e1e1e" stroke-width="4" fill="none"></path></g></g><mask></mask><g stroke-linecap="round"><g transform="translate(550.017455946881 150) rotate(0 -10.008727973440443 10.245970957545751)"><path d="M0 0 C-0.61 3.1, -0.32 15.29, -3.65 18.62 C-6.99 21.95, -17.29 19.77, -20.02 20 M0 0 C-0.61 3.1, -0.32 15.29, -3.65 18.62 C-6.99 21.95, -17.29 19.77, -20.02 20" stroke="#1e1e1e" stroke-width="4" fill="none"></path></g></g><mask></mask><g stroke-linecap="round"><g transform="translate(270 170) rotate(0 10 20)"><path d="M0 0 C2.64 1.67, 12.53 3.33, 15.86 10 C19.2 16.67, 19.31 35, 20 40 M0 0 C2.64 1.67, 12.53 3.33, 15.86 10 C19.2 16.67, 19.31 35, 20 40" stroke="#1e1e1e" stroke-width="4" fill="none"></path></g></g><mask></mask><g stroke-linecap="round"><g transform="translate(290 210) rotate(0 10.008727973440443 10.245970957545751)"><path d="M0 0 C0.61 3.1, 0.32 15.29, 3.65 18.62 C6.99 21.95, 17.29 19.77, 20.02 20 M0 0 C0.61 3.1, 0.32 15.29, 3.65 18.62 C6.99 21.95, 17.29 19.77, 20.02 20" stroke="#1e1e1e" stroke-width="4" fill="none"></path></g></g><mask></mask><g stroke-linecap="round"><g transform="translate(290 210) rotate(0 0 210)"><path d="M0 0 C0 70, 0 350, 0 420 M0 0 C0 70, 0 350, 0 420" stroke="#1e1e1e" stroke-width="4" fill="none"></path></g></g><mask></mask><g stroke-linecap="round"><g transform="translate(290 270) rotate(0 10.008727973440443 10.245970957545751)"><path d="M0 0 C0.61 3.1, 0.32 15.29, 3.65 18.62 C6.99 21.95, 17.29 19.77, 20.02 20 M0 0 C0.61 3.1, 0.32 15.29, 3.65 18.62 C6.99 21.95, 17.29 19.77, 20.02 20" stroke="#1e1e1e" stroke-width="4" fill="none"></path></g></g><mask></mask><g stroke-linecap="round"><g transform="translate(290 330) rotate(0 10.008727973440443 10.245970957545751)"><path d="M0 0 C0.61 3.1, 0.32 15.29, 3.65 18.62 C6.99 21.95, 17.29 19.77, 20.02 20 M0 0 C0.61 3.1, 0.32 15.29, 3.65 18.62 C6.99 21.95, 17.29 19.77, 20.02 20" stroke="#1e1e1e" stroke-width="4" fill="none"></path></g></g><mask></mask><g stroke-linecap="round"><g transform="translate(290 390) rotate(0 10.008727973440443 10.245970957545751)"><path d="M0 0 C0.61 3.1, 0.32 15.29, 3.65 18.62 C6.99 21.95, 17.29 19.77, 20.02 20 M0 0 C0.61 3.1, 0.32 15.29, 3.65 18.62 C6.99 21.95, 17.29 19.77, 20.02 20" stroke="#1e1e1e" stroke-width="4" fill="none"></path></g></g><mask></mask><g stroke-linecap="round"><g transform="translate(290 450) rotate(0 10.008727973440443 10.245970957545751)"><path d="M0 0 C0.61 3.1, 0.32 15.29, 3.65 18.62 C6.99 21.95, 17.29 19.77, 20.02 20 M0 0 C0.61 3.1, 0.32 15.29, 3.65 18.62 C6.99 21.95, 17.29 19.77, 20.02 20" stroke="#1e1e1e" stroke-width="4" fill="none"></path></g></g><mask></mask><g stroke-linecap="round"><g transform="translate(290 510) rotate(0 10.008727973440443 10.245970957545751)"><path d="M0 0 C0.61 3.1, 0.32 15.29, 3.65 18.62 C6.99 21.95, 17.29 19.77, 20.02 20 M0 0 C0.61 3.1, 0.32 15.29, 3.65 18.62 C6.99 21.95, 17.29 19.77, 20.02 20" stroke="#1e1e1e" stroke-width="4" fill="none"></path></g></g><mask></mask><g stroke-linecap="round"><g transform="translate(290 570) rotate(0 10.008727973440443 10.245970957545751)"><path d="M0 0 C0.61 3.1, 0.32 15.29, 3.65 18.62 C6.99 21.95, 17.29 19.77, 20.02 20 M0 0 C0.61 3.1, 0.32 15.29, 3.65 18.62 C6.99 21.95, 17.29 19.77, 20.02 20" stroke="#1e1e1e" stroke-width="4" fill="none"></path></g></g><mask></mask><g stroke-linecap="round"><g transform="translate(290 630) rotate(0 10.008727973440443 10.245970957545751)"><path d="M0 0 C0.61 3.1, 0.32 15.29, 3.65 18.62 C6.99 21.95, 17.29 19.77, 20.02 20 M0 0 C0.61 3.1, 0.32 15.29, 3.65 18.62 C6.99 21.95, 17.29 19.77, 20.02 20" stroke="#1e1e1e" stroke-width="4" fill="none"></path></g></g><mask></mask><g stroke-linecap="round"><g transform="translate(310 230) rotate(0 110 0)"><path d="M0 0 C36.67 0, 183.33 0, 220 0 M0 0 C36.67 0, 183.33 0, 220 0" stroke="#1e1e1e" stroke-width="4" fill="none"></path></g></g><mask></mask><g stroke-linecap="round"><g transform="translate(550 150) rotate(0 0 240)"><path d="M0 0 C0 80, 0 400, 0 480 M0 0 C0 80, 0 400, 0 480" stroke="#1e1e1e" stroke-width="4" fill="none"></path></g></g><mask></mask><g stroke-linecap="round"><g transform="translate(550.017455946881 210) rotate(0 -10.008727973440443 10.245970957545751)"><path d="M0 0 C-0.61 3.1, -0.32 15.29, -3.65 18.62 C-6.99 21.95, -17.29 19.77, -20.02 20 M0 0 C-0.61 3.1, -0.32 15.29, -3.65 18.62 C-6.99 21.95, -17.29 19.77, -20.02 20" stroke="#1e1e1e" stroke-width="4" fill="none"></path></g></g><mask></mask><g stroke-linecap="round"><g transform="translate(550.017455946881 270) rotate(0 -10.008727973440443 10.245970957545751)"><path d="M0 0 C-0.61 3.1, -0.32 15.29, -3.65 18.62 C-6.99 21.95, -17.29 19.77, -20.02 20 M0 0 C-0.61 3.1, -0.32 15.29, -3.65 18.62 C-6.99 21.95, -17.29 19.77, -20.02 20" stroke="#1e1e1e" stroke-width="4" fill="none"></path></g></g><mask></mask><g stroke-linecap="round"><g transform="translate(550.017455946881 330) rotate(0 -10.008727973440443 10.245970957545751)"><path d="M0 0 C-0.61 3.1, -0.32 15.29, -3.65 18.62 C-6.99 21.95, -17.29 19.77, -20.02 20 M0 0 C-0.61 3.1, -0.32 15.29, -3.65 18.62 C-6.99 21.95, -17.29 19.77, -20.02 20" stroke="#1e1e1e" stroke-width="4" fill="none"></path></g></g><mask></mask><g stroke-linecap="round"><g transform="translate(310 290) rotate(0 110 0)"><path d="M0 0 C36.67 0, 183.33 0, 220 0 M0 0 C36.67 0, 183.33 0, 220 0" stroke="#1e1e1e" stroke-width="4" fill="none"></path></g></g><mask></mask><g stroke-linecap="round"><g transform="translate(310 350) rotate(0 110 0)"><path d="M0 0 C36.67 0, 183.33 0, 220 0 M0 0 C36.67 0, 183.33 0, 220 0" stroke="#1e1e1e" stroke-width="4" fill="none"></path></g></g><mask></mask><g stroke-linecap="round"><g transform="translate(550.017455946881 390) rotate(0 -10.008727973440443 10.245970957545751)"><path d="M0 0 C-0.61 3.1, -0.32 15.29, -3.65 18.62 C-6.99 21.95, -17.29 19.77, -20.02 20 M0 0 C-0.61 3.1, -0.32 15.29, -3.65 18.62 C-6.99 21.95, -17.29 19.77, -20.02 20" stroke="#1e1e1e" stroke-width="4" fill="none"></path></g></g><mask></mask><g stroke-linecap="round"><g transform="translate(550.017455946881 450) rotate(0 -10.008727973440443 10.245970957545751)"><path d="M0 0 C-0.61 3.1, -0.32 15.29, -3.65 18.62 C-6.99 21.95, -17.29 19.77, -20.02 20 M0 0 C-0.61 3.1, -0.32 15.29, -3.65 18.62 C-6.99 21.95, -17.29 19.77, -20.02 20" stroke="#1e1e1e" stroke-width="4" fill="none"></path></g></g><mask></mask><g stroke-linecap="round"><g transform="translate(310 410) rotate(0 110 0)"><path d="M0 0 C36.67 0, 183.33 0, 220 0 M0 0 C36.67 0, 183.33 0, 220 0" stroke="#1e1e1e" stroke-width="4" fill="none"></path></g></g><mask></mask><g stroke-linecap="round"><g transform="translate(310 470) rotate(0 110 0)"><path d="M0 0 C36.67 0, 183.33 0, 220 0 M0 0 C36.67 0, 183.33 0, 220 0" stroke="#1e1e1e" stroke-width="4" fill="none"></path></g></g><mask></mask><g stroke-linecap="round"><g transform="translate(550.017455946881 510) rotate(0 -10.008727973440443 10.245970957545751)"><path d="M0 0 C-0.61 3.1, -0.32 15.29, -3.65 18.62 C-6.99 21.95, -17.29 19.77, -20.02 20 M0 0 C-0.61 3.1, -0.32 15.29, -3.65 18.62 C-6.99 21.95, -17.29 19.77, -20.02 20" stroke="#1e1e1e" stroke-width="4" fill="none"></path></g></g><mask></mask><g stroke-linecap="round"><g transform="translate(550.017455946881 570) rotate(0 -10.008727973440443 10.245970957545751)"><path d="M0 0 C-0.61 3.1, -0.32 15.29, -3.65 18.62 C-6.99 21.95, -17.29 19.77, -20.02 20 M0 0 C-0.61 3.1, -0.32 15.29, -3.65 18.62 C-6.99 21.95, -17.29 19.77, -20.02 20" stroke="#1e1e1e" stroke-width="4" fill="none"></path></g></g><mask></mask><g stroke-linecap="round"><g transform="translate(310 530) rotate(0 110 0)"><path d="M0 0 C36.67 0, 183.33 0, 220 0 M0 0 C36.67 0, 183.33 0, 220 0" stroke="#1e1e1e" stroke-width="4" fill="none"></path></g></g><mask></mask><g stroke-linecap="round"><g transform="translate(310 590) rotate(0 110 0)"><path d="M0 0 C36.67 0, 183.33 0, 220 0 M0 0 C36.67 0, 183.33 0, 220 0" stroke="#1e1e1e" stroke-width="4" fill="none"></path></g></g><mask></mask><g stroke-linecap="round"><g transform="translate(550.017455946881 630) rotate(0 -10.008727973440443 10.245970957545751)"><path d="M0 0 C-0.61 3.1, -0.32 15.29, -3.65 18.62 C-6.99 21.95, -17.29 19.77, -20.02 20 M0 0 C-0.61 3.1, -0.32 15.29, -3.65 18.62 C-6.99 21.95, -17.29 19.77, -20.02 20" stroke="#1e1e1e" stroke-width="4" fill="none"></path></g></g><mask></mask><g stroke-linecap="round"><g transform="translate(310 650) rotate(0 110 0)"><path d="M0 0 C36.67 0, 183.33 0, 220 0 M0 0 C36.67 0, 183.33 0, 220 0" stroke="#1e1e1e" stroke-width="4" fill="none"></path></g></g><mask></mask><g stroke-linecap="round"><g transform="translate(10 50) rotate(0 20 0)"><path d="M0 0 C6.67 0, 33.33 0, 40 0 M0 0 C6.67 0, 33.33 0, 40 0" stroke="#1e1e1e" stroke-width="4" fill="none"></path></g><g transform="translate(10 50) rotate(0 20 0)"><path d="M21.21 6.84 C28.34 4.24, 35.48 1.64, 40 0 M21.21 6.84 C28.11 4.33, 35 1.82, 40 0" stroke="#1e1e1e" stroke-width="4" fill="none"></path></g><g transform="translate(10 50) rotate(0 20 0)"><path d="M21.21 -6.84 C28.34 -4.24, 35.48 -1.64, 40 0 M21.21 -6.84 C28.11 -4.33, 35 -1.82, 40 0" stroke="#1e1e1e" stroke-width="4" fill="none"></path></g></g><mask></mask><g transform="translate(30 10) rotate(0 27.89997100830078 12.5)"><text x="0" y="0" font-family="Virgil, Segoe UI Emoji" font-size="20px" fill="#1e1e1e" text-anchor="start" style="white-space: pre;" direction="ltr" dominant-baseline="text-before-edge">String</text></g><g stroke-linecap="round" transform="translate(90 30) rotate(0 20 21)"><path d="M40 21 C40 22.22, 39.9 23.45, 39.7 24.65 C39.5 25.84, 39.19 27.04, 38.79 28.18 C38.4 29.32, 37.9 30.45, 37.32 31.5 C36.74 32.55, 36.07 33.57, 35.32 34.5 C34.58 35.43, 33.74 36.31, 32.86 37.09 C31.97 37.87, 31 38.58, 30 39.19 C29 39.79, 27.93 40.32, 26.84 40.73 C25.75 41.15, 24.61 41.47, 23.47 41.68 C22.33 41.89, 21.16 42, 20 42 C18.84 42, 17.67 41.89, 16.53 41.68 C15.39 41.47, 14.25 41.15, 13.16 40.73 C12.07 40.32, 11 39.79, 10 39.19 C9 38.58, 8.03 37.87, 7.14 37.09 C6.26 36.31, 5.42 35.43, 4.68 34.5 C3.93 33.57, 3.26 32.55, 2.68 31.5 C2.1 30.45, 1.6 29.32, 1.21 28.18 C0.81 27.04, 0.5 25.84, 0.3 24.65 C0.1 23.45, 0 22.22, 0 21 C0 19.78, 0.1 18.55, 0.3 17.35 C0.5 16.16, 0.81 14.96, 1.21 13.82 C1.6 12.68, 2.1 11.55, 2.68 10.5 C3.26 9.45, 3.93 8.43, 4.68 7.5 C5.42 6.57, 6.26 5.69, 7.14 4.91 C8.03 4.13, 9 3.42, 10 2.81 C11 2.21, 12.07 1.68, 13.16 1.27 C14.25 0.85, 15.39 0.53, 16.53 0.32 C17.67 0.11, 18.84 0, 20 0 C21.16 0, 22.33 0.11, 23.47 0.32 C24.61 0.53, 25.75 0.85, 26.84 1.27 C27.93 1.68, 29 2.21, 30 2.81 C31 3.42, 31.97 4.13, 32.86 4.91 C33.74 5.69, 34.58 6.57, 35.32 7.5 C36.07 8.43, 36.74 9.45, 37.32 10.5 C37.9 11.55, 38.4 12.68, 38.79 13.82 C39.19 14.96, 39.5 16.16, 39.7 17.35 C39.9 18.55, 39.95 20.39, 40 21 C40.05 21.61, 40.05 20.39, 40 21" stroke="none" stroke-width="0" fill="#ffffff"></path><path d="M40 21 C40 22.22, 39.9 23.45, 39.7 24.65 C39.5 25.84, 39.19 27.04, 38.79 28.18 C38.4 29.32, 37.9 30.45, 37.32 31.5 C36.74 32.55, 36.07 33.57, 35.32 34.5 C34.58 35.43, 33.74 36.31, 32.86 37.09 C31.97 37.87, 31 38.58, 30 39.19 C29 39.79, 27.93 40.32, 26.84 40.73 C25.75 41.15, 24.61 41.47, 23.47 41.68 C22.33 41.89, 21.16 42, 20 42 C18.84 42, 17.67 41.89, 16.53 41.68 C15.39 41.47, 14.25 41.15, 13.16 40.73 C12.07 40.32, 11 39.79, 10 39.19 C9 38.58, 8.03 37.87, 7.14 37.09 C6.26 36.31, 5.42 35.43, 4.68 34.5 C3.93 33.57, 3.26 32.55, 2.68 31.5 C2.1 30.45, 1.6 29.32, 1.21 28.18 C0.81 27.04, 0.5 25.84, 0.3 24.65 C0.1 23.45, 0 22.22, 0 21 C0 19.78, 0.1 18.55, 0.3 17.35 C0.5 16.16, 0.81 14.96, 1.21 13.82 C1.6 12.68, 2.1 11.55, 2.68 10.5 C3.26 9.45, 3.93 8.43, 4.68 7.5 C5.42 6.57, 6.26 5.69, 7.14 4.91 C8.03 4.13, 9 3.42, 10 2.81 C11 2.21, 12.07 1.68, 13.16 1.27 C14.25 0.85, 15.39 0.53, 16.53 0.32 C17.67 0.11, 18.84 0, 20 0 C21.16 0, 22.33 0.11, 23.47 0.32 C24.61 0.53, 25.75 0.85, 26.84 1.27 C27.93 1.68, 29 2.21, 30 2.81 C31 3.42, 31.97 4.13, 32.86 4.91 C33.74 5.69, 34.58 6.57, 35.32 7.5 C36.07 8.43, 36.74 9.45, 37.32 10.5 C37.9 11.55, 38.4 12.68, 38.79 13.82 C39.19 14.96, 39.5 16.16, 39.7 17.35 C39.9 18.55, 39.95 20.39, 40 21 C40.05 21.61, 40.05 20.39, 40 21" stroke="#1e1e1e" stroke-width="1" fill="none"></path></g><g transform="translate(105.75386809941358 41.150757595082496) rotate(0 4.103996276855469 10)"><text x="4.103996276855469" y="0" font-family="Virgil, Segoe UI Emoji" font-size="16px" fill="#1e1e1e" text-anchor="middle" style="white-space: pre;" direction="ltr" dominant-baseline="text-before-edge">”</text></g><g stroke-linecap="round" transform="translate(650 30) rotate(0 20 21)"><path d="M40 21 C40 22.22, 39.9 23.45, 39.7 24.65 C39.5 25.84, 39.19 27.04, 38.79 28.18 C38.4 29.32, 37.9 30.45, 37.32 31.5 C36.74 32.55, 36.07 33.57, 35.32 34.5 C34.58 35.43, 33.74 36.31, 32.86 37.09 C31.97 37.87, 31 38.58, 30 39.19 C29 39.79, 27.93 40.32, 26.84 40.73 C25.75 41.15, 24.61 41.47, 23.47 41.68 C22.33 41.89, 21.16 42, 20 42 C18.84 42, 17.67 41.89, 16.53 41.68 C15.39 41.47, 14.25 41.15, 13.16 40.73 C12.07 40.32, 11 39.79, 10 39.19 C9 38.58, 8.03 37.87, 7.14 37.09 C6.26 36.31, 5.42 35.43, 4.68 34.5 C3.93 33.57, 3.26 32.55, 2.68 31.5 C2.1 30.45, 1.6 29.32, 1.21 28.18 C0.81 27.04, 0.5 25.84, 0.3 24.65 C0.1 23.45, 0 22.22, 0 21 C0 19.78, 0.1 18.55, 0.3 17.35 C0.5 16.16, 0.81 14.96, 1.21 13.82 C1.6 12.68, 2.1 11.55, 2.68 10.5 C3.26 9.45, 3.93 8.43, 4.68 7.5 C5.42 6.57, 6.26 5.69, 7.14 4.91 C8.03 4.13, 9 3.42, 10 2.81 C11 2.21, 12.07 1.68, 13.16 1.27 C14.25 0.85, 15.39 0.53, 16.53 0.32 C17.67 0.11, 18.84 0, 20 0 C21.16 0, 22.33 0.11, 23.47 0.32 C24.61 0.53, 25.75 0.85, 26.84 1.27 C27.93 1.68, 29 2.21, 30 2.81 C31 3.42, 31.97 4.13, 32.86 4.91 C33.74 5.69, 34.58 6.57, 35.32 7.5 C36.07 8.43, 36.74 9.45, 37.32 10.5 C37.9 11.55, 38.4 12.68, 38.79 13.82 C39.19 14.96, 39.5 16.16, 39.7 17.35 C39.9 18.55, 39.95 20.39, 40 21 C40.05 21.61, 40.05 20.39, 40 21" stroke="none" stroke-width="0" fill="#ffffff"></path><path d="M40 21 C40 22.22, 39.9 23.45, 39.7 24.65 C39.5 25.84, 39.19 27.04, 38.79 28.18 C38.4 29.32, 37.9 30.45, 37.32 31.5 C36.74 32.55, 36.07 33.57, 35.32 34.5 C34.58 35.43, 33.74 36.31, 32.86 37.09 C31.97 37.87, 31 38.58, 30 39.19 C29 39.79, 27.93 40.32, 26.84 40.73 C25.75 41.15, 24.61 41.47, 23.47 41.68 C22.33 41.89, 21.16 42, 20 42 C18.84 42, 17.67 41.89, 16.53 41.68 C15.39 41.47, 14.25 41.15, 13.16 40.73 C12.07 40.32, 11 39.79, 10 39.19 C9 38.58, 8.03 37.87, 7.14 37.09 C6.26 36.31, 5.42 35.43, 4.68 34.5 C3.93 33.57, 3.26 32.55, 2.68 31.5 C2.1 30.45, 1.6 29.32, 1.21 28.18 C0.81 27.04, 0.5 25.84, 0.3 24.65 C0.1 23.45, 0 22.22, 0 21 C0 19.78, 0.1 18.55, 0.3 17.35 C0.5 16.16, 0.81 14.96, 1.21 13.82 C1.6 12.68, 2.1 11.55, 2.68 10.5 C3.26 9.45, 3.93 8.43, 4.68 7.5 C5.42 6.57, 6.26 5.69, 7.14 4.91 C8.03 4.13, 9 3.42, 10 2.81 C11 2.21, 12.07 1.68, 13.16 1.27 C14.25 0.85, 15.39 0.53, 16.53 0.32 C17.67 0.11, 18.84 0, 20 0 C21.16 0, 22.33 0.11, 23.47 0.32 C24.61 0.53, 25.75 0.85, 26.84 1.27 C27.93 1.68, 29 2.21, 30 2.81 C31 3.42, 31.97 4.13, 32.86 4.91 C33.74 5.69, 34.58 6.57, 35.32 7.5 C36.07 8.43, 36.74 9.45, 37.32 10.5 C37.9 11.55, 38.4 12.68, 38.79 13.82 C39.19 14.96, 39.5 16.16, 39.7 17.35 C39.9 18.55, 39.95 20.39, 40 21 C40.05 21.61, 40.05 20.39, 40 21" stroke="#1e1e1e" stroke-width="1" fill="none"></path></g><g transform="translate(665.7538680994135 41.150757595082496) rotate(0 4.103996276855469 10)"><text x="4.103996276855469" y="0" font-family="Virgil, Segoe UI Emoji" font-size="16px" fill="#1e1e1e" text-anchor="middle" style="white-space: pre;" direction="ltr" dominant-baseline="text-before-edge">”</text></g><g stroke-linecap="round" transform="translate(250 70) rotate(0 130 30)"><path d="M15 0 L248.52 0.23 L251.56 0.94 L256.25 3.75 L259.06 8.44 L260 15 L259.77 48.52 L259.06 51.56 L256.25 56.25 L251.56 59.06 L245 60 L11.48 59.77 L5.86 57.89 L3.75 56.25 L0.94 51.56 L0 45 L0 15 L0.94 8.44 L3.75 3.75 L8.44 0.94 L15 0" stroke="none" stroke-width="0" fill="#ffffff"></path><path d="M15 0 M15 0 C104.34 0, 193.68 0, 245 0 M15 0 C92.8 0, 170.59 0, 245 0 M245 0 C255 0, 260 5, 260 15 M245 0 C255 0, 260 5, 260 15 M260 15 C260 24.33, 260 33.67, 260 45 M260 15 C260 25.4, 260 35.8, 260 45 M260 45 C260 55, 255 60, 245 60 M260 45 C260 55, 255 60, 245 60 M245 60 C187.83 60, 130.66 60, 15 60 M245 60 C162.58 60, 80.16 60, 15 60 M15 60 C5 60, 0 55, 0 45 M15 60 C5 60, 0 55, 0 45 M0 45 C0 35.06, 0 25.11, 0 15 M0 45 C0 35.35, 0 25.71, 0 15 M0 15 C0 5, 5 0, 15 0 M0 15 C0 5, 5 0, 15 0" stroke="#1e1e1e" stroke-width="1" fill="none"></path></g><g transform="translate(260 80) rotate(0 120 20)"><text x="120" y="0" font-family="Virgil, Segoe UI Emoji" font-size="16px" fill="#1e1e1e" text-anchor="middle" style="white-space: pre;" direction="ltr" dominant-baseline="text-before-edge">除双引号、反斜杠和控制字符之外</text><text x="120" y="20" font-family="Virgil, Segoe UI Emoji" font-size="16px" fill="#1e1e1e" text-anchor="middle" style="white-space: pre;" direction="ltr" dominant-baseline="text-before-edge">的任意码点</text></g><g stroke-linecap="round" transform="translate(230 150) rotate(0 20 21)"><path d="M40 21 C40 22.22, 39.9 23.45, 39.7 24.65 C39.5 25.84, 39.19 27.04, 38.79 28.18 C38.4 29.32, 37.9 30.45, 37.32 31.5 C36.74 32.55, 36.07 33.57, 35.32 34.5 C34.58 35.43, 33.74 36.31, 32.86 37.09 C31.97 37.87, 31 38.58, 30 39.19 C29 39.79, 27.93 40.32, 26.84 40.73 C25.75 41.15, 24.61 41.47, 23.47 41.68 C22.33 41.89, 21.16 42, 20 42 C18.84 42, 17.67 41.89, 16.53 41.68 C15.39 41.47, 14.25 41.15, 13.16 40.73 C12.07 40.32, 11 39.79, 10 39.19 C9 38.58, 8.03 37.87, 7.14 37.09 C6.26 36.31, 5.42 35.43, 4.68 34.5 C3.93 33.57, 3.26 32.55, 2.68 31.5 C2.1 30.45, 1.6 29.32, 1.21 28.18 C0.81 27.04, 0.5 25.84, 0.3 24.65 C0.1 23.45, 0 22.22, 0 21 C0 19.78, 0.1 18.55, 0.3 17.35 C0.5 16.16, 0.81 14.96, 1.21 13.82 C1.6 12.68, 2.1 11.55, 2.68 10.5 C3.26 9.45, 3.93 8.43, 4.68 7.5 C5.42 6.57, 6.26 5.69, 7.14 4.91 C8.03 4.13, 9 3.42, 10 2.81 C11 2.21, 12.07 1.68, 13.16 1.27 C14.25 0.85, 15.39 0.53, 16.53 0.32 C17.67 0.11, 18.84 0, 20 0 C21.16 0, 22.33 0.11, 23.47 0.32 C24.61 0.53, 25.75 0.85, 26.84 1.27 C27.93 1.68, 29 2.21, 30 2.81 C31 3.42, 31.97 4.13, 32.86 4.91 C33.74 5.69, 34.58 6.57, 35.32 7.5 C36.07 8.43, 36.74 9.45, 37.32 10.5 C37.9 11.55, 38.4 12.68, 38.79 13.82 C39.19 14.96, 39.5 16.16, 39.7 17.35 C39.9 18.55, 39.95 20.39, 40 21 C40.05 21.61, 40.05 20.39, 40 21" stroke="none" stroke-width="0" fill="#ffffff"></path><path d="M40 21 C40 22.22, 39.9 23.45, 39.7 24.65 C39.5 25.84, 39.19 27.04, 38.79 28.18 C38.4 29.32, 37.9 30.45, 37.32 31.5 C36.74 32.55, 36.07 33.57, 35.32 34.5 C34.58 35.43, 33.74 36.31, 32.86 37.09 C31.97 37.87, 31 38.58, 30 39.19 C29 39.79, 27.93 40.32, 26.84 40.73 C25.75 41.15, 24.61 41.47, 23.47 41.68 C22.33 41.89, 21.16 42, 20 42 C18.84 42, 17.67 41.89, 16.53 41.68 C15.39 41.47, 14.25 41.15, 13.16 40.73 C12.07 40.32, 11 39.79, 10 39.19 C9 38.58, 8.03 37.87, 7.14 37.09 C6.26 36.31, 5.42 35.43, 4.68 34.5 C3.93 33.57, 3.26 32.55, 2.68 31.5 C2.1 30.45, 1.6 29.32, 1.21 28.18 C0.81 27.04, 0.5 25.84, 0.3 24.65 C0.1 23.45, 0 22.22, 0 21 C0 19.78, 0.1 18.55, 0.3 17.35 C0.5 16.16, 0.81 14.96, 1.21 13.82 C1.6 12.68, 2.1 11.55, 2.68 10.5 C3.26 9.45, 3.93 8.43, 4.68 7.5 C5.42 6.57, 6.26 5.69, 7.14 4.91 C8.03 4.13, 9 3.42, 10 2.81 C11 2.21, 12.07 1.68, 13.16 1.27 C14.25 0.85, 15.39 0.53, 16.53 0.32 C17.67 0.11, 18.84 0, 20 0 C21.16 0, 22.33 0.11, 23.47 0.32 C24.61 0.53, 25.75 0.85, 26.84 1.27 C27.93 1.68, 29 2.21, 30 2.81 C31 3.42, 31.97 4.13, 32.86 4.91 C33.74 5.69, 34.58 6.57, 35.32 7.5 C36.07 8.43, 36.74 9.45, 37.32 10.5 C37.9 11.55, 38.4 12.68, 38.79 13.82 C39.19 14.96, 39.5 16.16, 39.7 17.35 C39.9 18.55, 39.95 20.39, 40 21 C40.05 21.61, 40.05 20.39, 40 21" stroke="#1e1e1e" stroke-width="1" fill="none"></path></g><g transform="translate(245.85786437626905 161.1507575950825) rotate(0 4 10)"><text x="4" y="0" font-family="Virgil, Segoe UI Emoji" font-size="16px" fill="#1e1e1e" text-anchor="middle" style="white-space: pre;" direction="ltr" dominant-baseline="text-before-edge">\</text></g><g stroke-linecap="round" transform="translate(310 150) rotate(0 20 21)"><path d="M40 21 C40 22.22, 39.9 23.45, 39.7 24.65 C39.5 25.84, 39.19 27.04, 38.79 28.18 C38.4 29.32, 37.9 30.45, 37.32 31.5 C36.74 32.55, 36.07 33.57, 35.32 34.5 C34.58 35.43, 33.74 36.31, 32.86 37.09 C31.97 37.87, 31 38.58, 30 39.19 C29 39.79, 27.93 40.32, 26.84 40.73 C25.75 41.15, 24.61 41.47, 23.47 41.68 C22.33 41.89, 21.16 42, 20 42 C18.84 42, 17.67 41.89, 16.53 41.68 C15.39 41.47, 14.25 41.15, 13.16 40.73 C12.07 40.32, 11 39.79, 10 39.19 C9 38.58, 8.03 37.87, 7.14 37.09 C6.26 36.31, 5.42 35.43, 4.68 34.5 C3.93 33.57, 3.26 32.55, 2.68 31.5 C2.1 30.45, 1.6 29.32, 1.21 28.18 C0.81 27.04, 0.5 25.84, 0.3 24.65 C0.1 23.45, 0 22.22, 0 21 C0 19.78, 0.1 18.55, 0.3 17.35 C0.5 16.16, 0.81 14.96, 1.21 13.82 C1.6 12.68, 2.1 11.55, 2.68 10.5 C3.26 9.45, 3.93 8.43, 4.68 7.5 C5.42 6.57, 6.26 5.69, 7.14 4.91 C8.03 4.13, 9 3.42, 10 2.81 C11 2.21, 12.07 1.68, 13.16 1.27 C14.25 0.85, 15.39 0.53, 16.53 0.32 C17.67 0.11, 18.84 0, 20 0 C21.16 0, 22.33 0.11, 23.47 0.32 C24.61 0.53, 25.75 0.85, 26.84 1.27 C27.93 1.68, 29 2.21, 30 2.81 C31 3.42, 31.97 4.13, 32.86 4.91 C33.74 5.69, 34.58 6.57, 35.32 7.5 C36.07 8.43, 36.74 9.45, 37.32 10.5 C37.9 11.55, 38.4 12.68, 38.79 13.82 C39.19 14.96, 39.5 16.16, 39.7 17.35 C39.9 18.55, 39.95 20.39, 40 21 C40.05 21.61, 40.05 20.39, 40 21" stroke="none" stroke-width="0" fill="#ffffff"></path><path d="M40 21 C40 22.22, 39.9 23.45, 39.7 24.65 C39.5 25.84, 39.19 27.04, 38.79 28.18 C38.4 29.32, 37.9 30.45, 37.32 31.5 C36.74 32.55, 36.07 33.57, 35.32 34.5 C34.58 35.43, 33.74 36.31, 32.86 37.09 C31.97 37.87, 31 38.58, 30 39.19 C29 39.79, 27.93 40.32, 26.84 40.73 C25.75 41.15, 24.61 41.47, 23.47 41.68 C22.33 41.89, 21.16 42, 20 42 C18.84 42, 17.67 41.89, 16.53 41.68 C15.39 41.47, 14.25 41.15, 13.16 40.73 C12.07 40.32, 11 39.79, 10 39.19 C9 38.58, 8.03 37.87, 7.14 37.09 C6.26 36.31, 5.42 35.43, 4.68 34.5 C3.93 33.57, 3.26 32.55, 2.68 31.5 C2.1 30.45, 1.6 29.32, 1.21 28.18 C0.81 27.04, 0.5 25.84, 0.3 24.65 C0.1 23.45, 0 22.22, 0 21 C0 19.78, 0.1 18.55, 0.3 17.35 C0.5 16.16, 0.81 14.96, 1.21 13.82 C1.6 12.68, 2.1 11.55, 2.68 10.5 C3.26 9.45, 3.93 8.43, 4.68 7.5 C5.42 6.57, 6.26 5.69, 7.14 4.91 C8.03 4.13, 9 3.42, 10 2.81 C11 2.21, 12.07 1.68, 13.16 1.27 C14.25 0.85, 15.39 0.53, 16.53 0.32 C17.67 0.11, 18.84 0, 20 0 C21.16 0, 22.33 0.11, 23.47 0.32 C24.61 0.53, 25.75 0.85, 26.84 1.27 C27.93 1.68, 29 2.21, 30 2.81 C31 3.42, 31.97 4.13, 32.86 4.91 C33.74 5.69, 34.58 6.57, 35.32 7.5 C36.07 8.43, 36.74 9.45, 37.32 10.5 C37.9 11.55, 38.4 12.68, 38.79 13.82 C39.19 14.96, 39.5 16.16, 39.7 17.35 C39.9 18.55, 39.95 20.39, 40 21 C40.05 21.61, 40.05 20.39, 40 21" stroke="#1e1e1e" stroke-width="1" fill="none"></path></g><g transform="translate(325.7538680994136 161.1507575950825) rotate(0 4.103996276855469 10)"><text x="4.103996276855469" y="0" font-family="Virgil, Segoe UI Emoji" font-size="16px" fill="#1e1e1e" text-anchor="middle" style="white-space: pre;" direction="ltr" dominant-baseline="text-before-edge">”</text></g><g stroke-linecap="round" transform="translate(310 210) rotate(0 20 21)"><path d="M40 21 C40 22.22, 39.9 23.45, 39.7 24.65 C39.5 25.84, 39.19 27.04, 38.79 28.18 C38.4 29.32, 37.9 30.45, 37.32 31.5 C36.74 32.55, 36.07 33.57, 35.32 34.5 C34.58 35.43, 33.74 36.31, 32.86 37.09 C31.97 37.87, 31 38.58, 30 39.19 C29 39.79, 27.93 40.32, 26.84 40.73 C25.75 41.15, 24.61 41.47, 23.47 41.68 C22.33 41.89, 21.16 42, 20 42 C18.84 42, 17.67 41.89, 16.53 41.68 C15.39 41.47, 14.25 41.15, 13.16 40.73 C12.07 40.32, 11 39.79, 10 39.19 C9 38.58, 8.03 37.87, 7.14 37.09 C6.26 36.31, 5.42 35.43, 4.68 34.5 C3.93 33.57, 3.26 32.55, 2.68 31.5 C2.1 30.45, 1.6 29.32, 1.21 28.18 C0.81 27.04, 0.5 25.84, 0.3 24.65 C0.1 23.45, 0 22.22, 0 21 C0 19.78, 0.1 18.55, 0.3 17.35 C0.5 16.16, 0.81 14.96, 1.21 13.82 C1.6 12.68, 2.1 11.55, 2.68 10.5 C3.26 9.45, 3.93 8.43, 4.68 7.5 C5.42 6.57, 6.26 5.69, 7.14 4.91 C8.03 4.13, 9 3.42, 10 2.81 C11 2.21, 12.07 1.68, 13.16 1.27 C14.25 0.85, 15.39 0.53, 16.53 0.32 C17.67 0.11, 18.84 0, 20 0 C21.16 0, 22.33 0.11, 23.47 0.32 C24.61 0.53, 25.75 0.85, 26.84 1.27 C27.93 1.68, 29 2.21, 30 2.81 C31 3.42, 31.97 4.13, 32.86 4.91 C33.74 5.69, 34.58 6.57, 35.32 7.5 C36.07 8.43, 36.74 9.45, 37.32 10.5 C37.9 11.55, 38.4 12.68, 38.79 13.82 C39.19 14.96, 39.5 16.16, 39.7 17.35 C39.9 18.55, 39.95 20.39, 40 21 C40.05 21.61, 40.05 20.39, 40 21" stroke="none" stroke-width="0" fill="#ffffff"></path><path d="M40 21 C40 22.22, 39.9 23.45, 39.7 24.65 C39.5 25.84, 39.19 27.04, 38.79 28.18 C38.4 29.32, 37.9 30.45, 37.32 31.5 C36.74 32.55, 36.07 33.57, 35.32 34.5 C34.58 35.43, 33.74 36.31, 32.86 37.09 C31.97 37.87, 31 38.58, 30 39.19 C29 39.79, 27.93 40.32, 26.84 40.73 C25.75 41.15, 24.61 41.47, 23.47 41.68 C22.33 41.89, 21.16 42, 20 42 C18.84 42, 17.67 41.89, 16.53 41.68 C15.39 41.47, 14.25 41.15, 13.16 40.73 C12.07 40.32, 11 39.79, 10 39.19 C9 38.58, 8.03 37.87, 7.14 37.09 C6.26 36.31, 5.42 35.43, 4.68 34.5 C3.93 33.57, 3.26 32.55, 2.68 31.5 C2.1 30.45, 1.6 29.32, 1.21 28.18 C0.81 27.04, 0.5 25.84, 0.3 24.65 C0.1 23.45, 0 22.22, 0 21 C0 19.78, 0.1 18.55, 0.3 17.35 C0.5 16.16, 0.81 14.96, 1.21 13.82 C1.6 12.68, 2.1 11.55, 2.68 10.5 C3.26 9.45, 3.93 8.43, 4.68 7.5 C5.42 6.57, 6.26 5.69, 7.14 4.91 C8.03 4.13, 9 3.42, 10 2.81 C11 2.21, 12.07 1.68, 13.16 1.27 C14.25 0.85, 15.39 0.53, 16.53 0.32 C17.67 0.11, 18.84 0, 20 0 C21.16 0, 22.33 0.11, 23.47 0.32 C24.61 0.53, 25.75 0.85, 26.84 1.27 C27.93 1.68, 29 2.21, 30 2.81 C31 3.42, 31.97 4.13, 32.86 4.91 C33.74 5.69, 34.58 6.57, 35.32 7.5 C36.07 8.43, 36.74 9.45, 37.32 10.5 C37.9 11.55, 38.4 12.68, 38.79 13.82 C39.19 14.96, 39.5 16.16, 39.7 17.35 C39.9 18.55, 39.95 20.39, 40 21 C40.05 21.61, 40.05 20.39, 40 21" stroke="#1e1e1e" stroke-width="1" fill="none"></path></g><g transform="translate(325.85786437626905 221.1507575950825) rotate(0 4 10)"><text x="4" y="0" font-family="Virgil, Segoe UI Emoji" font-size="16px" fill="#1e1e1e" text-anchor="middle" style="white-space: pre;" direction="ltr" dominant-baseline="text-before-edge">\</text></g><g stroke-linecap="round" transform="translate(310 270) rotate(0 20 21)"><path d="M40 21 C40 22.22, 39.9 23.45, 39.7 24.65 C39.5 25.84, 39.19 27.04, 38.79 28.18 C38.4 29.32, 37.9 30.45, 37.32 31.5 C36.74 32.55, 36.07 33.57, 35.32 34.5 C34.58 35.43, 33.74 36.31, 32.86 37.09 C31.97 37.87, 31 38.58, 30 39.19 C29 39.79, 27.93 40.32, 26.84 40.73 C25.75 41.15, 24.61 41.47, 23.47 41.68 C22.33 41.89, 21.16 42, 20 42 C18.84 42, 17.67 41.89, 16.53 41.68 C15.39 41.47, 14.25 41.15, 13.16 40.73 C12.07 40.32, 11 39.79, 10 39.19 C9 38.58, 8.03 37.87, 7.14 37.09 C6.26 36.31, 5.42 35.43, 4.68 34.5 C3.93 33.57, 3.26 32.55, 2.68 31.5 C2.1 30.45, 1.6 29.32, 1.21 28.18 C0.81 27.04, 0.5 25.84, 0.3 24.65 C0.1 23.45, 0 22.22, 0 21 C0 19.78, 0.1 18.55, 0.3 17.35 C0.5 16.16, 0.81 14.96, 1.21 13.82 C1.6 12.68, 2.1 11.55, 2.68 10.5 C3.26 9.45, 3.93 8.43, 4.68 7.5 C5.42 6.57, 6.26 5.69, 7.14 4.91 C8.03 4.13, 9 3.42, 10 2.81 C11 2.21, 12.07 1.68, 13.16 1.27 C14.25 0.85, 15.39 0.53, 16.53 0.32 C17.67 0.11, 18.84 0, 20 0 C21.16 0, 22.33 0.11, 23.47 0.32 C24.61 0.53, 25.75 0.85, 26.84 1.27 C27.93 1.68, 29 2.21, 30 2.81 C31 3.42, 31.97 4.13, 32.86 4.91 C33.74 5.69, 34.58 6.57, 35.32 7.5 C36.07 8.43, 36.74 9.45, 37.32 10.5 C37.9 11.55, 38.4 12.68, 38.79 13.82 C39.19 14.96, 39.5 16.16, 39.7 17.35 C39.9 18.55, 39.95 20.39, 40 21 C40.05 21.61, 40.05 20.39, 40 21" stroke="none" stroke-width="0" fill="#ffffff"></path><path d="M40 21 C40 22.22, 39.9 23.45, 39.7 24.65 C39.5 25.84, 39.19 27.04, 38.79 28.18 C38.4 29.32, 37.9 30.45, 37.32 31.5 C36.74 32.55, 36.07 33.57, 35.32 34.5 C34.58 35.43, 33.74 36.31, 32.86 37.09 C31.97 37.87, 31 38.58, 30 39.19 C29 39.79, 27.93 40.32, 26.84 40.73 C25.75 41.15, 24.61 41.47, 23.47 41.68 C22.33 41.89, 21.16 42, 20 42 C18.84 42, 17.67 41.89, 16.53 41.68 C15.39 41.47, 14.25 41.15, 13.16 40.73 C12.07 40.32, 11 39.79, 10 39.19 C9 38.58, 8.03 37.87, 7.14 37.09 C6.26 36.31, 5.42 35.43, 4.68 34.5 C3.93 33.57, 3.26 32.55, 2.68 31.5 C2.1 30.45, 1.6 29.32, 1.21 28.18 C0.81 27.04, 0.5 25.84, 0.3 24.65 C0.1 23.45, 0 22.22, 0 21 C0 19.78, 0.1 18.55, 0.3 17.35 C0.5 16.16, 0.81 14.96, 1.21 13.82 C1.6 12.68, 2.1 11.55, 2.68 10.5 C3.26 9.45, 3.93 8.43, 4.68 7.5 C5.42 6.57, 6.26 5.69, 7.14 4.91 C8.03 4.13, 9 3.42, 10 2.81 C11 2.21, 12.07 1.68, 13.16 1.27 C14.25 0.85, 15.39 0.53, 16.53 0.32 C17.67 0.11, 18.84 0, 20 0 C21.16 0, 22.33 0.11, 23.47 0.32 C24.61 0.53, 25.75 0.85, 26.84 1.27 C27.93 1.68, 29 2.21, 30 2.81 C31 3.42, 31.97 4.13, 32.86 4.91 C33.74 5.69, 34.58 6.57, 35.32 7.5 C36.07 8.43, 36.74 9.45, 37.32 10.5 C37.9 11.55, 38.4 12.68, 38.79 13.82 C39.19 14.96, 39.5 16.16, 39.7 17.35 C39.9 18.55, 39.95 20.39, 40 21 C40.05 21.61, 40.05 20.39, 40 21" stroke="#1e1e1e" stroke-width="1" fill="none"></path></g><g transform="translate(325.85786437626905 281.1507575950825) rotate(0 4 10)"><text x="4" y="0" font-family="Virgil, Segoe UI Emoji" font-size="16px" fill="#1e1e1e" text-anchor="middle" style="white-space: pre;" direction="ltr" dominant-baseline="text-before-edge">/</text></g><g stroke-linecap="round" transform="translate(310 330) rotate(0 20 21)"><path d="M40 21 C40 22.22, 39.9 23.45, 39.7 24.65 C39.5 25.84, 39.19 27.04, 38.79 28.18 C38.4 29.32, 37.9 30.45, 37.32 31.5 C36.74 32.55, 36.07 33.57, 35.32 34.5 C34.58 35.43, 33.74 36.31, 32.86 37.09 C31.97 37.87, 31 38.58, 30 39.19 C29 39.79, 27.93 40.32, 26.84 40.73 C25.75 41.15, 24.61 41.47, 23.47 41.68 C22.33 41.89, 21.16 42, 20 42 C18.84 42, 17.67 41.89, 16.53 41.68 C15.39 41.47, 14.25 41.15, 13.16 40.73 C12.07 40.32, 11 39.79, 10 39.19 C9 38.58, 8.03 37.87, 7.14 37.09 C6.26 36.31, 5.42 35.43, 4.68 34.5 C3.93 33.57, 3.26 32.55, 2.68 31.5 C2.1 30.45, 1.6 29.32, 1.21 28.18 C0.81 27.04, 0.5 25.84, 0.3 24.65 C0.1 23.45, 0 22.22, 0 21 C0 19.78, 0.1 18.55, 0.3 17.35 C0.5 16.16, 0.81 14.96, 1.21 13.82 C1.6 12.68, 2.1 11.55, 2.68 10.5 C3.26 9.45, 3.93 8.43, 4.68 7.5 C5.42 6.57, 6.26 5.69, 7.14 4.91 C8.03 4.13, 9 3.42, 10 2.81 C11 2.21, 12.07 1.68, 13.16 1.27 C14.25 0.85, 15.39 0.53, 16.53 0.32 C17.67 0.11, 18.84 0, 20 0 C21.16 0, 22.33 0.11, 23.47 0.32 C24.61 0.53, 25.75 0.85, 26.84 1.27 C27.93 1.68, 29 2.21, 30 2.81 C31 3.42, 31.97 4.13, 32.86 4.91 C33.74 5.69, 34.58 6.57, 35.32 7.5 C36.07 8.43, 36.74 9.45, 37.32 10.5 C37.9 11.55, 38.4 12.68, 38.79 13.82 C39.19 14.96, 39.5 16.16, 39.7 17.35 C39.9 18.55, 39.95 20.39, 40 21 C40.05 21.61, 40.05 20.39, 40 21" stroke="none" stroke-width="0" fill="#ffffff"></path><path d="M40 21 C40 22.22, 39.9 23.45, 39.7 24.65 C39.5 25.84, 39.19 27.04, 38.79 28.18 C38.4 29.32, 37.9 30.45, 37.32 31.5 C36.74 32.55, 36.07 33.57, 35.32 34.5 C34.58 35.43, 33.74 36.31, 32.86 37.09 C31.97 37.87, 31 38.58, 30 39.19 C29 39.79, 27.93 40.32, 26.84 40.73 C25.75 41.15, 24.61 41.47, 23.47 41.68 C22.33 41.89, 21.16 42, 20 42 C18.84 42, 17.67 41.89, 16.53 41.68 C15.39 41.47, 14.25 41.15, 13.16 40.73 C12.07 40.32, 11 39.79, 10 39.19 C9 38.58, 8.03 37.87, 7.14 37.09 C6.26 36.31, 5.42 35.43, 4.68 34.5 C3.93 33.57, 3.26 32.55, 2.68 31.5 C2.1 30.45, 1.6 29.32, 1.21 28.18 C0.81 27.04, 0.5 25.84, 0.3 24.65 C0.1 23.45, 0 22.22, 0 21 C0 19.78, 0.1 18.55, 0.3 17.35 C0.5 16.16, 0.81 14.96, 1.21 13.82 C1.6 12.68, 2.1 11.55, 2.68 10.5 C3.26 9.45, 3.93 8.43, 4.68 7.5 C5.42 6.57, 6.26 5.69, 7.14 4.91 C8.03 4.13, 9 3.42, 10 2.81 C11 2.21, 12.07 1.68, 13.16 1.27 C14.25 0.85, 15.39 0.53, 16.53 0.32 C17.67 0.11, 18.84 0, 20 0 C21.16 0, 22.33 0.11, 23.47 0.32 C24.61 0.53, 25.75 0.85, 26.84 1.27 C27.93 1.68, 29 2.21, 30 2.81 C31 3.42, 31.97 4.13, 32.86 4.91 C33.74 5.69, 34.58 6.57, 35.32 7.5 C36.07 8.43, 36.74 9.45, 37.32 10.5 C37.9 11.55, 38.4 12.68, 38.79 13.82 C39.19 14.96, 39.5 16.16, 39.7 17.35 C39.9 18.55, 39.95 20.39, 40 21 C40.05 21.61, 40.05 20.39, 40 21" stroke="#1e1e1e" stroke-width="1" fill="none"></path></g><g transform="translate(325.7938690149409 341.1507575950825) rotate(0 4.063995361328125 10)"><text x="4.063995361328125" y="0" font-family="Virgil, Segoe UI Emoji" font-size="16px" fill="#1e1e1e" text-anchor="middle" style="white-space: pre;" direction="ltr" dominant-baseline="text-before-edge">b</text></g><g stroke-linecap="round" transform="translate(310 390) rotate(0 20 21)"><path d="M40 21 C40 22.22, 39.9 23.45, 39.7 24.65 C39.5 25.84, 39.19 27.04, 38.79 28.18 C38.4 29.32, 37.9 30.45, 37.32 31.5 C36.74 32.55, 36.07 33.57, 35.32 34.5 C34.58 35.43, 33.74 36.31, 32.86 37.09 C31.97 37.87, 31 38.58, 30 39.19 C29 39.79, 27.93 40.32, 26.84 40.73 C25.75 41.15, 24.61 41.47, 23.47 41.68 C22.33 41.89, 21.16 42, 20 42 C18.84 42, 17.67 41.89, 16.53 41.68 C15.39 41.47, 14.25 41.15, 13.16 40.73 C12.07 40.32, 11 39.79, 10 39.19 C9 38.58, 8.03 37.87, 7.14 37.09 C6.26 36.31, 5.42 35.43, 4.68 34.5 C3.93 33.57, 3.26 32.55, 2.68 31.5 C2.1 30.45, 1.6 29.32, 1.21 28.18 C0.81 27.04, 0.5 25.84, 0.3 24.65 C0.1 23.45, 0 22.22, 0 21 C0 19.78, 0.1 18.55, 0.3 17.35 C0.5 16.16, 0.81 14.96, 1.21 13.82 C1.6 12.68, 2.1 11.55, 2.68 10.5 C3.26 9.45, 3.93 8.43, 4.68 7.5 C5.42 6.57, 6.26 5.69, 7.14 4.91 C8.03 4.13, 9 3.42, 10 2.81 C11 2.21, 12.07 1.68, 13.16 1.27 C14.25 0.85, 15.39 0.53, 16.53 0.32 C17.67 0.11, 18.84 0, 20 0 C21.16 0, 22.33 0.11, 23.47 0.32 C24.61 0.53, 25.75 0.85, 26.84 1.27 C27.93 1.68, 29 2.21, 30 2.81 C31 3.42, 31.97 4.13, 32.86 4.91 C33.74 5.69, 34.58 6.57, 35.32 7.5 C36.07 8.43, 36.74 9.45, 37.32 10.5 C37.9 11.55, 38.4 12.68, 38.79 13.82 C39.19 14.96, 39.5 16.16, 39.7 17.35 C39.9 18.55, 39.95 20.39, 40 21 C40.05 21.61, 40.05 20.39, 40 21" stroke="none" stroke-width="0" fill="#ffffff"></path><path d="M40 21 C40 22.22, 39.9 23.45, 39.7 24.65 C39.5 25.84, 39.19 27.04, 38.79 28.18 C38.4 29.32, 37.9 30.45, 37.32 31.5 C36.74 32.55, 36.07 33.57, 35.32 34.5 C34.58 35.43, 33.74 36.31, 32.86 37.09 C31.97 37.87, 31 38.58, 30 39.19 C29 39.79, 27.93 40.32, 26.84 40.73 C25.75 41.15, 24.61 41.47, 23.47 41.68 C22.33 41.89, 21.16 42, 20 42 C18.84 42, 17.67 41.89, 16.53 41.68 C15.39 41.47, 14.25 41.15, 13.16 40.73 C12.07 40.32, 11 39.79, 10 39.19 C9 38.58, 8.03 37.87, 7.14 37.09 C6.26 36.31, 5.42 35.43, 4.68 34.5 C3.93 33.57, 3.26 32.55, 2.68 31.5 C2.1 30.45, 1.6 29.32, 1.21 28.18 C0.81 27.04, 0.5 25.84, 0.3 24.65 C0.1 23.45, 0 22.22, 0 21 C0 19.78, 0.1 18.55, 0.3 17.35 C0.5 16.16, 0.81 14.96, 1.21 13.82 C1.6 12.68, 2.1 11.55, 2.68 10.5 C3.26 9.45, 3.93 8.43, 4.68 7.5 C5.42 6.57, 6.26 5.69, 7.14 4.91 C8.03 4.13, 9 3.42, 10 2.81 C11 2.21, 12.07 1.68, 13.16 1.27 C14.25 0.85, 15.39 0.53, 16.53 0.32 C17.67 0.11, 18.84 0, 20 0 C21.16 0, 22.33 0.11, 23.47 0.32 C24.61 0.53, 25.75 0.85, 26.84 1.27 C27.93 1.68, 29 2.21, 30 2.81 C31 3.42, 31.97 4.13, 32.86 4.91 C33.74 5.69, 34.58 6.57, 35.32 7.5 C36.07 8.43, 36.74 9.45, 37.32 10.5 C37.9 11.55, 38.4 12.68, 38.79 13.82 C39.19 14.96, 39.5 16.16, 39.7 17.35 C39.9 18.55, 39.95 20.39, 40 21 C40.05 21.61, 40.05 20.39, 40 21" stroke="#1e1e1e" stroke-width="1" fill="none"></path></g><g transform="translate(325.96987151738233 401.1507575950825) rotate(0 3.8879928588867188 10)"><text x="3.8879928588867188" y="0" font-family="Virgil, Segoe UI Emoji" font-size="16px" fill="#1e1e1e" text-anchor="middle" style="white-space: pre;" direction="ltr" dominant-baseline="text-before-edge">f</text></g><g stroke-linecap="round" transform="translate(310 450) rotate(0 20 21)"><path d="M40 21 C40 22.22, 39.9 23.45, 39.7 24.65 C39.5 25.84, 39.19 27.04, 38.79 28.18 C38.4 29.32, 37.9 30.45, 37.32 31.5 C36.74 32.55, 36.07 33.57, 35.32 34.5 C34.58 35.43, 33.74 36.31, 32.86 37.09 C31.97 37.87, 31 38.58, 30 39.19 C29 39.79, 27.93 40.32, 26.84 40.73 C25.75 41.15, 24.61 41.47, 23.47 41.68 C22.33 41.89, 21.16 42, 20 42 C18.84 42, 17.67 41.89, 16.53 41.68 C15.39 41.47, 14.25 41.15, 13.16 40.73 C12.07 40.32, 11 39.79, 10 39.19 C9 38.58, 8.03 37.87, 7.14 37.09 C6.26 36.31, 5.42 35.43, 4.68 34.5 C3.93 33.57, 3.26 32.55, 2.68 31.5 C2.1 30.45, 1.6 29.32, 1.21 28.18 C0.81 27.04, 0.5 25.84, 0.3 24.65 C0.1 23.45, 0 22.22, 0 21 C0 19.78, 0.1 18.55, 0.3 17.35 C0.5 16.16, 0.81 14.96, 1.21 13.82 C1.6 12.68, 2.1 11.55, 2.68 10.5 C3.26 9.45, 3.93 8.43, 4.68 7.5 C5.42 6.57, 6.26 5.69, 7.14 4.91 C8.03 4.13, 9 3.42, 10 2.81 C11 2.21, 12.07 1.68, 13.16 1.27 C14.25 0.85, 15.39 0.53, 16.53 0.32 C17.67 0.11, 18.84 0, 20 0 C21.16 0, 22.33 0.11, 23.47 0.32 C24.61 0.53, 25.75 0.85, 26.84 1.27 C27.93 1.68, 29 2.21, 30 2.81 C31 3.42, 31.97 4.13, 32.86 4.91 C33.74 5.69, 34.58 6.57, 35.32 7.5 C36.07 8.43, 36.74 9.45, 37.32 10.5 C37.9 11.55, 38.4 12.68, 38.79 13.82 C39.19 14.96, 39.5 16.16, 39.7 17.35 C39.9 18.55, 39.95 20.39, 40 21 C40.05 21.61, 40.05 20.39, 40 21" stroke="none" stroke-width="0" fill="#ffffff"></path><path d="M40 21 C40 22.22, 39.9 23.45, 39.7 24.65 C39.5 25.84, 39.19 27.04, 38.79 28.18 C38.4 29.32, 37.9 30.45, 37.32 31.5 C36.74 32.55, 36.07 33.57, 35.32 34.5 C34.58 35.43, 33.74 36.31, 32.86 37.09 C31.97 37.87, 31 38.58, 30 39.19 C29 39.79, 27.93 40.32, 26.84 40.73 C25.75 41.15, 24.61 41.47, 23.47 41.68 C22.33 41.89, 21.16 42, 20 42 C18.84 42, 17.67 41.89, 16.53 41.68 C15.39 41.47, 14.25 41.15, 13.16 40.73 C12.07 40.32, 11 39.79, 10 39.19 C9 38.58, 8.03 37.87, 7.14 37.09 C6.26 36.31, 5.42 35.43, 4.68 34.5 C3.93 33.57, 3.26 32.55, 2.68 31.5 C2.1 30.45, 1.6 29.32, 1.21 28.18 C0.81 27.04, 0.5 25.84, 0.3 24.65 C0.1 23.45, 0 22.22, 0 21 C0 19.78, 0.1 18.55, 0.3 17.35 C0.5 16.16, 0.81 14.96, 1.21 13.82 C1.6 12.68, 2.1 11.55, 2.68 10.5 C3.26 9.45, 3.93 8.43, 4.68 7.5 C5.42 6.57, 6.26 5.69, 7.14 4.91 C8.03 4.13, 9 3.42, 10 2.81 C11 2.21, 12.07 1.68, 13.16 1.27 C14.25 0.85, 15.39 0.53, 16.53 0.32 C17.67 0.11, 18.84 0, 20 0 C21.16 0, 22.33 0.11, 23.47 0.32 C24.61 0.53, 25.75 0.85, 26.84 1.27 C27.93 1.68, 29 2.21, 30 2.81 C31 3.42, 31.97 4.13, 32.86 4.91 C33.74 5.69, 34.58 6.57, 35.32 7.5 C36.07 8.43, 36.74 9.45, 37.32 10.5 C37.9 11.55, 38.4 12.68, 38.79 13.82 C39.19 14.96, 39.5 16.16, 39.7 17.35 C39.9 18.55, 39.95 20.39, 40 21 C40.05 21.61, 40.05 20.39, 40 21" stroke="#1e1e1e" stroke-width="1" fill="none"></path></g><g transform="translate(325.85786437626905 461.1507575950825) rotate(0 4 10)"><text x="4" y="0" font-family="Virgil, Segoe UI Emoji" font-size="16px" fill="#1e1e1e" text-anchor="middle" style="white-space: pre;" direction="ltr" dominant-baseline="text-before-edge">\</text></g><g stroke-linecap="round" transform="translate(310 450) rotate(0 20 21)"><path d="M40 21 C40 22.22, 39.9 23.45, 39.7 24.65 C39.5 25.84, 39.19 27.04, 38.79 28.18 C38.4 29.32, 37.9 30.45, 37.32 31.5 C36.74 32.55, 36.07 33.57, 35.32 34.5 C34.58 35.43, 33.74 36.31, 32.86 37.09 C31.97 37.87, 31 38.58, 30 39.19 C29 39.79, 27.93 40.32, 26.84 40.73 C25.75 41.15, 24.61 41.47, 23.47 41.68 C22.33 41.89, 21.16 42, 20 42 C18.84 42, 17.67 41.89, 16.53 41.68 C15.39 41.47, 14.25 41.15, 13.16 40.73 C12.07 40.32, 11 39.79, 10 39.19 C9 38.58, 8.03 37.87, 7.14 37.09 C6.26 36.31, 5.42 35.43, 4.68 34.5 C3.93 33.57, 3.26 32.55, 2.68 31.5 C2.1 30.45, 1.6 29.32, 1.21 28.18 C0.81 27.04, 0.5 25.84, 0.3 24.65 C0.1 23.45, 0 22.22, 0 21 C0 19.78, 0.1 18.55, 0.3 17.35 C0.5 16.16, 0.81 14.96, 1.21 13.82 C1.6 12.68, 2.1 11.55, 2.68 10.5 C3.26 9.45, 3.93 8.43, 4.68 7.5 C5.42 6.57, 6.26 5.69, 7.14 4.91 C8.03 4.13, 9 3.42, 10 2.81 C11 2.21, 12.07 1.68, 13.16 1.27 C14.25 0.85, 15.39 0.53, 16.53 0.32 C17.67 0.11, 18.84 0, 20 0 C21.16 0, 22.33 0.11, 23.47 0.32 C24.61 0.53, 25.75 0.85, 26.84 1.27 C27.93 1.68, 29 2.21, 30 2.81 C31 3.42, 31.97 4.13, 32.86 4.91 C33.74 5.69, 34.58 6.57, 35.32 7.5 C36.07 8.43, 36.74 9.45, 37.32 10.5 C37.9 11.55, 38.4 12.68, 38.79 13.82 C39.19 14.96, 39.5 16.16, 39.7 17.35 C39.9 18.55, 39.95 20.39, 40 21 C40.05 21.61, 40.05 20.39, 40 21" stroke="none" stroke-width="0" fill="#ffffff"></path><path d="M40 21 C40 22.22, 39.9 23.45, 39.7 24.65 C39.5 25.84, 39.19 27.04, 38.79 28.18 C38.4 29.32, 37.9 30.45, 37.32 31.5 C36.74 32.55, 36.07 33.57, 35.32 34.5 C34.58 35.43, 33.74 36.31, 32.86 37.09 C31.97 37.87, 31 38.58, 30 39.19 C29 39.79, 27.93 40.32, 26.84 40.73 C25.75 41.15, 24.61 41.47, 23.47 41.68 C22.33 41.89, 21.16 42, 20 42 C18.84 42, 17.67 41.89, 16.53 41.68 C15.39 41.47, 14.25 41.15, 13.16 40.73 C12.07 40.32, 11 39.79, 10 39.19 C9 38.58, 8.03 37.87, 7.14 37.09 C6.26 36.31, 5.42 35.43, 4.68 34.5 C3.93 33.57, 3.26 32.55, 2.68 31.5 C2.1 30.45, 1.6 29.32, 1.21 28.18 C0.81 27.04, 0.5 25.84, 0.3 24.65 C0.1 23.45, 0 22.22, 0 21 C0 19.78, 0.1 18.55, 0.3 17.35 C0.5 16.16, 0.81 14.96, 1.21 13.82 C1.6 12.68, 2.1 11.55, 2.68 10.5 C3.26 9.45, 3.93 8.43, 4.68 7.5 C5.42 6.57, 6.26 5.69, 7.14 4.91 C8.03 4.13, 9 3.42, 10 2.81 C11 2.21, 12.07 1.68, 13.16 1.27 C14.25 0.85, 15.39 0.53, 16.53 0.32 C17.67 0.11, 18.84 0, 20 0 C21.16 0, 22.33 0.11, 23.47 0.32 C24.61 0.53, 25.75 0.85, 26.84 1.27 C27.93 1.68, 29 2.21, 30 2.81 C31 3.42, 31.97 4.13, 32.86 4.91 C33.74 5.69, 34.58 6.57, 35.32 7.5 C36.07 8.43, 36.74 9.45, 37.32 10.5 C37.9 11.55, 38.4 12.68, 38.79 13.82 C39.19 14.96, 39.5 16.16, 39.7 17.35 C39.9 18.55, 39.95 20.39, 40 21 C40.05 21.61, 40.05 20.39, 40 21" stroke="#1e1e1e" stroke-width="1" fill="none"></path></g><g transform="translate(325.85786437626905 461.1507575950825) rotate(0 4 10)"><text x="4" y="0" font-family="Virgil, Segoe UI Emoji" font-size="16px" fill="#1e1e1e" text-anchor="middle" style="white-space: pre;" direction="ltr" dominant-baseline="text-before-edge">\</text></g><g stroke-linecap="round" transform="translate(310 450) rotate(0 20 21)"><path d="M40 21 C40 22.22, 39.9 23.45, 39.7 24.65 C39.5 25.84, 39.19 27.04, 38.79 28.18 C38.4 29.32, 37.9 30.45, 37.32 31.5 C36.74 32.55, 36.07 33.57, 35.32 34.5 C34.58 35.43, 33.74 36.31, 32.86 37.09 C31.97 37.87, 31 38.58, 30 39.19 C29 39.79, 27.93 40.32, 26.84 40.73 C25.75 41.15, 24.61 41.47, 23.47 41.68 C22.33 41.89, 21.16 42, 20 42 C18.84 42, 17.67 41.89, 16.53 41.68 C15.39 41.47, 14.25 41.15, 13.16 40.73 C12.07 40.32, 11 39.79, 10 39.19 C9 38.58, 8.03 37.87, 7.14 37.09 C6.26 36.31, 5.42 35.43, 4.68 34.5 C3.93 33.57, 3.26 32.55, 2.68 31.5 C2.1 30.45, 1.6 29.32, 1.21 28.18 C0.81 27.04, 0.5 25.84, 0.3 24.65 C0.1 23.45, 0 22.22, 0 21 C0 19.78, 0.1 18.55, 0.3 17.35 C0.5 16.16, 0.81 14.96, 1.21 13.82 C1.6 12.68, 2.1 11.55, 2.68 10.5 C3.26 9.45, 3.93 8.43, 4.68 7.5 C5.42 6.57, 6.26 5.69, 7.14 4.91 C8.03 4.13, 9 3.42, 10 2.81 C11 2.21, 12.07 1.68, 13.16 1.27 C14.25 0.85, 15.39 0.53, 16.53 0.32 C17.67 0.11, 18.84 0, 20 0 C21.16 0, 22.33 0.11, 23.47 0.32 C24.61 0.53, 25.75 0.85, 26.84 1.27 C27.93 1.68, 29 2.21, 30 2.81 C31 3.42, 31.97 4.13, 32.86 4.91 C33.74 5.69, 34.58 6.57, 35.32 7.5 C36.07 8.43, 36.74 9.45, 37.32 10.5 C37.9 11.55, 38.4 12.68, 38.79 13.82 C39.19 14.96, 39.5 16.16, 39.7 17.35 C39.9 18.55, 39.95 20.39, 40 21 C40.05 21.61, 40.05 20.39, 40 21" stroke="none" stroke-width="0" fill="#ffffff"></path><path d="M40 21 C40 22.22, 39.9 23.45, 39.7 24.65 C39.5 25.84, 39.19 27.04, 38.79 28.18 C38.4 29.32, 37.9 30.45, 37.32 31.5 C36.74 32.55, 36.07 33.57, 35.32 34.5 C34.58 35.43, 33.74 36.31, 32.86 37.09 C31.97 37.87, 31 38.58, 30 39.19 C29 39.79, 27.93 40.32, 26.84 40.73 C25.75 41.15, 24.61 41.47, 23.47 41.68 C22.33 41.89, 21.16 42, 20 42 C18.84 42, 17.67 41.89, 16.53 41.68 C15.39 41.47, 14.25 41.15, 13.16 40.73 C12.07 40.32, 11 39.79, 10 39.19 C9 38.58, 8.03 37.87, 7.14 37.09 C6.26 36.31, 5.42 35.43, 4.68 34.5 C3.93 33.57, 3.26 32.55, 2.68 31.5 C2.1 30.45, 1.6 29.32, 1.21 28.18 C0.81 27.04, 0.5 25.84, 0.3 24.65 C0.1 23.45, 0 22.22, 0 21 C0 19.78, 0.1 18.55, 0.3 17.35 C0.5 16.16, 0.81 14.96, 1.21 13.82 C1.6 12.68, 2.1 11.55, 2.68 10.5 C3.26 9.45, 3.93 8.43, 4.68 7.5 C5.42 6.57, 6.26 5.69, 7.14 4.91 C8.03 4.13, 9 3.42, 10 2.81 C11 2.21, 12.07 1.68, 13.16 1.27 C14.25 0.85, 15.39 0.53, 16.53 0.32 C17.67 0.11, 18.84 0, 20 0 C21.16 0, 22.33 0.11, 23.47 0.32 C24.61 0.53, 25.75 0.85, 26.84 1.27 C27.93 1.68, 29 2.21, 30 2.81 C31 3.42, 31.97 4.13, 32.86 4.91 C33.74 5.69, 34.58 6.57, 35.32 7.5 C36.07 8.43, 36.74 9.45, 37.32 10.5 C37.9 11.55, 38.4 12.68, 38.79 13.82 C39.19 14.96, 39.5 16.16, 39.7 17.35 C39.9 18.55, 39.95 20.39, 40 21 C40.05 21.61, 40.05 20.39, 40 21" stroke="#1e1e1e" stroke-width="1" fill="none"></path></g><g transform="translate(326.1218643152339 461.1507575950825) rotate(0 3.7360000610351562 10)"><text x="3.7360000610351562" y="0" font-family="Virgil, Segoe UI Emoji" font-size="16px" fill="#1e1e1e" text-anchor="middle" style="white-space: pre;" direction="ltr" dominant-baseline="text-before-edge">n</text></g><g stroke-linecap="round" transform="translate(310 510) rotate(0 20 21)"><path d="M40 21 C40 22.22, 39.9 23.45, 39.7 24.65 C39.5 25.84, 39.19 27.04, 38.79 28.18 C38.4 29.32, 37.9 30.45, 37.32 31.5 C36.74 32.55, 36.07 33.57, 35.32 34.5 C34.58 35.43, 33.74 36.31, 32.86 37.09 C31.97 37.87, 31 38.58, 30 39.19 C29 39.79, 27.93 40.32, 26.84 40.73 C25.75 41.15, 24.61 41.47, 23.47 41.68 C22.33 41.89, 21.16 42, 20 42 C18.84 42, 17.67 41.89, 16.53 41.68 C15.39 41.47, 14.25 41.15, 13.16 40.73 C12.07 40.32, 11 39.79, 10 39.19 C9 38.58, 8.03 37.87, 7.14 37.09 C6.26 36.31, 5.42 35.43, 4.68 34.5 C3.93 33.57, 3.26 32.55, 2.68 31.5 C2.1 30.45, 1.6 29.32, 1.21 28.18 C0.81 27.04, 0.5 25.84, 0.3 24.65 C0.1 23.45, 0 22.22, 0 21 C0 19.78, 0.1 18.55, 0.3 17.35 C0.5 16.16, 0.81 14.96, 1.21 13.82 C1.6 12.68, 2.1 11.55, 2.68 10.5 C3.26 9.45, 3.93 8.43, 4.68 7.5 C5.42 6.57, 6.26 5.69, 7.14 4.91 C8.03 4.13, 9 3.42, 10 2.81 C11 2.21, 12.07 1.68, 13.16 1.27 C14.25 0.85, 15.39 0.53, 16.53 0.32 C17.67 0.11, 18.84 0, 20 0 C21.16 0, 22.33 0.11, 23.47 0.32 C24.61 0.53, 25.75 0.85, 26.84 1.27 C27.93 1.68, 29 2.21, 30 2.81 C31 3.42, 31.97 4.13, 32.86 4.91 C33.74 5.69, 34.58 6.57, 35.32 7.5 C36.07 8.43, 36.74 9.45, 37.32 10.5 C37.9 11.55, 38.4 12.68, 38.79 13.82 C39.19 14.96, 39.5 16.16, 39.7 17.35 C39.9 18.55, 39.95 20.39, 40 21 C40.05 21.61, 40.05 20.39, 40 21" stroke="none" stroke-width="0" fill="#ffffff"></path><path d="M40 21 C40 22.22, 39.9 23.45, 39.7 24.65 C39.5 25.84, 39.19 27.04, 38.79 28.18 C38.4 29.32, 37.9 30.45, 37.32 31.5 C36.74 32.55, 36.07 33.57, 35.32 34.5 C34.58 35.43, 33.74 36.31, 32.86 37.09 C31.97 37.87, 31 38.58, 30 39.19 C29 39.79, 27.93 40.32, 26.84 40.73 C25.75 41.15, 24.61 41.47, 23.47 41.68 C22.33 41.89, 21.16 42, 20 42 C18.84 42, 17.67 41.89, 16.53 41.68 C15.39 41.47, 14.25 41.15, 13.16 40.73 C12.07 40.32, 11 39.79, 10 39.19 C9 38.58, 8.03 37.87, 7.14 37.09 C6.26 36.31, 5.42 35.43, 4.68 34.5 C3.93 33.57, 3.26 32.55, 2.68 31.5 C2.1 30.45, 1.6 29.32, 1.21 28.18 C0.81 27.04, 0.5 25.84, 0.3 24.65 C0.1 23.45, 0 22.22, 0 21 C0 19.78, 0.1 18.55, 0.3 17.35 C0.5 16.16, 0.81 14.96, 1.21 13.82 C1.6 12.68, 2.1 11.55, 2.68 10.5 C3.26 9.45, 3.93 8.43, 4.68 7.5 C5.42 6.57, 6.26 5.69, 7.14 4.91 C8.03 4.13, 9 3.42, 10 2.81 C11 2.21, 12.07 1.68, 13.16 1.27 C14.25 0.85, 15.39 0.53, 16.53 0.32 C17.67 0.11, 18.84 0, 20 0 C21.16 0, 22.33 0.11, 23.47 0.32 C24.61 0.53, 25.75 0.85, 26.84 1.27 C27.93 1.68, 29 2.21, 30 2.81 C31 3.42, 31.97 4.13, 32.86 4.91 C33.74 5.69, 34.58 6.57, 35.32 7.5 C36.07 8.43, 36.74 9.45, 37.32 10.5 C37.9 11.55, 38.4 12.68, 38.79 13.82 C39.19 14.96, 39.5 16.16, 39.7 17.35 C39.9 18.55, 39.95 20.39, 40 21 C40.05 21.61, 40.05 20.39, 40 21" stroke="#1e1e1e" stroke-width="1" fill="none"></path></g><g transform="translate(326.41786956425733 521.1507575950825) rotate(0 3.4399948120117188 10)"><text x="3.4399948120117188" y="0" font-family="Virgil, Segoe UI Emoji" font-size="16px" fill="#1e1e1e" text-anchor="middle" style="white-space: pre;" direction="ltr" dominant-baseline="text-before-edge">r</text></g><g stroke-linecap="round" transform="translate(310 570) rotate(0 20 21)"><path d="M40 21 C40 22.22, 39.9 23.45, 39.7 24.65 C39.5 25.84, 39.19 27.04, 38.79 28.18 C38.4 29.32, 37.9 30.45, 37.32 31.5 C36.74 32.55, 36.07 33.57, 35.32 34.5 C34.58 35.43, 33.74 36.31, 32.86 37.09 C31.97 37.87, 31 38.58, 30 39.19 C29 39.79, 27.93 40.32, 26.84 40.73 C25.75 41.15, 24.61 41.47, 23.47 41.68 C22.33 41.89, 21.16 42, 20 42 C18.84 42, 17.67 41.89, 16.53 41.68 C15.39 41.47, 14.25 41.15, 13.16 40.73 C12.07 40.32, 11 39.79, 10 39.19 C9 38.58, 8.03 37.87, 7.14 37.09 C6.26 36.31, 5.42 35.43, 4.68 34.5 C3.93 33.57, 3.26 32.55, 2.68 31.5 C2.1 30.45, 1.6 29.32, 1.21 28.18 C0.81 27.04, 0.5 25.84, 0.3 24.65 C0.1 23.45, 0 22.22, 0 21 C0 19.78, 0.1 18.55, 0.3 17.35 C0.5 16.16, 0.81 14.96, 1.21 13.82 C1.6 12.68, 2.1 11.55, 2.68 10.5 C3.26 9.45, 3.93 8.43, 4.68 7.5 C5.42 6.57, 6.26 5.69, 7.14 4.91 C8.03 4.13, 9 3.42, 10 2.81 C11 2.21, 12.07 1.68, 13.16 1.27 C14.25 0.85, 15.39 0.53, 16.53 0.32 C17.67 0.11, 18.84 0, 20 0 C21.16 0, 22.33 0.11, 23.47 0.32 C24.61 0.53, 25.75 0.85, 26.84 1.27 C27.93 1.68, 29 2.21, 30 2.81 C31 3.42, 31.97 4.13, 32.86 4.91 C33.74 5.69, 34.58 6.57, 35.32 7.5 C36.07 8.43, 36.74 9.45, 37.32 10.5 C37.9 11.55, 38.4 12.68, 38.79 13.82 C39.19 14.96, 39.5 16.16, 39.7 17.35 C39.9 18.55, 39.95 20.39, 40 21 C40.05 21.61, 40.05 20.39, 40 21" stroke="none" stroke-width="0" fill="#ffffff"></path><path d="M40 21 C40 22.22, 39.9 23.45, 39.7 24.65 C39.5 25.84, 39.19 27.04, 38.79 28.18 C38.4 29.32, 37.9 30.45, 37.32 31.5 C36.74 32.55, 36.07 33.57, 35.32 34.5 C34.58 35.43, 33.74 36.31, 32.86 37.09 C31.97 37.87, 31 38.58, 30 39.19 C29 39.79, 27.93 40.32, 26.84 40.73 C25.75 41.15, 24.61 41.47, 23.47 41.68 C22.33 41.89, 21.16 42, 20 42 C18.84 42, 17.67 41.89, 16.53 41.68 C15.39 41.47, 14.25 41.15, 13.16 40.73 C12.07 40.32, 11 39.79, 10 39.19 C9 38.58, 8.03 37.87, 7.14 37.09 C6.26 36.31, 5.42 35.43, 4.68 34.5 C3.93 33.57, 3.26 32.55, 2.68 31.5 C2.1 30.45, 1.6 29.32, 1.21 28.18 C0.81 27.04, 0.5 25.84, 0.3 24.65 C0.1 23.45, 0 22.22, 0 21 C0 19.78, 0.1 18.55, 0.3 17.35 C0.5 16.16, 0.81 14.96, 1.21 13.82 C1.6 12.68, 2.1 11.55, 2.68 10.5 C3.26 9.45, 3.93 8.43, 4.68 7.5 C5.42 6.57, 6.26 5.69, 7.14 4.91 C8.03 4.13, 9 3.42, 10 2.81 C11 2.21, 12.07 1.68, 13.16 1.27 C14.25 0.85, 15.39 0.53, 16.53 0.32 C17.67 0.11, 18.84 0, 20 0 C21.16 0, 22.33 0.11, 23.47 0.32 C24.61 0.53, 25.75 0.85, 26.84 1.27 C27.93 1.68, 29 2.21, 30 2.81 C31 3.42, 31.97 4.13, 32.86 4.91 C33.74 5.69, 34.58 6.57, 35.32 7.5 C36.07 8.43, 36.74 9.45, 37.32 10.5 C37.9 11.55, 38.4 12.68, 38.79 13.82 C39.19 14.96, 39.5 16.16, 39.7 17.35 C39.9 18.55, 39.95 20.39, 40 21 C40.05 21.61, 40.05 20.39, 40 21" stroke="#1e1e1e" stroke-width="1" fill="none"></path></g><g transform="translate(325.33786773320264 581.1507575950825) rotate(0 4.519996643066406 10)"><text x="4.519996643066406" y="0" font-family="Virgil, Segoe UI Emoji" font-size="16px" fill="#1e1e1e" text-anchor="middle" style="white-space: pre;" direction="ltr" dominant-baseline="text-before-edge">t</text></g><g stroke-linecap="round" transform="translate(310 630) rotate(0 20 21)"><path d="M40 21 C40 22.22, 39.9 23.45, 39.7 24.65 C39.5 25.84, 39.19 27.04, 38.79 28.18 C38.4 29.32, 37.9 30.45, 37.32 31.5 C36.74 32.55, 36.07 33.57, 35.32 34.5 C34.58 35.43, 33.74 36.31, 32.86 37.09 C31.97 37.87, 31 38.58, 30 39.19 C29 39.79, 27.93 40.32, 26.84 40.73 C25.75 41.15, 24.61 41.47, 23.47 41.68 C22.33 41.89, 21.16 42, 20 42 C18.84 42, 17.67 41.89, 16.53 41.68 C15.39 41.47, 14.25 41.15, 13.16 40.73 C12.07 40.32, 11 39.79, 10 39.19 C9 38.58, 8.03 37.87, 7.14 37.09 C6.26 36.31, 5.42 35.43, 4.68 34.5 C3.93 33.57, 3.26 32.55, 2.68 31.5 C2.1 30.45, 1.6 29.32, 1.21 28.18 C0.81 27.04, 0.5 25.84, 0.3 24.65 C0.1 23.45, 0 22.22, 0 21 C0 19.78, 0.1 18.55, 0.3 17.35 C0.5 16.16, 0.81 14.96, 1.21 13.82 C1.6 12.68, 2.1 11.55, 2.68 10.5 C3.26 9.45, 3.93 8.43, 4.68 7.5 C5.42 6.57, 6.26 5.69, 7.14 4.91 C8.03 4.13, 9 3.42, 10 2.81 C11 2.21, 12.07 1.68, 13.16 1.27 C14.25 0.85, 15.39 0.53, 16.53 0.32 C17.67 0.11, 18.84 0, 20 0 C21.16 0, 22.33 0.11, 23.47 0.32 C24.61 0.53, 25.75 0.85, 26.84 1.27 C27.93 1.68, 29 2.21, 30 2.81 C31 3.42, 31.97 4.13, 32.86 4.91 C33.74 5.69, 34.58 6.57, 35.32 7.5 C36.07 8.43, 36.74 9.45, 37.32 10.5 C37.9 11.55, 38.4 12.68, 38.79 13.82 C39.19 14.96, 39.5 16.16, 39.7 17.35 C39.9 18.55, 39.95 20.39, 40 21 C40.05 21.61, 40.05 20.39, 40 21" stroke="none" stroke-width="0" fill="#ffffff"></path><path d="M40 21 C40 22.22, 39.9 23.45, 39.7 24.65 C39.5 25.84, 39.19 27.04, 38.79 28.18 C38.4 29.32, 37.9 30.45, 37.32 31.5 C36.74 32.55, 36.07 33.57, 35.32 34.5 C34.58 35.43, 33.74 36.31, 32.86 37.09 C31.97 37.87, 31 38.58, 30 39.19 C29 39.79, 27.93 40.32, 26.84 40.73 C25.75 41.15, 24.61 41.47, 23.47 41.68 C22.33 41.89, 21.16 42, 20 42 C18.84 42, 17.67 41.89, 16.53 41.68 C15.39 41.47, 14.25 41.15, 13.16 40.73 C12.07 40.32, 11 39.79, 10 39.19 C9 38.58, 8.03 37.87, 7.14 37.09 C6.26 36.31, 5.42 35.43, 4.68 34.5 C3.93 33.57, 3.26 32.55, 2.68 31.5 C2.1 30.45, 1.6 29.32, 1.21 28.18 C0.81 27.04, 0.5 25.84, 0.3 24.65 C0.1 23.45, 0 22.22, 0 21 C0 19.78, 0.1 18.55, 0.3 17.35 C0.5 16.16, 0.81 14.96, 1.21 13.82 C1.6 12.68, 2.1 11.55, 2.68 10.5 C3.26 9.45, 3.93 8.43, 4.68 7.5 C5.42 6.57, 6.26 5.69, 7.14 4.91 C8.03 4.13, 9 3.42, 10 2.81 C11 2.21, 12.07 1.68, 13.16 1.27 C14.25 0.85, 15.39 0.53, 16.53 0.32 C17.67 0.11, 18.84 0, 20 0 C21.16 0, 22.33 0.11, 23.47 0.32 C24.61 0.53, 25.75 0.85, 26.84 1.27 C27.93 1.68, 29 2.21, 30 2.81 C31 3.42, 31.97 4.13, 32.86 4.91 C33.74 5.69, 34.58 6.57, 35.32 7.5 C36.07 8.43, 36.74 9.45, 37.32 10.5 C37.9 11.55, 38.4 12.68, 38.79 13.82 C39.19 14.96, 39.5 16.16, 39.7 17.35 C39.9 18.55, 39.95 20.39, 40 21 C40.05 21.61, 40.05 20.39, 40 21" stroke="#1e1e1e" stroke-width="1" fill="none"></path></g><g transform="translate(325.31386565800733 641.1507575950825) rotate(0 4.543998718261719 10)"><text x="4.543998718261719" y="0" font-family="Virgil, Segoe UI Emoji" font-size="16px" fill="#1e1e1e" text-anchor="middle" style="white-space: pre;" direction="ltr" dominant-baseline="text-before-edge">u</text></g><g transform="translate(350 150) rotate(0 93.39996337890625 10)"><text x="0" y="0" font-family="Virgil, Segoe UI Emoji" font-size="16px" fill="#1e1e1e" text-anchor="start" style="white-space: pre;" direction="ltr" dominant-baseline="text-before-edge">双引号 (quotation mark)</text></g><g transform="translate(350 210) rotate(0 92.63195037841797 10)"><text x="0" y="0" font-family="Virgil, Segoe UI Emoji" font-size="16px" fill="#1e1e1e" text-anchor="start" style="white-space: pre;" direction="ltr" dominant-baseline="text-before-edge">反斜杠 (reverse solidus)</text></g><g transform="translate(370 270) rotate(0 53.82164001464844 10.332005975082808)"><text x="0" y="0" font-family="Virgil, Segoe UI Emoji" font-size="16.531209560132478px" fill="#1e1e1e" text-anchor="start" style="white-space: pre;" direction="ltr" dominant-baseline="text-before-edge">斜杠 (solidus)</text></g><g transform="translate(370 330) rotate(0 65.35196685791016 10)"><text x="0" y="0" font-family="Virgil, Segoe UI Emoji" font-size="16px" fill="#1e1e1e" text-anchor="start" style="white-space: pre;" direction="ltr" dominant-baseline="text-before-edge">退格 (backspace)</text></g><g transform="translate(370 390) rotate(0 60.03996276855469 10)"><text x="0" y="0" font-family="Virgil, Segoe UI Emoji" font-size="16px" fill="#1e1e1e" text-anchor="start" style="white-space: pre;" direction="ltr" dominant-baseline="text-before-edge">换页 (formfeed)</text></g><g transform="translate(370 450) rotate(0 55.18397521972656 10)"><text x="0" y="0" font-family="Virgil, Segoe UI Emoji" font-size="16px" fill="#1e1e1e" text-anchor="start" style="white-space: pre;" direction="ltr" dominant-baseline="text-before-edge">换行 (linefeed)</text></g><g transform="translate(370 510) rotate(0 85.7839584350586 10)"><text x="0" y="0" font-family="Virgil, Segoe UI Emoji" font-size="16px" fill="#1e1e1e" text-anchor="start" style="white-space: pre;" direction="ltr" dominant-baseline="text-before-edge">回车 (carriage return)</text></g><g transform="translate(370 570) rotate(0 82.22396087646484 10)"><text x="0" y="0" font-family="Virgil, Segoe UI Emoji" font-size="16px" fill="#1e1e1e" text-anchor="start" style="white-space: pre;" direction="ltr" dominant-baseline="text-before-edge">制表 (horizontal tab)</text></g><g stroke-linecap="round" transform="translate(370 620) rotate(0 80 25)"><path d="M12.5 0 L147.5 0 L152.97 0.78 L155.12 1.76 L158.24 4.88 L159.8 9.57 L160 37.5 L159.22 42.97 L158.24 45.12 L155.12 48.24 L147.5 50 L12.5 50 L7.03 49.22 L3.12 46.88 L1.76 45.12 L0.2 40.43 L0.2 9.57 L1.76 4.88 L3.12 3.12 L7.03 0.78 L12.5 0" stroke="none" stroke-width="0" fill="#ffffff"></path><path d="M12.5 0 M12.5 0 C60.77 0, 109.04 0, 147.5 0 M12.5 0 C58.57 0, 104.64 0, 147.5 0 M147.5 0 C155.83 0, 160 4.17, 160 12.5 M147.5 0 C155.83 0, 160 4.17, 160 12.5 M160 12.5 C160 20.46, 160 28.43, 160 37.5 M160 12.5 C160 21.6, 160 30.71, 160 37.5 M160 37.5 C160 45.83, 155.83 50, 147.5 50 M160 37.5 C160 45.83, 155.83 50, 147.5 50 M147.5 50 C96.55 50, 45.61 50, 12.5 50 M147.5 50 C118.26 50, 89.01 50, 12.5 50 M12.5 50 C4.17 50, 0 45.83, 0 37.5 M12.5 50 C4.17 50, 0 45.83, 0 37.5 M0 37.5 C0 32.2, 0 26.9, 0 12.5 M0 37.5 C0 31.47, 0 25.45, 0 12.5 M0 12.5 C0 4.17, 4.17 0, 12.5 0 M0 12.5 C0 4.17, 4.17 0, 12.5 0" stroke="#1e1e1e" stroke-width="1" fill="none"></path></g><g transform="translate(404.8800048828125 625) rotate(0 45.1199951171875 20)"><text x="45.1199951171875" y="0" font-family="Virgil, Segoe UI Emoji" font-size="16px" fill="#1e1e1e" text-anchor="middle" style="white-space: pre;" direction="ltr" dominant-baseline="text-before-edge">4个十六进制</text><text x="45.1199951171875" y="20" font-family="Virgil, Segoe UI Emoji" font-size="16px" fill="#1e1e1e" text-anchor="middle" style="white-space: pre;" direction="ltr" dominant-baseline="text-before-edge">数字</text></g></svg>