<svg version="1.1" xmlns="http://www.w3.org/2000/svg" viewBox="0 0 740 365" width="1480" height="730">
  <!-- svg-source:excalidraw -->
  
  <defs>
    <style class="style-fonts">
      @font-face {
        font-family: "Virgil";
        src: url("https://excalidraw.com/Virgil.woff2");
      }
      @font-face {
        font-family: "Cascadia";
        src: url("https://excalidraw.com/Cascadia.woff2");
      }
      @font-face {
        font-family: "Assistant";
        src: url("https://excalidraw.com/Assistant-Regular.woff2");
      }
    </style>
    
  </defs>
  <rect x="0" y="0" width="740" height="365" fill="#ffffff"></rect><g stroke-linecap="round" transform="translate(10 10) rotate(0 90 150)"><path d="M32 0 C56.03 0, 80.06 0, 148 0 M32 0 C72.42 0, 112.84 0, 148 0 M148 0 C169.33 0, 180 10.67, 180 32 M148 0 C169.33 0, 180 10.67, 180 32 M180 32 C180 123.21, 180 214.42, 180 268 M180 32 C180 86.76, 180 141.52, 180 268 M180 268 C180 289.33, 169.33 300, 148 300 M180 268 C180 289.33, 169.33 300, 148 300 M148 300 C123.66 300, 99.33 300, 32 300 M148 300 C117.58 300, 87.17 300, 32 300 M32 300 C10.67 300, 0 289.33, 0 268 M32 300 C10.67 300, 0 289.33, 0 268 M0 268 C0 199.15, 0 130.3, 0 32 M0 268 C0 183.93, 0 99.86, 0 32 M0 32 C0 10.67, 10.67 0, 32 0 M0 32 C0 10.67, 10.67 0, 32 0" stroke="#1e1e1e" stroke-width="2" fill="none"></path></g><g stroke-linecap="round"><g transform="translate(10 50) rotate(0 90 0)"><path d="M0 0 C30 0, 150 0, 180 0 M0 0 C30 0, 150 0, 180 0" stroke="#1e1e1e" stroke-width="2" fill="none"></path></g></g><mask></mask><g stroke-linecap="round"><g transform="translate(10 90) rotate(0 90 0)"><path d="M0 0 C30 0, 150 0, 180 0 M0 0 C30 0, 150 0, 180 0" stroke="#1e1e1e" stroke-width="2" fill="none"></path></g></g><mask></mask><g transform="translate(90 30) rotate(0 15.939979553222656 12.5)"><text x="0" y="0" font-family="Virgil, Segoe UI Emoji" font-size="20px" fill="#1e1e1e" text-anchor="start" style="white-space: pre;" direction="ltr" dominant-baseline="text-before-edge">foo</text></g><g transform="translate(90 70) rotate(0 16.04998779296875 12.5)"><text x="0" y="0" font-family="Virgil, Segoe UI Emoji" font-size="20px" fill="#1e1e1e" text-anchor="start" style="white-space: pre;" direction="ltr" dominant-baseline="text-before-edge">bar</text></g><g stroke-linecap="round"><g transform="translate(10 130) rotate(0 90 0)"><path d="M0 0 C30 0, 150 0, 180 0 M0 0 C30 0, 150 0, 180 0" stroke="#1e1e1e" stroke-width="2" fill="none"></path></g></g><mask></mask><g transform="translate(70 110) rotate(0 31.989967346191406 12.5)"><text x="0" y="0" font-family="Virgil, Segoe UI Emoji" font-size="20px" fill="#1e1e1e" text-anchor="start" style="white-space: pre;" direction="ltr" dominant-baseline="text-before-edge">foobar</text></g><g transform="translate(30 30) rotate(0 2.7099990844726562 12.5)"><text x="0" y="0" font-family="Virgil, Segoe UI Emoji" font-size="20px" fill="#1e1e1e" text-anchor="start" style="white-space: pre;" direction="ltr" dominant-baseline="text-before-edge">1</text></g><g transform="translate(30 70) rotate(0 7.1199951171875 12.5)"><text x="0" y="0" font-family="Virgil, Segoe UI Emoji" font-size="20px" fill="#1e1e1e" text-anchor="start" style="white-space: pre;" direction="ltr" dominant-baseline="text-before-edge">2</text></g><g transform="translate(30 110) rotate(0 6.80999755859375 12.5)"><text x="0" y="0" font-family="Virgil, Segoe UI Emoji" font-size="20px" fill="#1e1e1e" text-anchor="start" style="white-space: pre;" direction="ltr" dominant-baseline="text-before-edge">3</text></g><g transform="translate(90 150) rotate(0 8.219993591308594 12.5)"><text x="0" y="0" font-family="Virgil, Segoe UI Emoji" font-size="20px" fill="#1e1e1e" text-anchor="start" style="white-space: pre;" direction="ltr" dominant-baseline="text-before-edge">...</text></g><g transform="translate(30 330) rotate(0 70.93994140625 12.5)"><text x="0" y="0" font-family="Virgil, Segoe UI Emoji" font-size="20px" fill="#1e1e1e" text-anchor="start" style="white-space: pre;" direction="ltr" dominant-baseline="text-before-edge">Atom -&gt; String</text></g><g stroke-linecap="round" transform="translate(410 10) rotate(0 60 20)"><path d="M10 0 C48.16 0, 86.32 0, 110 0 M10 0 C30.49 0, 50.98 0, 110 0 M110 0 C116.67 0, 120 3.33, 120 10 M110 0 C116.67 0, 120 3.33, 120 10 M120 10 C120 14.41, 120 18.83, 120 30 M120 10 C120 15.9, 120 21.79, 120 30 M120 30 C120 36.67, 116.67 40, 110 40 M120 30 C120 36.67, 116.67 40, 110 40 M110 40 C75.92 40, 41.84 40, 10 40 M110 40 C73.4 40, 36.8 40, 10 40 M10 40 C3.33 40, 0 36.67, 0 30 M10 40 C3.33 40, 0 36.67, 0 30 M0 30 C0 22.19, 0 14.37, 0 10 M0 30 C0 25.91, 0 21.82, 0 10 M0 10 C0 3.33, 3.33 0, 10 0 M0 10 C0 3.33, 3.33 0, 10 0" stroke="#1e1e1e" stroke-width="2" fill="none"></path></g><g transform="translate(441.83001708984375 17.5) rotate(0 28.16998291015625 12.5)"><text x="28.16998291015625" y="0" font-family="Virgil, Segoe UI Emoji" font-size="20px" fill="#1e1e1e" text-anchor="middle" style="white-space: pre;" direction="ltr" dominant-baseline="text-before-edge">bar/2</text></g><g stroke-linecap="round" transform="translate(310 129) rotate(0 60 20)"><path d="M10 0 C34.29 0, 58.57 0, 110 0 M10 0 C33.38 0, 56.77 0, 110 0 M110 0 C116.67 0, 120 3.33, 120 10 M110 0 C116.67 0, 120 3.33, 120 10 M120 10 C120 16.34, 120 22.68, 120 30 M120 10 C120 16.53, 120 23.06, 120 30 M120 30 C120 36.67, 116.67 40, 110 40 M120 30 C120 36.67, 116.67 40, 110 40 M110 40 C79.94 40, 49.87 40, 10 40 M110 40 C83.94 40, 57.89 40, 10 40 M10 40 C3.33 40, 0 36.67, 0 30 M10 40 C3.33 40, 0 36.67, 0 30 M0 30 C0 22.88, 0 15.77, 0 10 M0 30 C0 24.07, 0 18.14, 0 10 M0 10 C0 3.33, 3.33 0, 10 0 M0 10 C0 3.33, 3.33 0, 10 0" stroke="#1e1e1e" stroke-width="2" fill="none"></path></g><g transform="translate(346.3500213623047 136.5) rotate(0 23.649978637695312 12.5)"><text x="23.649978637695312" y="0" font-family="Virgil, Segoe UI Emoji" font-size="20px" fill="#1e1e1e" text-anchor="middle" style="white-space: pre;" direction="ltr" dominant-baseline="text-before-edge">foo/1</text></g><g stroke-linecap="round" transform="translate(510 129) rotate(0 60 20)"><path d="M10 0 C33.41 0, 56.82 0, 110 0 M10 0 C36 0, 61.99 0, 110 0 M110 0 C116.67 0, 120 3.33, 120 10 M110 0 C116.67 0, 120 3.33, 120 10 M120 10 C120 17.95, 120 25.9, 120 30 M120 10 C120 17.88, 120 25.76, 120 30 M120 30 C120 36.67, 116.67 40, 110 40 M120 30 C120 36.67, 116.67 40, 110 40 M110 40 C86.24 40, 62.48 40, 10 40 M110 40 C87.31 40, 64.61 40, 10 40 M10 40 C3.33 40, 0 36.67, 0 30 M10 40 C3.33 40, 0 36.67, 0 30 M0 30 C0 25.87, 0 21.73, 0 10 M0 30 C0 22.55, 0 15.1, 0 10 M0 10 C0 3.33, 3.33 0, 10 0 M0 10 C0 3.33, 3.33 0, 10 0" stroke="#1e1e1e" stroke-width="2" fill="none"></path></g><g transform="translate(526.2000350952148 136.5) rotate(0 43.799964904785156 12.5)"><text x="43.799964904785156" y="0" font-family="Virgil, Segoe UI Emoji" font-size="20px" fill="#1e1e1e" text-anchor="middle" style="white-space: pre;" direction="ltr" dominant-baseline="text-before-edge">foobar/3</text></g><g stroke-linecap="round"><g transform="translate(458.25 50) rotate(0 -38.25 39)"><path d="M0 0 C-12.75 13, -63.75 65, -76.5 78 M0 0 C-12.75 13, -63.75 65, -76.5 78" stroke="#1e1e1e" stroke-width="2" fill="none"></path></g><g transform="translate(458.25 50) rotate(0 -38.25 39)"><path d="M-76.5 78 L-71.51 63.86 L-62.46 72.73 L-76.5 78" stroke="none" stroke-width="0" fill="#1e1e1e" fill-rule="evenodd"></path><path d="M-76.5 78 C-74.79 73.14, -73.07 68.29, -71.51 63.86 M-76.5 78 C-74.52 72.39, -72.54 66.79, -71.51 63.86 M-71.51 63.86 C-69.64 65.69, -67.77 67.53, -62.46 72.73 M-71.51 63.86 C-68.14 67.16, -64.77 70.47, -62.46 72.73 M-62.46 72.73 C-65.44 73.85, -68.42 74.97, -76.5 78 M-62.46 72.73 C-66.23 74.15, -70 75.56, -76.5 78 M-76.5 78 C-76.5 78, -76.5 78, -76.5 78 M-76.5 78 C-76.5 78, -76.5 78, -76.5 78" stroke="#1e1e1e" stroke-width="2" fill="none"></path></g></g><mask></mask><g stroke-linecap="round"><g transform="translate(491.2074171071997 51.00000000000006) rotate(0 39.32142213831838 37.99999999999997)"><path d="M0 0 C13.11 12.67, 65.54 63.33, 78.64 76 M0 0 C13.11 12.67, 65.54 63.33, 78.64 76" stroke="#1e1e1e" stroke-width="2" fill="none"></path></g><g transform="translate(491.2074171071997 51.00000000000006) rotate(0 39.32142213831838 37.99999999999997)"><path d="M78.64 76 L64.46 71.11 L73.27 61.99 L78.64 76" stroke="none" stroke-width="0" fill="#1e1e1e" fill-rule="evenodd"></path><path d="M78.64 76 C74.44 74.55, 70.24 73.1, 64.46 71.11 M78.64 76 C75.41 74.89, 72.18 73.77, 64.46 71.11 M64.46 71.11 C67.31 68.16, 70.16 65.22, 73.27 61.99 M64.46 71.11 C66.25 69.26, 68.03 67.42, 73.27 61.99 M73.27 61.99 C75.11 66.8, 76.96 71.6, 78.64 76 M73.27 61.99 C74.67 65.65, 76.07 69.3, 78.64 76 M78.64 76 C78.64 76, 78.64 76, 78.64 76 M78.64 76 C78.64 76, 78.64 76, 78.64 76" stroke="#1e1e1e" stroke-width="2" fill="none"></path></g></g><mask></mask><g transform="translate(410 330) rotate(0 70.93994140625 12.5)"><text x="0" y="0" font-family="Virgil, Segoe UI Emoji" font-size="20px" fill="#1e1e1e" text-anchor="start" style="white-space: pre;" direction="ltr" dominant-baseline="text-before-edge">String -&gt; Atom</text></g><g stroke-linecap="round" transform="translate(230 250) rotate(0 60 20)"><path d="M10 0 C38.37 0, 66.75 0, 110 0 M10 0 C36.01 0, 62.02 0, 110 0 M110 0 C116.67 0, 120 3.33, 120 10 M110 0 C116.67 0, 120 3.33, 120 10 M120 10 C120 14.25, 120 18.5, 120 30 M120 10 C120 14.88, 120 19.77, 120 30 M120 30 C120 36.67, 116.67 40, 110 40 M120 30 C120 36.67, 116.67 40, 110 40 M110 40 C73.91 40, 37.81 40, 10 40 M110 40 C81.4 40, 52.79 40, 10 40 M10 40 C3.33 40, 0 36.67, 0 30 M10 40 C3.33 40, 0 36.67, 0 30 M0 30 C0 25.82, 0 21.64, 0 10 M0 30 C0 24.37, 0 18.74, 0 10 M0 10 C0 3.33, 3.33 0, 10 0 M0 10 C0 3.33, 3.33 0, 10 0" stroke="#1e1e1e" stroke-width="2" fill="none"></path></g><g transform="translate(281.7800064086914 257.5) rotate(0 8.219993591308594 12.5)"><text x="8.219993591308594" y="0" font-family="Virgil, Segoe UI Emoji" font-size="20px" fill="#1e1e1e" text-anchor="middle" style="white-space: pre;" direction="ltr" dominant-baseline="text-before-edge">...</text></g><g stroke-linecap="round" transform="translate(370 250) rotate(0 60 20)"><path d="M10 0 C45.35 0, 80.7 0, 110 0 M10 0 C36.65 0, 63.31 0, 110 0 M110 0 C116.67 0, 120 3.33, 120 10 M110 0 C116.67 0, 120 3.33, 120 10 M120 10 C120 17.27, 120 24.53, 120 30 M120 10 C120 17.58, 120 25.15, 120 30 M120 30 C120 36.67, 116.67 40, 110 40 M120 30 C120 36.67, 116.67 40, 110 40 M110 40 C72.27 40, 34.54 40, 10 40 M110 40 C88.95 40, 67.9 40, 10 40 M10 40 C3.33 40, 0 36.67, 0 30 M10 40 C3.33 40, 0 36.67, 0 30 M0 30 C0 23.67, 0 17.34, 0 10 M0 30 C0 24.8, 0 19.6, 0 10 M0 10 C0 3.33, 3.33 0, 10 0 M0 10 C0 3.33, 3.33 0, 10 0" stroke="#1e1e1e" stroke-width="2" fill="none"></path></g><g transform="translate(421.7800064086914 257.5) rotate(0 8.219993591308594 12.5)"><text x="8.219993591308594" y="0" font-family="Virgil, Segoe UI Emoji" font-size="20px" fill="#1e1e1e" text-anchor="middle" style="white-space: pre;" direction="ltr" dominant-baseline="text-before-edge">...</text></g><g stroke-linecap="round"><g transform="translate(346.2728963671776 170) rotate(0 -25.426153021058724 39.5)"><path d="M0 0 C-8.48 13.17, -42.38 65.83, -50.85 79 M0 0 C-8.48 13.17, -42.38 65.83, -50.85 79" stroke="#1e1e1e" stroke-width="2" fill="none"></path></g><g transform="translate(346.2728963671776 170) rotate(0 -25.426153021058724 39.5)"><path d="M-50.85 79 L-48.82 64.14 L-38.16 71 L-50.85 79" stroke="none" stroke-width="0" fill="#1e1e1e" fill-rule="evenodd"></path><path d="M-50.85 79 C-50.23 74.45, -49.61 69.91, -48.82 64.14 M-50.85 79 C-50.23 74.47, -49.62 69.94, -48.82 64.14 M-48.82 64.14 C-46.56 65.6, -44.29 67.05, -38.16 71 M-48.82 64.14 C-46.22 65.81, -43.62 67.49, -38.16 71 M-38.16 71 C-43.17 74.16, -48.17 77.31, -50.85 79 M-38.16 71 C-42.7 73.86, -47.24 76.72, -50.85 79 M-50.85 79 C-50.85 79, -50.85 79, -50.85 79 M-50.85 79 C-50.85 79, -50.85 79, -50.85 79" stroke="#1e1e1e" stroke-width="2" fill="none"></path></g></g><mask></mask><g stroke-linecap="round"><g transform="translate(368.02367355864817 171) rotate(0 32.48011356303289 38.49999999999997)"><path d="M0 0 C10.83 12.83, 54.13 64.17, 64.96 77 M0 0 C10.83 12.83, 54.13 64.17, 64.96 77" stroke="#1e1e1e" stroke-width="2" fill="none"></path></g><g transform="translate(368.02367355864817 171) rotate(0 32.48011356303289 38.49999999999997)"><path d="M64.96 77 L51.35 70.7 L61.04 62.52 L64.96 77" stroke="none" stroke-width="0" fill="#1e1e1e" fill-rule="evenodd"></path><path d="M64.96 77 C61.93 75.6, 58.9 74.19, 51.35 70.7 M64.96 77 C62.15 75.7, 59.34 74.4, 51.35 70.7 M51.35 70.7 C54.93 67.68, 58.51 64.66, 61.04 62.52 M51.35 70.7 C53.75 68.67, 56.14 66.65, 61.04 62.52 M61.04 62.52 C61.98 66, 62.92 69.48, 64.96 77 M61.04 62.52 C61.9 65.71, 62.77 68.9, 64.96 77 M64.96 77 C64.96 77, 64.96 77, 64.96 77 M64.96 77 C64.96 77, 64.96 77, 64.96 77" stroke="#1e1e1e" stroke-width="2" fill="none"></path></g></g><mask></mask><g stroke-linecap="round" transform="translate(610 249) rotate(0 60 20)"><path d="M10 0 C31.22 0, 52.44 0, 110 0 M10 0 C39.64 0, 69.29 0, 110 0 M110 0 C116.67 0, 120 3.33, 120 10 M110 0 C116.67 0, 120 3.33, 120 10 M120 10 C120 14.38, 120 18.76, 120 30 M120 10 C120 15.2, 120 20.4, 120 30 M120 30 C120 36.67, 116.67 40, 110 40 M120 30 C120 36.67, 116.67 40, 110 40 M110 40 C85.16 40, 60.33 40, 10 40 M110 40 C74.22 40, 38.45 40, 10 40 M10 40 C3.33 40, 0 36.67, 0 30 M10 40 C3.33 40, 0 36.67, 0 30 M0 30 C0 22.95, 0 15.89, 0 10 M0 30 C0 22.74, 0 15.48, 0 10 M0 10 C0 3.33, 3.33 0, 10 0 M0 10 C0 3.33, 3.33 0, 10 0" stroke="#1e1e1e" stroke-width="2" fill="none"></path></g><g transform="translate(661.7800064086914 256.5) rotate(0 8.219993591308594 12.5)"><text x="8.219993591308594" y="0" font-family="Virgil, Segoe UI Emoji" font-size="20px" fill="#1e1e1e" text-anchor="middle" style="white-space: pre;" direction="ltr" dominant-baseline="text-before-edge">...</text></g><g stroke-linecap="round"><g transform="translate(590 170) rotate(0 39.32142213831844 37.99999999999997)"><path d="M0 0 C13.11 12.67, 65.54 63.33, 78.64 76 M0 0 C13.11 12.67, 65.54 63.33, 78.64 76" stroke="#1e1e1e" stroke-width="2" fill="none"></path></g><g transform="translate(590 170) rotate(0 39.32142213831844 37.99999999999997)"><path d="M78.64 76 L64.46 71.11 L73.27 61.99 L78.64 76" stroke="none" stroke-width="0" fill="#1e1e1e" fill-rule="evenodd"></path><path d="M78.64 76 C74.27 74.49, 69.89 72.98, 64.46 71.11 M78.64 76 C75.17 74.8, 71.7 73.61, 64.46 71.11 M64.46 71.11 C66.59 68.9, 68.73 66.7, 73.27 61.99 M64.46 71.11 C66.47 69.03, 68.48 66.95, 73.27 61.99 M73.27 61.99 C75.1 66.75, 76.92 71.51, 78.64 76 M73.27 61.99 C74.75 65.85, 76.23 69.7, 78.64 76 M78.64 76 C78.64 76, 78.64 76, 78.64 76 M78.64 76 C78.64 76, 78.64 76, 78.64 76" stroke="#1e1e1e" stroke-width="2" fill="none"></path></g></g><mask></mask></svg>