<svg version="1.1" xmlns="http://www.w3.org/2000/svg" viewBox="0 0 1080 540" width="2160" height="1080">
  <!-- svg-source:excalidraw -->
  
  <defs>
    <style class="style-fonts">
      @font-face {
        font-family: "Virgil";
        src: url("https://excalidraw.com/Virgil.woff2");
      }
      @font-face {
        font-family: "Cascadia";
        src: url("https://excalidraw.com/Cascadia.woff2");
      }
    </style>
    
  </defs>
  <rect x="0" y="0" width="1080" height="540" fill="#ffffff"></rect><g stroke-linecap="round" transform="translate(310 10) rotate(0 80 17.5)"><path d="M8.75 0 M8.75 0 C46.78 0, 84.8 0, 151.25 0 M8.75 0 C55.59 0, 102.44 0, 151.25 0 M151.25 0 C157.08 0, 160 2.92, 160 8.75 M151.25 0 C157.08 0, 160 2.92, 160 8.75 M160 8.75 C160 13.63, 160 18.52, 160 26.25 M160 8.75 C160 14.43, 160 20.11, 160 26.25 M160 26.25 C160 32.08, 157.08 35, 151.25 35 M160 26.25 C160 32.08, 157.08 35, 151.25 35 M151.25 35 C109 35, 66.75 35, 8.75 35 M151.25 35 C105.87 35, 60.49 35, 8.75 35 M8.75 35 C2.92 35, 0 32.08, 0 26.25 M8.75 35 C2.92 35, 0 32.08, 0 26.25 M0 26.25 C0 21.68, 0 17.11, 0 8.75 M0 26.25 C0 20.23, 0 14.21, 0 8.75 M0 8.75 C0 2.92, 2.92 0, 8.75 0 M0 8.75 C0 2.92, 2.92 0, 8.75 0" stroke="#1e1e1e" stroke-width="1" fill="none"></path></g><g transform="translate(343.8400421142578 15) rotate(0 46.15995788574219 12.5)"><text x="46.15995788574219" y="0" font-family="Virgil, Segoe UI Emoji" font-size="20px" fill="#1e1e1e" text-anchor="middle" style="white-space: pre;" direction="ltr" dominant-baseline="text-before-edge">Document</text></g><g stroke-linecap="round"><g transform="translate(390 50) rotate(0 0 10)"><path d="M0 0 C0 3.33, 0 16.67, 0 20 M0 0 C0 3.33, 0 16.67, 0 20" stroke="#1e1e1e" stroke-width="2" fill="none"></path></g></g><mask></mask><g stroke-linecap="round"><g transform="translate(130 150) rotate(0 220 0)"><path d="M0 0 C73.33 0, 366.67 0, 440 0 M0 0 C73.33 0, 366.67 0, 440 0" stroke="#1e1e1e" stroke-width="2" fill="none"></path></g></g><mask></mask><g stroke-linecap="round" transform="translate(310 70) rotate(0 80 30)"><path d="M15 0 M15 0 C47.62 0, 80.24 0, 145 0 M15 0 C57 0, 99 0, 145 0 M145 0 C155 0, 160 5, 160 15 M145 0 C155 0, 160 5, 160 15 M160 15 C160 24.78, 160 34.56, 160 45 M160 15 C160 24.67, 160 34.34, 160 45 M160 45 C160 55, 155 60, 145 60 M160 45 C160 55, 155 60, 145 60 M145 60 C109.58 60, 74.17 60, 15 60 M145 60 C95.45 60, 45.91 60, 15 60 M15 60 C5 60, 0 55, 0 45 M15 60 C5 60, 0 55, 0 45 M0 45 C0 35.78, 0 26.56, 0 15 M0 45 C0 36.06, 0 27.12, 0 15 M0 15 C0 5, 5 0, 15 0 M0 15 C0 5, 5 0, 15 0" stroke="#1e1e1e" stroke-width="1" fill="none"></path></g><g transform="translate(359.5500259399414 75) rotate(0 30.449974060058594 25)"><text x="30.449974060058594" y="0" font-family="Virgil, Segoe UI Emoji" font-size="20px" fill="#1e1e1e" text-anchor="middle" style="white-space: pre;" direction="ltr" dominant-baseline="text-before-edge">根元素</text><text x="30.449974060058594" y="25" font-family="Virgil, Segoe UI Emoji" font-size="20px" fill="#1e1e1e" text-anchor="middle" style="white-space: pre;" direction="ltr" dominant-baseline="text-before-edge">&lt;html&gt;</text></g><g stroke-linecap="round"><g transform="translate(390 130) rotate(0 0 10)"><path d="M0 0 C0 3.33, 0 16.67, 0 20 M0 0 C0 3.33, 0 16.67, 0 20" stroke="#1e1e1e" stroke-width="2" fill="none"></path></g></g><mask></mask><g stroke-linecap="round" transform="translate(50 170) rotate(0 80 30)"><path d="M15 0 M15 0 C54.01 0, 93.01 0, 145 0 M15 0 C54.11 0, 93.21 0, 145 0 M145 0 C155 0, 160 5, 160 15 M145 0 C155 0, 160 5, 160 15 M160 15 C160 26.03, 160 37.05, 160 45 M160 15 C160 21.91, 160 28.83, 160 45 M160 45 C160 55, 155 60, 145 60 M160 45 C160 55, 155 60, 145 60 M145 60 C103.86 60, 62.72 60, 15 60 M145 60 C98.23 60, 51.47 60, 15 60 M15 60 C5 60, 0 55, 0 45 M15 60 C5 60, 0 55, 0 45 M0 45 C0 38.31, 0 31.62, 0 15 M0 45 C0 33.41, 0 21.81, 0 15 M0 15 C0 5, 5 0, 15 0 M0 15 C0 5, 5 0, 15 0" stroke="#1e1e1e" stroke-width="1" fill="none"></path></g><g transform="translate(96.33002471923828 175) rotate(0 33.66997528076172 25)"><text x="33.66997528076172" y="0" font-family="Virgil, Segoe UI Emoji" font-size="20px" fill="#1e1e1e" text-anchor="middle" style="white-space: pre;" direction="ltr" dominant-baseline="text-before-edge">元素</text><text x="33.66997528076172" y="25" font-family="Virgil, Segoe UI Emoji" font-size="20px" fill="#1e1e1e" text-anchor="middle" style="white-space: pre;" direction="ltr" dominant-baseline="text-before-edge">&lt;head&gt;</text></g><g stroke-linecap="round"><g transform="translate(130 150) rotate(0 0 10)"><path d="M0 0 C0 3.33, 0 16.67, 0 20 M0 0 C0 3.33, 0 16.67, 0 20" stroke="#1e1e1e" stroke-width="2" fill="none"></path></g></g><mask></mask><g stroke-linecap="round" transform="translate(50 250) rotate(0 80 30)"><path d="M15 0 M15 0 C52.05 0, 89.11 0, 145 0 M15 0 C56.76 0, 98.51 0, 145 0 M145 0 C155 0, 160 5, 160 15 M145 0 C155 0, 160 5, 160 15 M160 15 C160 21.97, 160 28.94, 160 45 M160 15 C160 23.4, 160 31.8, 160 45 M160 45 C160 55, 155 60, 145 60 M160 45 C160 55, 155 60, 145 60 M145 60 C95.67 60, 46.34 60, 15 60 M145 60 C118.24 60, 91.49 60, 15 60 M15 60 C5 60, 0 55, 0 45 M15 60 C5 60, 0 55, 0 45 M0 45 C0 33.17, 0 21.35, 0 15 M0 45 C0 36.32, 0 27.64, 0 15 M0 15 C0 5, 5 0, 15 0 M0 15 C0 5, 5 0, 15 0" stroke="#1e1e1e" stroke-width="1" fill="none"></path></g><g transform="translate(97.5100326538086 255) rotate(0 32.489967346191406 25)"><text x="32.489967346191406" y="0" font-family="Virgil, Segoe UI Emoji" font-size="20px" fill="#1e1e1e" text-anchor="middle" style="white-space: pre;" direction="ltr" dominant-baseline="text-before-edge">元素</text><text x="32.489967346191406" y="25" font-family="Virgil, Segoe UI Emoji" font-size="20px" fill="#1e1e1e" text-anchor="middle" style="white-space: pre;" direction="ltr" dominant-baseline="text-before-edge">&lt;title&gt;</text></g><g stroke-linecap="round"><g transform="translate(130 230) rotate(0 0 10)"><path d="M0 0 C0 3.33, 0 16.67, 0 20 M0 0 C0 3.33, 0 16.67, 0 20" stroke="#1e1e1e" stroke-width="2" fill="none"></path></g></g><mask></mask><g stroke-linecap="round" transform="translate(10 330) rotate(0 120 30)"><path d="M15 0 M15 0 C70.53 0, 126.07 0, 225 0 M15 0 C64.35 0, 113.69 0, 225 0 M225 0 C235 0, 240 5, 240 15 M225 0 C235 0, 240 5, 240 15 M240 15 C240 26.69, 240 38.37, 240 45 M240 15 C240 26.55, 240 38.11, 240 45 M240 45 C240 55, 235 60, 225 60 M240 45 C240 55, 235 60, 225 60 M225 60 C151.62 60, 78.24 60, 15 60 M225 60 C143.69 60, 62.38 60, 15 60 M15 60 C5 60, 0 55, 0 45 M15 60 C5 60, 0 55, 0 45 M0 45 C0 38.15, 0 31.31, 0 15 M0 45 C0 36.68, 0 28.35, 0 15 M0 15 C0 5, 5 0, 15 0 M0 15 C0 5, 5 0, 15 0" stroke="#1e1e1e" stroke-width="1" fill="none"></path></g><g transform="translate(43.52003479003906 335) rotate(0 86.47996520996094 25)"><text x="86.47996520996094" y="0" font-family="Virgil, Segoe UI Emoji" font-size="20px" fill="#1e1e1e" text-anchor="middle" style="white-space: pre;" direction="ltr" dominant-baseline="text-before-edge">文本内容</text><text x="86.47996520996094" y="25" font-family="Virgil, Segoe UI Emoji" font-size="20px" fill="#1e1e1e" text-anchor="middle" style="white-space: pre;" direction="ltr" dominant-baseline="text-before-edge">"HTML DOM 示例"</text></g><g stroke-linecap="round"><g transform="translate(130 310) rotate(0 0 10)"><path d="M0 0 C0 3.33, 0 16.67, 0 20 M0 0 C0 3.33, 0 16.67, 0 20" stroke="#1e1e1e" stroke-width="2" fill="none"></path></g></g><mask></mask><g stroke-linecap="round" transform="translate(490 170) rotate(0 80 30)"><path d="M15 0 M15 0 C41.88 0, 68.77 0, 145 0 M15 0 C46.67 0, 78.35 0, 145 0 M145 0 C155 0, 160 5, 160 15 M145 0 C155 0, 160 5, 160 15 M160 15 C160 25.89, 160 36.78, 160 45 M160 15 C160 22.42, 160 29.85, 160 45 M160 45 C160 55, 155 60, 145 60 M160 45 C160 55, 155 60, 145 60 M145 60 C96.8 60, 48.6 60, 15 60 M145 60 C103.27 60, 61.55 60, 15 60 M15 60 C5 60, 0 55, 0 45 M15 60 C5 60, 0 55, 0 45 M0 45 C0 37.41, 0 29.81, 0 15 M0 45 C0 35.44, 0 25.89, 0 15 M0 15 C0 5, 5 0, 15 0 M0 15 C0 5, 5 0, 15 0" stroke="#1e1e1e" stroke-width="1" fill="none"></path></g><g transform="translate(538.1000289916992 175) rotate(0 31.89997100830078 25)"><text x="31.89997100830078" y="0" font-family="Virgil, Segoe UI Emoji" font-size="20px" fill="#1e1e1e" text-anchor="middle" style="white-space: pre;" direction="ltr" dominant-baseline="text-before-edge">元素</text><text x="31.89997100830078" y="25" font-family="Virgil, Segoe UI Emoji" font-size="20px" fill="#1e1e1e" text-anchor="middle" style="white-space: pre;" direction="ltr" dominant-baseline="text-before-edge">&lt;body&gt;</text></g><g stroke-linecap="round"><g transform="translate(570 150) rotate(0 0 10)"><path d="M0 0 C0 3.33, 0 16.67, 0 20 M0 0 C0 3.33, 0 16.67, 0 20" stroke="#1e1e1e" stroke-width="2" fill="none"></path></g></g><mask></mask><g stroke-linecap="round" transform="translate(290 270) rotate(0 80 30)"><path d="M15 0 M15 0 C57.86 0, 100.71 0, 145 0 M15 0 C43.09 0, 71.17 0, 145 0 M145 0 C155 0, 160 5, 160 15 M145 0 C155 0, 160 5, 160 15 M160 15 C160 22.36, 160 29.71, 160 45 M160 15 C160 21.14, 160 27.27, 160 45 M160 45 C160 55, 155 60, 145 60 M160 45 C160 55, 155 60, 145 60 M145 60 C115.5 60, 85.99 60, 15 60 M145 60 C107.11 60, 69.22 60, 15 60 M15 60 C5 60, 0 55, 0 45 M15 60 C5 60, 0 55, 0 45 M0 45 C0 34.78, 0 24.56, 0 15 M0 45 C0 35.18, 0 25.37, 0 15 M0 15 C0 5, 5 0, 15 0 M0 15 C0 5, 5 0, 15 0" stroke="#1e1e1e" stroke-width="1" fill="none"></path></g><g transform="translate(350 275) rotate(0 20 25)"><text x="20" y="0" font-family="Virgil, Segoe UI Emoji" font-size="20px" fill="#1e1e1e" text-anchor="middle" style="white-space: pre;" direction="ltr" dominant-baseline="text-before-edge">元素</text><text x="20" y="25" font-family="Virgil, Segoe UI Emoji" font-size="20px" fill="#1e1e1e" text-anchor="middle" style="white-space: pre;" direction="ltr" dominant-baseline="text-before-edge">&lt;h1&gt;</text></g><g stroke-linecap="round"><g transform="translate(570 230) rotate(0 0 10)"><path d="M0 0 C0 3.33, 0 16.67, 0 20 M0 0 C0 3.33, 0 16.67, 0 20" stroke="#1e1e1e" stroke-width="2" fill="none"></path></g></g><mask></mask><g stroke-linecap="round" transform="translate(290 350) rotate(0 80 30)"><path d="M15 0 M15 0 C66.5 0, 118 0, 145 0 M15 0 C45.37 0, 75.74 0, 145 0 M145 0 C155 0, 160 5, 160 15 M145 0 C155 0, 160 5, 160 15 M160 15 C160 21.22, 160 27.45, 160 45 M160 15 C160 22.36, 160 29.72, 160 45 M160 45 C160 55, 155 60, 145 60 M160 45 C160 55, 155 60, 145 60 M145 60 C115.62 60, 86.24 60, 15 60 M145 60 C98.32 60, 51.63 60, 15 60 M15 60 C5 60, 0 55, 0 45 M15 60 C5 60, 0 55, 0 45 M0 45 C0 34.66, 0 24.31, 0 15 M0 45 C0 36.38, 0 27.76, 0 15 M0 15 C0 5, 5 0, 15 0 M0 15 C0 5, 5 0, 15 0" stroke="#1e1e1e" stroke-width="1" fill="none"></path></g><g transform="translate(323.44000244140625 355) rotate(0 46.55999755859375 25)"><text x="46.55999755859375" y="0" font-family="Virgil, Segoe UI Emoji" font-size="20px" fill="#1e1e1e" text-anchor="middle" style="white-space: pre;" direction="ltr" dominant-baseline="text-before-edge">文本内容</text><text x="46.55999755859375" y="25" font-family="Virgil, Segoe UI Emoji" font-size="20px" fill="#1e1e1e" text-anchor="middle" style="white-space: pre;" direction="ltr" dominant-baseline="text-before-edge">"一级标题"</text></g><g stroke-linecap="round"><g transform="translate(370 330) rotate(0 0 10)"><path d="M0 0 C0 3.33, 0 16.67, 0 20 M0 0 C0 3.33, 0 16.67, 0 20" stroke="#1e1e1e" stroke-width="2" fill="none"></path></g></g><mask></mask><g stroke-linecap="round"><g transform="translate(370 250) rotate(0 150 0)"><path d="M0 0 C50 0, 250 0, 300 0 M0 0 C50 0, 250 0, 300 0" stroke="#1e1e1e" stroke-width="2" fill="none"></path></g></g><mask></mask><g stroke-linecap="round"><g transform="translate(370 250) rotate(0 0 10)"><path d="M0 0 C0 3.33, 0 16.67, 0 20 M0 0 C0 3.33, 0 16.67, 0 20" stroke="#1e1e1e" stroke-width="2" fill="none"></path></g></g><mask></mask><g stroke-linecap="round" transform="translate(590 270) rotate(0 80 30)"><path d="M15 0 M15 0 C43.53 0, 72.07 0, 145 0 M15 0 C55.27 0, 95.53 0, 145 0 M145 0 C155 0, 160 5, 160 15 M145 0 C155 0, 160 5, 160 15 M160 15 C160 25.99, 160 36.98, 160 45 M160 15 C160 26.73, 160 38.46, 160 45 M160 45 C160 55, 155 60, 145 60 M160 45 C160 55, 155 60, 145 60 M145 60 C108.77 60, 72.54 60, 15 60 M145 60 C106.11 60, 67.23 60, 15 60 M15 60 C5 60, 0 55, 0 45 M15 60 C5 60, 0 55, 0 45 M0 45 C0 35.42, 0 25.83, 0 15 M0 45 C0 37.27, 0 29.53, 0 15 M0 15 C0 5, 5 0, 15 0 M0 15 C0 5, 5 0, 15 0" stroke="#1e1e1e" stroke-width="1" fill="none"></path></g><g transform="translate(650 275) rotate(0 20 25)"><text x="20" y="0" font-family="Virgil, Segoe UI Emoji" font-size="20px" fill="#1e1e1e" text-anchor="middle" style="white-space: pre;" direction="ltr" dominant-baseline="text-before-edge">元素</text><text x="20" y="25" font-family="Virgil, Segoe UI Emoji" font-size="20px" fill="#1e1e1e" text-anchor="middle" style="white-space: pre;" direction="ltr" dominant-baseline="text-before-edge">&lt;p&gt;</text></g><g stroke-linecap="round" transform="translate(490 370) rotate(0 120 30)"><path d="M15 0 M15 0 C58.28 0, 101.55 0, 225 0 M15 0 C66.37 0, 117.74 0, 225 0 M225 0 C235 0, 240 5, 240 15 M225 0 C235 0, 240 5, 240 15 M240 15 C240 25.62, 240 36.25, 240 45 M240 15 C240 23.62, 240 32.24, 240 45 M240 45 C240 55, 235 60, 225 60 M240 45 C240 55, 235 60, 225 60 M225 60 C175.4 60, 125.79 60, 15 60 M225 60 C144.27 60, 63.53 60, 15 60 M15 60 C5 60, 0 55, 0 45 M15 60 C5 60, 0 55, 0 45 M0 45 C0 35.84, 0 26.68, 0 15 M0 45 C0 33.63, 0 22.27, 0 15 M0 15 C0 5, 5 0, 15 0 M0 15 C0 5, 5 0, 15 0" stroke="#1e1e1e" stroke-width="1" fill="none"></path></g><g transform="translate(506.25000762939453 375) rotate(0 103.74999237060547 25)"><text x="103.74999237060547" y="0" font-family="Virgil, Segoe UI Emoji" font-size="20px" fill="#1e1e1e" text-anchor="middle" style="white-space: pre;" direction="ltr" dominant-baseline="text-before-edge">文本内容</text><text x="103.74999237060547" y="25" font-family="Virgil, Segoe UI Emoji" font-size="20px" fill="#1e1e1e" text-anchor="middle" style="white-space: pre;" direction="ltr" dominant-baseline="text-before-edge">"一个段落 &amp; 一个链接"</text></g><g stroke-linecap="round"><g transform="translate(670 330) rotate(0 0 10)"><path d="M0 0 C0 3.33, 0 16.67, 0 20 M0 0 C0 3.33, 0 16.67, 0 20" stroke="#1e1e1e" stroke-width="2" fill="none"></path></g></g><mask></mask><g stroke-linecap="round"><g transform="translate(670 250) rotate(0 0 10)"><path d="M0 0 C0 3.33, 0 16.67, 0 20 M0 0 C0 3.33, 0 16.67, 0 20" stroke="#1e1e1e" stroke-width="2" fill="none"></path></g></g><mask></mask><g stroke-linecap="round"><g transform="translate(610 350) rotate(0 130 0)"><path d="M0 0 C43.33 0, 216.67 0, 260 0 M0 0 C43.33 0, 216.67 0, 260 0" stroke="#1e1e1e" stroke-width="2" fill="none"></path></g></g><mask></mask><g stroke-linecap="round" transform="translate(790 370) rotate(0 80 30)"><path d="M15 0 M15 0 C44.27 0, 73.54 0, 145 0 M15 0 C64.86 0, 114.73 0, 145 0 M145 0 C155 0, 160 5, 160 15 M145 0 C155 0, 160 5, 160 15 M160 15 C160 24.16, 160 33.33, 160 45 M160 15 C160 23.06, 160 31.12, 160 45 M160 45 C160 55, 155 60, 145 60 M160 45 C160 55, 155 60, 145 60 M145 60 C96.9 60, 48.79 60, 15 60 M145 60 C112.45 60, 79.9 60, 15 60 M15 60 C5 60, 0 55, 0 45 M15 60 C5 60, 0 55, 0 45 M0 45 C0 38.62, 0 32.25, 0 15 M0 45 C0 37.44, 0 29.88, 0 15 M0 15 C0 5, 5 0, 15 0 M0 15 C0 5, 5 0, 15 0" stroke="#1e1e1e" stroke-width="1" fill="none"></path></g><g transform="translate(850 375) rotate(0 20 25)"><text x="20" y="0" font-family="Virgil, Segoe UI Emoji" font-size="20px" fill="#1e1e1e" text-anchor="middle" style="white-space: pre;" direction="ltr" dominant-baseline="text-before-edge">元素</text><text x="20" y="25" font-family="Virgil, Segoe UI Emoji" font-size="20px" fill="#1e1e1e" text-anchor="middle" style="white-space: pre;" direction="ltr" dominant-baseline="text-before-edge">&lt;a&gt;</text></g><g stroke-linecap="round" transform="translate(870 470) rotate(0 100 30)"><path d="M15 0 M15 0 C59.29 0, 103.58 0, 185 0 M15 0 C64.47 0, 113.95 0, 185 0 M185 0 C195 0, 200 5, 200 15 M185 0 C195 0, 200 5, 200 15 M200 15 C200 23.92, 200 32.85, 200 45 M200 15 C200 25.48, 200 35.95, 200 45 M200 45 C200 55, 195 60, 185 60 M200 45 C200 55, 195 60, 185 60 M185 60 C125.19 60, 65.38 60, 15 60 M185 60 C130.07 60, 75.13 60, 15 60 M15 60 C5 60, 0 55, 0 45 M15 60 C5 60, 0 55, 0 45 M0 45 C0 37.71, 0 30.43, 0 15 M0 45 C0 34.46, 0 23.91, 0 15 M0 15 C0 5, 5 0, 15 0 M0 15 C0 5, 5 0, 15 0" stroke="#1e1e1e" stroke-width="1" fill="none"></path></g><g transform="translate(930 475) rotate(0 40 25)"><text x="40" y="0" font-family="Virgil, Segoe UI Emoji" font-size="20px" fill="#1e1e1e" text-anchor="middle" style="white-space: pre;" direction="ltr" dominant-baseline="text-before-edge">文本内容</text><text x="40" y="25" font-family="Virgil, Segoe UI Emoji" font-size="20px" fill="#1e1e1e" text-anchor="middle" style="white-space: pre;" direction="ltr" dominant-baseline="text-before-edge">"链接"</text></g><g stroke-linecap="round"><g transform="translate(870 350) rotate(0 0 10)"><path d="M0 0 C0 3.33, 0 16.67, 0 20 M0 0 C0 3.33, 0 16.67, 0 20" stroke="#1e1e1e" stroke-width="2" fill="none"></path></g></g><mask></mask><g stroke-linecap="round"><g transform="translate(610 350) rotate(0 0 10)"><path d="M0 0 C0 3.33, 0 16.67, 0 20 M0 0 C0 3.33, 0 16.67, 0 20" stroke="#1e1e1e" stroke-width="2" fill="none"></path></g></g><mask></mask><g stroke-linecap="round"><g transform="translate(870 430) rotate(0 0 10)"><path d="M0 0 C0 3.33, 0 16.67, 0 20 M0 0 C0 3.33, 0 16.67, 0 20" stroke="#1e1e1e" stroke-width="2" fill="none"></path></g></g><mask></mask><g stroke-linecap="round"><g transform="translate(710 450) rotate(0 130 0)"><path d="M0 0 C43.33 0, 216.67 0, 260 0 M0 0 C43.33 0, 216.67 0, 260 0" stroke="#1e1e1e" stroke-width="2" fill="none"></path></g></g><mask></mask><g stroke-linecap="round"><g transform="translate(970 450) rotate(0 0 10)"><path d="M0 0 C0 3.33, 0 16.67, 0 20 M0 0 C0 3.33, 0 16.67, 0 20" stroke="#1e1e1e" stroke-width="2" fill="none"></path></g></g><mask></mask><g stroke-linecap="round" transform="translate(610 470) rotate(0 100 30)"><path d="M15 0 M15 0 C66 0, 116.99 0, 185 0 M15 0 C53.78 0, 92.56 0, 185 0 M185 0 C195 0, 200 5, 200 15 M185 0 C195 0, 200 5, 200 15 M200 15 C200 25.41, 200 35.82, 200 45 M200 15 C200 21.51, 200 28.01, 200 45 M200 45 C200 55, 195 60, 185 60 M200 45 C200 55, 195 60, 185 60 M185 60 C145.64 60, 106.27 60, 15 60 M185 60 C118.6 60, 52.2 60, 15 60 M15 60 C5 60, 0 55, 0 45 M15 60 C5 60, 0 55, 0 45 M0 45 C0 35.12, 0 25.24, 0 15 M0 45 C0 33.65, 0 22.3, 0 15 M0 15 C0 5, 5 0, 15 0 M0 15 C0 5, 5 0, 15 0" stroke="#1e1e1e" stroke-width="1" fill="none"></path></g><g transform="translate(668.4800338745117 475) rotate(0 41.51996612548828 25)"><text x="41.51996612548828" y="0" font-family="Virgil, Segoe UI Emoji" font-size="20px" fill="#1e1e1e" text-anchor="middle" style="white-space: pre;" direction="ltr" dominant-baseline="text-before-edge">属性</text><text x="41.51996612548828" y="25" font-family="Virgil, Segoe UI Emoji" font-size="20px" fill="#1e1e1e" text-anchor="middle" style="white-space: pre;" direction="ltr" dominant-baseline="text-before-edge">href: "#"</text></g><g stroke-linecap="round"><g transform="translate(710 450) rotate(0 0 10)"><path d="M0 0 C0 3.33, 0 16.67, 0 20 M0 0 C0 3.33, 0 16.67, 0 20" stroke="#1e1e1e" stroke-width="2" fill="none"></path></g></g><mask></mask></svg>