<svg version="1.1" xmlns="http://www.w3.org/2000/svg" viewBox="0 0 900 740" width="1800" height="1480">
  <!-- svg-source:excalidraw -->
  
  <defs>
    <style class="style-fonts">
      @font-face {
        font-family: "Virgil";
        src: url("https://excalidraw.com/Virgil.woff2");
      }
      @font-face {
        font-family: "Cascadia";
        src: url("https://excalidraw.com/Cascadia.woff2");
      }
    </style>
    
  </defs>
  <rect x="0" y="0" width="900" height="740" fill="#ffffff"></rect><g stroke-linecap="round"><g transform="translate(50.92371378449667 228.2116483946205) rotate(0 59.538143107751665 0.8941758026897446)"><path d="M0 0 C19.85 0.3, 99.23 1.49, 119.08 1.79 M0 0 C19.85 0.3, 99.23 1.49, 119.08 1.79" stroke="#1e1e1e" stroke-width="2" fill="none"></path></g><g transform="translate(50.92371378449667 228.2116483946205) rotate(0 59.538143107751665 0.8941758026897446)"><path d="M90.73 11.62 C98.93 8.78, 107.13 5.93, 119.08 1.79 M90.73 11.62 C101.59 7.86, 112.45 4.09, 119.08 1.79" stroke="#1e1e1e" stroke-width="2" fill="none"></path></g><g transform="translate(50.92371378449667 228.2116483946205) rotate(0 59.538143107751665 0.8941758026897446)"><path d="M91.04 -8.89 C99.15 -5.8, 107.26 -2.71, 119.08 1.79 M91.04 -8.89 C101.78 -4.8, 112.52 -0.71, 119.08 1.79" stroke="#1e1e1e" stroke-width="2" fill="none"></path></g></g><mask></mask><g stroke-linecap="round" transform="translate(743.3333333333333 603.3333333333333) rotate(0 6.666666666666629 6.666666666666686)"><path d="M13.33 6.67 C13.33 7.05, 13.3 7.44, 13.23 7.82 C13.17 8.2, 13.06 8.58, 12.93 8.95 C12.8 9.31, 12.63 9.67, 12.44 10 C12.25 10.33, 12.02 10.66, 11.77 10.95 C11.53 11.25, 11.25 11.53, 10.95 11.77 C10.66 12.02, 10.33 12.25, 10 12.44 C9.67 12.63, 9.31 12.8, 8.95 12.93 C8.58 13.06, 8.2 13.17, 7.82 13.23 C7.44 13.3, 7.05 13.33, 6.67 13.33 C6.28 13.33, 5.89 13.3, 5.51 13.23 C5.13 13.17, 4.75 13.06, 4.39 12.93 C4.02 12.8, 3.67 12.63, 3.33 12.44 C3 12.25, 2.68 12.02, 2.38 11.77 C2.09 11.53, 1.81 11.25, 1.56 10.95 C1.31 10.66, 1.09 10.33, 0.89 10 C0.7 9.67, 0.53 9.31, 0.4 8.95 C0.27 8.58, 0.17 8.2, 0.1 7.82 C0.03 7.44, 0 7.05, 0 6.67 C0 6.28, 0.03 5.89, 0.1 5.51 C0.17 5.13, 0.27 4.75, 0.4 4.39 C0.53 4.02, 0.7 3.67, 0.89 3.33 C1.09 3, 1.31 2.68, 1.56 2.38 C1.81 2.09, 2.09 1.81, 2.38 1.56 C2.68 1.31, 3 1.09, 3.33 0.89 C3.67 0.7, 4.02 0.53, 4.39 0.4 C4.75 0.27, 5.13 0.17, 5.51 0.1 C5.89 0.03, 6.28 0, 6.67 0 C7.05 0, 7.44 0.03, 7.82 0.1 C8.2 0.17, 8.58 0.27, 8.95 0.4 C9.31 0.53, 9.67 0.7, 10 0.89 C10.33 1.09, 10.66 1.31, 10.95 1.56 C11.25 1.81, 11.53 2.09, 11.77 2.38 C12.02 2.68, 12.25 3, 12.44 3.33 C12.63 3.67, 12.8 4.02, 12.93 4.39 C13.06 4.75, 13.17 5.13, 13.23 5.51 C13.3 5.89, 13.32 6.47, 13.33 6.67 C13.35 6.86, 13.35 6.47, 13.33 6.67" stroke="none" stroke-width="0" fill="#1e1e1e"></path><path d="M13.33 6.67 C13.33 7.05, 13.3 7.44, 13.23 7.82 C13.17 8.2, 13.06 8.58, 12.93 8.95 C12.8 9.31, 12.63 9.67, 12.44 10 C12.25 10.33, 12.02 10.66, 11.77 10.95 C11.53 11.25, 11.25 11.53, 10.95 11.77 C10.66 12.02, 10.33 12.25, 10 12.44 C9.67 12.63, 9.31 12.8, 8.95 12.93 C8.58 13.06, 8.2 13.17, 7.82 13.23 C7.44 13.3, 7.05 13.33, 6.67 13.33 C6.28 13.33, 5.89 13.3, 5.51 13.23 C5.13 13.17, 4.75 13.06, 4.39 12.93 C4.02 12.8, 3.67 12.63, 3.33 12.44 C3 12.25, 2.68 12.02, 2.38 11.77 C2.09 11.53, 1.81 11.25, 1.56 10.95 C1.31 10.66, 1.09 10.33, 0.89 10 C0.7 9.67, 0.53 9.31, 0.4 8.95 C0.27 8.58, 0.17 8.2, 0.1 7.82 C0.03 7.44, 0 7.05, 0 6.67 C0 6.28, 0.03 5.89, 0.1 5.51 C0.17 5.13, 0.27 4.75, 0.4 4.39 C0.53 4.02, 0.7 3.67, 0.89 3.33 C1.09 3, 1.31 2.68, 1.56 2.38 C1.81 2.09, 2.09 1.81, 2.38 1.56 C2.68 1.31, 3 1.09, 3.33 0.89 C3.67 0.7, 4.02 0.53, 4.39 0.4 C4.75 0.27, 5.13 0.17, 5.51 0.1 C5.89 0.03, 6.28 0, 6.67 0 C7.05 0, 7.44 0.03, 7.82 0.1 C8.2 0.17, 8.58 0.27, 8.95 0.4 C9.31 0.53, 9.67 0.7, 10 0.89 C10.33 1.09, 10.66 1.31, 10.95 1.56 C11.25 1.81, 11.53 2.09, 11.77 2.38 C12.02 2.68, 12.25 3, 12.44 3.33 C12.63 3.67, 12.8 4.02, 12.93 4.39 C13.06 4.75, 13.17 5.13, 13.23 5.51 C13.3 5.89, 13.32 6.47, 13.33 6.67 C13.35 6.86, 13.35 6.47, 13.33 6.67" stroke="#1e1e1e" stroke-width="4" fill="none"></path></g><g stroke-linecap="round" transform="translate(730 590) rotate(0 20 20)"><path d="M40 20 C40 21.16, 39.9 22.33, 39.7 23.47 C39.5 24.61, 39.19 25.75, 38.79 26.84 C38.4 27.93, 37.9 29, 37.32 30 C36.74 31, 36.07 31.97, 35.32 32.86 C34.58 33.74, 33.74 34.58, 32.86 35.32 C31.97 36.07, 31 36.74, 30 37.32 C29 37.9, 27.93 38.4, 26.84 38.79 C25.75 39.19, 24.61 39.5, 23.47 39.7 C22.33 39.9, 21.16 40, 20 40 C18.84 40, 17.67 39.9, 16.53 39.7 C15.39 39.5, 14.25 39.19, 13.16 38.79 C12.07 38.4, 11 37.9, 10 37.32 C9 36.74, 8.03 36.07, 7.14 35.32 C6.26 34.58, 5.42 33.74, 4.68 32.86 C3.93 31.97, 3.26 31, 2.68 30 C2.1 29, 1.6 27.93, 1.21 26.84 C0.81 25.75, 0.5 24.61, 0.3 23.47 C0.1 22.33, 0 21.16, 0 20 C0 18.84, 0.1 17.67, 0.3 16.53 C0.5 15.39, 0.81 14.25, 1.21 13.16 C1.6 12.07, 2.1 11, 2.68 10 C3.26 9, 3.93 8.03, 4.68 7.14 C5.42 6.26, 6.26 5.42, 7.14 4.68 C8.03 3.93, 9 3.26, 10 2.68 C11 2.1, 12.07 1.6, 13.16 1.21 C14.25 0.81, 15.39 0.5, 16.53 0.3 C17.67 0.1, 18.84 0, 20 0 C21.16 0, 22.33 0.1, 23.47 0.3 C24.61 0.5, 25.75 0.81, 26.84 1.21 C27.93 1.6, 29 2.1, 30 2.68 C31 3.26, 31.97 3.93, 32.86 4.68 C33.74 5.42, 34.58 6.26, 35.32 7.14 C36.07 8.03, 36.74 9, 37.32 10 C37.9 11, 38.4 12.07, 38.79 13.16 C39.19 14.25, 39.5 15.39, 39.7 16.53 C39.9 17.67, 39.95 19.42, 40 20 C40.05 20.58, 40.05 19.42, 40 20" stroke="#1e1e1e" stroke-width="4" fill="none"></path></g><g stroke-linecap="round" transform="translate(170 130) rotate(0 80 90)"><path d="M32 0 M32 0 C60.4 0, 88.8 0, 128 0 M32 0 C59.7 0, 87.4 0, 128 0 M128 0 C149.33 0, 160 10.67, 160 32 M128 0 C149.33 0, 160 10.67, 160 32 M160 32 C160 63.24, 160 94.47, 160 148 M160 32 C160 55.68, 160 79.36, 160 148 M160 148 C160 169.33, 149.33 180, 128 180 M160 148 C160 169.33, 149.33 180, 128 180 M128 180 C102.71 180, 77.43 180, 32 180 M128 180 C104.05 180, 80.11 180, 32 180 M32 180 C10.67 180, 0 169.33, 0 148 M32 180 C10.67 180, 0 169.33, 0 148 M0 148 C0 116.13, 0 84.26, 0 32 M0 148 C0 124.62, 0 101.24, 0 32 M0 32 C0 10.67, 10.67 0, 32 0 M0 32 C0 10.67, 10.67 0, 32 0" stroke="#1e1e1e" stroke-width="4" fill="none"></path></g><g transform="translate(190 207.5) rotate(0 60 12.5)"><text x="60" y="0" font-family="Virgil, Segoe UI Emoji" font-size="20px" fill="#1e1e1e" text-anchor="middle" style="white-space: pre;" direction="ltr" dominant-baseline="text-before-edge">分析下个字符</text></g><g transform="translate(230 150) rotate(0 20 12.5)"><text x="20" y="0" font-family="Virgil, Segoe UI Emoji" font-size="20px" fill="#1e1e1e" text-anchor="middle" style="white-space: pre;" direction="ltr" dominant-baseline="text-before-edge">未知</text></g><g stroke-linecap="round"><g transform="translate(170 170) rotate(0 80 0)"><path d="M0 0 C26.67 0, 133.33 0, 160 0 M0 0 C26.67 0, 133.33 0, 160 0" stroke="#1e1e1e" stroke-width="2" fill="none"></path></g></g><mask></mask><g stroke-linecap="round" transform="translate(23.33333333333303 223.33333333333326) rotate(0 6.666666666666657 6.666666666666657)"><path d="M13.33 6.67 C13.33 7.05, 13.3 7.44, 13.23 7.82 C13.17 8.2, 13.06 8.58, 12.93 8.95 C12.8 9.31, 12.63 9.67, 12.44 10 C12.25 10.33, 12.02 10.66, 11.77 10.95 C11.53 11.25, 11.25 11.53, 10.95 11.77 C10.66 12.02, 10.33 12.25, 10 12.44 C9.67 12.63, 9.31 12.8, 8.95 12.93 C8.58 13.06, 8.2 13.17, 7.82 13.23 C7.44 13.3, 7.05 13.33, 6.67 13.33 C6.28 13.33, 5.89 13.3, 5.51 13.23 C5.13 13.17, 4.75 13.06, 4.39 12.93 C4.02 12.8, 3.67 12.63, 3.33 12.44 C3 12.25, 2.68 12.02, 2.38 11.77 C2.09 11.53, 1.81 11.25, 1.56 10.95 C1.31 10.66, 1.09 10.33, 0.89 10 C0.7 9.67, 0.53 9.31, 0.4 8.95 C0.27 8.58, 0.17 8.2, 0.1 7.82 C0.03 7.44, 0 7.05, 0 6.67 C0 6.28, 0.03 5.89, 0.1 5.51 C0.17 5.13, 0.27 4.75, 0.4 4.39 C0.53 4.02, 0.7 3.67, 0.89 3.33 C1.09 3, 1.31 2.68, 1.56 2.38 C1.81 2.09, 2.09 1.81, 2.38 1.56 C2.68 1.31, 3 1.09, 3.33 0.89 C3.67 0.7, 4.02 0.53, 4.39 0.4 C4.75 0.27, 5.13 0.17, 5.51 0.1 C5.89 0.03, 6.28 0, 6.67 0 C7.05 0, 7.44 0.03, 7.82 0.1 C8.2 0.17, 8.58 0.27, 8.95 0.4 C9.31 0.53, 9.67 0.7, 10 0.89 C10.33 1.09, 10.66 1.31, 10.95 1.56 C11.25 1.81, 11.53 2.09, 11.77 2.38 C12.02 2.68, 12.25 3, 12.44 3.33 C12.63 3.67, 12.8 4.02, 12.93 4.39 C13.06 4.75, 13.17 5.13, 13.23 5.51 C13.3 5.89, 13.32 6.47, 13.33 6.67 C13.35 6.86, 13.35 6.47, 13.33 6.67" stroke="none" stroke-width="0" fill="#1e1e1e"></path><path d="M13.33 6.67 C13.33 7.05, 13.3 7.44, 13.23 7.82 C13.17 8.2, 13.06 8.58, 12.93 8.95 C12.8 9.31, 12.63 9.67, 12.44 10 C12.25 10.33, 12.02 10.66, 11.77 10.95 C11.53 11.25, 11.25 11.53, 10.95 11.77 C10.66 12.02, 10.33 12.25, 10 12.44 C9.67 12.63, 9.31 12.8, 8.95 12.93 C8.58 13.06, 8.2 13.17, 7.82 13.23 C7.44 13.3, 7.05 13.33, 6.67 13.33 C6.28 13.33, 5.89 13.3, 5.51 13.23 C5.13 13.17, 4.75 13.06, 4.39 12.93 C4.02 12.8, 3.67 12.63, 3.33 12.44 C3 12.25, 2.68 12.02, 2.38 11.77 C2.09 11.53, 1.81 11.25, 1.56 10.95 C1.31 10.66, 1.09 10.33, 0.89 10 C0.7 9.67, 0.53 9.31, 0.4 8.95 C0.27 8.58, 0.17 8.2, 0.1 7.82 C0.03 7.44, 0 7.05, 0 6.67 C0 6.28, 0.03 5.89, 0.1 5.51 C0.17 5.13, 0.27 4.75, 0.4 4.39 C0.53 4.02, 0.7 3.67, 0.89 3.33 C1.09 3, 1.31 2.68, 1.56 2.38 C1.81 2.09, 2.09 1.81, 2.38 1.56 C2.68 1.31, 3 1.09, 3.33 0.89 C3.67 0.7, 4.02 0.53, 4.39 0.4 C4.75 0.27, 5.13 0.17, 5.51 0.1 C5.89 0.03, 6.28 0, 6.67 0 C7.05 0, 7.44 0.03, 7.82 0.1 C8.2 0.17, 8.58 0.27, 8.95 0.4 C9.31 0.53, 9.67 0.7, 10 0.89 C10.33 1.09, 10.66 1.31, 10.95 1.56 C11.25 1.81, 11.53 2.09, 11.77 2.38 C12.02 2.68, 12.25 3, 12.44 3.33 C12.63 3.67, 12.8 4.02, 12.93 4.39 C13.06 4.75, 13.17 5.13, 13.23 5.51 C13.3 5.89, 13.32 6.47, 13.33 6.67 C13.35 6.86, 13.35 6.47, 13.33 6.67" stroke="#1e1e1e" stroke-width="4" fill="none"></path></g><g stroke-linecap="round" transform="translate(10 210) rotate(0 20 20)"><path d="M40 20 C40 21.16, 39.9 22.33, 39.7 23.47 C39.5 24.61, 39.19 25.75, 38.79 26.84 C38.4 27.93, 37.9 29, 37.32 30 C36.74 31, 36.07 31.97, 35.32 32.86 C34.58 33.74, 33.74 34.58, 32.86 35.32 C31.97 36.07, 31 36.74, 30 37.32 C29 37.9, 27.93 38.4, 26.84 38.79 C25.75 39.19, 24.61 39.5, 23.47 39.7 C22.33 39.9, 21.16 40, 20 40 C18.84 40, 17.67 39.9, 16.53 39.7 C15.39 39.5, 14.25 39.19, 13.16 38.79 C12.07 38.4, 11 37.9, 10 37.32 C9 36.74, 8.03 36.07, 7.14 35.32 C6.26 34.58, 5.42 33.74, 4.68 32.86 C3.93 31.97, 3.26 31, 2.68 30 C2.1 29, 1.6 27.93, 1.21 26.84 C0.81 25.75, 0.5 24.61, 0.3 23.47 C0.1 22.33, 0 21.16, 0 20 C0 18.84, 0.1 17.67, 0.3 16.53 C0.5 15.39, 0.81 14.25, 1.21 13.16 C1.6 12.07, 2.1 11, 2.68 10 C3.26 9, 3.93 8.03, 4.68 7.14 C5.42 6.26, 6.26 5.42, 7.14 4.68 C8.03 3.93, 9 3.26, 10 2.68 C11 2.1, 12.07 1.6, 13.16 1.21 C14.25 0.81, 15.39 0.5, 16.53 0.3 C17.67 0.1, 18.84 0, 20 0 C21.16 0, 22.33 0.1, 23.47 0.3 C24.61 0.5, 25.75 0.81, 26.84 1.21 C27.93 1.6, 29 2.1, 30 2.68 C31 3.26, 31.97 3.93, 32.86 4.68 C33.74 5.42, 34.58 6.26, 35.32 7.14 C36.07 8.03, 36.74 9, 37.32 10 C37.9 11, 38.4 12.07, 38.79 13.16 C39.19 14.25, 39.5 15.39, 39.7 16.53 C39.9 17.67, 39.95 19.42, 40 20 C40.05 20.58, 40.05 19.42, 40 20" stroke="none" stroke-width="0" fill="#1e1e1e"></path><path d="M40 20 C40 21.16, 39.9 22.33, 39.7 23.47 C39.5 24.61, 39.19 25.75, 38.79 26.84 C38.4 27.93, 37.9 29, 37.32 30 C36.74 31, 36.07 31.97, 35.32 32.86 C34.58 33.74, 33.74 34.58, 32.86 35.32 C31.97 36.07, 31 36.74, 30 37.32 C29 37.9, 27.93 38.4, 26.84 38.79 C25.75 39.19, 24.61 39.5, 23.47 39.7 C22.33 39.9, 21.16 40, 20 40 C18.84 40, 17.67 39.9, 16.53 39.7 C15.39 39.5, 14.25 39.19, 13.16 38.79 C12.07 38.4, 11 37.9, 10 37.32 C9 36.74, 8.03 36.07, 7.14 35.32 C6.26 34.58, 5.42 33.74, 4.68 32.86 C3.93 31.97, 3.26 31, 2.68 30 C2.1 29, 1.6 27.93, 1.21 26.84 C0.81 25.75, 0.5 24.61, 0.3 23.47 C0.1 22.33, 0 21.16, 0 20 C0 18.84, 0.1 17.67, 0.3 16.53 C0.5 15.39, 0.81 14.25, 1.21 13.16 C1.6 12.07, 2.1 11, 2.68 10 C3.26 9, 3.93 8.03, 4.68 7.14 C5.42 6.26, 6.26 5.42, 7.14 4.68 C8.03 3.93, 9 3.26, 10 2.68 C11 2.1, 12.07 1.6, 13.16 1.21 C14.25 0.81, 15.39 0.5, 16.53 0.3 C17.67 0.1, 18.84 0, 20 0 C21.16 0, 22.33 0.1, 23.47 0.3 C24.61 0.5, 25.75 0.81, 26.84 1.21 C27.93 1.6, 29 2.1, 30 2.68 C31 3.26, 31.97 3.93, 32.86 4.68 C33.74 5.42, 34.58 6.26, 35.32 7.14 C36.07 8.03, 36.74 9, 37.32 10 C37.9 11, 38.4 12.07, 38.79 13.16 C39.19 14.25, 39.5 15.39, 39.7 16.53 C39.9 17.67, 39.95 19.42, 40 20 C40.05 20.58, 40.05 19.42, 40 20" stroke="#1e1e1e" stroke-width="4" fill="none"></path></g><g stroke-linecap="round" transform="translate(510 10) rotate(0 80 80)"><path d="M32 0 M32 0 C55.53 0, 79.06 0, 128 0 M32 0 C61.76 0, 91.53 0, 128 0 M128 0 C149.33 0, 160 10.67, 160 32 M128 0 C149.33 0, 160 10.67, 160 32 M160 32 C160 53, 160 74, 160 128 M160 32 C160 59.44, 160 86.88, 160 128 M160 128 C160 149.33, 149.33 160, 128 160 M160 128 C160 149.33, 149.33 160, 128 160 M128 160 C95.27 160, 62.55 160, 32 160 M128 160 C103.47 160, 78.95 160, 32 160 M32 160 C10.67 160, 0 149.33, 0 128 M32 160 C10.67 160, 0 149.33, 0 128 M0 128 C0 107.49, 0 86.99, 0 32 M0 128 C0 91.86, 0 55.71, 0 32 M0 32 C0 10.67, 10.67 0, 32 0 M0 32 C0 10.67, 10.67 0, 32 0" stroke="#1e1e1e" stroke-width="4" fill="none"></path></g><g transform="translate(530 77.5) rotate(0 60 12.5)"><text x="60" y="0" font-family="Virgil, Segoe UI Emoji" font-size="20px" fill="#1e1e1e" text-anchor="middle" style="white-space: pre;" direction="ltr" dominant-baseline="text-before-edge">分析下个字符</text></g><g transform="translate(563.120002746582 30) rotate(0 26.87999725341797 12.5)"><text x="26.87999725341797" y="0" font-family="Virgil, Segoe UI Emoji" font-size="20px" fill="#1e1e1e" text-anchor="middle" style="white-space: pre;" direction="ltr" dominant-baseline="text-before-edge">0前缀</text></g><g stroke-linecap="round"><g transform="translate(510 50) rotate(0 80 0)"><path d="M0 0 C26.67 0, 133.33 0, 160 0 M0 0 C26.67 0, 133.33 0, 160 0" stroke="#1e1e1e" stroke-width="2" fill="none"></path></g></g><mask></mask><g stroke-linecap="round" transform="translate(510 270) rotate(0 80 80)"><path d="M32 0 M32 0 C52.8 0, 73.59 0, 128 0 M32 0 C58.45 0, 84.9 0, 128 0 M128 0 C149.33 0, 160 10.67, 160 32 M128 0 C149.33 0, 160 10.67, 160 32 M160 32 C160 62.45, 160 92.89, 160 128 M160 32 C160 69.74, 160 107.48, 160 128 M160 128 C160 149.33, 149.33 160, 128 160 M160 128 C160 149.33, 149.33 160, 128 160 M128 160 C97.59 160, 67.17 160, 32 160 M128 160 C105.27 160, 82.54 160, 32 160 M32 160 C10.67 160, 0 149.33, 0 128 M32 160 C10.67 160, 0 149.33, 0 128 M0 128 C0 106.39, 0 84.79, 0 32 M0 128 C0 102.42, 0 76.84, 0 32 M0 32 C0 10.67, 10.67 0, 32 0 M0 32 C0 10.67, 10.67 0, 32 0" stroke="#1e1e1e" stroke-width="4" fill="none"></path></g><g transform="translate(530 337.5) rotate(0 60 12.5)"><text x="60" y="0" font-family="Virgil, Segoe UI Emoji" font-size="20px" fill="#1e1e1e" text-anchor="middle" style="white-space: pre;" direction="ltr" dominant-baseline="text-before-edge">分析下个字符</text></g><g transform="translate(557.5000076293945 290) rotate(0 32.49999237060547 12.5)"><text x="32.49999237060547" y="0" font-family="Virgil, Segoe UI Emoji" font-size="20px" fill="#1e1e1e" text-anchor="middle" style="white-space: pre;" direction="ltr" dominant-baseline="text-before-edge">0x前缀</text></g><g stroke-linecap="round"><g transform="translate(510 310) rotate(0 80 0)"><path d="M0 0 C26.67 0, 133.33 0, 160 0 M0 0 C26.67 0, 133.33 0, 160 0" stroke="#1e1e1e" stroke-width="2" fill="none"></path></g></g><mask></mask><g stroke-linecap="round"><g transform="translate(370 110) rotate(0 69.5 0)"><path d="M0 0 C23.17 0, 115.83 0, 139 0 M0 0 C23.17 0, 115.83 0, 139 0" stroke="#1e1e1e" stroke-width="2" fill="none"></path></g><g transform="translate(370 110) rotate(0 69.5 0)"><path d="M110.81 10.26 C120.75 6.64, 130.7 3.02, 139 0 M110.81 10.26 C117.21 7.93, 123.61 5.6, 139 0" stroke="#1e1e1e" stroke-width="2" fill="none"></path></g><g transform="translate(370 110) rotate(0 69.5 0)"><path d="M110.81 -10.26 C120.75 -6.64, 130.7 -3.02, 139 0 M110.81 -10.26 C117.21 -7.93, 123.61 -5.6, 139 0" stroke="#1e1e1e" stroke-width="2" fill="none"></path></g></g><mask></mask><g stroke-linecap="round"><g transform="translate(330 230) rotate(0 20 0)"><path d="M0 0 C6.67 0, 33.33 0, 40 0 M0 0 C6.67 0, 33.33 0, 40 0" stroke="#1e1e1e" stroke-width="2" fill="none"></path></g></g><mask></mask><g stroke-linecap="round"><g transform="translate(370 110) rotate(0 0 310)"><path d="M0 0 C0 103.33, 0 516.67, 0 620 M0 0 C0 103.33, 0 516.67, 0 620" stroke="#1e1e1e" stroke-width="2" fill="none"></path></g></g><mask></mask><g stroke-linecap="round" transform="translate(510 530) rotate(0 80 80)"><path d="M32 0 M32 0 C62.41 0, 92.82 0, 128 0 M32 0 C65.53 0, 99.07 0, 128 0 M128 0 C149.33 0, 160 10.67, 160 32 M128 0 C149.33 0, 160 10.67, 160 32 M160 32 C160 66.67, 160 101.34, 160 128 M160 32 C160 66.51, 160 101.01, 160 128 M160 128 C160 149.33, 149.33 160, 128 160 M160 128 C160 149.33, 149.33 160, 128 160 M128 160 C105.57 160, 83.13 160, 32 160 M128 160 C104.78 160, 81.56 160, 32 160 M32 160 C10.67 160, 0 149.33, 0 128 M32 160 C10.67 160, 0 149.33, 0 128 M0 128 C0 102.44, 0 76.88, 0 32 M0 128 C0 99.37, 0 70.74, 0 32 M0 32 C0 10.67, 10.67 0, 32 0 M0 32 C0 10.67, 10.67 0, 32 0" stroke="#1e1e1e" stroke-width="4" fill="none"></path></g><g transform="translate(550 597.5) rotate(0 40 12.5)"><text x="40" y="0" font-family="Virgil, Segoe UI Emoji" font-size="20px" fill="#1e1e1e" text-anchor="middle" style="white-space: pre;" direction="ltr" dominant-baseline="text-before-edge">记录错误</text></g><g transform="translate(570 550) rotate(0 20 12.5)"><text x="20" y="0" font-family="Virgil, Segoe UI Emoji" font-size="20px" fill="#1e1e1e" text-anchor="middle" style="white-space: pre;" direction="ltr" dominant-baseline="text-before-edge">错误</text></g><g stroke-linecap="round"><g transform="translate(510 570) rotate(0 80 0)"><path d="M0 0 C26.67 0, 133.33 0, 160 0 M0 0 C26.67 0, 133.33 0, 160 0" stroke="#1e1e1e" stroke-width="2" fill="none"></path></g></g><mask></mask><g transform="translate(370 90) rotate(0 45.75999450683594 10)"><text x="45.75999450683594" y="0" font-family="Virgil, Segoe UI Emoji" font-size="16px" fill="#1e1e1e" text-anchor="middle" style="white-space: pre;" direction="ltr" dominant-baseline="text-before-edge">若字符为 '0'</text></g><g stroke-linecap="round"><g transform="translate(671 609.9816896706218) rotate(0 29.00000028203135 0.006721513381421573)"><path d="M0 0 C9.67 0, 48.33 0.01, 58 0.01 M0 0 C9.67 0, 48.33 0.01, 58 0.01" stroke="#1e1e1e" stroke-width="2" fill="none"></path></g><g transform="translate(671 609.9816896706218) rotate(0 29.00000028203135 0.006721513381421573)"><path d="M30.75 9.93 C37.35 7.52, 43.95 5.12, 58 0.01 M30.75 9.93 C40.32 6.44, 49.89 2.96, 58 0.01" stroke="#1e1e1e" stroke-width="2" fill="none"></path></g><g transform="translate(671 609.9816896706218) rotate(0 29.00000028203135 0.006721513381421573)"><path d="M30.75 -9.91 C37.35 -7.51, 43.95 -5.1, 58 0.01 M30.75 -9.91 C40.32 -6.43, 49.89 -2.94, 58 0.01" stroke="#1e1e1e" stroke-width="2" fill="none"></path></g></g><mask></mask><g stroke-linecap="round"><g transform="translate(590 170) rotate(0 0 49)"><path d="M0 0 C0 16.33, 0 81.67, 0 98 M0 0 C0 16.33, 0 81.67, 0 98" stroke="#1e1e1e" stroke-width="2" fill="none"></path></g><g transform="translate(590 170) rotate(0 0 49)"><path d="M-10.26 69.81 C-6.94 78.93, -3.62 88.06, 0 98 M-10.26 69.81 C-6.75 79.45, -3.24 89.09, 0 98" stroke="#1e1e1e" stroke-width="2" fill="none"></path></g><g transform="translate(590 170) rotate(0 0 49)"><path d="M10.26 69.81 C6.94 78.93, 3.62 88.06, 0 98 M10.26 69.81 C6.75 79.45, 3.24 89.09, 0 98" stroke="#1e1e1e" stroke-width="2" fill="none"></path></g></g><mask></mask><g transform="translate(430 230) rotate(0 69.79198455810547 10)"><text x="69.79198455810547" y="0" font-family="Virgil, Segoe UI Emoji" font-size="16px" fill="#1e1e1e" text-anchor="middle" style="white-space: pre;" direction="ltr" dominant-baseline="text-before-edge">若字符为 'x' 或 'X'</text></g><g transform="translate(450 490) rotate(0 64 20)"><text x="128" y="0" font-family="Virgil, Segoe UI Emoji" font-size="16px" fill="#1e1e1e" text-anchor="end" style="white-space: pre;" direction="ltr" dominant-baseline="text-before-edge">若字符不是</text><text x="128" y="20" font-family="Virgil, Segoe UI Emoji" font-size="16px" fill="#1e1e1e" text-anchor="end" style="white-space: pre;" direction="ltr" dominant-baseline="text-before-edge">合法十六进制字符</text></g><g stroke-linecap="round"><g transform="translate(590 431) rotate(0 0 48.5)"><path d="M0 0 C0 16.17, 0 80.83, 0 97 M0 0 C0 16.17, 0 80.83, 0 97" stroke="#1e1e1e" stroke-width="2" fill="none"></path></g><g transform="translate(590 431) rotate(0 0 48.5)"><path d="M-10.26 68.81 C-7.93 75.2, -5.6 81.6, 0 97 M-10.26 68.81 C-8.07 74.82, -5.88 80.83, 0 97" stroke="#1e1e1e" stroke-width="2" fill="none"></path></g><g transform="translate(590 431) rotate(0 0 48.5)"><path d="M10.26 68.81 C7.93 75.2, 5.6 81.6, 0 97 M10.26 68.81 C8.07 74.82, 5.88 80.83, 0 97" stroke="#1e1e1e" stroke-width="2" fill="none"></path></g></g><mask></mask><g stroke-linecap="round"><g transform="translate(590 490) rotate(0 80 0)"><path d="M0 0 C26.67 0, 133.33 0, 160 0 M0 0 C26.67 0, 133.33 0, 160 0" stroke="#1e1e1e" stroke-width="2" fill="none"></path></g></g><mask></mask><g stroke-linecap="round"><g transform="translate(750 490) rotate(0 0 50.02809015421661)"><path d="M0 0 C0 16.68, 0 83.38, 0 100.06 M0 0 C0 16.68, 0 83.38, 0 100.06" stroke="#1e1e1e" stroke-width="2" fill="none"></path></g><g transform="translate(750 490) rotate(0 0 50.02809015421661)"><path d="M-10.26 71.87 C-6.56 82.04, -2.86 92.21, 0 100.06 M-10.26 71.87 C-6.67 81.72, -3.09 91.57, 0 100.06" stroke="#1e1e1e" stroke-width="2" fill="none"></path></g><g transform="translate(750 490) rotate(0 0 50.02809015421661)"><path d="M10.26 71.87 C6.56 82.04, 2.86 92.21, 0 100.06 M10.26 71.87 C6.67 81.72, 3.09 91.57, 0 100.06" stroke="#1e1e1e" stroke-width="2" fill="none"></path></g></g><mask></mask><g transform="translate(610 450) rotate(0 104 20)"><text x="0" y="0" font-family="Virgil, Segoe UI Emoji" font-size="16px" fill="#1e1e1e" text-anchor="start" style="white-space: pre;" direction="ltr" dominant-baseline="text-before-edge">若字符是合法十六进制字符；</text><text x="0" y="20" font-family="Virgil, Segoe UI Emoji" font-size="16px" fill="#1e1e1e" text-anchor="start" style="white-space: pre;" direction="ltr" dominant-baseline="text-before-edge">十六进制</text></g><g stroke-linecap="round"><g transform="translate(370 590) rotate(0 70 0)"><path d="M0 0 C23.33 0, 116.67 0, 140 0 M0 0 C23.33 0, 116.67 0, 140 0" stroke="#1e1e1e" stroke-width="2" fill="none"></path></g><g transform="translate(370 590) rotate(0 70 0)"><path d="M111.81 10.26 C121.94 6.57, 132.07 2.89, 140 0 M111.81 10.26 C119.43 7.49, 127.04 4.72, 140 0" stroke="#1e1e1e" stroke-width="2" fill="none"></path></g><g transform="translate(370 590) rotate(0 70 0)"><path d="M111.81 -10.26 C121.94 -6.57, 132.07 -2.89, 140 0 M111.81 -10.26 C119.43 -7.49, 127.04 -4.72, 140 0" stroke="#1e1e1e" stroke-width="2" fill="none"></path></g></g><mask></mask><g transform="translate(370 710) rotate(0 73.76799011230469 10)"><text x="73.76799011230469" y="0" font-family="Virgil, Segoe UI Emoji" font-size="16px" fill="#1e1e1e" text-anchor="middle" style="white-space: pre;" direction="ltr" dominant-baseline="text-before-edge">字符 1 ~ 9；十进制</text></g><g stroke-linecap="round"><g transform="translate(590 210) rotate(0 150 0)"><path d="M0 0 C50 0, 250 0, 300 0 M0 0 C50 0, 250 0, 300 0" stroke="#1e1e1e" stroke-width="2" fill="none"></path></g></g><mask></mask><g stroke-linecap="round"><g transform="translate(370 730) rotate(0 190 0)"><path d="M0 0 C63.33 0, 316.67 0, 380 0 M0 0 C63.33 0, 316.67 0, 380 0" stroke="#1e1e1e" stroke-width="2" fill="none"></path></g></g><mask></mask><g stroke-linecap="round"><g transform="translate(750 730) rotate(0 0 -50)"><path d="M0 0 C0 -16.67, 0 -83.33, 0 -100 M0 0 C0 -16.67, 0 -83.33, 0 -100" stroke="#1e1e1e" stroke-width="2" fill="none"></path></g><g transform="translate(750 730) rotate(0 0 -50)"><path d="M10.26 -71.81 C7.36 -79.79, 4.45 -87.77, 0 -100 M10.26 -71.81 C7.04 -80.65, 3.83 -89.49, 0 -100" stroke="#1e1e1e" stroke-width="2" fill="none"></path></g><g transform="translate(750 730) rotate(0 0 -50)"><path d="M-10.26 -71.81 C-7.36 -79.79, -4.45 -87.77, 0 -100 M-10.26 -71.81 C-7.04 -80.65, -3.83 -89.49, 0 -100" stroke="#1e1e1e" stroke-width="2" fill="none"></path></g></g><mask></mask><g transform="translate(370 570) rotate(0 49.76799011230469 10)"><text x="49.76799011230469" y="0" font-family="Virgil, Segoe UI Emoji" font-size="16px" fill="#1e1e1e" text-anchor="middle" style="white-space: pre;" direction="ltr" dominant-baseline="text-before-edge">不是字符 1~9</text></g><g transform="translate(687.1340026855469 192.5) rotate(0 68.5359878540039 10)"><text x="68.5359878540039" y="0" font-family="Virgil, Segoe UI Emoji" font-size="16px" fill="#1e1e1e" text-anchor="middle" style="white-space: pre;" direction="ltr" dominant-baseline="text-before-edge">字符 0~7；八进制</text></g><g stroke-linecap="round"><g transform="translate(890 210) rotate(0 0 200)"><path d="M0 0 C0 66.67, 0 333.33, 0 400 M0 0 C0 66.67, 0 333.33, 0 400" stroke="#1e1e1e" stroke-width="2" fill="none"></path></g></g><mask></mask><g stroke-linecap="round"><g transform="translate(890 610) rotate(0 -60 0)"><path d="M0 0 C-20 0, -100 0, -120 0 M0 0 C-20 0, -100 0, -120 0" stroke="#1e1e1e" stroke-width="2" fill="none"></path></g><g transform="translate(890 610) rotate(0 -60 0)"><path d="M-91.81 -10.26 C-100.37 -7.14, -108.94 -4.03, -120 0 M-91.81 -10.26 C-98.07 -7.98, -104.33 -5.7, -120 0" stroke="#1e1e1e" stroke-width="2" fill="none"></path></g><g transform="translate(890 610) rotate(0 -60 0)"><path d="M-91.81 10.26 C-100.37 7.14, -108.94 4.03, -120 0 M-91.81 10.26 C-98.07 7.98, -104.33 5.7, -120 0" stroke="#1e1e1e" stroke-width="2" fill="none"></path></g></g><mask></mask></svg>