<svg version="1.1" xmlns="http://www.w3.org/2000/svg" viewBox="0 0 721.0874211955816 705.4323610029267" width="1442.174842391163" height="1410.8647220058533">
  <!-- svg-source:excalidraw -->
  
  <defs>
    <style class="style-fonts">
      @font-face {
        font-family: "Virgil";
        src: url("https://excalidraw.com/Virgil.woff2");
      }
      @font-face {
        font-family: "Cascadia";
        src: url("https://excalidraw.com/Cascadia.woff2");
      }
    </style>
    
  </defs>
  <rect x="0" y="0" width="721.0874211955816" height="705.4323610029267" fill="#ffffff"></rect><g stroke-linecap="round"><g transform="translate(11.038951606675994 651.7755572976358) rotate(0 348.74820245634766 -1.1035262357722786)"><path d="M-1.04 -0.83 C115.24 -1.17, 581.97 -1.55, 698.54 -1.55 M0.62 1.34 C116.63 0.58, 581.26 -2.89, 697.36 -3.55" stroke="#1e1e1e" stroke-width="4" fill="none"></path></g></g><mask></mask><g transform="translate(290 670) rotate(0 93.87923431396484 12.716180501463327)"><text x="0" y="0" font-family="Virgil, Segoe UI Emoji" font-size="20.345888802341314px" fill="#1e1e1e" text-anchor="start" style="white-space: pre;" direction="ltr" dominant-baseline="text-before-edge">Linux 内核或 RTOS</text></g><g stroke-linecap="round"><g transform="translate(10.574025721475493 471.3152509622959) rotate(0 349.5897605193779 0.043146071967498756)"><path d="M-0.57 -0.8 C116.13 -0.95, 583.09 0.15, 699.75 0.26 M1.33 1.4 C117.94 1.44, 582.76 -0.73, 698.98 -1.32" stroke="#1e1e1e" stroke-width="4" fill="none"></path></g></g><mask></mask><g stroke-linecap="round"><g transform="translate(11.112428468298162 251.82003885792568) rotate(0 348.87402507921684 -1.0773354683350718)"><path d="M0.23 -0.74 C116.51 -0.83, 582.38 -1.59, 698.86 -1.62 M-1.11 1.49 C114.91 1.1, 581.31 -2.92, 697.9 -3.64" stroke="#1e1e1e" stroke-width="4" fill="none"></path></g></g><mask></mask><g transform="translate(310 490) rotate(0 61.43999481201172 12.5)"><text x="0" y="0" font-family="Virgil, Segoe UI Emoji" font-size="20px" fill="#1e1e1e" text-anchor="start" style="white-space: pre;" direction="ltr" dominant-baseline="text-before-edge">C 依赖函数库</text></g><g stroke-linecap="round" transform="translate(110 590) rotate(0 80 20)"><path d="M10 0 M10 0 C59.9 -0.49, 105.24 1.45, 150 0 M10 0 C52.27 -2.19, 94.1 -0.8, 150 0 M150 0 C158.28 -0.74, 161.87 5.26, 160 10 M150 0 C155.04 0.51, 162.17 2.89, 160 10 M160 10 C158.5 17.36, 158.76 24.4, 160 30 M160 10 C159.35 14.43, 159.31 19.02, 160 30 M160 30 C160.98 35.44, 155.23 38.79, 150 40 M160 30 C158.69 38.59, 157.95 40.58, 150 40 M150 40 C111.9 39.31, 72.24 38.89, 10 40 M150 40 C117.54 38.66, 85.66 38.76, 10 40 M10 40 C2.12 41.1, 1.3 37.83, 0 30 M10 40 C1.1 38.04, 0.03 36.98, 0 30 M0 30 C0.21 24.46, -0.01 20.74, 0 10 M0 30 C-0.11 25.22, -0.22 21.05, 0 10 M0 10 C0.63 4.04, 4.18 -1.5, 10 0 M0 10 C-1.92 2.8, 3.7 -1.45, 10 0" stroke="#1e1e1e" stroke-width="1" fill="none"></path></g><g transform="translate(145.89004516601562 597.5) rotate(0 44.109954833984375 12.5)"><text x="44.109954833984375" y="0" font-family="Virgil, Segoe UI Emoji" font-size="20px" fill="#1e1e1e" text-anchor="middle" style="white-space: pre;" direction="ltr" dominant-baseline="text-before-edge">FreeType</text></g><g stroke-linecap="round" transform="translate(290 530) rotate(0 80 17.5)"><path d="M8.75 0 M8.75 0 C47.3 0.26, 87.65 0.35, 151.25 0 M8.75 0 C38.08 -0.93, 66.73 0.4, 151.25 0 M151.25 0 C155.67 0.44, 161.88 2.53, 160 8.75 M151.25 0 C158.3 1.5, 159.54 1.04, 160 8.75 M160 8.75 C158.79 14.34, 160.1 18.63, 160 26.25 M160 8.75 C160.31 12.9, 159.25 17.59, 160 26.25 M160 26.25 C158.86 33.76, 158.2 35.51, 151.25 35 M160 26.25 C159.38 32.92, 156.95 35.12, 151.25 35 M151.25 35 C111.41 33, 72.63 33.19, 8.75 35 M151.25 35 C108.75 35.61, 68.1 35.64, 8.75 35 M8.75 35 C0.98 33.3, 0.03 32.36, 0 26.25 M8.75 35 C1.43 35.65, 1.35 32.39, 0 26.25 M0 26.25 C-1.71 22.03, 1.65 17.08, 0 8.75 M0 26.25 C0.31 22.59, 0.4 17.65, 0 8.75 M0 8.75 C-1.67 2.45, 3.24 -1.26, 8.75 0 M0 8.75 C-2.02 2.98, 3.87 0.38, 8.75 0" stroke="#1e1e1e" stroke-width="1" fill="none"></path></g><g transform="translate(335.8000259399414 535) rotate(0 34.199974060058594 12.5)"><text x="34.199974060058594" y="0" font-family="Virgil, Segoe UI Emoji" font-size="20px" fill="#1e1e1e" text-anchor="middle" style="white-space: pre;" direction="ltr" dominant-baseline="text-before-edge">LibPNG</text></g><g stroke-linecap="round" transform="translate(290 590) rotate(0 80 20)"><path d="M10 0 M10 0 C42.34 0.89, 79.41 1.3, 150 0 M10 0 C65.89 0.04, 120.93 -0.08, 150 0 M150 0 C158.22 -1.12, 159.34 4.97, 160 10 M150 0 C155.02 -1.46, 161 5.45, 160 10 M160 10 C158.63 14.18, 160.59 18.81, 160 30 M160 10 C159.76 17.82, 160.04 24.39, 160 30 M160 30 C159.88 36.93, 154.67 40.35, 150 40 M160 30 C158.03 35.38, 157.02 41.88, 150 40 M150 40 C115.44 37.5, 79.54 40.38, 10 40 M150 40 C109.94 39.67, 69.78 39.33, 10 40 M10 40 C4.95 38.56, 0.26 35.52, 0 30 M10 40 C5.06 42.27, -0.75 34.84, 0 30 M0 30 C2.13 24.8, 2.1 22.57, 0 10 M0 30 C0.76 22.42, -0.63 16.24, 0 10 M0 10 C-1.54 3.77, 4.29 2, 10 0 M0 10 C1.23 4.78, 5.19 2.26, 10 0" stroke="#1e1e1e" stroke-width="1" fill="none"></path></g><g transform="translate(326.46004486083984 597.5) rotate(0 43.539955139160156 12.5)"><text x="43.539955139160156" y="0" font-family="Virgil, Segoe UI Emoji" font-size="20px" fill="#1e1e1e" text-anchor="middle" style="white-space: pre;" direction="ltr" dominant-baseline="text-before-edge">Harfbuzz</text></g><g stroke-linecap="round" transform="translate(470 590) rotate(0 80 17.5)"><path d="M8.75 0 M8.75 0 C62.95 -0.77, 116.77 1.04, 151.25 0 M8.75 0 C42.82 -1.8, 78.75 -0.25, 151.25 0 M151.25 0 C155.1 0.77, 159.84 1.47, 160 8.75 M151.25 0 C157.27 0.59, 160.89 4.4, 160 8.75 M160 8.75 C161.09 14.99, 159.82 21.45, 160 26.25 M160 8.75 C159.07 13.74, 159.96 20.43, 160 26.25 M160 26.25 C159.13 32.35, 156.23 36.32, 151.25 35 M160 26.25 C157.82 33.57, 158.21 34.71, 151.25 35 M151.25 35 C110.67 35.6, 67.68 36.82, 8.75 35 M151.25 35 C119.54 35.17, 86 33.39, 8.75 35 M8.75 35 C1.45 33.2, -1.49 34.03, 0 26.25 M8.75 35 C2.15 37.21, 1.88 33.37, 0 26.25 M0 26.25 C-0.66 19.52, 0.99 13.44, 0 8.75 M0 26.25 C0.38 21.17, 0.62 15.86, 0 8.75 M0 8.75 C1.48 2.02, 4.5 -0.09, 8.75 0 M0 8.75 C0.85 1.74, 4.84 -0.79, 8.75 0" stroke="#1e1e1e" stroke-width="1" fill="none"></path></g><g transform="translate(535.0800170898438 595) rotate(0 14.91998291015625 12.5)"><text x="14.91998291015625" y="0" font-family="Virgil, Segoe UI Emoji" font-size="20px" fill="#1e1e1e" text-anchor="middle" style="white-space: pre;" direction="ltr" dominant-baseline="text-before-edge">libc</text></g><g stroke-linecap="round" transform="translate(350 310) rotate(0 80 20)"><path d="M10 0 M10 0 C57.61 -0.37, 100.3 -2.46, 150 0 M10 0 C41.46 1.27, 70.32 0.17, 150 0 M150 0 C158.6 1.22, 160.75 1.73, 160 10 M150 0 C155.57 -0.2, 160.43 4.08, 160 10 M160 10 C158.49 17.79, 158.67 24.83, 160 30 M160 10 C159.92 16.77, 160.6 22.5, 160 30 M160 30 C158.01 35.96, 157.04 41.74, 150 40 M160 30 C158.35 36.69, 158.79 39.62, 150 40 M150 40 C120.18 40.62, 93.31 39.56, 10 40 M150 40 C99.01 40.36, 47.39 40.08, 10 40 M10 40 C2.73 38.9, -0.3 38.32, 0 30 M10 40 C4.68 38.72, -0.91 37.87, 0 30 M0 30 C-1.35 23.09, -1.44 19.22, 0 10 M0 30 C0.73 24, -0.61 17.03, 0 10 M0 10 C-1.12 3.12, 3.76 -1.67, 10 0 M0 10 C0.33 2.41, 1.52 -1.86, 10 0" stroke="#1e1e1e" stroke-width="1" fill="none"></path></g><g transform="translate(370 317.5) rotate(0 60 12.5)"><text x="60" y="0" font-family="Virgil, Segoe UI Emoji" font-size="20px" fill="#1e1e1e" text-anchor="middle" style="white-space: pre;" direction="ltr" dominant-baseline="text-before-edge">图形设备管理</text></g><g stroke-linecap="round" transform="translate(530 310) rotate(0 70 20)"><path d="M10 0 M10 0 C47.48 1.91, 87.27 2.8, 130 0 M10 0 C54.17 1.21, 96.78 -0.2, 130 0 M130 0 C135.72 -0.17, 140.37 3.98, 140 10 M130 0 C138.55 -1.27, 141.23 1.72, 140 10 M140 10 C140.46 17.25, 140.16 21.92, 140 30 M140 10 C139.1 16.03, 140.28 23.64, 140 30 M140 30 C138.57 36.69, 138.51 39.67, 130 40 M140 30 C137.86 37.57, 136.69 39.03, 130 40 M130 40 C91.7 38.62, 51.25 40.83, 10 40 M130 40 C94.23 39.06, 58.91 40.44, 10 40 M10 40 C4.51 38.88, -0.79 37.71, 0 30 M10 40 C2.42 38.74, 0.57 34.98, 0 30 M0 30 C0.76 26.99, -0.34 23.12, 0 10 M0 30 C-0.46 22.68, 0.31 14.73, 0 10 M0 10 C0.29 2.53, 1.76 -1.62, 10 0 M0 10 C-2.14 3.14, 3.29 0.58, 10 0" stroke="#1e1e1e" stroke-width="1" fill="none"></path></g><g transform="translate(560 317.5) rotate(0 40 12.5)"><text x="40" y="0" font-family="Virgil, Segoe UI Emoji" font-size="20px" fill="#1e1e1e" text-anchor="middle" style="white-space: pre;" direction="ltr" dominant-baseline="text-before-edge">消息管理</text></g><g stroke-linecap="round" transform="translate(30 310) rotate(0 70 20)"><path d="M10 0 M10 0 C35.48 1.94, 62.46 -0.55, 130 0 M10 0 C37.38 1.02, 62.94 0.38, 130 0 M130 0 C136.04 1.44, 139.15 4.82, 140 10 M130 0 C135.44 -0.95, 140.97 3.91, 140 10 M140 10 C140.43 16.24, 140.81 18.04, 140 30 M140 10 C140.61 14.83, 140.23 19.28, 140 30 M140 30 C139.99 35.8, 134.92 41.4, 130 40 M140 30 C141.07 38.07, 134.55 40.01, 130 40 M130 40 C97.73 38.13, 63.98 40.01, 10 40 M130 40 C101.26 38.31, 72.09 39.34, 10 40 M10 40 C4.31 38.45, -0.79 36.11, 0 30 M10 40 C2.4 39.38, 1.86 38.67, 0 30 M0 30 C-0.75 23.85, -1.92 17.68, 0 10 M0 30 C0.93 23.05, -0.17 17.99, 0 10 M0 10 C0.06 3.65, 4.14 1.63, 10 0 M0 10 C-0.31 5.4, 4.11 -1.91, 10 0" stroke="#1e1e1e" stroke-width="1" fill="none"></path></g><g transform="translate(60 317.5) rotate(0 40 12.5)"><text x="40" y="0" font-family="Virgil, Segoe UI Emoji" font-size="20px" fill="#1e1e1e" text-anchor="middle" style="white-space: pre;" direction="ltr" dominant-baseline="text-before-edge">控件管理</text></g><g stroke-linecap="round" transform="translate(190 310) rotate(0 70 20)"><path d="M10 0 M10 0 C52.59 0.02, 97.35 2.59, 130 0 M10 0 C50.57 1, 91.34 1.03, 130 0 M130 0 C135.6 -0.83, 140.84 3.83, 140 10 M130 0 C135.24 2.2, 141.64 3.61, 140 10 M140 10 C138.49 17.66, 139.32 26.15, 140 30 M140 10 C140.04 16.37, 139.17 24.3, 140 30 M140 30 C140.93 37.89, 134.82 40.01, 130 40 M140 30 C139.43 37.71, 135.64 40.89, 130 40 M130 40 C100.83 39.16, 72.59 40.71, 10 40 M130 40 C104.59 39.46, 77.8 39.95, 10 40 M10 40 C2.52 39.46, 1.61 38.41, 0 30 M10 40 C3.71 40.68, 1.61 35.88, 0 30 M0 30 C0.39 22.8, -0.39 19.31, 0 10 M0 30 C0.09 25.66, 0.46 21.82, 0 10 M0 10 C-0.27 5.13, 4.01 -1.66, 10 0 M0 10 C0.34 2.34, 4.7 -1.86, 10 0" stroke="#1e1e1e" stroke-width="1" fill="none"></path></g><g transform="translate(220 317.5) rotate(0 40 12.5)"><text x="40" y="0" font-family="Virgil, Segoe UI Emoji" font-size="20px" fill="#1e1e1e" text-anchor="middle" style="white-space: pre;" direction="ltr" dominant-baseline="text-before-edge">窗口管理</text></g><g transform="translate(270 270) rotate(0 90.23747253417969 15.625)"><text x="0" y="0" font-family="Virgil, Segoe UI Emoji" font-size="25px" fill="#1e1e1e" text-anchor="start" style="white-space: pre;" direction="ltr" dominant-baseline="text-before-edge">MiniGUI 核心库</text></g><g stroke-linecap="round" transform="translate(370 130) rotate(0 80 20)"><path d="M10 0 M10 0 C63.24 2.08, 117.46 2.91, 150 0 M10 0 C41.57 0.21, 70.43 1.15, 150 0 M150 0 C156.28 -1.33, 158.6 3.89, 160 10 M150 0 C156.13 -0.37, 160.23 4.36, 160 10 M160 10 C160.15 17.42, 158.8 23.33, 160 30 M160 10 C160.69 15.17, 160.49 20.15, 160 30 M160 30 C159.9 38.44, 155.55 38.87, 150 40 M160 30 C161.68 35.99, 154.83 38.43, 150 40 M150 40 C115.15 40.49, 80.46 39.94, 10 40 M150 40 C106.86 40.75, 60.91 40.85, 10 40 M10 40 C4.68 41.88, -1.76 37.45, 0 30 M10 40 C3.64 39.86, 2.04 35.81, 0 30 M0 30 C1.47 24.13, -1.53 16.84, 0 10 M0 30 C0.66 22.96, -0.06 13.51, 0 10 M0 10 C-0.83 5.26, 5.24 1.33, 10 0 M0 10 C1.65 4.54, 3.6 -1.82, 10 0" stroke="#1e1e1e" stroke-width="1" fill="none"></path></g><g transform="translate(412.74002838134766 137.5) rotate(0 37.259971618652344 12.5)"><text x="37.259971618652344" y="0" font-family="Virgil, Segoe UI Emoji" font-size="20px" fill="#1e1e1e" text-anchor="middle" style="white-space: pre;" direction="ltr" dominant-baseline="text-before-edge">mGUtils</text></g><g stroke-linecap="round" transform="translate(550 130) rotate(0 70 20)"><path d="M10 0 M10 0 C49.46 -2.89, 91.01 0.97, 130 0 M10 0 C38.45 -1.07, 66.59 -0.12, 130 0 M130 0 C136.2 -0.32, 140.2 4.23, 140 10 M130 0 C137.97 0.55, 140.84 3.45, 140 10 M140 10 C138.53 15.63, 141.11 24.09, 140 30 M140 10 C140.06 17.92, 139.56 23.51, 140 30 M140 30 C141.46 36.07, 135.07 38.63, 130 40 M140 30 C138.79 34.99, 136.53 39.79, 130 40 M130 40 C90.9 39.99, 52.97 41.98, 10 40 M130 40 C100.62 40.46, 69.01 39.92, 10 40 M10 40 C3.6 39.88, 1.77 35.92, 0 30 M10 40 C4.8 38.89, 0.56 38.25, 0 30 M0 30 C2.13 20.76, 0.12 16.15, 0 10 M0 30 C-0.37 23.1, 1 14.94, 0 10 M0 10 C1.43 4.38, 3.57 -1.58, 10 0 M0 10 C0.73 1.23, 5.49 0.4, 10 0" stroke="#1e1e1e" stroke-width="1" fill="none"></path></g><g transform="translate(589.3200225830078 137.5) rotate(0 30.679977416992188 12.5)"><text x="30.679977416992188" y="0" font-family="Virgil, Segoe UI Emoji" font-size="20px" fill="#1e1e1e" text-anchor="middle" style="white-space: pre;" direction="ltr" dominant-baseline="text-before-edge">mGEff</text></g><g transform="translate(310 10) rotate(0 85.78498077392578 18.75)"><text x="0" y="0" font-family="Virgil, Segoe UI Emoji" font-size="30px" fill="#1e1e1e" text-anchor="start" style="white-space: pre;" direction="ltr" dominant-baseline="text-before-edge">MiniGUI应用</text></g><g stroke-linecap="round" transform="translate(470 530) rotate(0 80 17.5)"><path d="M8.75 0 M8.75 0 C44.74 -1.2, 78.8 -1.75, 151.25 0 M8.75 0 C57.69 -1.02, 107.91 -1.77, 151.25 0 M151.25 0 C155.87 -0.6, 161.53 3.34, 160 8.75 M151.25 0 C157.31 1.67, 160.9 1.99, 160 8.75 M160 8.75 C160.17 15.83, 161.32 21.2, 160 26.25 M160 8.75 C159.44 14.49, 160.58 21.64, 160 26.25 M160 26.25 C158.28 30.67, 156.4 33.19, 151.25 35 M160 26.25 C160.56 32.24, 155.26 34.85, 151.25 35 M151.25 35 C102.8 37.06, 50.8 35.04, 8.75 35 M151.25 35 C120.45 33.03, 89.39 34.52, 8.75 35 M8.75 35 C4.73 35.05, 0.73 30.8, 0 26.25 M8.75 35 C4.96 35.81, -1.42 30.57, 0 26.25 M0 26.25 C1.16 21.82, -0.98 19.19, 0 8.75 M0 26.25 C0.74 21.62, 0.76 14.74, 0 8.75 M0 8.75 C-1.7 1.11, 4.27 1.86, 8.75 0 M0 8.75 C0.6 4.44, 2.2 -1.27, 8.75 0" stroke="#1e1e1e" stroke-width="1" fill="none"></path></g><g transform="translate(512.1200332641602 535) rotate(0 37.879966735839844 12.5)"><text x="37.879966735839844" y="0" font-family="Virgil, Segoe UI Emoji" font-size="20px" fill="#1e1e1e" text-anchor="middle" style="white-space: pre;" direction="ltr" dominant-baseline="text-before-edge">LibWebP</text></g><g stroke-linecap="round" transform="translate(110 530) rotate(0 80 17.5)"><path d="M8.75 0 M8.75 0 C41.33 0.52, 70.88 2.48, 151.25 0 M8.75 0 C53.9 0.33, 99.24 1.3, 151.25 0 M151.25 0 C156.46 -0.59, 161.6 1.39, 160 8.75 M151.25 0 C157.88 1, 159.85 0.76, 160 8.75 M160 8.75 C161.43 11.52, 161.05 15.9, 160 26.25 M160 8.75 C160.65 14.14, 160.67 18.61, 160 26.25 M160 26.25 C159.28 31.1, 158.83 33.9, 151.25 35 M160 26.25 C158.69 33.86, 154.88 36.85, 151.25 35 M151.25 35 C116.5 33.05, 80.17 35.74, 8.75 35 M151.25 35 C98.96 34.9, 45.57 35.54, 8.75 35 M8.75 35 C2.22 35.47, 0.29 30.6, 0 26.25 M8.75 35 C4.47 36.76, 0.93 34.14, 0 26.25 M0 26.25 C0.35 23.21, 0.68 18.95, 0 8.75 M0 26.25 C0.96 20.76, 0.2 14.85, 0 8.75 M0 8.75 C1.1 1.54, 1.08 -1, 8.75 0 M0 8.75 C-1.58 0.84, 3.11 -1.73, 8.75 0" stroke="#1e1e1e" stroke-width="1" fill="none"></path></g><g transform="translate(149.16002655029297 535) rotate(0 40.83997344970703 12.5)"><text x="40.83997344970703" y="0" font-family="Virgil, Segoe UI Emoji" font-size="20px" fill="#1e1e1e" text-anchor="middle" style="white-space: pre;" direction="ltr" dominant-baseline="text-before-edge">LibJPEG</text></g><g stroke-linecap="round" transform="translate(30 370) rotate(0 150 40)"><path d="M20 0 M20 0 C87.62 -2.11, 153.67 -2.83, 280 0 M20 0 C116.57 -0.54, 214.1 -1.03, 280 0 M280 0 C291.96 0.64, 300.8 7.37, 300 20 M280 0 C293 0.81, 297.77 7.61, 300 20 M300 20 C299.16 30.81, 300.62 41.63, 300 60 M300 20 C299.07 32.7, 300.49 45.25, 300 60 M300 60 C299.83 72.9, 291.51 79.55, 280 80 M300 60 C298.55 72.55, 295.2 80.88, 280 80 M280 80 C219.4 80.62, 159.19 79.93, 20 80 M280 80 C199.46 80.27, 117.09 80.59, 20 80 M20 80 C6.73 78.62, -1.73 74.06, 0 60 M20 80 C6.36 79.95, 0.43 73.88, 0 60 M0 60 C-1.99 43.85, 0.82 32.43, 0 20 M0 60 C0.58 47.4, -0.26 33.5, 0 20 M0 20 C1.3 7.16, 4.82 0.19, 20 0 M0 20 C-0.39 6.69, 4.39 1.11, 20 0" stroke="#1e1e1e" stroke-width="1" fill="none"></path></g><g transform="translate(50 372.5) rotate(0 88.35198974609375 10)"><text x="0" y="0" font-family="Virgil, Segoe UI Emoji" font-size="16px" fill="#1e1e1e" text-anchor="start" style="white-space: pre;" direction="ltr" dominant-baseline="text-before-edge">图形设备抽象层（GAL）</text></g><g stroke-linecap="round"><g transform="translate(30.36528570167718 390.9024150772579) rotate(0 150.40419359095392 0.2898747832886954)"><path d="M-0.37 0.09 C49.72 -0.01, 251.04 0.15, 301.17 -0.04 M1.64 -0.9 C51.61 -0.86, 251.13 1.37, 300.84 1.48" stroke="#1e1e1e" stroke-width="1" fill="none"></path></g></g><mask></mask><g transform="translate(50 410) rotate(0 97.58995056152344 12.5)"><text x="0" y="0" font-family="Virgil, Segoe UI Emoji" font-size="20px" fill="#1e1e1e" text-anchor="start" style="white-space: pre;" direction="ltr" dominant-baseline="text-before-edge">GAL引擎(fb, drm, ...)</text></g><g stroke-linecap="round" transform="translate(370 370) rotate(0 150 40)"><path d="M20 0 M20 0 C90.12 1.14, 159.33 1.18, 280 0 M20 0 C114.2 0.76, 208.96 0.86, 280 0 M280 0 C293.47 1.27, 299.81 5.09, 300 20 M280 0 C292.13 -1.35, 300.95 8.95, 300 20 M300 20 C301.52 28.75, 299.38 40.16, 300 60 M300 20 C299.87 29.34, 300.67 39.28, 300 60 M300 60 C299.81 73.35, 293.33 79.89, 280 80 M300 60 C301.22 73.59, 295.2 79.15, 280 80 M280 80 C202.65 80.35, 127.71 77.8, 20 80 M280 80 C181.44 81.78, 81.42 81.27, 20 80 M20 80 C5.22 78.93, -1.18 72.28, 0 60 M20 80 C6.98 79.76, 1.45 74.52, 0 60 M0 60 C1.08 51.87, 0.22 41.23, 0 20 M0 60 C0.39 46.29, -0.68 32.88, 0 20 M0 20 C1.37 5.39, 5.52 -1.9, 20 0 M0 20 C-0.6 6.7, 6.45 2.25, 20 0" stroke="#1e1e1e" stroke-width="1" fill="none"></path></g><g transform="translate(390 372.5) rotate(0 86.39998626708984 10)"><text x="0" y="0" font-family="Virgil, Segoe UI Emoji" font-size="16px" fill="#1e1e1e" text-anchor="start" style="white-space: pre;" direction="ltr" dominant-baseline="text-before-edge">输入设备抽象层（IAL）</text></g><g stroke-linecap="round"><g transform="translate(370.3652857016772 390.9024150772579) rotate(0 149.96049871120607 -0.0011422287672644416)"><path d="M0.74 0.75 C50.66 0.74, 250.39 -0.49, 300.25 -0.75 M-0.33 0.1 C49.4 0.28, 249.54 0.4, 299.43 0.39" stroke="#1e1e1e" stroke-width="1" fill="none"></path></g></g><mask></mask><g transform="translate(390 410) rotate(0 130.01991271972656 12.5)"><text x="0" y="0" font-family="Virgil, Segoe UI Emoji" font-size="20px" fill="#1e1e1e" text-anchor="start" style="white-space: pre;" direction="ltr" dominant-baseline="text-before-edge">IAL引擎(console, touch, ...)</text></g><g stroke-linecap="round"><g transform="translate(11.025605077669013 52.74642860152494) rotate(0 349.51810552012176 -1.2645663815024974)"><path d="M-1.03 0.22 C115.72 0.11, 583.37 -0.56, 700.06 -0.89 M0.64 -0.71 C117.36 -1.16, 583.39 -2.75, 699.68 -2.75" stroke="#1e1e1e" stroke-width="4" fill="none"></path></g></g><mask></mask><g transform="translate(450 90) rotate(0 90.23747253417969 15.625)"><text x="0" y="0" font-family="Virgil, Segoe UI Emoji" font-size="25px" fill="#1e1e1e" text-anchor="start" style="white-space: pre;" direction="ltr" dominant-baseline="text-before-edge">MiniGUI 组件库</text></g><g stroke-linecap="round" transform="translate(370 190) rotate(0 80 20)"><path d="M10 0 M10 0 C46.57 0.36, 86.33 1.35, 150 0 M10 0 C58.19 -0.35, 104.55 -0.78, 150 0 M150 0 C155.11 0.77, 158.8 3.88, 160 10 M150 0 C158.02 -1.19, 161.82 2.51, 160 10 M160 10 C161.91 15.73, 157.98 22.23, 160 30 M160 10 C160.43 18.17, 160.81 24.7, 160 30 M160 30 C160.61 35.05, 156.63 41.03, 150 40 M160 30 C160.83 38.59, 156.81 41.93, 150 40 M150 40 C116.74 40.2, 84.34 39.04, 10 40 M150 40 C122.01 40.82, 91.73 40.3, 10 40 M10 40 C5.27 38.4, -0.9 37.9, 0 30 M10 40 C2.99 41.37, 0.94 36.94, 0 30 M0 30 C-1.92 23.55, -0.89 19.1, 0 10 M0 30 C-0.61 22.38, -0.24 14.07, 0 10 M0 10 C-1.08 1.65, 4.33 0.5, 10 0 M0 10 C1.62 2.81, 5.2 -1.78, 10 0" stroke="#1e1e1e" stroke-width="1" fill="none"></path></g><g transform="translate(415.4300308227539 197.5) rotate(0 34.569969177246094 12.5)"><text x="34.569969177246094" y="0" font-family="Virgil, Segoe UI Emoji" font-size="20px" fill="#1e1e1e" text-anchor="middle" style="white-space: pre;" direction="ltr" dominant-baseline="text-before-edge">mGPlus</text></g><g stroke-linecap="round" transform="translate(550 190) rotate(0 70 20)"><path d="M10 0 M10 0 C40.02 0.81, 68.59 1.03, 130 0 M10 0 C36.38 1.15, 63.9 1.37, 130 0 M130 0 C135.41 1.31, 139.79 3.6, 140 10 M130 0 C137.84 0.08, 140.41 1.94, 140 10 M140 10 C140.02 18.71, 141.52 23.89, 140 30 M140 10 C140.85 17.92, 140.89 26.21, 140 30 M140 30 C141.36 36.9, 136.02 41.25, 130 40 M140 30 C139.48 36.71, 137.37 41.54, 130 40 M130 40 C100.1 43, 72.27 40.61, 10 40 M130 40 C86.89 40.02, 43.15 40.7, 10 40 M10 40 C2.63 39.44, -1.41 37.68, 0 30 M10 40 C2.49 38.39, -0.78 34.4, 0 30 M0 30 C-0.56 23.03, -0.96 16.45, 0 10 M0 30 C0.88 23.1, 0.64 15.39, 0 10 M0 10 C-0.42 3.49, 3.67 -0.86, 10 0 M0 10 C1.16 1.62, 2.74 1.83, 10 0" stroke="#1e1e1e" stroke-width="1" fill="none"></path></g><g transform="translate(586.8200225830078 197.5) rotate(0 33.17997741699219 12.5)"><text x="33.17997741699219" y="0" font-family="Virgil, Segoe UI Emoji" font-size="20px" fill="#1e1e1e" text-anchor="middle" style="white-space: pre;" direction="ltr" dominant-baseline="text-before-edge">mGNCS</text></g><g stroke-linecap="round"><g transform="translate(350 70) rotate(0 -0.07713249128312327 89.9305850017816)"><path d="M0.26 -0.92 C0.57 29.36, 0.81 150.75, 0.91 180.78 M-1.06 1.22 C-0.75 31.23, 0.18 149.24, 0.44 179.06" stroke="#1e1e1e" stroke-width="2" fill="none"></path></g></g><mask></mask><g stroke-linecap="round"><g transform="translate(350 70) rotate(0 179.4243720539286 -0.2625339485879863)"><path d="M-0.15 -0.09 C59.74 0.01, 300.56 0.77, 360.53 0.79 M-1.68 -1.19 C57.99 -1.43, 299.79 -1.34, 359.86 -0.91" stroke="#1e1e1e" stroke-width="2" fill="none"></path></g></g><mask></mask></svg>