<svg version="1.1" xmlns="http://www.w3.org/2000/svg" viewBox="0 0 921.6923525225184 720" width="1843.3847050450368" height="1440">
  <!-- svg-source:excalidraw -->
  
  <defs>
    <style class="style-fonts">
      @font-face {
        font-family: "Virgil";
        src: url("https://excalidraw.com/Virgil.woff2");
      }
      @font-face {
        font-family: "Cascadia";
        src: url("https://excalidraw.com/Cascadia.woff2");
      }
    </style>
    
  </defs>
  <rect x="0" y="0" width="921.6923525225184" height="720" fill="#ffffff"></rect><g stroke-linecap="round"><g transform="translate(11.038951606675994 551.7755572976358) rotate(0 449.2676782596856 -0.21574758695436458)"><path d="M-1.04 -0.83 C148.75 -0.87, 749.5 -0.07, 899.57 0.23 M0.62 1.34 C150.14 0.88, 748.79 -1.41, 898.4 -1.78" stroke="#1e1e1e" stroke-width="4" fill="none"></path></g></g><mask></mask><g transform="translate(410 570) rotate(0 50 12.716180501463327)"><text x="0" y="0" font-family="Virgil, Segoe UI Emoji" font-size="20.345888802341314px" fill="#1e1e1e" text-anchor="start" style="white-space: pre;" direction="ltr" dominant-baseline="text-before-edge">Linux 内核</text></g><g stroke-linecap="round" transform="translate(30 610) rotate(0 80 20)"><path d="M10 0 M10 0 C60.13 -0.99, 107.2 2.06, 150 0 M10 0 C54.53 1.3, 97.33 0.9, 150 0 M150 0 C157.43 -0.58, 159.44 2.46, 160 10 M150 0 C158.18 -0.81, 160.63 2.18, 160 10 M160 10 C161.35 17.03, 161.71 22.03, 160 30 M160 10 C159.98 16.56, 159.35 22.97, 160 30 M160 30 C159.74 35.95, 155.37 41.57, 150 40 M160 30 C159.14 36.73, 156.54 39.5, 150 40 M150 40 C97.91 38.14, 42.25 40.49, 10 40 M150 40 C94.89 40.05, 38.78 40.11, 10 40 M10 40 C4.99 39.98, -1.84 35.78, 0 30 M10 40 C3.9 38.09, -0.08 35.3, 0 30 M0 30 C-0.8 21.8, -0.29 15.38, 0 10 M0 30 C-0.11 25.93, 0.22 19.86, 0 10 M0 10 C-1.24 1.83, 3.9 1.53, 10 0 M0 10 C1.31 2.09, 2.14 0.8, 10 0" stroke="#1e1e1e" stroke-width="1" fill="none"></path></g><g transform="translate(50 617.5) rotate(0 60 12.5)"><text x="60" y="0" font-family="Virgil, Segoe UI Emoji" font-size="20px" fill="#1e1e1e" text-anchor="middle" style="white-space: pre;" direction="ltr" dominant-baseline="text-before-edge">显示驱动程序</text></g><g stroke-linecap="round" transform="translate(210 610) rotate(0 90 20)"><path d="M10 0 M10 0 C59.33 0.73, 109.38 -2.09, 170 0 M10 0 C69.47 1.05, 127.18 1.63, 170 0 M170 0 C176.37 0.01, 180.79 1.98, 180 10 M170 0 C176.01 -2.22, 181.32 3.39, 180 10 M180 10 C180.75 19.06, 180.01 25.44, 180 30 M180 10 C180.4 14.72, 180.65 20.24, 180 30 M180 30 C180.64 37.27, 177.26 40.22, 170 40 M180 30 C181.67 36.76, 175.16 40.13, 170 40 M170 40 C126.88 40.1, 86.93 39.45, 10 40 M170 40 C111.94 41.12, 55.91 40.94, 10 40 M10 40 C4.65 39.81, 1.21 37.08, 0 30 M10 40 C4.57 41.16, -1.38 34.65, 0 30 M0 30 C1.76 25.7, 1.2 18.65, 0 10 M0 30 C-0.33 24.37, -1.15 19.33, 0 10 M0 10 C-0.92 4.03, 2.46 0.46, 10 0 M0 10 C0.89 1.57, 1.89 0.71, 10 0" stroke="#1e1e1e" stroke-width="1" fill="none"></path></g><g transform="translate(230 617.5) rotate(0 70 12.5)"><text x="70" y="0" font-family="Virgil, Segoe UI Emoji" font-size="20px" fill="#1e1e1e" text-anchor="middle" style="white-space: pre;" direction="ltr" dominant-baseline="text-before-edge">摄像头驱动程序</text></g><g stroke-linecap="round" transform="translate(410 610) rotate(0 80 20)"><path d="M10 0 M10 0 C60.13 -1.84, 107.51 1.34, 150 0 M10 0 C37.68 0.64, 66.84 0.25, 150 0 M150 0 C155.79 0.46, 160.78 1.8, 160 10 M150 0 C155.22 0.71, 159.76 3.33, 160 10 M160 10 C159.49 17.46, 161.24 24.33, 160 30 M160 10 C159.22 16.14, 159.45 21.99, 160 30 M160 30 C159.25 38.65, 155.03 38.5, 150 40 M160 30 C160.06 36.55, 156.28 40.88, 150 40 M150 40 C109.17 39.35, 65.99 39.55, 10 40 M150 40 C119.45 40.54, 89.99 41.19, 10 40 M10 40 C4.54 41.67, -0.68 36.95, 0 30 M10 40 C2.03 42.22, 0.28 38.15, 0 30 M0 30 C-0.69 25.61, 1.73 21.17, 0 10 M0 30 C-0.61 23.23, 0.08 15.21, 0 10 M0 10 C-0.34 3.26, 2.41 -1.21, 10 0 M0 10 C-2.02 1.55, 4.46 -2.04, 10 0" stroke="#1e1e1e" stroke-width="1" fill="none"></path></g><g transform="translate(430 617.5) rotate(0 60 12.5)"><text x="60" y="0" font-family="Virgil, Segoe UI Emoji" font-size="20px" fill="#1e1e1e" text-anchor="middle" style="white-space: pre;" direction="ltr" dominant-baseline="text-before-edge">闪存驱动程序</text></g><g stroke-linecap="round" transform="translate(590 610) rotate(0 80 20)"><path d="M10 0 M10 0 C40.22 0, 70.45 0.36, 150 0 M10 0 C63.56 -1.28, 117.22 -0.83, 150 0 M150 0 C156.31 1.67, 159.54 1.94, 160 10 M150 0 C156.22 -0.71, 161.72 1.53, 160 10 M160 10 C161.46 16.1, 158.64 25.39, 160 30 M160 10 C159.07 15.02, 160.23 17.9, 160 30 M160 30 C159.85 35.94, 158.33 39.71, 150 40 M160 30 C158.54 35.01, 155.61 41.44, 150 40 M150 40 C97.71 39.14, 49.24 40.64, 10 40 M150 40 C94.89 40.28, 39.62 39.61, 10 40 M10 40 C4.47 39.79, -1.6 37.28, 0 30 M10 40 C4.54 39.8, -2.23 37.04, 0 30 M0 30 C0.52 26.85, 1.34 21.86, 0 10 M0 30 C0.63 24.83, -0.34 17.95, 0 10 M0 10 C-1.24 4.74, 4.78 -0.78, 10 0 M0 10 C1.01 5.23, 2.82 1.69, 10 0" stroke="#1e1e1e" stroke-width="1" fill="none"></path></g><g transform="translate(595.410026550293 617.5) rotate(0 74.58997344970703 12.5)"><text x="74.58997344970703" y="0" font-family="Virgil, Segoe UI Emoji" font-size="20px" fill="#1e1e1e" text-anchor="middle" style="white-space: pre;" direction="ltr" dominant-baseline="text-before-edge">Binder 驱动程序</text></g><g stroke-linecap="round" transform="translate(30 670) rotate(0 80 20)"><path d="M10 0 M10 0 C62.6 0.78, 115.58 -1.04, 150 0 M10 0 C62.49 -1.51, 117.79 -1.35, 150 0 M150 0 C158.41 1.28, 161.43 3.74, 160 10 M150 0 C158.53 0.89, 162.29 5.13, 160 10 M160 10 C159.77 16.91, 160.22 21.53, 160 30 M160 10 C159.69 17.8, 160.2 24.78, 160 30 M160 30 C158.66 36.47, 157.08 41.23, 150 40 M160 30 C159.63 36.82, 157.62 41.58, 150 40 M150 40 C111.38 39.92, 71.08 40.84, 10 40 M150 40 C107 39.59, 66.19 37.65, 10 40 M10 40 C5.27 39.06, 1.69 36.48, 0 30 M10 40 C1.55 39.13, 2.13 37.09, 0 30 M0 30 C1.73 24.1, -0.22 15.89, 0 10 M0 30 C0.09 23.12, -0.09 15.02, 0 10 M0 10 C0.22 4.04, 1.48 -1.29, 10 0 M0 10 C-0.86 3.8, 4.47 1.59, 10 0" stroke="#1e1e1e" stroke-width="1" fill="none"></path></g><g transform="translate(50 677.5) rotate(0 60 12.5)"><text x="60" y="0" font-family="Virgil, Segoe UI Emoji" font-size="20px" fill="#1e1e1e" text-anchor="middle" style="white-space: pre;" direction="ltr" dominant-baseline="text-before-edge">输入驱动程序</text></g><g stroke-linecap="round" transform="translate(210 670) rotate(0 90 20)"><path d="M10 0 M10 0 C70.54 -1.34, 129.5 -1.6, 170 0 M10 0 C53.77 0.9, 96.51 0.47, 170 0 M170 0 C178.29 0.78, 181.99 4.89, 180 10 M170 0 C176.72 -0.81, 180.24 3.15, 180 10 M180 10 C180.99 16.3, 179.29 23.23, 180 30 M180 10 C179.38 17.59, 180.26 25.99, 180 30 M180 30 C179.68 36.8, 177.5 41.37, 170 40 M180 30 C179.73 37.26, 175.5 42.03, 170 40 M170 40 C117.04 39.65, 62.02 39.91, 10 40 M170 40 C107.68 37.96, 44.26 38.34, 10 40 M10 40 C1.79 39.24, 1.86 37.04, 0 30 M10 40 C4.2 40.25, 0.3 38.68, 0 30 M0 30 C1.05 23.38, 1.85 16.54, 0 10 M0 30 C0.12 24.05, -0.91 16.74, 0 10 M0 10 C-0.75 3.74, 4.32 1.39, 10 0 M0 10 C1.96 4, 3.03 -2.12, 10 0" stroke="#1e1e1e" stroke-width="1" fill="none"></path></g><g transform="translate(220 677.5) rotate(0 80 12.5)"><text x="80" y="0" font-family="Virgil, Segoe UI Emoji" font-size="20px" fill="#1e1e1e" text-anchor="middle" style="white-space: pre;" direction="ltr" dominant-baseline="text-before-edge">网络设备驱动程序</text></g><g stroke-linecap="round" transform="translate(410 670) rotate(0 80 17.5)"><path d="M8.75 0 M8.75 0 C38.71 3.08, 69.61 3.15, 151.25 0 M8.75 0 C61.4 0.1, 113.42 0.49, 151.25 0 M151.25 0 C157.13 -0.7, 160.21 2.76, 160 8.75 M151.25 0 C158.08 0.34, 159.36 4.02, 160 8.75 M160 8.75 C161.41 13.96, 161.44 17.08, 160 26.25 M160 8.75 C159.89 13.88, 160.4 19.5, 160 26.25 M160 26.25 C159.77 32.6, 156.07 36.76, 151.25 35 M160 26.25 C160.72 34.21, 158.87 35.06, 151.25 35 M151.25 35 C121.78 35.78, 86.53 35.99, 8.75 35 M151.25 35 C114.41 34.49, 80.05 35.05, 8.75 35 M8.75 35 C3.67 35.22, 0.26 33.84, 0 26.25 M8.75 35 C3.89 34.78, -0.7 33.27, 0 26.25 M0 26.25 C0.11 20.67, -1.76 15.53, 0 8.75 M0 26.25 C-0.17 20.56, 0.59 15.12, 0 8.75 M0 8.75 C1.71 3.5, 2.65 -1.84, 8.75 0 M0 8.75 C-1.8 2.31, 4.33 1.17, 8.75 0" stroke="#1e1e1e" stroke-width="1" fill="none"></path></g><g transform="translate(430 675) rotate(0 60 12.5)"><text x="60" y="0" font-family="Virgil, Segoe UI Emoji" font-size="20px" fill="#1e1e1e" text-anchor="middle" style="white-space: pre;" direction="ltr" dominant-baseline="text-before-edge">音频驱动程序</text></g><g stroke-linecap="round" transform="translate(590 670) rotate(0 80 17.5)"><path d="M8.75 0 M8.75 0 C64.69 0.19, 118.47 0.38, 151.25 0 M8.75 0 C57.06 -1.46, 105.43 -1.19, 151.25 0 M151.25 0 C157.95 0.29, 159.44 3.88, 160 8.75 M151.25 0 C156.43 -0.85, 159.42 4.86, 160 8.75 M160 8.75 C159.98 14.81, 161.23 19.88, 160 26.25 M160 8.75 C159.97 14.34, 159.63 20.25, 160 26.25 M160 26.25 C160.63 33.94, 158.64 35.05, 151.25 35 M160 26.25 C158.16 29.83, 155.55 37.2, 151.25 35 M151.25 35 C95.26 38.07, 40.95 34.83, 8.75 35 M151.25 35 C114.28 35.37, 76.7 36.14, 8.75 35 M8.75 35 C3.76 34.81, -0.61 33.12, 0 26.25 M8.75 35 C3.18 37.11, 0.27 32.44, 0 26.25 M0 26.25 C0.78 19.5, -0.97 15.34, 0 8.75 M0 26.25 C0.66 20.9, -0.2 14.24, 0 8.75 M0 8.75 C-1.57 2.39, 4.15 1.02, 8.75 0 M0 8.75 C0.85 1, 4.95 -0.02, 8.75 0" stroke="#1e1e1e" stroke-width="1" fill="none"></path></g><g transform="translate(630 675) rotate(0 40 12.5)"><text x="40" y="0" font-family="Virgil, Segoe UI Emoji" font-size="20px" fill="#1e1e1e" text-anchor="middle" style="white-space: pre;" direction="ltr" dominant-baseline="text-before-edge">电源管理</text></g><g stroke-linecap="round" transform="translate(770 610) rotate(0 70 20)"><path d="M10 0 M10 0 C42.79 -0.35, 71.83 -1.1, 130 0 M10 0 C48.66 0.55, 87.59 -0.34, 130 0 M130 0 C137.97 0.4, 140.24 4.09, 140 10 M130 0 C137.53 -2.26, 137.89 3.24, 140 10 M140 10 C139.84 16.95, 138.87 22.99, 140 30 M140 10 C140.77 14.83, 139.97 19.36, 140 30 M140 30 C140.05 34.91, 136.3 38.82, 130 40 M140 30 C138.3 36.53, 138.54 39.94, 130 40 M130 40 C93.35 39.25, 57.79 41.38, 10 40 M130 40 C97.11 39.48, 62.1 40.05, 10 40 M10 40 C4.99 39.24, 1.89 36.33, 0 30 M10 40 C2.5 41.74, 0.99 35, 0 30 M0 30 C0.03 25.73, 0.88 17.82, 0 10 M0 30 C-0.35 25.52, 0.09 18.77, 0 10 M0 10 C0.94 1.76, 3.29 -0.62, 10 0 M0 10 C-2 2, 2.87 0.36, 10 0" stroke="#1e1e1e" stroke-width="1" fill="none"></path></g><g transform="translate(831.7800064086914 617.5) rotate(0 8.219993591308594 12.5)"><text x="8.219993591308594" y="0" font-family="Virgil, Segoe UI Emoji" font-size="20px" fill="#1e1e1e" text-anchor="middle" style="white-space: pre;" direction="ltr" dominant-baseline="text-before-edge">...</text></g><g stroke-linecap="round"><g transform="translate(10.574025721475493 310.7958545241257) rotate(0 449.8767733801156 0.3086922412323645)"><path d="M-0.57 -0.8 C149.56 -0.82, 750.23 0.81, 900.33 1.05 M1.33 1.4 C151.37 1.57, 749.9 -0.06, 899.55 -0.52" stroke="#1e1e1e" stroke-width="4" fill="none"></path></g></g><mask></mask><g stroke-linecap="round"><g transform="translate(11.112428468298162 131.82003885792568) rotate(0 449.43023931336586 -0.16731603937223127)"><path d="M0.23 -0.74 C150.03 -0.53, 749.98 -0.07, 899.97 0.2 M-1.11 1.49 C148.43 1.4, 748.9 -1.4, 899.01 -1.82" stroke="#1e1e1e" stroke-width="4" fill="none"></path></g></g><mask></mask><g transform="translate(250 330) rotate(0 95.37998962402344 12.5)"><text x="0" y="0" font-family="Virgil, Segoe UI Emoji" font-size="20px" fill="#1e1e1e" text-anchor="start" style="white-space: pre;" direction="ltr" dominant-baseline="text-before-edge">C/C++ 运行时函数库</text></g><g stroke-linecap="round"><g transform="translate(610.6748274635523 311.7710894151218) rotate(0 -0.17005833080355615 88.53066401699559)"><path d="M0.88 -0.48 C0.63 29.16, -1.2 149.19, -1.35 178.83 M-0.12 -1.77 C0.01 28.03, 1.05 147.03, 1.01 177.03" stroke="#1e1e1e" stroke-width="1" fill="none"></path></g></g><mask></mask><g stroke-linecap="round"><g transform="translate(611.3206171117537 491.28860146151857) rotate(0 149.5255591495055 -0.4550781710632066)"><path d="M0.09 -0.16 C50.35 -0.14, 250.21 -0.98, 300.37 -0.76 M-1.32 -1.29 C48.92 -1.06, 249.25 0.26, 299.62 0.38" stroke="#1e1e1e" stroke-width="1" fill="none"></path></g></g><mask></mask><g transform="translate(690 330) rotate(0 69.63996887207031 12.5)"><text x="0" y="0" font-family="Virgil, Segoe UI Emoji" font-size="20px" fill="#1e1e1e" text-anchor="start" style="white-space: pre;" direction="ltr" dominant-baseline="text-before-edge">Android 运行时</text></g><g stroke-linecap="round" transform="translate(670 370) rotate(0 80 20)"><path d="M10 0 M10 0 C52.5 2.03, 93.86 1.67, 150 0 M10 0 C62.7 0.23, 116.19 -0.91, 150 0 M150 0 C156.13 1.63, 161.04 3.39, 160 10 M150 0 C156.21 -2.09, 160.41 2.57, 160 10 M160 10 C158.36 16.19, 160.48 23.68, 160 30 M160 10 C160.02 14.69, 159.55 19.16, 160 30 M160 30 C159.78 37.38, 157.65 41.82, 150 40 M160 30 C161.99 37.36, 158.64 37.74, 150 40 M150 40 C96.65 42.07, 45.72 39.61, 10 40 M150 40 C95.24 39.63, 37.82 38.5, 10 40 M10 40 C3.75 41, 1.37 37.62, 0 30 M10 40 C5.27 39.28, -0.06 38.3, 0 30 M0 30 C-1.56 26.54, -0.03 21.43, 0 10 M0 30 C-0.92 25.84, -0.32 21.52, 0 10 M0 10 C-0.96 4.28, 2.88 1.61, 10 0 M0 10 C-0.82 1.61, 1.21 1.76, 10 0" stroke="#1e1e1e" stroke-width="1" fill="none"></path></g><g transform="translate(690.0900115966797 377.5) rotate(0 59.90998840332031 12.5)"><text x="59.90998840332031" y="0" font-family="Virgil, Segoe UI Emoji" font-size="20px" fill="#1e1e1e" text-anchor="middle" style="white-space: pre;" direction="ltr" dominant-baseline="text-before-edge">Java 核心库</text></g><g stroke-linecap="round" transform="translate(670 430) rotate(0 80 20)"><path d="M10 0 M10 0 C48.5 0.26, 85.95 -1.33, 150 0 M10 0 C50.75 1.61, 92.35 1.48, 150 0 M150 0 C156.47 1.37, 158.55 3.91, 160 10 M150 0 C157.18 -1.99, 160.9 2.74, 160 10 M160 10 C159.45 18.84, 159.19 22.95, 160 30 M160 10 C159.33 13.5, 159.86 19.17, 160 30 M160 30 C160.93 37.25, 154.77 38.32, 150 40 M160 30 C160.07 38.17, 155.47 38.95, 150 40 M150 40 C99.27 38.65, 50.15 40.77, 10 40 M150 40 C98.81 40.25, 47.99 39.98, 10 40 M10 40 C4.71 38.65, 0.03 37.2, 0 30 M10 40 C2.93 40.4, -0.19 35.06, 0 30 M0 30 C-1.23 25.05, -0.54 19.19, 0 10 M0 30 C0.71 25.39, -0.95 22.44, 0 10 M0 10 C1.55 4.68, 3.01 -1.79, 10 0 M0 10 C-0.38 3.84, 4.67 -0.1, 10 0" stroke="#1e1e1e" stroke-width="1" fill="none"></path></g><g transform="translate(685.6100234985352 437.5) rotate(0 64.38997650146484 12.5)"><text x="64.38997650146484" y="0" font-family="Virgil, Segoe UI Emoji" font-size="20px" fill="#1e1e1e" text-anchor="middle" style="white-space: pre;" direction="ltr" dominant-baseline="text-before-edge">Dalvik 虚拟机</text></g><g stroke-linecap="round" transform="translate(50 370) rotate(0 80 17.5)"><path d="M8.75 0 M8.75 0 C50.66 -0.06, 91.9 -1.14, 151.25 0 M8.75 0 C46.73 1.16, 84.51 0.75, 151.25 0 M151.25 0 C156.52 1.67, 160.93 4.8, 160 8.75 M151.25 0 C156.94 1.6, 159.33 0.86, 160 8.75 M160 8.75 C161.48 16.35, 158.25 23.18, 160 26.25 M160 8.75 C160.96 15.52, 159.52 20.81, 160 26.25 M160 26.25 C161.88 31.69, 158.14 36.3, 151.25 35 M160 26.25 C159.54 30.21, 157.43 33.42, 151.25 35 M151.25 35 C106.69 33.74, 60.99 33.67, 8.75 35 M151.25 35 C114.85 33.52, 79.31 34.97, 8.75 35 M8.75 35 C4.04 35.51, -0.54 32.81, 0 26.25 M8.75 35 C2.79 35.12, -0.7 30.53, 0 26.25 M0 26.25 C-1.47 20.96, 0.02 16.7, 0 8.75 M0 26.25 C0.67 21.44, -0.74 14.87, 0 8.75 M0 8.75 C0.03 3.19, 1.62 0.57, 8.75 0 M0 8.75 C1.35 3.23, 1.96 0.05, 8.75 0" stroke="#1e1e1e" stroke-width="1" fill="none"></path></g><g transform="translate(80 375) rotate(0 50 12.5)"><text x="50" y="0" font-family="Virgil, Segoe UI Emoji" font-size="20px" fill="#1e1e1e" text-anchor="middle" style="white-space: pre;" direction="ltr" dominant-baseline="text-before-edge">界面管理器</text></g><g stroke-linecap="round" transform="translate(230 370) rotate(0 90 20)"><path d="M10 0 M10 0 C53.62 0.95, 97.93 2.36, 170 0 M10 0 C66.98 0.57, 124.99 0.68, 170 0 M170 0 C176.54 1.39, 179.42 1.54, 180 10 M170 0 C178.24 -0.06, 181.42 5.28, 180 10 M180 10 C180.58 18.93, 179.06 26.51, 180 30 M180 10 C180.8 17.73, 180.39 26.49, 180 30 M180 30 C179.6 35.04, 176.97 38.63, 170 40 M180 30 C180.33 35.24, 176.76 40.29, 170 40 M170 40 C131.57 39.86, 93.9 37.45, 10 40 M170 40 C132.24 41.59, 93.1 41.71, 10 40 M10 40 C3.22 40.11, -0.61 35.31, 0 30 M10 40 C2.15 38.35, -1.46 34.57, 0 30 M0 30 C0.09 23.86, 1.11 21.45, 0 10 M0 30 C0.21 22.97, -0.45 15.95, 0 10 M0 10 C1.17 3.6, 2.5 0.04, 10 0 M0 10 C0.17 1.09, 3.73 2.17, 10 0" stroke="#1e1e1e" stroke-width="1" fill="none"></path></g><g transform="translate(270 377.5) rotate(0 50 12.5)"><text x="50" y="0" font-family="Virgil, Segoe UI Emoji" font-size="20px" fill="#1e1e1e" text-anchor="middle" style="white-space: pre;" direction="ltr" dominant-baseline="text-before-edge">多媒体框架</text></g><g stroke-linecap="round" transform="translate(430 370) rotate(0 80 20)"><path d="M10 0 M10 0 C51.16 1.06, 90.33 -1.35, 150 0 M10 0 C63.62 -0.63, 117.08 -2.22, 150 0 M150 0 C158.03 -0.06, 161.23 5.03, 160 10 M150 0 C158.18 -2.3, 162.03 4.23, 160 10 M160 10 C161.85 16.19, 160.37 27.1, 160 30 M160 10 C159.91 14.8, 160.26 20.54, 160 30 M160 30 C160.29 35.42, 156.75 40.25, 150 40 M160 30 C158.48 35.92, 155.06 38.86, 150 40 M150 40 C99.94 37.85, 53.98 40.12, 10 40 M150 40 C104.39 40.56, 58.59 39.83, 10 40 M10 40 C2.3 38.56, -1.27 34.84, 0 30 M10 40 C2.1 39.86, -1.12 36.76, 0 30 M0 30 C1.06 23.27, -1.81 20.45, 0 10 M0 30 C0.72 23.86, -0.29 17.47, 0 10 M0 10 C0.15 1.38, 3.68 1.89, 10 0 M0 10 C-0.17 1.65, 2.9 -1.96, 10 0" stroke="#1e1e1e" stroke-width="1" fill="none"></path></g><g transform="translate(477.57003021240234 377.5) rotate(0 32.429969787597656 12.5)"><text x="32.429969787597656" y="0" font-family="Virgil, Segoe UI Emoji" font-size="20px" fill="#1e1e1e" text-anchor="middle" style="white-space: pre;" direction="ltr" dominant-baseline="text-before-edge">SQLite</text></g><g stroke-linecap="round" transform="translate(50 430) rotate(0 80 20)"><path d="M10 0 M10 0 C66.6 1.32, 121.75 0.27, 150 0 M10 0 C62.39 1.23, 114.03 2.1, 150 0 M150 0 C157.98 -2, 161.76 4.11, 160 10 M150 0 C158.52 -0.85, 162.15 5.54, 160 10 M160 10 C159.66 15.64, 161.34 18.77, 160 30 M160 10 C160.17 13.75, 160.07 18.87, 160 30 M160 30 C158.68 36.02, 155.27 39.01, 150 40 M160 30 C161.13 35.26, 155.02 38.61, 150 40 M150 40 C116.5 40.24, 82.72 40.67, 10 40 M150 40 C106.75 38.33, 63.89 38.14, 10 40 M10 40 C2.26 39.88, -0.97 36.75, 0 30 M10 40 C1.94 41.27, 1.5 38.01, 0 30 M0 30 C0.45 24.65, 0.74 23.05, 0 10 M0 30 C0.16 22.75, 0.26 18.4, 0 10 M0 10 C-0.15 1.87, 2.96 -1.7, 10 0 M0 10 C0.73 4.14, 4.31 -1.73, 10 0" stroke="#1e1e1e" stroke-width="1" fill="none"></path></g><g transform="translate(75.97003173828125 437.5) rotate(0 54.02996826171875 12.5)"><text x="54.02996826171875" y="0" font-family="Virgil, Segoe UI Emoji" font-size="20px" fill="#1e1e1e" text-anchor="middle" style="white-space: pre;" direction="ltr" dominant-baseline="text-before-edge">OpenGL ES</text></g><g stroke-linecap="round" transform="translate(230 430) rotate(0 90 20)"><path d="M10 0 M10 0 C66.83 -0.48, 119.1 1.47, 170 0 M10 0 C58.21 -2.36, 105.98 -0.97, 170 0 M170 0 C178.28 -0.74, 181.87 5.26, 180 10 M170 0 C175.04 0.51, 182.17 2.89, 180 10 M180 10 C178.5 17.36, 178.76 24.4, 180 30 M180 10 C179.35 14.43, 179.31 19.02, 180 30 M180 30 C180.98 35.44, 175.23 38.79, 170 40 M180 30 C178.69 38.59, 177.95 40.58, 170 40 M170 40 C126.44 39.3, 81.32 38.88, 10 40 M170 40 C132.98 38.48, 96.54 38.58, 10 40 M10 40 C2.12 41.1, 1.3 37.83, 0 30 M10 40 C1.1 38.04, 0.03 36.98, 0 30 M0 30 C0.21 24.46, -0.01 20.74, 0 10 M0 30 C-0.11 25.22, -0.22 21.05, 0 10 M0 10 C0.63 4.04, 4.18 -1.5, 10 0 M0 10 C-1.92 2.8, 3.7 -1.45, 10 0" stroke="#1e1e1e" stroke-width="1" fill="none"></path></g><g transform="translate(275.8900451660156 437.5) rotate(0 44.109954833984375 12.5)"><text x="44.109954833984375" y="0" font-family="Virgil, Segoe UI Emoji" font-size="20px" fill="#1e1e1e" text-anchor="middle" style="white-space: pre;" direction="ltr" dominant-baseline="text-before-edge">FreeType</text></g><g stroke-linecap="round" transform="translate(430 430) rotate(0 80 17.5)"><path d="M8.75 0 M8.75 0 C47.3 0.26, 87.65 0.35, 151.25 0 M8.75 0 C38.08 -0.93, 66.73 0.4, 151.25 0 M151.25 0 C155.67 0.44, 161.88 2.53, 160 8.75 M151.25 0 C158.3 1.5, 159.54 1.04, 160 8.75 M160 8.75 C158.79 14.34, 160.1 18.63, 160 26.25 M160 8.75 C160.31 12.9, 159.25 17.59, 160 26.25 M160 26.25 C158.86 33.76, 158.2 35.51, 151.25 35 M160 26.25 C159.38 32.92, 156.95 35.12, 151.25 35 M151.25 35 C111.41 33, 72.63 33.19, 8.75 35 M151.25 35 C108.75 35.61, 68.1 35.64, 8.75 35 M8.75 35 C0.98 33.3, 0.03 32.36, 0 26.25 M8.75 35 C1.43 35.65, 1.35 32.39, 0 26.25 M0 26.25 C-1.71 22.03, 1.65 17.08, 0 8.75 M0 26.25 C0.31 22.59, 0.4 17.65, 0 8.75 M0 8.75 C-1.67 2.45, 3.24 -1.26, 8.75 0 M0 8.75 C-2.02 2.98, 3.87 0.38, 8.75 0" stroke="#1e1e1e" stroke-width="1" fill="none"></path></g><g transform="translate(451.3900451660156 435) rotate(0 58.609954833984375 12.5)"><text x="58.609954833984375" y="0" font-family="Virgil, Segoe UI Emoji" font-size="20px" fill="#1e1e1e" text-anchor="middle" style="white-space: pre;" direction="ltr" dominant-baseline="text-before-edge">WebKit/Blink</text></g><g stroke-linecap="round" transform="translate(50 490) rotate(0 80 20)"><path d="M10 0 M10 0 C42.34 0.89, 79.41 1.3, 150 0 M10 0 C65.89 0.04, 120.93 -0.08, 150 0 M150 0 C158.22 -1.12, 159.34 4.97, 160 10 M150 0 C155.02 -1.46, 161 5.45, 160 10 M160 10 C158.63 14.18, 160.59 18.81, 160 30 M160 10 C159.76 17.82, 160.04 24.39, 160 30 M160 30 C159.88 36.93, 154.67 40.35, 150 40 M160 30 C158.03 35.38, 157.02 41.88, 150 40 M150 40 C115.44 37.5, 79.54 40.38, 10 40 M150 40 C109.94 39.67, 69.78 39.33, 10 40 M10 40 C4.95 38.56, 0.26 35.52, 0 30 M10 40 C5.06 42.27, -0.75 34.84, 0 30 M0 30 C2.13 24.8, 2.1 22.57, 0 10 M0 30 C0.76 22.42, -0.63 16.24, 0 10 M0 10 C-1.54 3.77, 4.29 2, 10 0 M0 10 C1.23 4.78, 5.19 2.26, 10 0" stroke="#1e1e1e" stroke-width="1" fill="none"></path></g><g transform="translate(110.19001770019531 497.5) rotate(0 19.809982299804688 12.5)"><text x="19.809982299804688" y="0" font-family="Virgil, Segoe UI Emoji" font-size="20px" fill="#1e1e1e" text-anchor="middle" style="white-space: pre;" direction="ltr" dominant-baseline="text-before-edge">Skia</text></g><g stroke-linecap="round" transform="translate(230 490) rotate(0 90 20)"><path d="M10 0 M10 0 C71.46 0.11, 129.11 -0.77, 170 0 M10 0 C59.94 -0.48, 108.01 0.9, 170 0 M170 0 C175.24 -1.27, 180.87 5.17, 180 10 M170 0 C174.39 0.88, 179.81 1.67, 180 10 M180 10 C181.34 17.48, 182.01 21.59, 180 30 M180 10 C179.92 17.18, 178.98 24.27, 180 30 M180 30 C178.28 35.54, 176.98 41.64, 170 40 M180 30 C178.99 36.97, 175.68 41.51, 170 40 M170 40 C136.93 40.72, 102.67 41.07, 10 40 M170 40 C108.97 40.12, 46.45 40.27, 10 40 M10 40 C4.83 41.97, -0.66 35.08, 0 30 M10 40 C1.65 37.93, -1.71 38.9, 0 30 M0 30 C0.93 25.21, -1.89 20.97, 0 10 M0 30 C-0.66 25.14, 0.59 20.84, 0 10 M0 10 C1.07 4.59, 4.94 1.97, 10 0 M0 10 C1.7 2.3, 5.15 -0.11, 10 0" stroke="#1e1e1e" stroke-width="1" fill="none"></path></g><g transform="translate(301.85001373291016 497.5) rotate(0 18.149986267089844 12.5)"><text x="18.149986267089844" y="0" font-family="Virgil, Segoe UI Emoji" font-size="20px" fill="#1e1e1e" text-anchor="middle" style="white-space: pre;" direction="ltr" dominant-baseline="text-before-edge">SSL</text></g><g stroke-linecap="round" transform="translate(430 490) rotate(0 80 17.5)"><path d="M8.75 0 M8.75 0 C62.95 -0.77, 116.77 1.04, 151.25 0 M8.75 0 C42.82 -1.8, 78.75 -0.25, 151.25 0 M151.25 0 C155.1 0.77, 159.84 1.47, 160 8.75 M151.25 0 C157.27 0.59, 160.89 4.4, 160 8.75 M160 8.75 C161.09 14.99, 159.82 21.45, 160 26.25 M160 8.75 C159.07 13.74, 159.96 20.43, 160 26.25 M160 26.25 C159.13 32.35, 156.23 36.32, 151.25 35 M160 26.25 C157.82 33.57, 158.21 34.71, 151.25 35 M151.25 35 C110.67 35.6, 67.68 36.82, 8.75 35 M151.25 35 C119.54 35.17, 86 33.39, 8.75 35 M8.75 35 C1.45 33.2, -1.49 34.03, 0 26.25 M8.75 35 C2.15 37.21, 1.88 33.37, 0 26.25 M0 26.25 C-0.66 19.52, 0.99 13.44, 0 8.75 M0 26.25 C0.38 21.17, 0.62 15.86, 0 8.75 M0 8.75 C1.48 2.02, 4.5 -0.09, 8.75 0 M0 8.75 C0.85 1.74, 4.84 -0.79, 8.75 0" stroke="#1e1e1e" stroke-width="1" fill="none"></path></g><g transform="translate(460.0900344848633 495) rotate(0 49.90996551513672 12.5)"><text x="49.90996551513672" y="0" font-family="Virgil, Segoe UI Emoji" font-size="20px" fill="#1e1e1e" text-anchor="middle" style="white-space: pre;" direction="ltr" dominant-baseline="text-before-edge">libc, libc++</text></g><g stroke-linecap="round" transform="translate(30 250) rotate(0 80 20)"><path d="M10 0 M10 0 C57.61 -0.37, 100.3 -2.46, 150 0 M10 0 C41.46 1.27, 70.32 0.17, 150 0 M150 0 C158.6 1.22, 160.75 1.73, 160 10 M150 0 C155.57 -0.2, 160.43 4.08, 160 10 M160 10 C158.49 17.79, 158.67 24.83, 160 30 M160 10 C159.92 16.77, 160.6 22.5, 160 30 M160 30 C158.01 35.96, 157.04 41.74, 150 40 M160 30 C158.35 36.69, 158.79 39.62, 150 40 M150 40 C120.18 40.62, 93.31 39.56, 10 40 M150 40 C99.01 40.36, 47.39 40.08, 10 40 M10 40 C2.73 38.9, -0.3 38.32, 0 30 M10 40 C4.68 38.72, -0.91 37.87, 0 30 M0 30 C-1.35 23.09, -1.44 19.22, 0 10 M0 30 C0.73 24, -0.61 17.03, 0 10 M0 10 C-1.12 3.12, 3.76 -1.67, 10 0 M0 10 C0.33 2.41, 1.52 -1.86, 10 0" stroke="#1e1e1e" stroke-width="1" fill="none"></path></g><g transform="translate(70 257.5) rotate(0 40 12.5)"><text x="40" y="0" font-family="Virgil, Segoe UI Emoji" font-size="20px" fill="#1e1e1e" text-anchor="middle" style="white-space: pre;" direction="ltr" dominant-baseline="text-before-edge">包管理器</text></g><g stroke-linecap="round" transform="translate(210 250) rotate(0 90 20)"><path d="M10 0 M10 0 C60.52 2.23, 113.35 3.12, 170 0 M10 0 C68.57 1.42, 125.58 0, 170 0 M170 0 C175.72 -0.17, 180.37 3.98, 180 10 M170 0 C178.55 -1.27, 181.23 1.72, 180 10 M180 10 C180.46 17.25, 180.16 21.92, 180 30 M180 10 C179.1 16.03, 180.28 23.64, 180 30 M180 30 C178.57 36.69, 178.51 39.67, 170 40 M180 30 C177.86 37.57, 176.69 39.03, 170 40 M170 40 C118.48 38.53, 64.81 40.74, 10 40 M170 40 C122.4 38.93, 75.26 40.31, 10 40 M10 40 C4.51 38.88, -0.79 37.71, 0 30 M10 40 C2.42 38.74, 0.57 34.98, 0 30 M0 30 C0.76 26.99, -0.34 23.12, 0 10 M0 30 C-0.46 22.68, 0.31 14.73, 0 10 M0 10 C0.29 2.53, 1.76 -1.62, 10 0 M0 10 C-2.14 3.14, 3.29 0.58, 10 0" stroke="#1e1e1e" stroke-width="1" fill="none"></path></g><g transform="translate(250 257.5) rotate(0 50 12.5)"><text x="50" y="0" font-family="Virgil, Segoe UI Emoji" font-size="20px" fill="#1e1e1e" text-anchor="middle" style="white-space: pre;" direction="ltr" dominant-baseline="text-before-edge">电话管理器</text></g><g stroke-linecap="round" transform="translate(410 250) rotate(0 80 20)"><path d="M10 0 M10 0 C59.99 -2.8, 106.58 0.63, 150 0 M10 0 C60.06 1.03, 111.26 1.44, 150 0 M150 0 C158.3 -1.1, 161.07 1.93, 160 10 M150 0 C156.84 -1.4, 159.5 4, 160 10 M160 10 C160.41 18.08, 158.71 22.2, 160 30 M160 10 C159.32 15.3, 160.96 20.41, 160 30 M160 30 C158.14 37.45, 156.69 39.16, 150 40 M160 30 C160.7 38.11, 156.14 41.57, 150 40 M150 40 C115.67 41.7, 80.86 40.17, 10 40 M150 40 C116.3 40.6, 81.04 41.68, 10 40 M10 40 C2.54 38.9, 0.5 35.2, 0 30 M10 40 C1.37 38.22, -0.42 37.37, 0 30 M0 30 C1.27 21.75, 0.54 14.32, 0 10 M0 30 C0.1 23.82, -0.83 17.63, 0 10 M0 10 C-1.86 3.16, 3.3 0.51, 10 0 M0 10 C1.9 5.05, 3.39 1.16, 10 0" stroke="#1e1e1e" stroke-width="1" fill="none"></path></g><g transform="translate(440 257.5) rotate(0 50 12.5)"><text x="50" y="0" font-family="Virgil, Segoe UI Emoji" font-size="20px" fill="#1e1e1e" text-anchor="middle" style="white-space: pre;" direction="ltr" dominant-baseline="text-before-edge">资源管理器</text></g><g stroke-linecap="round" transform="translate(590 250) rotate(0 80 20)"><path d="M10 0 M10 0 C42.74 -0.6, 71.44 -2.3, 150 0 M10 0 C51.61 -1, 92.12 -1.15, 150 0 M150 0 C156.82 -1.22, 159.56 3.91, 160 10 M150 0 C157.93 0.32, 159.56 3.78, 160 10 M160 10 C159.16 17.35, 161.61 22.53, 160 30 M160 10 C159.25 16.42, 160.19 21.62, 160 30 M160 30 C160.61 37.93, 156.21 41.36, 150 40 M160 30 C158.73 37.33, 157.93 39.9, 150 40 M150 40 C100.39 39.28, 54.63 40.75, 10 40 M150 40 C115.42 40.18, 81.88 40, 10 40 M10 40 C1.63 38.45, -0.37 37.27, 0 30 M10 40 C4.81 39.43, 1.97 38.06, 0 30 M0 30 C-0.27 25.4, -1.72 20.23, 0 10 M0 30 C-0.77 24.71, 0.14 19.85, 0 10 M0 10 C1.65 4.83, 3.38 1.01, 10 0 M0 10 C-1.05 5.05, 2.98 -1.53, 10 0" stroke="#1e1e1e" stroke-width="1" fill="none"></path></g><g transform="translate(620 257.5) rotate(0 50 12.5)"><text x="50" y="0" font-family="Virgil, Segoe UI Emoji" font-size="20px" fill="#1e1e1e" text-anchor="middle" style="white-space: pre;" direction="ltr" dominant-baseline="text-before-edge">位置管理器</text></g><g stroke-linecap="round" transform="translate(770 250) rotate(0 70 20)"><path d="M10 0 M10 0 C50.32 0.94, 91.63 2.21, 130 0 M10 0 C39.47 0.23, 68.57 1.13, 130 0 M130 0 C137.76 0.28, 139.61 3.72, 140 10 M130 0 C137.8 -1.52, 137.71 2.52, 140 10 M140 10 C140.2 18.21, 139.84 20.88, 140 30 M140 10 C140.31 17.42, 139.77 24.26, 140 30 M140 30 C138.89 37.24, 137.77 39.91, 130 40 M140 30 C141.07 35.92, 135.97 38.73, 130 40 M130 40 C94.68 39.91, 62.65 39.91, 10 40 M130 40 C99.74 38.35, 71.01 39.43, 10 40 M10 40 C4.61 39.5, 1.71 37.88, 0 30 M10 40 C2.21 40.56, -1.29 36.42, 0 30 M0 30 C-0.63 21.99, -1.45 15.27, 0 10 M0 30 C0.83 24.92, 0.03 18.85, 0 10 M0 10 C-0.91 4.83, 3.03 -1.33, 10 0 M0 10 C-0.3 4.03, 3.28 0.86, 10 0" stroke="#1e1e1e" stroke-width="1" fill="none"></path></g><g transform="translate(790 257.5) rotate(0 50 12.5)"><text x="50" y="0" font-family="Virgil, Segoe UI Emoji" font-size="20px" fill="#1e1e1e" text-anchor="middle" style="white-space: pre;" direction="ltr" dominant-baseline="text-before-edge">通知管理器</text></g><g stroke-linecap="round" transform="translate(90 190) rotate(0 80 20)"><path d="M10 0 M10 0 C40 2.03, 71.5 -0.45, 150 0 M10 0 C41.78 1.12, 71.75 0.48, 150 0 M150 0 C156.04 1.44, 159.15 4.82, 160 10 M150 0 C155.44 -0.95, 160.97 3.91, 160 10 M160 10 C160.43 16.24, 160.81 18.04, 160 30 M160 10 C160.61 14.83, 160.23 19.28, 160 30 M160 30 C159.99 35.8, 154.92 41.4, 150 40 M160 30 C161.07 38.07, 154.55 40.01, 150 40 M150 40 C112.22 38.04, 72.96 39.92, 10 40 M150 40 C116.44 38.16, 82.45 39.2, 10 40 M10 40 C4.31 38.45, -0.79 36.11, 0 30 M10 40 C2.4 39.38, 1.86 38.67, 0 30 M0 30 C-0.75 23.85, -1.92 17.68, 0 10 M0 30 C0.93 23.05, -0.17 17.99, 0 10 M0 10 C0.06 3.65, 4.14 1.63, 10 0 M0 10 C-0.31 5.4, 4.11 -1.91, 10 0" stroke="#1e1e1e" stroke-width="1" fill="none"></path></g><g transform="translate(120 197.5) rotate(0 50 12.5)"><text x="50" y="0" font-family="Virgil, Segoe UI Emoji" font-size="20px" fill="#1e1e1e" text-anchor="middle" style="white-space: pre;" direction="ltr" dominant-baseline="text-before-edge">活动管理器</text></g><g stroke-linecap="round" transform="translate(270 190) rotate(0 90 20)"><path d="M10 0 M10 0 C67.32 0.24, 126.8 2.81, 170 0 M10 0 C64.2 1.1, 118.59 1.12, 170 0 M170 0 C175.6 -0.83, 180.84 3.83, 180 10 M170 0 C175.24 2.2, 181.64 3.61, 180 10 M180 10 C178.49 17.66, 179.32 26.15, 180 30 M180 10 C180.04 16.37, 179.17 24.3, 180 30 M180 30 C180.93 37.89, 174.82 40.01, 170 40 M180 30 C179.43 37.71, 175.64 40.89, 170 40 M170 40 C131.5 39.27, 93.93 40.81, 10 40 M170 40 C135.96 39.54, 100.54 40.03, 10 40 M10 40 C2.52 39.46, 1.61 38.41, 0 30 M10 40 C3.71 40.68, 1.61 35.88, 0 30 M0 30 C0.39 22.8, -0.39 19.31, 0 10 M0 30 C0.09 25.66, 0.46 21.82, 0 10 M0 10 C-0.27 5.13, 4.01 -1.66, 10 0 M0 10 C0.34 2.34, 4.7 -1.86, 10 0" stroke="#1e1e1e" stroke-width="1" fill="none"></path></g><g transform="translate(310 197.5) rotate(0 50 12.5)"><text x="50" y="0" font-family="Virgil, Segoe UI Emoji" font-size="20px" fill="#1e1e1e" text-anchor="middle" style="white-space: pre;" direction="ltr" dominant-baseline="text-before-edge">窗口管理器</text></g><g stroke-linecap="round" transform="translate(470 190) rotate(0 80 20)"><path d="M10 0 M10 0 C48.26 -1.13, 84.42 -1.97, 150 0 M10 0 C61.57 -1.46, 114.62 -0.79, 150 0 M150 0 C155.43 1.92, 161.43 3.58, 160 10 M150 0 C158.37 0.71, 158.3 1.53, 160 10 M160 10 C160.73 16.6, 160.76 22.35, 160 30 M160 10 C160.29 15.74, 158.9 20.27, 160 30 M160 30 C159.51 37.58, 155.77 40.77, 150 40 M160 30 C158.47 36.74, 157.29 38.64, 150 40 M150 40 C114.51 40.16, 82.77 41.24, 10 40 M150 40 C118.41 39.34, 88.44 40.48, 10 40 M10 40 C3.66 40.59, 1.4 35.98, 0 30 M10 40 C3.53 37.86, 0.39 36.9, 0 30 M0 30 C-1.45 24.48, 0.85 20.11, 0 10 M0 30 C-0.22 24.59, 0.26 16.55, 0 10 M0 10 C0.3 2.47, 4.52 -1.61, 10 0 M0 10 C-1.29 1.65, 2.12 -2.03, 10 0" stroke="#1e1e1e" stroke-width="1" fill="none"></path></g><g transform="translate(500 197.5) rotate(0 50 12.5)"><text x="50" y="0" font-family="Virgil, Segoe UI Emoji" font-size="20px" fill="#1e1e1e" text-anchor="middle" style="white-space: pre;" direction="ltr" dominant-baseline="text-before-edge">内容提供者</text></g><g stroke-linecap="round" transform="translate(650 190) rotate(0 80 17.5)"><path d="M8.75 0 M8.75 0 C54.44 -0.4, 98.73 -0.62, 151.25 0 M8.75 0 C44.98 0.6, 83.17 -0.23, 151.25 0 M151.25 0 C158.56 0.62, 158.52 1.35, 160 8.75 M151.25 0 C157.29 -0.86, 161.37 3.84, 160 8.75 M160 8.75 C159.31 12.84, 161.3 20.81, 160 26.25 M160 8.75 C159.62 15.47, 159.45 21.73, 160 26.25 M160 26.25 C158.67 32.15, 157.63 33.82, 151.25 35 M160 26.25 C158.65 30.45, 157.52 33.06, 151.25 35 M151.25 35 C107.73 34.91, 66.74 34.89, 8.75 35 M151.25 35 C112.5 36.54, 74.12 35.9, 8.75 35 M8.75 35 C3.09 33.14, 0.34 32.28, 0 26.25 M8.75 35 C1.74 34.34, 1.9 30.35, 0 26.25 M0 26.25 C0.2 22.18, 1.35 16.46, 0 8.75 M0 26.25 C0.07 19.05, 0.46 11.89, 0 8.75 M0 8.75 C-1.12 1.45, 1.86 -1.77, 8.75 0 M0 8.75 C0.05 0.89, 1.77 1.59, 8.75 0" stroke="#1e1e1e" stroke-width="1" fill="none"></path></g><g transform="translate(690 195) rotate(0 40 12.5)"><text x="40" y="0" font-family="Virgil, Segoe UI Emoji" font-size="20px" fill="#1e1e1e" text-anchor="middle" style="white-space: pre;" direction="ltr" dominant-baseline="text-before-edge">视图系统</text></g><g transform="translate(410 150) rotate(0 50 15.625)"><text x="0" y="0" font-family="Virgil, Segoe UI Emoji" font-size="25px" fill="#1e1e1e" text-anchor="start" style="white-space: pre;" direction="ltr" dominant-baseline="text-before-edge">应用框架</text></g><g stroke-linecap="round" transform="translate(30 70) rotate(0 80 20)"><path d="M10 0 M10 0 C63.24 2.08, 117.46 2.91, 150 0 M10 0 C41.57 0.21, 70.43 1.15, 150 0 M150 0 C156.28 -1.33, 158.6 3.89, 160 10 M150 0 C156.13 -0.37, 160.23 4.36, 160 10 M160 10 C160.15 17.42, 158.8 23.33, 160 30 M160 10 C160.69 15.17, 160.49 20.15, 160 30 M160 30 C159.9 38.44, 155.55 38.87, 150 40 M160 30 C161.68 35.99, 154.83 38.43, 150 40 M150 40 C115.15 40.49, 80.46 39.94, 10 40 M150 40 C106.86 40.75, 60.91 40.85, 10 40 M10 40 C4.68 41.88, -1.76 37.45, 0 30 M10 40 C3.64 39.86, 2.04 35.81, 0 30 M0 30 C1.47 24.13, -1.53 16.84, 0 10 M0 30 C0.66 22.96, -0.06 13.51, 0 10 M0 10 C-0.83 5.26, 5.24 1.33, 10 0 M0 10 C1.65 4.54, 3.6 -1.82, 10 0" stroke="#1e1e1e" stroke-width="1" fill="none"></path></g><g transform="translate(82.83001708984375 77.5) rotate(0 27.16998291015625 12.5)"><text x="27.16998291015625" y="0" font-family="Virgil, Segoe UI Emoji" font-size="20px" fill="#1e1e1e" text-anchor="middle" style="white-space: pre;" direction="ltr" dominant-baseline="text-before-edge">HOME</text></g><g stroke-linecap="round" transform="translate(210 70) rotate(0 90 20)"><path d="M10 0 M10 0 C63.15 -3.23, 118.4 0.64, 170 0 M10 0 C48 -1.2, 85.69 -0.26, 170 0 M170 0 C176.2 -0.32, 180.2 4.23, 180 10 M170 0 C177.97 0.55, 180.84 3.45, 180 10 M180 10 C178.53 15.63, 181.11 24.09, 180 30 M180 10 C180.06 17.92, 179.56 23.51, 180 30 M180 30 C181.46 36.07, 175.07 38.63, 170 40 M180 30 C178.79 34.99, 176.53 39.79, 170 40 M170 40 C117.77 40, 66.7 41.98, 10 40 M170 40 C130.6 40.3, 88.97 39.76, 10 40 M10 40 C3.6 39.88, 1.77 35.92, 0 30 M10 40 C4.8 38.89, 0.56 38.25, 0 30 M0 30 C2.13 20.76, 0.12 16.15, 0 10 M0 30 C-0.37 23.1, 1 14.94, 0 10 M0 10 C1.43 4.38, 3.57 -1.58, 10 0 M0 10 C0.73 1.23, 5.49 0.4, 10 0" stroke="#1e1e1e" stroke-width="1" fill="none"></path></g><g transform="translate(254.93003845214844 77.5) rotate(0 45.06996154785156 12.5)"><text x="45.06996154785156" y="0" font-family="Virgil, Segoe UI Emoji" font-size="20px" fill="#1e1e1e" text-anchor="middle" style="white-space: pre;" direction="ltr" dominant-baseline="text-before-edge">Contacts</text></g><g stroke-linecap="round" transform="translate(410 70) rotate(0 80 20)"><path d="M10 0 M10 0 C37.55 -2.84, 68.22 -1.77, 150 0 M10 0 C42.44 -0.55, 75.44 0.06, 150 0 M150 0 C157.8 0.48, 160.73 3.44, 160 10 M150 0 C157 -1.43, 158.92 1.79, 160 10 M160 10 C161.16 16.46, 161.8 20.59, 160 30 M160 10 C160.62 17.47, 159.09 24.85, 160 30 M160 30 C158.95 35.21, 156.55 39.82, 150 40 M160 30 C160.65 36.41, 156.69 40.35, 150 40 M150 40 C107.14 39.71, 65.46 42.73, 10 40 M150 40 C94.99 40.49, 40.61 40.17, 10 40 M10 40 C4.61 39.03, 0.48 38.04, 0 30 M10 40 C4.95 38.12, 1.59 38.93, 0 30 M0 30 C1.87 25.35, -1.09 20.84, 0 10 M0 30 C0.53 22.6, -0.07 13.36, 0 10 M0 10 C0.64 1.5, 5.21 0.34, 10 0 M0 10 C-0.98 1.31, 4.11 -1.9, 10 0" stroke="#1e1e1e" stroke-width="1" fill="none"></path></g><g transform="translate(462.77002716064453 77.5) rotate(0 27.22997283935547 12.5)"><text x="27.22997283935547" y="0" font-family="Virgil, Segoe UI Emoji" font-size="20px" fill="#1e1e1e" text-anchor="middle" style="white-space: pre;" direction="ltr" dominant-baseline="text-before-edge">Phone</text></g><g stroke-linecap="round" transform="translate(590 70) rotate(0 80 20)"><path d="M10 0 M10 0 C40.46 -1.14, 74.15 -0.2, 150 0 M10 0 C50.33 -0.39, 89.9 -0.57, 150 0 M150 0 C156.95 -1.25, 159.06 1.99, 160 10 M150 0 C155.91 1.42, 161.75 4.52, 160 10 M160 10 C161.94 16, 159.04 25.7, 160 30 M160 10 C159.32 14.68, 159.78 20.72, 160 30 M160 30 C160.57 36.44, 156.69 40.3, 150 40 M160 30 C159.98 38.71, 158.93 38.86, 150 40 M150 40 C121.52 39.19, 90.07 41.21, 10 40 M150 40 C109.46 38.99, 67.89 40.16, 10 40 M10 40 C4.74 38.37, 1.38 38.64, 0 30 M10 40 C1.22 39.95, 1.11 38.81, 0 30 M0 30 C2.03 26.39, 1.44 20.39, 0 10 M0 30 C0.3 22.04, 0.91 16.08, 0 10 M0 10 C-0.85 1.58, 4.01 -1.66, 10 0 M0 10 C-1.39 1.34, 2.13 -1.53, 10 0" stroke="#1e1e1e" stroke-width="1" fill="none"></path></g><g transform="translate(623.430046081543 77.5) rotate(0 46.56995391845703 12.5)"><text x="46.56995391845703" y="0" font-family="Virgil, Segoe UI Emoji" font-size="20px" fill="#1e1e1e" text-anchor="middle" style="white-space: pre;" direction="ltr" dominant-baseline="text-before-edge">Messages</text></g><g stroke-linecap="round" transform="translate(770 70) rotate(0 70 20)"><path d="M10 0 M10 0 C37.26 0.48, 66.05 1.41, 130 0 M10 0 C49.01 -0.69, 87.27 -0.74, 130 0 M130 0 C136.01 1.23, 141.52 4.37, 140 10 M130 0 C137.95 1.93, 139.88 5.37, 140 10 M140 10 C139.29 13.29, 138.52 18.72, 140 30 M140 10 C140.27 14.43, 140 19.23, 140 30 M140 30 C139.98 38.44, 138.63 39.01, 130 40 M140 30 C138.09 35.75, 138.22 42.16, 130 40 M130 40 C104.44 41.93, 78.36 41.43, 10 40 M130 40 C100.5 40.01, 70.29 41.81, 10 40 M10 40 C1.5 39.96, 0.96 38.53, 0 30 M10 40 C2.78 38.74, -0.95 38.88, 0 30 M0 30 C0.91 22.33, -1.72 14.82, 0 10 M0 30 C-0.61 24.95, 0.15 20.84, 0 10 M0 10 C-1.21 1.6, 2.28 -1.33, 10 0 M0 10 C-1.31 4.77, 5.03 0.71, 10 0" stroke="#1e1e1e" stroke-width="1" fill="none"></path></g><g transform="translate(831.7800064086914 77.5) rotate(0 8.219993591308594 12.5)"><text x="8.219993591308594" y="0" font-family="Virgil, Segoe UI Emoji" font-size="20px" fill="#1e1e1e" text-anchor="middle" style="white-space: pre;" direction="ltr" dominant-baseline="text-before-edge">...</text></g><g transform="translate(430 10) rotate(0 30 18.75)"><text x="0" y="0" font-family="Virgil, Segoe UI Emoji" font-size="30px" fill="#1e1e1e" text-anchor="start" style="white-space: pre;" direction="ltr" dominant-baseline="text-before-edge">应用</text></g></svg>