<svg version="1.1" xmlns="http://www.w3.org/2000/svg" viewBox="0 0 858.7549850955606 740" width="1717.5099701911213" height="1480">
  <!-- svg-source:excalidraw -->
  
  <defs>
    <style class="style-fonts">
      @font-face {
        font-family: "Virgil";
        src: url("https://excalidraw.com/Virgil.woff2");
      }
      @font-face {
        font-family: "Cascadia";
        src: url("https://excalidraw.com/Cascadia.woff2");
      }
    </style>
    
  </defs>
  <rect x="0" y="0" width="858.7549850955606" height="740" fill="#ffffff"></rect><g stroke-linecap="round" transform="translate(170 130) rotate(0 90 120)"><path d="M32 0 M32 0 C71.77 1.42, 114.24 0.08, 148 0 M32 0 C63.13 -0.75, 94.73 0.96, 148 0 M148 0 C168.13 1.65, 178.66 9.4, 180 32 M148 0 C168.32 -1.5, 178.05 11.51, 180 32 M180 32 C181.19 94.23, 179.18 154.61, 180 208 M180 32 C181.77 78.01, 180.43 124.05, 180 208 M180 208 C178.37 229.51, 169.6 238.17, 148 240 M180 208 C178.72 230.54, 170.63 240.41, 148 240 M148 240 C115.98 241.17, 81.62 239.48, 32 240 M148 240 C120.32 239.03, 91.12 239.51, 32 240 M32 240 C10.45 238.04, -1.88 228.71, 0 208 M32 240 C12.95 242.27, 1.71 227.35, 0 208 M0 208 C2.21 138.71, 2.3 69.06, 0 32 M0 208 C0.28 171.12, 0.27 134.78, 0 32 M0 32 C0.76 11.2, 12.08 -1.49, 32 0 M0 32 C2.16 11.45, 10.57 -1.23, 32 0" stroke="#1e1e1e" stroke-width="1" fill="none"></path></g><g stroke-linecap="round" transform="translate(190 410) rotate(0 70 160)"><path d="M32 0 M32 0 C59.56 1.52, 90.43 0.43, 108 0 M32 0 C60.51 -0.76, 87.8 -0.83, 108 0 M108 0 C130.22 0.16, 141.03 10.8, 140 32 M108 0 C131.35 -1.06, 140.47 9.1, 140 32 M140 32 C137.84 86.77, 138.51 144.86, 140 288 M140 32 C139 98.19, 140 163.2, 140 288 M140 288 C138.38 308.94, 128.19 319.09, 108 320 M140 288 C142 308.97, 128.34 319.62, 108 320 M108 320 C87.86 320.31, 69.9 319.19, 32 320 M108 320 C83.75 320.15, 59.15 319.16, 32 320 M32 320 C10.75 318.74, 1.18 308.64, 0 288 M32 320 C12.6 318.17, -1.14 310.97, 0 288 M0 288 C-0.01 210.93, -0.99 134.86, 0 32 M0 288 C1.72 196.87, 1.41 104.22, 0 32 M0 32 C-1.67 9.14, 8.8 -1.96, 32 0 M0 32 C-0.35 12.61, 8.74 -1.93, 32 0" stroke="#1e1e1e" stroke-width="1" fill="none"></path></g><g stroke-linecap="round" transform="translate(190 270) rotate(0 70 20)"><path d="M0.4 1.66 C31.6 -0.16, 67.07 2.13, 139.89 -0.93 M-0.09 -0.06 C45.29 0.81, 88.35 1.12, 140.7 0.34 M139.03 -0.69 C139.77 12.75, 139.39 26.25, 141.27 38.41 M139.2 -0.12 C140.56 12.07, 139.12 24.06, 139.41 40.03 M139.79 41.56 C104.23 38.27, 66.39 38.23, 0.42 41.33 M139.53 39.64 C97.39 40.19, 56.08 40.44, -0.22 40.19 M-0.3 39.03 C0.19 30.24, 1.78 24.09, -0.58 1.9 M0.43 39.62 C0.94 27.61, 1.11 13.5, -0.86 0.41" stroke="#1e1e1e" stroke-width="1" fill="none"></path></g><g transform="translate(238.06002044677734 277.5) rotate(0 21.939979553222656 12.5)"><text x="21.939979553222656" y="0" font-family="Virgil, Segoe UI Emoji" font-size="20px" fill="#1e1e1e" text-anchor="middle" style="white-space: pre;" direction="ltr" dominant-baseline="text-before-edge">ctxt</text></g><g stroke-linecap="round" transform="translate(190 310) rotate(0 70 20)"><path d="M-1.47 1.32 C45.31 -0.98, 90.92 2.23, 141.26 1.96 M-0.73 0.78 C45.42 0.6, 89 0.56, 140.07 -0.04 M141.48 1.33 C141.14 13.69, 139.91 24.67, 138.57 41.43 M140.4 -0.01 C139.72 12.61, 140.85 26.2, 140.53 40.1 M139.89 41.54 C85.67 38.72, 32.55 41.81, 0.28 38.66 M139.3 40.35 C94.92 40.17, 49.32 41.24, -0.96 39.44 M1.88 38.33 C-0.44 33.22, 1.42 22.67, 0.33 0.71 M-0.24 40.59 C0.5 28.79, -0.55 16.72, 0.82 0.27" stroke="#1e1e1e" stroke-width="1" fill="none"></path></g><g transform="translate(244.1000213623047 317.5) rotate(0 15.899978637695312 12.5)"><text x="15.899978637695312" y="0" font-family="Virgil, Segoe UI Emoji" font-size="20px" fill="#1e1e1e" text-anchor="middle" style="white-space: pre;" direction="ltr" dominant-baseline="text-before-edge">ops</text></g><g stroke-linecap="round" transform="translate(210 510) rotate(0 50 20)"><path d="M1.09 0.31 C31.74 0.18, 68.47 -2.18, 100.33 -0.31 M0.02 -0.66 C35.87 0.33, 73.83 -0.02, 100.94 -0.09 M99.34 0.63 C98.3 10.2, 100.87 24.71, 98.27 39.02 M99.94 0.53 C100.29 9.71, 100.98 19.88, 100.5 39.07 M99.33 39.28 C59.35 40.88, 18.6 40.79, -0.8 41.82 M99.13 39.69 C70.44 41.19, 40.39 41.51, -0.23 39.14 M-0.69 39.4 C0.29 28.27, 1.9 17.41, -0.07 1.16 M0.14 39.36 C0.12 28.1, 0.97 14.28, 0.34 0.61" stroke="#1e1e1e" stroke-width="1" fill="none"></path></g><g transform="translate(245.30001831054688 517.5) rotate(0 14.699981689453125 12.5)"><text x="14.699981689453125" y="0" font-family="Virgil, Segoe UI Emoji" font-size="20px" fill="#1e1e1e" text-anchor="middle" style="white-space: pre;" direction="ltr" dominant-baseline="text-before-edge">init</text></g><g stroke-linecap="round"><g transform="translate(170 190) rotate(0 90.62314969114959 -0.24263636433754243)"><path d="M-0.01 -0.43 C62.08 -3.38, 121.32 -0.87, 181.26 0.55 M0.06 0.09 C70.66 1.2, 141.97 1.71, 180.25 0.97" stroke="#1e1e1e" stroke-width="1" fill="none"></path></g></g><mask></mask><g transform="translate(190 150) rotate(0 76.66999816894531 12.5)"><text x="0" y="0" font-family="Virgil, Segoe UI Emoji" font-size="20px" fill="#1e1e1e" text-anchor="start" style="white-space: pre;" direction="ltr" dominant-baseline="text-before-edge">策略层抽象数据a</text></g><g stroke-linecap="round"><g transform="translate(190 330) rotate(0 -28.736427440308034 -0.17713960976286103)"><path d="M3.35 0.6 C-22.61 -2.76, -42.33 1.75, -59.48 -1.47 M0.63 -0.41 C-16.08 1.47, -31.17 1.89, -60.83 -0.78" stroke="#1e1e1e" stroke-width="1" fill="none"></path></g></g><mask></mask><g stroke-linecap="round"><g transform="translate(130 330) rotate(0 -1.0971354009849392 49.1947228172794)"><path d="M1.26 -0.82 C-4.22 27.65, -4.55 53.36, -1.65 98.45 M-1.06 -0.39 C-3.8 35.63, -0.06 75.05, -1.74 99.21" stroke="#1e1e1e" stroke-width="1" fill="none"></path></g></g><mask></mask><g stroke-linecap="round"><g transform="translate(130 430) rotate(0 28.892184750176966 1.88355855599184)"><path d="M1.39 3.97 C22.32 6.09, 42.96 5.07, 59.63 4.66 M-1.84 -1.5 C13.04 -0.37, 28.79 3.16, 57.99 1.95" stroke="#1e1e1e" stroke-width="1" fill="none"></path></g><g transform="translate(130 430) rotate(0 28.892184750176966 1.88355855599184)"><path d="M31.62 16.02 C42.02 13.07, 51.94 7.59, 58.61 3.75 M28.39 10.55 C35.86 8.62, 44.41 9.15, 56.98 1.03" stroke="#1e1e1e" stroke-width="1" fill="none"></path></g><g transform="translate(130 430) rotate(0 28.892184750176966 1.88355855599184)"><path d="M31.62 -4.18 C41.72 -0.2, 51.63 1.26, 58.61 3.75 M28.39 -9.65 C36.2 -6.93, 44.74 -1.74, 56.98 1.03" stroke="#1e1e1e" stroke-width="1" fill="none"></path></g></g><mask></mask><g stroke-linecap="round"><g transform="translate(189.21827953867614 492.80442620712853) rotate(0 71.44156825821847 -1.199056500618866)"><path d="M0.78 -1.57 C36.89 -2.29, 74.11 -3.29, 142.1 -2.54 M0.82 -0.64 C45.39 0.25, 90.76 1.3, 141.25 -0.91" stroke="#1e1e1e" stroke-width="1" fill="none"></path></g></g><mask></mask><g transform="translate(203.44000244140625 430) rotate(0 56.55999755859375 25)"><text x="56.55999755859375" y="0" font-family="Virgil, Segoe UI Emoji" font-size="20px" fill="#1e1e1e" text-anchor="middle" style="white-space: pre;" direction="ltr" dominant-baseline="text-before-edge">子驱动程序A</text><text x="56.55999755859375" y="25" font-family="Virgil, Segoe UI Emoji" font-size="20px" fill="#1e1e1e" text-anchor="middle" style="white-space: pre;" direction="ltr" dominant-baseline="text-before-edge">操作集</text></g><g stroke-linecap="round"><g transform="translate(311.58061069622636 531.9333209170471) rotate(0 39.589810129255056 -0.41245241642343444)"><path d="M-1.58 -1.66 C19.91 -0.1, 34.11 0.35, 80.76 1.11 M1.44 -1.86 C24.88 -2.42, 48.72 0.33, 78.62 0.17" stroke="#1e1e1e" stroke-width="1" fill="none"></path></g></g><mask></mask><g stroke-linecap="round"><g transform="translate(390 530) rotate(0 0.05569571752977254 -119.73331050858309)"><path d="M2.4 -3.1 C2.27 -77.21, 0.82 -146.74, -2.29 -239.72 M-0.26 1.24 C-1.59 -67.2, 0.15 -132.11, -0.31 -240.71" stroke="#1e1e1e" stroke-width="1" fill="none"></path></g></g><mask></mask><g stroke-linecap="round"><g transform="translate(390 290) rotate(0 -30.071648658253253 -0.8902804214190496)"><path d="M0.34 -2.44 C-15.42 -0.61, -37.94 0.94, -58.65 0.11 M-1.95 0.31 C-23.43 0.65, -43.75 1.46, -60.48 -1.66" stroke="#1e1e1e" stroke-width="1" fill="none"></path></g><g transform="translate(390 290) rotate(0 -30.071648658253253 -0.8902804214190496)"><path d="M-31.44 -10.91 C-38.36 -6.64, -51.96 -3.09, -60.13 -1.55 M-33.72 -8.15 C-43.44 -5.53, -52.07 -2.1, -61.96 -3.32" stroke="#1e1e1e" stroke-width="1" fill="none"></path></g><g transform="translate(390 290) rotate(0 -30.071648658253253 -0.8902804214190496)"><path d="M-33.78 9.14 C-39.78 7.54, -52.7 5.2, -60.13 -1.55 M-36.07 11.89 C-45.1 6.75, -52.83 2.45, -61.96 -3.32" stroke="#1e1e1e" stroke-width="1" fill="none"></path></g></g><mask></mask><g stroke-linecap="round" transform="translate(210 550) rotate(0 50 20)"><path d="M-1.48 -1.66 C30.87 -0.14, 58.48 0.88, 101.31 0.27 M0.43 -0.62 C22.81 1.04, 46.34 1.61, 99.19 0.68 M98.51 1.45 C100.65 13.74, 100.03 25.04, 99.61 40.57 M100.58 0.92 C100.38 14.95, 99.6 30.25, 99.15 39.17 M99.37 40.08 C75.17 41.93, 52.37 39.12, -1.17 38.72 M99.92 39.66 C70.18 38.87, 39.32 39.07, -0.45 40.21 M0.81 39.27 C1.36 26.88, -1.52 12.1, -0.99 1.45 M-0.16 39.44 C0.68 24.7, -0.93 9.12, -0.97 0.16" stroke="#1e1e1e" stroke-width="1" fill="none"></path></g><g transform="translate(246.82001495361328 557.5) rotate(0 13.179985046386719 12.5)"><text x="13.179985046386719" y="0" font-family="Virgil, Segoe UI Emoji" font-size="20px" fill="#1e1e1e" text-anchor="middle" style="white-space: pre;" direction="ltr" dominant-baseline="text-before-edge">op1</text></g><g stroke-linecap="round" transform="translate(210 590) rotate(0 50 20)"><path d="M-0.18 -1.88 C37.49 -1.02, 77.26 -0.69, 100.91 -0.63 M0.57 -0.67 C29.81 -1.38, 60.78 -0.07, 99.31 -0.08 M98.47 -0.49 C99.16 11.04, 100.8 21.28, 98.95 40.81 M99.25 -0.45 C99.78 11.27, 101.15 20.96, 100.75 39.84 M98.04 40.24 C73.63 40.52, 50.11 40.37, 1.12 40.9 M99.39 39.92 C78.41 39.93, 56.26 39.89, 0.8 39.07 M-1.08 40.45 C-0.52 30.94, 1.83 23.57, 1.59 -1.54 M0.68 39.26 C0.55 31.26, -0.43 24.26, 0.57 0.03" stroke="#1e1e1e" stroke-width="1" fill="none"></path></g><g transform="translate(242.41001892089844 597.5) rotate(0 17.589981079101562 12.5)"><text x="17.589981079101562" y="0" font-family="Virgil, Segoe UI Emoji" font-size="20px" fill="#1e1e1e" text-anchor="middle" style="white-space: pre;" direction="ltr" dominant-baseline="text-before-edge">op2</text></g><g stroke-linecap="round" transform="translate(210 630) rotate(0 50 20)"><path d="M0.69 1.91 C31.56 -0.68, 64.34 1.07, 101.31 0.12 M-0.1 0.72 C27.08 -1.43, 55.34 -0.55, 99.25 0.95 M100.03 -1.81 C98.88 12.75, 100.14 22.94, 100.57 39.69 M99.57 -0.4 C99.91 8.85, 99.69 17.76, 100.87 40.06 M101.03 39.93 C71.84 40.77, 43.84 40.4, -1.05 39.5 M99.91 40.87 C67.4 39.02, 33.76 40.12, -0.99 40.39 M1.61 40.84 C1.64 26.58, -2.11 11.68, -0.52 -1.82 M0 40.25 C-0.24 24.12, 0.7 8.38, -0.38 0.53" stroke="#1e1e1e" stroke-width="1" fill="none"></path></g><g transform="translate(251.7800064086914 637.5) rotate(0 8.219993591308594 12.5)"><text x="8.219993591308594" y="0" font-family="Virgil, Segoe UI Emoji" font-size="20px" fill="#1e1e1e" text-anchor="middle" style="white-space: pre;" direction="ltr" dominant-baseline="text-before-edge">...</text></g><g stroke-linecap="round" transform="translate(210 670) rotate(0 50 20)"><path d="M-1.8 0.26 C35.09 0.63, 69.84 0.75, 100.13 -1.34 M-0.14 -0.63 C23.15 -1.13, 47.84 -0.18, 100.87 -0.84 M99.66 1.46 C99.97 14.75, 99.36 29.37, 100.28 38.89 M99.39 -0.91 C99.38 16.7, 99.75 31.59, 99.78 40.78 M99.82 38.84 C76.57 42.03, 54.37 40.51, -1.27 41.91 M100.2 39.68 C73.07 40.25, 46.81 39.8, 0.7 39.5 M-1 40.79 C-0.58 27.37, -0.36 15.96, 1.45 0.91 M0.53 39.8 C-0.01 24.28, 0.24 8.88, 0.37 -0.5" stroke="#1e1e1e" stroke-width="1" fill="none"></path></g><g transform="translate(238.2500228881836 677.5) rotate(0 21.749977111816406 12.5)"><text x="21.749977111816406" y="0" font-family="Virgil, Segoe UI Emoji" font-size="20px" fill="#1e1e1e" text-anchor="middle" style="white-space: pre;" direction="ltr" dominant-baseline="text-before-edge">term</text></g><g stroke-linecap="round" transform="translate(430.0569279966876 410) rotate(0 70 160)"><path d="M32 0 M32 0 C52.47 -0.72, 71.09 0.19, 108 0 M32 0 C51.41 -0.59, 71.04 0.16, 108 0 M108 0 C128.33 0.79, 139.11 9.79, 140 32 M108 0 C128.56 -0.61, 141.67 11.72, 140 32 M140 32 C139.27 128.07, 137.91 223.72, 140 288 M140 32 C137.54 107.91, 138.62 182.51, 140 288 M140 288 C139.86 310.4, 127.39 320.52, 108 320 M140 288 C138.46 309.64, 128.15 319.17, 108 320 M108 320 C91.07 320.52, 75.81 319.88, 32 320 M108 320 C92.58 319.38, 75.52 320.71, 32 320 M32 320 C8.82 319.1, 1.21 310.95, 0 288 M32 320 C11.13 322.03, -1.05 310.3, 0 288 M0 288 C0.71 208.16, -1.63 125.38, 0 32 M0 288 C1.72 221.63, 2.64 154.53, 0 32 M0 32 C-0.64 8.92, 9.28 -0.59, 32 0 M0 32 C1.53 9.94, 12.41 -2.04, 32 0" stroke="#1e1e1e" stroke-width="1" fill="none"></path></g><g stroke-linecap="round" transform="translate(450.0569279966876 510) rotate(0 50 20)"><path d="M-1.05 0.27 C30.36 -0.31, 63.65 -0.68, 99.88 -1.57 M-0.45 -0.44 C36.54 -0.66, 74.48 0.06, 100.77 -0.76 M99.36 -1.33 C100.09 11.96, 100.95 26.91, 101.75 41.69 M99.03 0.26 C99.3 12.61, 99.46 24.6, 99.13 39.9 M100.17 40.34 C74.18 39.11, 51.9 41.36, -1.15 38.45 M100.6 40.81 C62.67 40.43, 24.49 39.97, 0.15 40.37 M-1.07 38.39 C-1.12 22.62, -2.09 8.48, 1.8 1.84 M-0.69 39.7 C0.8 24.14, 0.89 8.03, 0.25 -0.03" stroke="#1e1e1e" stroke-width="1" fill="none"></path></g><g transform="translate(485.35694630723447 517.5) rotate(0 14.699981689453125 12.5)"><text x="14.699981689453125" y="0" font-family="Virgil, Segoe UI Emoji" font-size="20px" fill="#1e1e1e" text-anchor="middle" style="white-space: pre;" direction="ltr" dominant-baseline="text-before-edge">init</text></g><g stroke-linecap="round"><g transform="translate(429.27520753536373 492.8044262071285) rotate(0 71.14586388459429 -1.0002175721909623)"><path d="M1.4 -1 C44.03 -1.62, 89.67 -1.55, 141.57 -2.46 M0.72 0.46 C36.83 -0.79, 72.62 0.1, 140.58 -1.88" stroke="#1e1e1e" stroke-width="1" fill="none"></path></g></g><mask></mask><g transform="translate(437.7300033569336 430) rotate(0 62.269996643066406 25)"><text x="62.269996643066406" y="0" font-family="Virgil, Segoe UI Emoji" font-size="20px" fill="#1e1e1e" text-anchor="middle" style="white-space: pre;" direction="ltr" dominant-baseline="text-before-edge">子驱动程序 B</text><text x="62.269996643066406" y="25" font-family="Virgil, Segoe UI Emoji" font-size="20px" fill="#1e1e1e" text-anchor="middle" style="white-space: pre;" direction="ltr" dominant-baseline="text-before-edge">操作集</text></g><g stroke-linecap="round" transform="translate(450.0569279966876 550) rotate(0 50 20)"><path d="M1.38 -1 C25.77 -0.11, 49.09 0.11, 99.47 1.45 M0.49 0.53 C34.37 0.44, 68.48 0.7, 99 0.37 M100.24 -0.14 C101.42 8.04, 100.87 18.64, 100.27 38.97 M99.4 -0.38 C100.14 10.65, 99.82 20.21, 99.31 39.94 M101.51 38.15 C64.74 40.44, 32.91 39.63, 1.77 39.09 M100.89 40.91 C66.28 39.83, 30.75 39.99, -0.92 39.14 M1.77 39.36 C-2.11 27.49, -0.96 19.09, -0.63 1.52 M0.02 40.15 C0.57 31.96, -1.02 23.46, -0.09 -0.57" stroke="#1e1e1e" stroke-width="1" fill="none"></path></g><g transform="translate(486.8769429503009 557.5) rotate(0 13.179985046386719 12.5)"><text x="13.179985046386719" y="0" font-family="Virgil, Segoe UI Emoji" font-size="20px" fill="#1e1e1e" text-anchor="middle" style="white-space: pre;" direction="ltr" dominant-baseline="text-before-edge">op1</text></g><g stroke-linecap="round" transform="translate(450.0569279966876 590) rotate(0 50 20)"><path d="M-0.88 -0.67 C24.45 1.9, 50.87 1.98, 98.47 0.98 M-0.66 -0.06 C34.27 0.69, 70.03 1.19, 100.84 0.12 M100.52 -1.34 C100.48 10.69, 99.49 21.7, 99.8 38.8 M100.17 -0.91 C99.51 10.43, 100.63 20.41, 99.23 40.75 M101.62 40.4 C81 39.7, 59.32 40.91, 0.74 41.77 M99.2 39.62 C59.95 38.6, 21.53 40.37, 0.92 40.88 M-0.59 41.33 C-0.28 30.8, -1.43 19.06, -0.06 0.04 M-0.92 40.36 C-0.36 26.84, -0.11 15.63, 0.67 0.49" stroke="#1e1e1e" stroke-width="1" fill="none"></path></g><g transform="translate(482.46694691758603 597.5) rotate(0 17.589981079101562 12.5)"><text x="17.589981079101562" y="0" font-family="Virgil, Segoe UI Emoji" font-size="20px" fill="#1e1e1e" text-anchor="middle" style="white-space: pre;" direction="ltr" dominant-baseline="text-before-edge">op2</text></g><g stroke-linecap="round" transform="translate(450.0569279966876 630) rotate(0 50 20)"><path d="M0.91 1.53 C25.12 0.25, 54.34 -1.12, 99.36 -1.33 M-0.5 0.87 C30.22 -0.25, 58.68 0.16, 99.03 0.26 M99.28 -1.74 C99.85 8.12, 99.3 19.62, 100.17 40.34 M100.44 -0.58 C98.95 9.1, 98.8 16.24, 100.6 40.81 M100.84 40.3 C68.74 41.32, 37.83 40.56, -1.07 38.39 M99.78 40.9 C74.71 40.02, 47.26 38.27, -0.69 39.7 M-1.78 40.5 C0.07 25.37, 0.42 12.01, 0.82 -1.84 M0.16 40.82 C0.71 27.03, 0.74 12.2, -0.59 -0.96" stroke="#1e1e1e" stroke-width="1" fill="none"></path></g><g transform="translate(491.836934405379 637.5) rotate(0 8.219993591308594 12.5)"><text x="8.219993591308594" y="0" font-family="Virgil, Segoe UI Emoji" font-size="20px" fill="#1e1e1e" text-anchor="middle" style="white-space: pre;" direction="ltr" dominant-baseline="text-before-edge">...</text></g><g stroke-linecap="round" transform="translate(450.0569279966876 670) rotate(0 50 20)"><path d="M1.05 -0.4 C37.02 -1.81, 75.18 -2.48, 100.74 -1.01 M-0.07 0.53 C37.77 0.14, 76.81 0.01, 99.49 -0.36 M99.25 0.98 C100.13 8.85, 98.13 15.65, 99.88 40.87 M99.08 -0.45 C100.3 10.51, 99.89 20.28, 99.55 40.42 M101.83 41.01 C67.42 39.28, 36.23 39.05, -1.72 39.56 M99.68 39.13 C60.29 40.59, 22.62 40.57, 0.76 39.11 M0.3 41.34 C0.83 25.16, 0.74 13.81, -1.14 0.31 M0.7 39.1 C-0.86 23.75, 0.14 9.74, -0.7 -0.43" stroke="#1e1e1e" stroke-width="1" fill="none"></path></g><g transform="translate(478.3069508848712 677.5) rotate(0 21.749977111816406 12.5)"><text x="21.749977111816406" y="0" font-family="Virgil, Segoe UI Emoji" font-size="20px" fill="#1e1e1e" text-anchor="middle" style="white-space: pre;" direction="ltr" dominant-baseline="text-before-edge">term</text></g><g stroke-linecap="round" transform="translate(631.6877278564498 410) rotate(0 70 160)"><path d="M32 0 M32 0 C57.65 -1.33, 79.42 2.15, 108 0 M32 0 C55.44 0.1, 78.73 -0.32, 108 0 M108 0 C129.45 1.41, 138.71 12.41, 140 32 M108 0 C129.77 -1.18, 137.92 10.94, 140 32 M140 32 C140.33 86.95, 139.64 141.04, 140 288 M140 32 C138.47 102.38, 139.42 172.68, 140 288 M140 288 C141.42 310.53, 128.8 318.35, 108 320 M140 288 C139.69 311.19, 129.02 320.09, 108 320 M108 320 C84.27 320.12, 63.14 319.76, 32 320 M108 320 C88.5 320.68, 69.38 321.04, 32 320 M32 320 C11.06 321.21, -0.46 310.2, 0 288 M32 320 C10.42 319.52, -0.41 310.31, 0 288 M0 288 C0.09 209.32, 2.59 131.68, 0 32 M0 288 C-1.55 232.41, -2.72 176.66, 0 32 M0 32 C1.25 12.32, 11.8 0.66, 32 0 M0 32 C1.04 8.63, 9.14 -1.52, 32 0" stroke="#1e1e1e" stroke-width="1" fill="none"></path></g><g stroke-linecap="round" transform="translate(651.6877278564498 510) rotate(0 50 20)"><path d="M-0.15 1.69 C23.99 -1.02, 47.4 1.82, 99.83 1.54 M-0.64 0.87 C25.19 -1.21, 49.1 -0.59, 99.15 -0.61 M101.11 -1.23 C99.88 12.81, 98.64 27.53, 100.36 41.78 M99.73 -0.82 C100.15 13.89, 100.15 26.2, 99.88 39.14 M98.91 39.02 C59.23 38.61, 20.6 38.92, 1.21 39.22 M99.77 40.43 C60.28 40.39, 20.6 41.03, 0.06 39.46 M1.83 40.53 C-1.38 26.46, 1.22 10.18, 0.7 -1.75 M0.56 40.33 C0.2 25.1, -0.91 11.31, 0.34 -0.8" stroke="#1e1e1e" stroke-width="1" fill="none"></path></g><g transform="translate(686.9877461669967 517.5) rotate(0 14.699981689453125 12.5)"><text x="14.699981689453125" y="0" font-family="Virgil, Segoe UI Emoji" font-size="20px" fill="#1e1e1e" text-anchor="middle" style="white-space: pre;" direction="ltr" dominant-baseline="text-before-edge">init</text></g><g stroke-linecap="round"><g transform="translate(630.9060073951259 492.8044262071285) rotate(0 70.640832582023 -0.7459716766472582)"><path d="M-0.48 0.92 C53.99 2.29, 107.32 0.26, 142.19 -2.85 M-0.91 0.12 C53.68 -0.49, 109.58 0.49, 140.74 -1.01" stroke="#1e1e1e" stroke-width="1" fill="none"></path></g></g><mask></mask><g transform="translate(638.5600051879883 430) rotate(0 61.43999481201172 25)"><text x="61.43999481201172" y="0" font-family="Virgil, Segoe UI Emoji" font-size="20px" fill="#1e1e1e" text-anchor="middle" style="white-space: pre;" direction="ltr" dominant-baseline="text-before-edge">子驱动程序 C</text><text x="61.43999481201172" y="25" font-family="Virgil, Segoe UI Emoji" font-size="20px" fill="#1e1e1e" text-anchor="middle" style="white-space: pre;" direction="ltr" dominant-baseline="text-before-edge">操作集</text></g><g stroke-linecap="round" transform="translate(651.6877278564498 550) rotate(0 50 20)"><path d="M-1 0.12 C36.02 -2.06, 70.98 -0.39, 98.98 -1.81 M0.51 0.98 C31.13 1.16, 61.73 0.35, 99.37 -0.88 M100.54 1.42 C101.27 10.28, 98.42 21.37, 101.61 39.73 M100.98 -0.92 C99.64 11.61, 99.46 23.83, 99.46 40.1 M101.92 40.4 C75.05 39.15, 48.56 39.39, -0.42 39.64 M100.87 39.36 C65.57 40.37, 31.79 38.64, 0.97 40.48 M1.01 41.25 C1.52 26.82, 0.52 12.29, -1.77 -1.33 M0.21 39.91 C-0.33 30.27, -0.44 21.74, 0.61 0.4" stroke="#1e1e1e" stroke-width="1" fill="none"></path></g><g transform="translate(688.5077428100631 557.5) rotate(0 13.179985046386719 12.5)"><text x="13.179985046386719" y="0" font-family="Virgil, Segoe UI Emoji" font-size="20px" fill="#1e1e1e" text-anchor="middle" style="white-space: pre;" direction="ltr" dominant-baseline="text-before-edge">op1</text></g><g stroke-linecap="round" transform="translate(651.6877278564498 590) rotate(0 50 20)"><path d="M1.75 0.38 C29.55 -1.17, 61.39 -1.06, 98.79 1.03 M-0.62 -0.26 C39.21 -1.43, 79.38 -0.37, 100.89 0.27 M98.35 -0.27 C101.85 14.56, 100.32 29.43, 98.29 41.96 M99.51 -0.48 C99.34 8.4, 99.49 17.21, 99.61 40.96 M100.87 39.78 C67.6 39.42, 36.88 39.89, -1.08 41.74 M100.26 39.18 C77.37 41.4, 53.38 41.26, -0.88 40.5 M0.66 40.9 C-2.11 24.17, -1.65 11.69, -1.59 0.42 M-0.31 40.45 C0.68 28.76, -0.89 17.09, -0.28 0.09" stroke="#1e1e1e" stroke-width="1" fill="none"></path></g><g transform="translate(684.0977467773482 597.5) rotate(0 17.589981079101562 12.5)"><text x="17.589981079101562" y="0" font-family="Virgil, Segoe UI Emoji" font-size="20px" fill="#1e1e1e" text-anchor="middle" style="white-space: pre;" direction="ltr" dominant-baseline="text-before-edge">op2</text></g><g stroke-linecap="round" transform="translate(651.6877278564498 630) rotate(0 50 20)"><path d="M0.23 -1.7 C30.69 1.94, 65.78 0.82, 101.11 -1.23 M-0.3 0.18 C28.32 1.15, 55.58 1.47, 99.73 -0.82 M100.08 -0.24 C98.61 13.42, 98.47 22.3, 98.91 39.02 M99.62 0.6 C99.4 11.02, 99.98 20.73, 99.77 40.43 M100.85 40.12 C70 41.57, 40.89 39.44, 1.83 40.53 M100.58 40.35 C77.3 40.99, 56.97 41.31, 0.56 40.33 M-1.32 40.68 C-1.24 26.61, 0.17 12.01, -0.76 -0.61 M-0.97 40.37 C-0.53 26.3, -1.04 11.53, 0.36 0.76" stroke="#1e1e1e" stroke-width="1" fill="none"></path></g><g transform="translate(693.4677342651412 637.5) rotate(0 8.219993591308594 12.5)"><text x="8.219993591308594" y="0" font-family="Virgil, Segoe UI Emoji" font-size="20px" fill="#1e1e1e" text-anchor="middle" style="white-space: pre;" direction="ltr" dominant-baseline="text-before-edge">...</text></g><g stroke-linecap="round" transform="translate(651.6877278564498 670) rotate(0 50 20)"><path d="M1.97 -0.08 C22.6 -1.75, 42.47 -1.77, 98.25 -0.59 M0.71 0.6 C31.54 -1.09, 63.48 0.54, 99.86 0.04 M98.15 -0.62 C98.56 10.53, 98.69 21.96, 100.2 39.23 M100.2 0.6 C99.62 14.85, 99.74 28.62, 99.82 40.42 M98.72 39.62 C71.21 41.4, 37.13 42.82, 0.96 41.15 M100.62 40.83 C67.09 40.83, 33.49 39.62, -0.67 39.34 M-0.18 39.62 C-0.44 26.02, 1.22 14.48, 0.8 -1.93 M-0.8 39.11 C0.47 27.28, 0.03 12.15, 0.99 0.99" stroke="#1e1e1e" stroke-width="1" fill="none"></path></g><g transform="translate(679.9377507446334 677.5) rotate(0 21.749977111816406 12.5)"><text x="21.749977111816406" y="0" font-family="Virgil, Segoe UI Emoji" font-size="20px" fill="#1e1e1e" text-anchor="middle" style="white-space: pre;" direction="ltr" dominant-baseline="text-before-edge">term</text></g><g stroke-linecap="round"><g transform="translate(50 390) rotate(0 398.9573586717249 0.3794180209953595)"><path d="M-0.84 -0.56 C296.55 1.95, 592.18 1.3, 798.75 1.09" stroke="#1e1e1e" stroke-width="1.5" fill="none" stroke-dasharray="8 9"></path></g></g><mask></mask><g transform="translate(50 350) rotate(0 30 12.5)"><text x="0" y="0" font-family="Virgil, Segoe UI Emoji" font-size="20px" fill="#1e1e1e" text-anchor="start" style="white-space: pre;" direction="ltr" dominant-baseline="text-before-edge">策略层</text></g><g transform="translate(50 410) rotate(0 30 12.5)"><text x="0" y="0" font-family="Virgil, Segoe UI Emoji" font-size="20px" fill="#1e1e1e" text-anchor="start" style="white-space: pre;" direction="ltr" dominant-baseline="text-before-edge">机制层</text></g><g stroke-linecap="round"><g transform="translate(149.9390204434958 110.44294436252486) rotate(0 330.3546552908735 0.8732950438282288)"><path d="M0.06 0.03 C224.67 2.67, 451.73 4.6, 660.65 -0.89" stroke="#1e1e1e" stroke-width="1.5" fill="none" stroke-dasharray="8 9"></path></g></g><mask></mask><g transform="translate(10 90) rotate(0 64 20)"><text x="0" y="0" font-family="Virgil, Segoe UI Emoji" font-size="32px" fill="#1e1e1e" text-anchor="start" style="white-space: pre;" direction="ltr" dominant-baseline="text-before-edge">聚类接口</text></g><g transform="translate(350 10) rotate(0 116.64997100830078 29.166666666666657)"><text x="0" y="0" font-family="Virgil, Segoe UI Emoji" font-size="46.66666666666666px" fill="#1e1e1e" text-anchor="start" style="white-space: pre;" direction="ltr" dominant-baseline="text-before-edge">上层调用者</text></g><g stroke-linecap="round" transform="translate(611.7471396885812 130) rotate(0 90 120)"><path d="M32 0 M32 0 C73.76 -0.86, 114.04 -1.58, 148 0 M32 0 C75.98 1.3, 120.71 -0.63, 148 0 M148 0 C170.88 1.24, 181.07 9.79, 180 32 M148 0 C169.23 2.12, 179.7 10.34, 180 32 M180 32 C180.47 87.66, 179.36 141.65, 180 208 M180 32 C180.58 72.41, 181.45 113.63, 180 208 M180 208 C178.49 230.47, 169.01 238.73, 148 240 M180 208 C179.36 230.31, 169.58 240.55, 148 240 M148 240 C125.52 239.07, 100.15 238.41, 32 240 M148 240 C109.51 241.17, 71.89 240.99, 32 240 M32 240 C10 238.86, 0.28 230.26, 0 208 M32 240 C10.95 240.59, 1.11 228.96, 0 208 M0 208 C-2.17 159.31, -0.1 109.26, 0 32 M0 208 C-0.11 151.39, 1.32 96.12, 0 32 M0 32 C-1.66 11.06, 11.63 -1.95, 32 0 M0 32 C-1.86 11.03, 10.94 -1.38, 32 0" stroke="#1e1e1e" stroke-width="1" fill="none"></path></g><g stroke-linecap="round" transform="translate(631.7471396885812 270) rotate(0 70 20)"><path d="M0 -1.17 C48.52 0.66, 93.27 -0.13, 141.98 0.64 M0.53 -0.44 C28.75 0.05, 57.46 -1.01, 140.13 -0.37 M140.01 -0.4 C138.84 10.06, 139.84 15.31, 139.51 40.11 M139.84 -0.63 C139.42 13.74, 139.81 26.86, 139.07 39.03 M140.21 38.33 C97.64 39.11, 54.72 39.41, 1.5 41.99 M140.14 40.46 C90.23 39.46, 40.7 39.04, -0.2 40.64 M1.03 39.92 C0.62 27.47, -1.17 14.95, -0.34 0.92 M0.48 39.02 C-0.48 24.2, 0.45 7.48, -0.37 0.59" stroke="#1e1e1e" stroke-width="1" fill="none"></path></g><g transform="translate(679.8071601353586 277.5) rotate(0 21.939979553222656 12.5)"><text x="21.939979553222656" y="0" font-family="Virgil, Segoe UI Emoji" font-size="20px" fill="#1e1e1e" text-anchor="middle" style="white-space: pre;" direction="ltr" dominant-baseline="text-before-edge">ctxt</text></g><g stroke-linecap="round" transform="translate(631.7471396885812 310) rotate(0 70 20)"><path d="M-0.53 -0.44 C35.79 0.4, 65.73 1.3, 141.24 1.07 M-0.13 -0.14 C36.01 -1.66, 70.89 -0.73, 140.32 0 M139.61 -1.64 C139.24 11.32, 140.38 20.91, 141.13 39.67 M140.11 0.24 C138.96 8.5, 139.96 19.7, 139.49 40.1 M140.73 40.12 C111.18 41.87, 80.49 39.21, -1.14 40.28 M140.48 39.84 C91.32 41, 42.93 39.84, 0.32 40.51 M-1.38 38.06 C-0.42 29.09, 1.9 14.67, 0.39 0.96 M0.12 39.4 C-0.05 32.5, 0.48 23.44, -0.25 -0.63" stroke="#1e1e1e" stroke-width="1" fill="none"></path></g><g transform="translate(685.8471610508859 317.5) rotate(0 15.899978637695312 12.5)"><text x="15.899978637695312" y="0" font-family="Virgil, Segoe UI Emoji" font-size="20px" fill="#1e1e1e" text-anchor="middle" style="white-space: pre;" direction="ltr" dominant-baseline="text-before-edge">ops</text></g><g stroke-linecap="round"><g transform="translate(631.7471396885812 330) rotate(0 -30.088326992467046 1.048580885071459)"><path d="M-3.77 3.09 C-14.19 2.52, -35.1 0.2, -56.32 -0.52 M-1.76 1.12 C-16.51 -0.44, -34.69 -1.82, -58.41 -0.39" stroke="#1e1e1e" stroke-width="1" fill="none"></path></g></g><mask></mask><g stroke-linecap="round"><g transform="translate(571.7471396885812 330) rotate(0 0.4215123513713479 50.25541347172111)"><path d="M2.48 2.13 C-3.63 33.02, 1.8 65.87, -0.57 100.51 M0.63 0.01 C-2.16 24.93, -0.18 52.23, -1.64 99.51" stroke="#1e1e1e" stroke-width="1" fill="none"></path></g></g><mask></mask><g stroke-linecap="round"><g transform="translate(571.7471396885812 430) rotate(0 28.6814596215263 1.0691716304790475)"><path d="M-1.75 -0.18 C25.97 -0.07, 43.97 2.04, 57.52 -0.66 M-0.4 -1.38 C22.62 0.63, 40.4 1.55, 59.11 3.52" stroke="#1e1e1e" stroke-width="1" fill="none"></path></g><g transform="translate(571.7471396885812 430) rotate(0 28.6814596215263 1.0691716304790475)"><path d="M28.8 10.85 C44.91 7.37, 51.43 5.56, 57.63 -0.01 M30.15 9.65 C42.26 7.96, 49.2 5.19, 59.22 4.17" stroke="#1e1e1e" stroke-width="1" fill="none"></path></g><g transform="translate(571.7471396885812 430) rotate(0 28.6814596215263 1.0691716304790475)"><path d="M30.66 -9.27 C46.32 -5.14, 52.14 0.64, 57.63 -0.01 M32.01 -10.47 C43.58 -4.99, 49.86 -0.6, 59.22 4.17" stroke="#1e1e1e" stroke-width="1" fill="none"></path></g></g><mask></mask><g stroke-linecap="round"><g transform="translate(831.7471396885812 530) rotate(0 0.9052076691651791 -119.68866160298575)"><path d="M3.07 -0.43 C1.27 -84.38, 0.52 -172.54, 1.87 -238.94 M1.32 -0.32 C-0.58 -72.47, 0.88 -143.58, -1.26 -239.06" stroke="#1e1e1e" stroke-width="1" fill="none"></path></g></g><mask></mask><g stroke-linecap="round"><g transform="translate(831.7471396885812 290) rotate(0 -29.947522982023656 -0.38186526391655207)"><path d="M-0.57 0.51 C-18.91 -3.68, -32.62 1.12, -58.99 -0.79 M-1.64 -0.49 C-13.52 0.43, -28.77 0.91, -59.33 -1.27" stroke="#1e1e1e" stroke-width="1" fill="none"></path></g><g transform="translate(831.7471396885812 290) rotate(0 -29.947522982023656 -0.38186526391655207)"><path d="M-31.66 -9.32 C-40.76 -10.9, -45.38 -3.57, -59.32 -2.06 M-32.73 -10.31 C-37.37 -7.3, -45.51 -4.85, -59.65 -2.54" stroke="#1e1e1e" stroke-width="1" fill="none"></path></g><g transform="translate(831.7471396885812 290) rotate(0 -29.947522982023656 -0.38186526391655207)"><path d="M-32.77 10.83 C-41.91 3.3, -46.2 4.67, -59.32 -2.06 M-33.84 9.84 C-38.54 8.2, -46.43 6, -59.65 -2.54" stroke="#1e1e1e" stroke-width="1" fill="none"></path></g></g><mask></mask><g stroke-linecap="round"><g transform="translate(753.4987543262541 531.2202771622688) rotate(0 38.25775849446654 0.12213895567890631)"><path d="M-3.5 -0.37 C25.98 4.32, 49.63 -1.8, 80.01 0.89 M-1.93 0.44 C23.84 1.32, 49.58 -0.95, 78.67 -1.22" stroke="#1e1e1e" stroke-width="1" fill="none"></path></g></g><mask></mask><g stroke-linecap="round"><g transform="translate(611.7326502185315 190) rotate(0 88.89422080107033 -0.21408605622127652)"><path d="M-1.73 -0.76 C47.75 -1.66, 94.16 0.02, 179.52 -1.38 M0.64 0.95 C54.82 -0.22, 110.67 -0.44, 179.46 -0.63" stroke="#1e1e1e" stroke-width="1" fill="none"></path></g></g><mask></mask><g transform="translate(631.7326502185315 150) rotate(0 75.07999420166016 12.5)"><text x="0" y="0" font-family="Virgil, Segoe UI Emoji" font-size="20px" fill="#1e1e1e" text-anchor="start" style="white-space: pre;" direction="ltr" dominant-baseline="text-before-edge">策略层抽象数据b</text></g><g stroke-linecap="round" transform="translate(190 230) rotate(0 70 20)"><path d="M-1.04 -1.66 C39.82 -2.27, 76.92 0.46, 138.44 0.24 M-0.98 -0.35 C36.1 -1.73, 74.11 -1.66, 139.85 0.67 M141.09 -1.28 C142.06 11.68, 141.6 22.87, 138.99 38.54 M140.11 0.14 C140.12 8.85, 139.59 18.23, 140.35 40.74 M140.45 39.57 C108.69 41.1, 79.31 42.37, 1.21 38.91 M140.11 40.18 C85.83 38.96, 33.43 39.92, 0.17 40.47 M-0.4 40.47 C-2.12 27.88, -1.47 12.32, 1.08 -1.46 M-0.07 39.13 C0.46 31.18, -0.63 22.99, 0.43 0.26" stroke="#1e1e1e" stroke-width="1" fill="none"></path></g><g transform="translate(251.7800064086914 237.5) rotate(0 8.219993591308594 12.5)"><text x="8.219993591308594" y="0" font-family="Virgil, Segoe UI Emoji" font-size="20px" fill="#1e1e1e" text-anchor="middle" style="white-space: pre;" direction="ltr" dominant-baseline="text-before-edge">...</text></g><g stroke-linecap="round" transform="translate(630 230) rotate(0 70 20)"><path d="M-1.61 0.7 C44.59 -1.04, 86.71 2.64, 140.45 -0.43 M0.48 0.61 C33.95 0.99, 68.53 0.05, 140.11 0.18 M140.13 0.33 C140.58 10.84, 140.92 19.15, 139.6 40.47 M139.65 0.54 C139.54 7.33, 140.84 15.8, 139.93 39.13 M138.92 40.87 C88.97 40.35, 37.7 39.41, -1.91 41.81 M140.59 40.19 C99.86 39.48, 59.5 39.34, 0.07 40.66 M1.86 41.9 C-1.45 26.13, 1.32 12.25, 0.73 1.47 M-0.85 40.48 C0.25 27.97, -0.62 15.47, -0.08 0.87" stroke="#1e1e1e" stroke-width="1" fill="none"></path></g><g transform="translate(691.7800064086914 237.5) rotate(0 8.219993591308594 12.5)"><text x="8.219993591308594" y="0" font-family="Virgil, Segoe UI Emoji" font-size="20px" fill="#1e1e1e" text-anchor="middle" style="white-space: pre;" direction="ltr" dominant-baseline="text-before-edge">...</text></g></svg>