<svg version="1.1" xmlns="http://www.w3.org/2000/svg" viewBox="0 0 740 240" width="1480" height="480">
  <!-- svg-source:excalidraw -->
  
  <defs>
    <style class="style-fonts">
      @font-face {
        font-family: "Virgil";
        src: url("https://excalidraw.com/Virgil.woff2");
      }
      @font-face {
        font-family: "Cascadia";
        src: url("https://excalidraw.com/Cascadia.woff2");
      }
    </style>
    
  </defs>
  <rect x="0" y="0" width="740" height="240" fill="#ffffff"></rect><g stroke-linecap="round" transform="translate(170 10) rotate(0 90 90)"><path d="M180 90 C180 92.94, 179.85 95.9, 179.57 98.82 C179.28 101.75, 178.84 104.67, 178.27 107.56 C177.7 110.44, 176.98 113.31, 176.12 116.13 C175.27 118.94, 174.27 121.72, 173.15 124.44 C172.02 127.16, 170.76 129.83, 169.37 132.43 C167.99 135.02, 166.47 137.56, 164.83 140 C163.2 142.45, 161.44 144.82, 159.57 147.1 C157.71 149.37, 155.72 151.56, 153.64 153.64 C151.56 155.72, 149.37 157.71, 147.1 159.57 C144.82 161.44, 142.45 163.2, 140 164.83 C137.56 166.47, 135.02 167.99, 132.43 169.37 C129.83 170.76, 127.16 172.02, 124.44 173.15 C121.72 174.27, 118.94 175.27, 116.13 176.12 C113.31 176.98, 110.44 177.7, 107.56 178.27 C104.67 178.84, 101.75 179.28, 98.82 179.57 C95.9 179.85, 92.94 180, 90 180 C87.06 180, 84.1 179.85, 81.18 179.57 C78.25 179.28, 75.33 178.84, 72.44 178.27 C69.56 177.7, 66.69 176.98, 63.87 176.12 C61.06 175.27, 58.28 174.27, 55.56 173.15 C52.84 172.02, 50.17 170.76, 47.57 169.37 C44.98 167.99, 42.44 166.47, 40 164.83 C37.55 163.2, 35.18 161.44, 32.9 159.57 C30.63 157.71, 28.44 155.72, 26.36 153.64 C24.28 151.56, 22.29 149.37, 20.43 147.1 C18.56 144.82, 16.8 142.45, 15.17 140 C13.53 137.56, 12.01 135.02, 10.63 132.43 C9.24 129.83, 7.98 127.16, 6.85 124.44 C5.73 121.72, 4.73 118.94, 3.88 116.13 C3.02 113.31, 2.3 110.44, 1.73 107.56 C1.16 104.67, 0.72 101.75, 0.43 98.82 C0.15 95.9, 0 92.94, 0 90 C0 87.06, 0.15 84.1, 0.43 81.18 C0.72 78.25, 1.16 75.33, 1.73 72.44 C2.3 69.56, 3.02 66.69, 3.88 63.87 C4.73 61.06, 5.73 58.28, 6.85 55.56 C7.98 52.84, 9.24 50.17, 10.63 47.57 C12.01 44.98, 13.53 42.44, 15.17 40 C16.8 37.55, 18.56 35.18, 20.43 32.9 C22.29 30.63, 24.28 28.44, 26.36 26.36 C28.44 24.28, 30.63 22.29, 32.9 20.43 C35.18 18.56, 37.55 16.8, 40 15.17 C42.44 13.53, 44.98 12.01, 47.57 10.63 C50.17 9.24, 52.84 7.98, 55.56 6.85 C58.28 5.73, 61.06 4.73, 63.87 3.88 C66.69 3.02, 69.56 2.3, 72.44 1.73 C75.33 1.16, 78.25 0.72, 81.18 0.43 C84.1 0.15, 87.06 0, 90 0 C92.94 0, 95.9 0.15, 98.82 0.43 C101.75 0.72, 104.67 1.16, 107.56 1.73 C110.44 2.3, 113.31 3.02, 116.13 3.88 C118.94 4.73, 121.72 5.73, 124.44 6.85 C127.16 7.98, 129.83 9.24, 132.43 10.63 C135.02 12.01, 137.56 13.53, 140 15.17 C142.45 16.8, 144.82 18.56, 147.1 20.43 C149.37 22.29, 151.56 24.28, 153.64 26.36 C155.72 28.44, 157.71 30.63, 159.57 32.9 C161.44 35.18, 163.2 37.55, 164.83 40 C166.47 42.44, 167.99 44.98, 169.37 47.57 C170.76 50.17, 172.02 52.84, 173.15 55.56 C174.27 58.28, 175.27 61.06, 176.12 63.87 C176.98 66.69, 177.7 69.56, 178.27 72.44 C178.84 75.33, 179.28 78.25, 179.57 81.18 C179.85 84.1, 179.93 88.53, 180 90 C180.07 91.47, 180.07 88.53, 180 90" stroke="#1e1e1e" stroke-width="4" fill="none"></path></g><g transform="translate(217.86038969321066 82.36038969321072) rotate(0 42 17.5)"><text x="42" y="0" font-family="Virgil, Segoe UI Emoji" font-size="28px" fill="#1e1e1e" text-anchor="middle" style="white-space: pre;" direction="ltr" dominant-baseline="text-before-edge">状态机</text></g><g stroke-linecap="round"><g transform="translate(66 110) rotate(0 51.8666029419735 0.7642406267027297)"><path d="M0 0 C17.29 0.25, 86.44 1.27, 103.73 1.53 M0 0 C17.29 0.25, 86.44 1.27, 103.73 1.53" stroke="#1e1e1e" stroke-width="4" fill="none"></path></g><g transform="translate(66 110) rotate(0 51.8666029419735 0.7642406267027297)"><path d="M75.39 11.37 C83.59 8.52, 91.79 5.68, 103.73 1.53 M75.39 11.37 C86.25 7.6, 97.11 3.83, 103.73 1.53" stroke="#1e1e1e" stroke-width="4" fill="none"></path></g><g transform="translate(66 110) rotate(0 51.8666029419735 0.7642406267027297)"><path d="M75.7 -9.15 C83.81 -6.06, 91.92 -2.97, 103.73 1.53 M75.7 -9.15 C86.44 -5.06, 97.18 -0.97, 103.73 1.53" stroke="#1e1e1e" stroke-width="4" fill="none"></path></g></g><mask></mask><g transform="translate(90 70) rotate(0 20 12.5)"><text x="0" y="0" font-family="Virgil, Segoe UI Emoji" font-size="20px" fill="#1e1e1e" text-anchor="start" style="white-space: pre;" direction="ltr" dominant-baseline="text-before-edge">事件</text></g><g stroke-linecap="round"><g transform="translate(350 110) rotate(0 39.712225488509716 0)"><path d="M0 0 C13.24 0, 66.19 0, 79.42 0 M0 0 C13.24 0, 66.19 0, 79.42 0" stroke="#1e1e1e" stroke-width="4" fill="none"></path></g><g transform="translate(350 110) rotate(0 39.712225488509716 0)"><path d="M51.23 10.26 C61.49 6.53, 71.75 2.79, 79.42 0 M51.23 10.26 C60.92 6.74, 70.6 3.21, 79.42 0" stroke="#1e1e1e" stroke-width="4" fill="none"></path></g><g transform="translate(350 110) rotate(0 39.712225488509716 0)"><path d="M51.23 -10.26 C61.49 -6.53, 71.75 -2.79, 79.42 0 M51.23 -10.26 C60.92 -6.74, 70.6 -3.21, 79.42 0" stroke="#1e1e1e" stroke-width="4" fill="none"></path></g></g><mask></mask><g stroke-linecap="round" transform="translate(430 50) rotate(0 80 60)"><path d="M101.25 15.25 M101.25 15.25 C109.91 22.11, 118.58 28.98, 139.75 45.75 M101.25 15.25 C112.5 24.16, 123.75 33.08, 139.75 45.75 M139.75 45.75 C160 61, 160 61, 139.75 76.25 M139.75 45.75 C160 61, 160 61, 139.75 76.25 M139.75 76.25 C128.78 84.37, 117.8 92.5, 101.25 104.75 M139.75 76.25 C130.68 82.97, 121.6 89.68, 101.25 104.75 M101.25 104.75 C81 120, 81 120, 60.75 104.75 M101.25 104.75 C81 120, 81 120, 60.75 104.75 M60.75 104.75 C48.27 95.97, 35.8 87.19, 20.25 76.25 M60.75 104.75 C47.93 95.73, 35.12 86.71, 20.25 76.25 M20.25 76.25 C0 61, 0 61, 20.25 45.75 M20.25 76.25 C0 61, 0 61, 20.25 45.75 M20.25 45.75 C32.5 36.53, 44.74 27.31, 60.75 15.25 M20.25 45.75 C30.83 37.78, 41.41 29.82, 60.75 15.25 M60.75 15.25 C81 0, 81 0, 101.25 15.25 M60.75 15.25 C81 0, 81 0, 101.25 15.25" stroke="#1e1e1e" stroke-width="4" fill="none"></path></g><g transform="translate(480 97.5) rotate(0 30 12.5)"><text x="30" y="0" font-family="Virgil, Segoe UI Emoji" font-size="20px" fill="#1e1e1e" text-anchor="middle" style="white-space: pre;" direction="ltr" dominant-baseline="text-before-edge">终止？</text></g><g transform="translate(370 70) rotate(0 20 12.5)"><text x="0" y="0" font-family="Virgil, Segoe UI Emoji" font-size="20px" fill="#1e1e1e" text-anchor="start" style="white-space: pre;" direction="ltr" dominant-baseline="text-before-edge">动作</text></g><g stroke-linecap="round"><g transform="translate(510 170) rotate(0 0 30)"><path d="M0 0 C0 10, 0 50, 0 60 M0 0 C0 10, 0 50, 0 60" stroke="#1e1e1e" stroke-width="4" fill="none"></path></g></g><mask></mask><g stroke-linecap="round"><g transform="translate(510 230) rotate(0 -200 0)"><path d="M0 0 C-66.67 0, -333.33 0, -400 0 M0 0 C-66.67 0, -333.33 0, -400 0" stroke="#1e1e1e" stroke-width="4" fill="none"></path></g></g><mask></mask><g stroke-linecap="round"><g transform="translate(110 230) rotate(0 0 -60)"><path d="M0 0 C0 -20, 0 -100, 0 -120 M0 0 C0 -20, 0 -100, 0 -120" stroke="#1e1e1e" stroke-width="4" fill="none"></path></g><g transform="translate(110 230) rotate(0 0 -60)"><path d="M10.26 -91.81 C6.36 -102.54, 2.45 -113.27, 0 -120 M10.26 -91.81 C7.68 -98.89, 5.11 -105.97, 0 -120" stroke="#1e1e1e" stroke-width="4" fill="none"></path></g><g transform="translate(110 230) rotate(0 0 -60)"><path d="M-10.26 -91.81 C-6.36 -102.54, -2.45 -113.27, 0 -120 M-10.26 -91.81 C-7.68 -98.89, -5.11 -105.97, 0 -120" stroke="#1e1e1e" stroke-width="4" fill="none"></path></g></g><mask></mask><g stroke-linecap="round"><g transform="translate(590 110) rotate(0 50 0)"><path d="M0 0 C16.67 0, 83.33 0, 100 0 M0 0 C16.67 0, 83.33 0, 100 0" stroke="#1e1e1e" stroke-width="4" fill="none"></path></g><g transform="translate(590 110) rotate(0 50 0)"><path d="M71.81 10.26 C79.97 7.29, 88.13 4.32, 100 0 M71.81 10.26 C79.13 7.6, 86.45 4.93, 100 0" stroke="#1e1e1e" stroke-width="4" fill="none"></path></g><g transform="translate(590 110) rotate(0 50 0)"><path d="M71.81 -10.26 C79.97 -7.29, 88.13 -4.32, 100 0 M71.81 -10.26 C79.13 -7.6, 86.45 -4.93, 100 0" stroke="#1e1e1e" stroke-width="4" fill="none"></path></g></g><mask></mask><g transform="translate(601 78) rotate(0 16.059982299804688 12.5)"><text x="0" y="0" font-family="Virgil, Segoe UI Emoji" font-size="20px" fill="#1e1e1e" text-anchor="start" style="white-space: pre;" direction="ltr" dominant-baseline="text-before-edge">Yes</text></g><g transform="translate(530 190) rotate(0 11.979988098144531 12.5)"><text x="0" y="0" font-family="Virgil, Segoe UI Emoji" font-size="20px" fill="#1e1e1e" text-anchor="start" style="white-space: pre;" direction="ltr" dominant-baseline="text-before-edge">No</text></g><g stroke-linecap="round" transform="translate(703.3333333333333 103.33333333333331) rotate(0 6.666666666666629 6.666666666666657)"><path d="M13.33 6.67 C13.33 7.05, 13.3 7.44, 13.23 7.82 C13.17 8.2, 13.06 8.58, 12.93 8.95 C12.8 9.31, 12.63 9.67, 12.44 10 C12.25 10.33, 12.02 10.66, 11.77 10.95 C11.53 11.25, 11.25 11.53, 10.95 11.77 C10.66 12.02, 10.33 12.25, 10 12.44 C9.67 12.63, 9.31 12.8, 8.95 12.93 C8.58 13.06, 8.2 13.17, 7.82 13.23 C7.44 13.3, 7.05 13.33, 6.67 13.33 C6.28 13.33, 5.89 13.3, 5.51 13.23 C5.13 13.17, 4.75 13.06, 4.39 12.93 C4.02 12.8, 3.67 12.63, 3.33 12.44 C3 12.25, 2.68 12.02, 2.38 11.77 C2.09 11.53, 1.81 11.25, 1.56 10.95 C1.31 10.66, 1.09 10.33, 0.89 10 C0.7 9.67, 0.53 9.31, 0.4 8.95 C0.27 8.58, 0.17 8.2, 0.1 7.82 C0.03 7.44, 0 7.05, 0 6.67 C0 6.28, 0.03 5.89, 0.1 5.51 C0.17 5.13, 0.27 4.75, 0.4 4.39 C0.53 4.02, 0.7 3.67, 0.89 3.33 C1.09 3, 1.31 2.68, 1.56 2.38 C1.81 2.09, 2.09 1.81, 2.38 1.56 C2.68 1.31, 3 1.09, 3.33 0.89 C3.67 0.7, 4.02 0.53, 4.39 0.4 C4.75 0.27, 5.13 0.17, 5.51 0.1 C5.89 0.03, 6.28 0, 6.67 0 C7.05 0, 7.44 0.03, 7.82 0.1 C8.2 0.17, 8.58 0.27, 8.95 0.4 C9.31 0.53, 9.67 0.7, 10 0.89 C10.33 1.09, 10.66 1.31, 10.95 1.56 C11.25 1.81, 11.53 2.09, 11.77 2.38 C12.02 2.68, 12.25 3, 12.44 3.33 C12.63 3.67, 12.8 4.02, 12.93 4.39 C13.06 4.75, 13.17 5.13, 13.23 5.51 C13.3 5.89, 13.32 6.47, 13.33 6.67 C13.35 6.86, 13.35 6.47, 13.33 6.67" stroke="none" stroke-width="0" fill="#1e1e1e"></path><path d="M13.33 6.67 C13.33 7.05, 13.3 7.44, 13.23 7.82 C13.17 8.2, 13.06 8.58, 12.93 8.95 C12.8 9.31, 12.63 9.67, 12.44 10 C12.25 10.33, 12.02 10.66, 11.77 10.95 C11.53 11.25, 11.25 11.53, 10.95 11.77 C10.66 12.02, 10.33 12.25, 10 12.44 C9.67 12.63, 9.31 12.8, 8.95 12.93 C8.58 13.06, 8.2 13.17, 7.82 13.23 C7.44 13.3, 7.05 13.33, 6.67 13.33 C6.28 13.33, 5.89 13.3, 5.51 13.23 C5.13 13.17, 4.75 13.06, 4.39 12.93 C4.02 12.8, 3.67 12.63, 3.33 12.44 C3 12.25, 2.68 12.02, 2.38 11.77 C2.09 11.53, 1.81 11.25, 1.56 10.95 C1.31 10.66, 1.09 10.33, 0.89 10 C0.7 9.67, 0.53 9.31, 0.4 8.95 C0.27 8.58, 0.17 8.2, 0.1 7.82 C0.03 7.44, 0 7.05, 0 6.67 C0 6.28, 0.03 5.89, 0.1 5.51 C0.17 5.13, 0.27 4.75, 0.4 4.39 C0.53 4.02, 0.7 3.67, 0.89 3.33 C1.09 3, 1.31 2.68, 1.56 2.38 C1.81 2.09, 2.09 1.81, 2.38 1.56 C2.68 1.31, 3 1.09, 3.33 0.89 C3.67 0.7, 4.02 0.53, 4.39 0.4 C4.75 0.27, 5.13 0.17, 5.51 0.1 C5.89 0.03, 6.28 0, 6.67 0 C7.05 0, 7.44 0.03, 7.82 0.1 C8.2 0.17, 8.58 0.27, 8.95 0.4 C9.31 0.53, 9.67 0.7, 10 0.89 C10.33 1.09, 10.66 1.31, 10.95 1.56 C11.25 1.81, 11.53 2.09, 11.77 2.38 C12.02 2.68, 12.25 3, 12.44 3.33 C12.63 3.67, 12.8 4.02, 12.93 4.39 C13.06 4.75, 13.17 5.13, 13.23 5.51 C13.3 5.89, 13.32 6.47, 13.33 6.67 C13.35 6.86, 13.35 6.47, 13.33 6.67" stroke="#1e1e1e" stroke-width="4" fill="none"></path></g><g stroke-linecap="round" transform="translate(690 90) rotate(0 20 20)"><path d="M40 20 C40 21.16, 39.9 22.33, 39.7 23.47 C39.5 24.61, 39.19 25.75, 38.79 26.84 C38.4 27.93, 37.9 29, 37.32 30 C36.74 31, 36.07 31.97, 35.32 32.86 C34.58 33.74, 33.74 34.58, 32.86 35.32 C31.97 36.07, 31 36.74, 30 37.32 C29 37.9, 27.93 38.4, 26.84 38.79 C25.75 39.19, 24.61 39.5, 23.47 39.7 C22.33 39.9, 21.16 40, 20 40 C18.84 40, 17.67 39.9, 16.53 39.7 C15.39 39.5, 14.25 39.19, 13.16 38.79 C12.07 38.4, 11 37.9, 10 37.32 C9 36.74, 8.03 36.07, 7.14 35.32 C6.26 34.58, 5.42 33.74, 4.68 32.86 C3.93 31.97, 3.26 31, 2.68 30 C2.1 29, 1.6 27.93, 1.21 26.84 C0.81 25.75, 0.5 24.61, 0.3 23.47 C0.1 22.33, 0 21.16, 0 20 C0 18.84, 0.1 17.67, 0.3 16.53 C0.5 15.39, 0.81 14.25, 1.21 13.16 C1.6 12.07, 2.1 11, 2.68 10 C3.26 9, 3.93 8.03, 4.68 7.14 C5.42 6.26, 6.26 5.42, 7.14 4.68 C8.03 3.93, 9 3.26, 10 2.68 C11 2.1, 12.07 1.6, 13.16 1.21 C14.25 0.81, 15.39 0.5, 16.53 0.3 C17.67 0.1, 18.84 0, 20 0 C21.16 0, 22.33 0.1, 23.47 0.3 C24.61 0.5, 25.75 0.81, 26.84 1.21 C27.93 1.6, 29 2.1, 30 2.68 C31 3.26, 31.97 3.93, 32.86 4.68 C33.74 5.42, 34.58 6.26, 35.32 7.14 C36.07 8.03, 36.74 9, 37.32 10 C37.9 11, 38.4 12.07, 38.79 13.16 C39.19 14.25, 39.5 15.39, 39.7 16.53 C39.9 17.67, 39.95 19.42, 40 20 C40.05 20.58, 40.05 19.42, 40 20" stroke="#1e1e1e" stroke-width="4" fill="none"></path></g><g stroke-linecap="round" transform="translate(10 90) rotate(0 20 20)"><path d="M40 20 C40 21.16, 39.9 22.33, 39.7 23.47 C39.5 24.61, 39.19 25.75, 38.79 26.84 C38.4 27.93, 37.9 29, 37.32 30 C36.74 31, 36.07 31.97, 35.32 32.86 C34.58 33.74, 33.74 34.58, 32.86 35.32 C31.97 36.07, 31 36.74, 30 37.32 C29 37.9, 27.93 38.4, 26.84 38.79 C25.75 39.19, 24.61 39.5, 23.47 39.7 C22.33 39.9, 21.16 40, 20 40 C18.84 40, 17.67 39.9, 16.53 39.7 C15.39 39.5, 14.25 39.19, 13.16 38.79 C12.07 38.4, 11 37.9, 10 37.32 C9 36.74, 8.03 36.07, 7.14 35.32 C6.26 34.58, 5.42 33.74, 4.68 32.86 C3.93 31.97, 3.26 31, 2.68 30 C2.1 29, 1.6 27.93, 1.21 26.84 C0.81 25.75, 0.5 24.61, 0.3 23.47 C0.1 22.33, 0 21.16, 0 20 C0 18.84, 0.1 17.67, 0.3 16.53 C0.5 15.39, 0.81 14.25, 1.21 13.16 C1.6 12.07, 2.1 11, 2.68 10 C3.26 9, 3.93 8.03, 4.68 7.14 C5.42 6.26, 6.26 5.42, 7.14 4.68 C8.03 3.93, 9 3.26, 10 2.68 C11 2.1, 12.07 1.6, 13.16 1.21 C14.25 0.81, 15.39 0.5, 16.53 0.3 C17.67 0.1, 18.84 0, 20 0 C21.16 0, 22.33 0.1, 23.47 0.3 C24.61 0.5, 25.75 0.81, 26.84 1.21 C27.93 1.6, 29 2.1, 30 2.68 C31 3.26, 31.97 3.93, 32.86 4.68 C33.74 5.42, 34.58 6.26, 35.32 7.14 C36.07 8.03, 36.74 9, 37.32 10 C37.9 11, 38.4 12.07, 38.79 13.16 C39.19 14.25, 39.5 15.39, 39.7 16.53 C39.9 17.67, 39.95 19.42, 40 20 C40.05 20.58, 40.05 19.42, 40 20" stroke="none" stroke-width="0" fill="#1e1e1e"></path><path d="M40 20 C40 21.16, 39.9 22.33, 39.7 23.47 C39.5 24.61, 39.19 25.75, 38.79 26.84 C38.4 27.93, 37.9 29, 37.32 30 C36.74 31, 36.07 31.97, 35.32 32.86 C34.58 33.74, 33.74 34.58, 32.86 35.32 C31.97 36.07, 31 36.74, 30 37.32 C29 37.9, 27.93 38.4, 26.84 38.79 C25.75 39.19, 24.61 39.5, 23.47 39.7 C22.33 39.9, 21.16 40, 20 40 C18.84 40, 17.67 39.9, 16.53 39.7 C15.39 39.5, 14.25 39.19, 13.16 38.79 C12.07 38.4, 11 37.9, 10 37.32 C9 36.74, 8.03 36.07, 7.14 35.32 C6.26 34.58, 5.42 33.74, 4.68 32.86 C3.93 31.97, 3.26 31, 2.68 30 C2.1 29, 1.6 27.93, 1.21 26.84 C0.81 25.75, 0.5 24.61, 0.3 23.47 C0.1 22.33, 0 21.16, 0 20 C0 18.84, 0.1 17.67, 0.3 16.53 C0.5 15.39, 0.81 14.25, 1.21 13.16 C1.6 12.07, 2.1 11, 2.68 10 C3.26 9, 3.93 8.03, 4.68 7.14 C5.42 6.26, 6.26 5.42, 7.14 4.68 C8.03 3.93, 9 3.26, 10 2.68 C11 2.1, 12.07 1.6, 13.16 1.21 C14.25 0.81, 15.39 0.5, 16.53 0.3 C17.67 0.1, 18.84 0, 20 0 C21.16 0, 22.33 0.1, 23.47 0.3 C24.61 0.5, 25.75 0.81, 26.84 1.21 C27.93 1.6, 29 2.1, 30 2.68 C31 3.26, 31.97 3.93, 32.86 4.68 C33.74 5.42, 34.58 6.26, 35.32 7.14 C36.07 8.03, 36.74 9, 37.32 10 C37.9 11, 38.4 12.07, 38.79 13.16 C39.19 14.25, 39.5 15.39, 39.7 16.53 C39.9 17.67, 39.95 19.42, 40 20 C40.05 20.58, 40.05 19.42, 40 20" stroke="#1e1e1e" stroke-width="4" fill="none"></path></g></svg>