<svg id="图层_1" data-name="图层 1" xmlns="http://www.w3.org/2000/svg" viewBox="0 0 623.62 515.91"><defs><style>.cls-1{fill:#009fb9;}</style></defs><title>hvml-logo</title><path class="cls-1" d="M518.13,198.27l-6-18.82a82.06,82.06,0,0,1-3.89-25l0-140.37a11.12,11.12,0,0,0-18-8.72L398.45,78.14a12.39,12.39,0,0,1-9.93,2.44,406.5,406.5,0,0,0-151,0,10.63,10.63,0,0,1-2.11.2A11.85,11.85,0,0,1,228,78.07L141,5.44A11.12,11.12,0,0,0,122.71,14l0,126a42,42,0,0,1-2.94,15.52l-7.88,20.36a125.07,125.07,0,0,0-5.31,17.43L102,213.14a126,126,0,0,0-.87,52.32c0,.18.07.34.1.45.39,1.92.82,3.84,1.28,5.71l.64,2.55h25.46l-1-3.37h-3.51c-.3-1.07-2-8.09-2.29-9.16a104.35,104.35,0,0,1,.65-43.7L127,198.05a99.48,99.48,0,0,1,4.4-14.46l7.93-20.36A64.43,64.43,0,0,0,143.69,140V35.28l71,59.13a32.32,32.32,0,0,0,26.78,7,386.07,386.07,0,0,1,143.24,0,33.05,33.05,0,0,0,26.73-6.6l75.89-60.13,0,119.73a104,104,0,0,0,4.88,31.5l6,18.87A116.15,116.15,0,0,1,501.12,265l-1.29,5.89h-3.47l-.81,3.36h25.06l.6-2.61c.38-1.65.87-3.83,1.25-6A139.48,139.48,0,0,0,518.13,198.27Z"/><path class="cls-1" d="M343.08,217.74c0,6.22-10.93,11.39-25.43,12.5-1.88.18-3.88.24-5.88.24s-4-.06-5.87-.24c-14.51-1.12-25.43-6.29-25.43-12.51,0-7,14-12.69,31.31-12.68S343.08,210.75,343.08,217.74Z"/><path class="cls-1" d="M273.9,177.85a11.68,11.68,0,0,1-10,11.57h-.12a144.88,144.88,0,0,1-61.37-4.06l-10-2.88,3.24-11.28,10,2.88a131.61,131.61,0,0,0,56.38,3.71L273.78,176A9.28,9.28,0,0,1,273.9,177.85Z"/><path class="cls-1" d="M421.55,185.38a141.82,141.82,0,0,1-39.82,5.7,141,141,0,0,1-21.56-1.65l-3.58-.53-8.16-1.23L350.19,176l11.69,1.76c2,.29,4.05.59,6.05.76a131.23,131.23,0,0,0,50.33-4.45l10.05-2.88.35,1.29A10.39,10.39,0,0,1,421.55,185.38Z"/><path class="cls-1" d="M316.46,217.73v12.5a31.56,31.56,0,0,1-5.88,18.21,34.77,34.77,0,0,1-9.22,8.91,33.88,33.88,0,0,1-8.81,4.43,10.12,10.12,0,0,1-12.21-4.43,7.7,7.7,0,0,1-1.06-4c14,0,25.43-10.41,25.43-23.12v-12.5Z"/><path class="cls-1" d="M344.26,253.35a7.85,7.85,0,0,1-1.05,4A10.14,10.14,0,0,1,331,261.79a34.22,34.22,0,0,1-8.81-4.44,34.92,34.92,0,0,1-9.22-8.91,31.55,31.55,0,0,1-5.87-18.21v-12.5h11.75v12.5C318.83,242.94,330.23,253.35,344.26,253.35Z"/><path class="cls-1" d="M367.93,178.56a143.07,143.07,0,0,1-11.34,10.34,177.76,177.76,0,0,1-24,16.15s14.33-15.33,18-44.69,30.14-29.66,34.19-19.5C387.43,147.56,383.67,162.06,367.93,178.56Z"/><path class="cls-1" d="M620.74,271.3h0a3.32,3.32,0,0,1-3.33,3.31L6.12,274.55a3.33,3.33,0,0,1-3.33-3.33h0a3.32,3.32,0,0,1,3.33-3.32l611.29.07A3.32,3.32,0,0,1,620.74,271.3Z"/><path class="cls-1" d="M158.51,513.07h0l-.06-12.23,0-201.56h27l0,148.54,80.66-148.53h30.71L191.33,493.55a37.34,37.34,0,0,1-32.82,19.52Z"/><path class="cls-1" d="M2.79,512.62h0l0-213.77H31.26l0,185.32A28.45,28.45,0,0,1,2.79,512.62Z"/><path class="cls-1" d="M107.51,512.63h0l0-213.76H136l0,185.32a28.45,28.45,0,0,1-28.45,28.44Z"/><path class="cls-1" d="M471,298.9l0,185.32a28.44,28.44,0,0,1-28.44,28.44V354.9l-71.15,131a51.11,51.11,0,0,1-44.92,26.72l-.07-157.87L256,484.18a54.49,54.49,0,0,1-47.87,28.46L324.34,298.88h30.41l.09,157.84,85.7-157.83Z"/><path class="cls-1" d="M592.29,512.69H492.88l0-213.77h28.45l0,185.32h99.41a28.45,28.45,0,0,1-28.45,28.45Z"/><line class="cls-1" x1="95.98" y1="405.75" x2="17.63" y2="405.74"/><path class="cls-1" d="M67.54,420H17.63V391.52H96A28.44,28.44,0,0,1,67.54,420"/></svg>