<svg version="1.1" xmlns="http://www.w3.org/2000/svg" viewBox="0 0 640 565" width="640" height="565">
  <!-- svg-source:excalidraw -->
  
  <defs>
    <style>
      @font-face {
        font-family: "Virgil";
        src: url("https://excalidraw.com/Virgil.woff2");
      }
      @font-face {
        font-family: "Cascadia";
        src: url("https://excalidraw.com/Cascadia.woff2");
      }
    </style>
  </defs>
  <rect x="0" y="0" width="640" height="565" fill="#ffffff"></rect><g stroke-linecap="round" transform="translate(170 50) rotate(0 90 70)"><path d="M0.25 -0.26 L178.01 0.78 L180.43 141.74 L0.19 140.94" stroke="none" stroke-width="0" fill="#4c6ef5"></path><path d="M-1.45 -0.32 C61.61 -2.24, 122.45 -1.17, 180.08 1.3 M-0.46 -0.98 C49.62 0.35, 100.75 0.69, 180.05 -0.3 M181.62 -1.84 C180.5 32.78, 180.71 67.83, 179.81 138.25 M180.56 0.2 C179.68 32.42, 179.54 62.41, 180.15 140.97 M181.76 138.44 C112.74 140.48, 42.29 142.81, -0.3 139.07 M179.03 140.08 C132.62 138.3, 86.14 138.89, 0.7 139.51 M0.91 140.62 C-2.4 97.08, -2.43 53.68, -0.1 0.01 M0.76 139.71 C-0.6 103.32, -1.23 64.74, 0.49 -0.77" stroke="#000000" stroke-width="1" fill="none"></path></g><g transform="translate(175 55) rotate(0 85 12.5)"><text x="85" y="18" font-family="Virgil, Segoe UI Emoji" font-size="20px" fill="#000000" text-anchor="middle" style="white-space: pre;" direction="ltr">Win1</text></g><g stroke-linecap="round" transform="translate(250 90) rotate(0 90 70)"><path d="M-0.49 -0.98 L178.08 0.33 L178.96 141.29 L-1.93 140.96" stroke="none" stroke-width="0" fill="#4c6ef5"></path><path d="M0.86 -1.44 C67.5 0.35, 131.39 0.9, 178.17 1.84 M0.77 0.35 C53.83 0.29, 106.63 1.43, 179.85 -0.17 M179.74 -1.99 C179.7 49.23, 180.66 97.78, 180.94 141.16 M179.49 -0.21 C178.71 28.37, 178.49 56.86, 180.47 139.22 M179.86 138.72 C141.19 142.5, 105.07 139.82, 0.28 139.56 M180.51 140.25 C114.91 141.19, 49.7 141.21, 0.27 140.34 M1.4 138.54 C-1.45 83.51, -1 29, -1.41 -0.95 M0.52 139.93 C-0.22 88.78, 0.83 37.8, 0.91 0.22" stroke="#000000" stroke-width="1" fill="none"></path></g><g transform="translate(255 95) rotate(0 85 12.5)"><text x="85" y="18" font-family="Virgil, Segoe UI Emoji" font-size="20px" fill="#000000" text-anchor="middle" style="white-space: pre;" direction="ltr">Win2</text></g><g stroke-linecap="round" transform="translate(10 270) rotate(0 310 120)"><path d="M-0.23 0.37 C196.78 5.04, 394.66 4.06, 618.75 1.5 M0.76 -0.13 C230.38 1.55, 460.1 2.41, 619.75 0.07 M622.9 1.44 C624.52 56.48, 619.09 112.35, 621.84 237.94 M620.37 0.82 C621.51 58.34, 623.37 113.71, 620.49 239.47 M621.56 241.14 C467.9 244.73, 316.53 243.64, -0.11 241.56 M620.28 239.99 C374.09 241.13, 128.69 241.75, 0.23 239.94 M-1.35 238.26 C-4.35 191.26, -0.94 139, -3.02 -1.31 M-0.16 240.9 C4.18 160.66, 3.31 84.72, 1.39 -0.66" stroke="#000000" stroke-width="2" fill="none"></path></g><g stroke-linecap="round" transform="translate(30 290) rotate(0 90 70)"><path d="M0.57 0.14 L180.03 -0.68 L180.81 139.18 L-1.95 141.96" stroke="none" stroke-width="0" fill="#4c6ef5"></path><path d="M0.14 1.28 C56.19 -1.18, 111.97 -0.75, 181.13 -1.05 M0.8 -0.28 C50.58 -0.35, 99.59 -0.89, 179.44 0.84 M179.6 -1.07 C178.76 45.22, 178.67 88.3, 180.78 141.68 M179.33 -0.13 C181.16 46.92, 181.42 93.88, 179.13 139.72 M180.49 141.68 C140.47 137.03, 100.87 137.65, 1.76 138.64 M179.65 139.08 C127.79 138.31, 74.75 138.08, -0.48 139.38 M-0.64 139.9 C0.12 93.8, -2.31 46.58, -0.42 -0.39 M0.07 140.47 C-1.27 108.44, -0.91 78.54, -0.48 0.16" stroke="#000000" stroke-width="1" fill="none"></path></g><g transform="translate(35 295) rotate(0 85 12.5)"><text x="85" y="18" font-family="Virgil, Segoe UI Emoji" font-size="20px" fill="#000000" text-anchor="middle" style="white-space: pre;" direction="ltr">Runner1</text></g><g stroke-linecap="round" transform="translate(230 290) rotate(0 90 70)"><path d="M0.85 -1.47 L178.36 0.09 L181.81 138.76 L0.67 140.59" stroke="none" stroke-width="0" fill="#fab005"></path><path d="M-1.36 0.18 C45.84 -1.79, 94.09 -0.13, 181.81 -1.65 M0.36 -0.52 C48.49 -1.45, 96.37 -2.05, 180.29 0.73 M178.43 -1 C180.84 41.96, 180.98 86.42, 180.14 140.03 M179.02 0.98 C180.24 36.25, 181.32 75.06, 179.67 139.92 M178.08 140.47 C141.23 138.65, 101.07 138.69, -0.67 139.02 M180.89 140.98 C110.86 142.02, 41.55 141.73, 0.07 140.13 M1.17 141.56 C0.72 94.6, 0.79 53.03, -1.83 -0.57 M0.69 140.36 C-1.35 84.62, -0.7 28.87, 0.67 -0.4" stroke="#000000" stroke-width="1" fill="none"></path></g><g transform="translate(235 295) rotate(0 85 25)"><text x="85" y="18" font-family="Virgil, Segoe UI Emoji" font-size="20px" fill="#000000" text-anchor="middle" style="white-space: pre;" direction="ltr">Renderer</text><text x="85" y="43" font-family="Virgil, Segoe UI Emoji" font-size="20px" fill="#000000" text-anchor="middle" style="white-space: pre;" direction="ltr">Thread</text></g><g stroke-linecap="round" transform="translate(430 290) rotate(0 90 70)"><path d="M-0.26 -0.43 L178.19 -1.27 L180 141.77 L-1.55 141.52" stroke="none" stroke-width="0" fill="#4c6ef5"></path><path d="M1.96 -0.67 C59.37 3.26, 123.85 1.11, 179.84 -1.58 M0.24 0.5 C56.27 2.04, 113.11 1.39, 179.51 0.85 M181.96 0.43 C182.16 47.8, 181.58 94.67, 180.27 140.26 M180.78 -0.22 C180.37 30.11, 181.49 59.68, 179.72 140.95 M180.72 139.25 C113.41 141.8, 46.07 142.58, -0.8 140.85 M180.91 139.38 C139.56 140.38, 97.74 141.08, -0.87 140.54 M0.29 138.44 C-2.48 113.18, -1.21 85.78, -0.84 0.75 M-0.17 140.68 C1.49 86.68, 0.32 30.74, 0.78 0.94" stroke="#000000" stroke-width="1" fill="none"></path></g><g transform="translate(435 295) rotate(0 85 12.5)"><text x="85" y="18" font-family="Virgil, Segoe UI Emoji" font-size="20px" fill="#000000" text-anchor="middle" style="white-space: pre;" direction="ltr">Runner2</text></g><g stroke-linecap="round"><g transform="translate(110.08637456650848 431.28194090445527) rotate(0 90.50863138695246 30.24717042829093)"><path d="M0.9 0.26 C17.68 10.11, 73.45 53.52, 100.15 60.22 C126.86 66.92, 147.74 50.37, 161.14 40.47 C174.54 30.57, 177.36 7.4, 180.56 0.84 M-0.09 -0.65 C16.6 9.33, 72.44 51.72, 99.29 58.22 C126.13 64.72, 147.34 48.29, 160.98 38.37 C174.61 28.45, 178.09 5.38, 181.1 -1.28" stroke="#000000" stroke-width="1" fill="none"></path></g><g transform="translate(110.08637456650848 431.28194090445527) rotate(0 90.50863138695246 30.24717042829093)"><path d="M23.07 5.76 C17.4 6.23, 12.24 3.92, 2.29 0.83 M21.97 5.42 C15.03 4.23, 6.01 2.13, 1.81 -0.02" stroke="#000000" stroke-width="1" fill="none"></path></g><g transform="translate(110.08637456650848 431.28194090445527) rotate(0 90.50863138695246 30.24717042829093)"><path d="M14.62 18.51 C10.99 15.65, 8 10.08, 2.29 0.83 M13.51 18.16 C9.8 11.94, 4.1 4.83, 1.81 -0.02" stroke="#000000" stroke-width="1" fill="none"></path></g><g transform="translate(110.08637456650848 431.28194090445527) rotate(0 90.50863138695246 30.24717042829093)"><path d="M182.38 21.32 C181.89 17.26, 182.08 10.57, 182.5 -0.71 M181.27 20.98 C182.41 12.98, 181.59 4.16, 182.01 -1.57" stroke="#000000" stroke-width="1" fill="none"></path></g><g transform="translate(110.08637456650848 431.28194090445527) rotate(0 90.50863138695246 30.24717042829093)"><path d="M167.82 16.63 C171.1 13.66, 175.02 8.17, 182.5 -0.71 M166.71 16.29 C173.6 10.06, 178.5 3.09, 182.01 -1.57" stroke="#000000" stroke-width="1" fill="none"></path></g></g><g stroke-linecap="round"><g transform="translate(330.6070528342109 431.08736019519154) rotate(0 90.00872106668544 30.32612116284031)"><path d="M0.56 -0.03 C10.44 9.85, 40.35 52.36, 60.08 58.77 C79.8 65.18, 98.87 48.22, 118.9 38.44 C138.93 28.66, 169.9 6.66, 180.25 0.09 M-0.61 -1.09 C9.11 9.02, 39.74 53.47, 59.49 60.23 C79.24 67, 97.68 49.35, 117.87 39.51 C138.06 29.68, 170.27 8.01, 180.62 1.24" stroke="#000000" stroke-width="1" fill="none"></path></g><g transform="translate(330.6070528342109 431.08736019519154) rotate(0 90.00872106668544 30.32612116284031)"><path d="M26.86 15.46 C17.09 8.37, 6.9 4.36, 0.7 1.6 M26.7 14.43 C21.37 11.3, 14.95 7.76, 1.55 -0.71" stroke="#000000" stroke-width="1" fill="none"></path></g><g transform="translate(330.6070528342109 431.08736019519154) rotate(0 90.00872106668544 30.32612116284031)"><path d="M11.47 29.04 C7.39 16.91, 2.83 7.93, 0.7 1.6 M11.32 28.01 C9.45 21.9, 6.38 15.4, 1.55 -0.71" stroke="#000000" stroke-width="1" fill="none"></path></g><g transform="translate(330.6070528342109 431.08736019519154) rotate(0 90.00872106668544 30.32612116284031)"><path d="M162.65 26.43 C169.11 15.58, 175.13 8.02, 180.77 2.87 M162.49 25.39 C166.88 20.07, 170.09 14.42, 181.61 0.56" stroke="#000000" stroke-width="1" fill="none"></path></g><g transform="translate(330.6070528342109 431.08736019519154) rotate(0 90.00872106668544 30.32612116284031)"><path d="M151.38 9.28 C161.9 4.65, 172.03 3.36, 180.77 2.87 M151.23 8.24 C157.92 6.63, 163.58 4.71, 181.61 0.56" stroke="#000000" stroke-width="1" fill="none"></path></g></g><g stroke-linecap="round" transform="translate(130 30) rotate(0 180 110)"><path d="M-0.6 -0.34 C114.29 0.18, 234.34 -1.08, 358.82 2.4 M0.16 0.15 C101.97 4.51, 203.82 4.78, 361.25 1.1 M357.78 2.56 C365.67 73.35, 361.55 153, 357.26 220.76 M361.09 0.29 C358.67 76.25, 357.21 152.96, 361.48 221.69 M360.79 219.06 C226.18 223.88, 95.13 222.94, 0.77 220.88 M358.87 220.39 C252.68 217.79, 143.55 218.66, -0.34 219.49 M1.59 221.36 C-0.99 164.13, 3.05 108.61, -0.92 -0.33 M0.58 221.17 C-1.81 141.38, -1.87 63.84, 0.43 0.31" stroke="#000000" stroke-width="1" fill="none"></path></g><g stroke-linecap="round" transform="translate(90 10) rotate(0 220 140)"><path d="M153.7 5.84 C171.27 -0.17, 193.76 0.73, 214.4 0.46 C235.04 0.2, 257.73 0.84, 277.57 4.26 C297.4 7.69, 316.08 14.19, 333.43 21.01 C350.78 27.83, 367.67 35.6, 381.67 45.18 C395.67 54.76, 408.17 66.62, 417.43 78.48 C426.69 90.34, 433.65 103.33, 437.22 116.34 C440.78 129.35, 441.18 143.3, 438.8 156.54 C436.43 169.79, 431.25 183.82, 422.96 195.81 C414.67 207.8, 402.46 218.6, 389.08 228.48 C375.71 238.37, 359.74 247.68, 342.73 255.11 C325.72 262.54, 306.48 269.07, 287.01 273.07 C267.54 277.08, 246.49 278.66, 225.93 279.12 C205.36 279.59, 183.67 279.02, 163.62 275.87 C143.56 272.72, 123.2 267.24, 105.59 260.21 C87.97 253.18, 71.76 243.6, 57.91 233.68 C44.06 223.75, 31.75 212.5, 22.49 200.68 C13.22 188.86, 5.92 175.75, 2.35 162.75 C-1.22 149.75, -1.59 135.69, 1.05 122.68 C3.7 109.66, 9.87 96.7, 18.19 84.65 C26.51 72.6, 38.01 60.28, 50.98 50.36 C63.95 40.44, 77.94 32.71, 96.02 25.12 C114.1 17.52, 147.58 7.79, 159.47 4.8 C171.35 1.81, 166.42 4.81, 167.32 7.17 M167.4 5.55 C185.58 0.39, 207.77 -1, 228.12 -0.49 C248.47 0.02, 269.77 4.48, 289.5 8.59 C309.23 12.7, 329.65 16.73, 346.5 24.17 C363.35 31.6, 377.89 42.6, 390.59 53.19 C403.28 63.78, 414.61 75.66, 422.67 87.71 C430.73 99.76, 436.44 112.32, 438.95 125.49 C441.45 138.65, 441.37 153.52, 437.69 166.7 C434.02 179.88, 426.38 192.84, 416.91 204.59 C407.44 216.33, 395.09 227.78, 380.87 237.17 C366.65 246.56, 349.72 254.38, 331.58 260.93 C313.44 267.49, 291.88 273.45, 272.05 276.48 C252.21 279.52, 232.93 279.64, 212.57 279.14 C192.22 278.63, 169.61 277.53, 149.92 273.46 C130.23 269.4, 111.22 262.6, 94.44 254.76 C77.67 246.91, 62.27 236.66, 49.29 226.41 C36.31 216.15, 24.68 205.18, 16.57 193.24 C8.45 181.3, 2.97 168.07, 0.59 154.75 C-1.79 141.44, -1.38 126.39, 2.29 113.36 C5.96 100.32, 12.97 88.09, 22.62 76.53 C32.26 64.97, 45.79 53.6, 60.16 44.01 C74.53 34.41, 90.91 25.6, 108.83 18.98 C126.74 12.36, 157.71 6.53, 167.64 4.29 C177.57 2.05, 167.47 3.11, 168.39 5.53" stroke="#e67700" stroke-width="1" fill="none"></path></g><g transform="translate(190 530) rotate(0 128.5 12.5)"><text x="0" y="18" font-family="Virgil, Segoe UI Emoji" font-size="20px" fill="#1864ab" text-anchor="start" style="white-space: pre;" direction="ltr">HVML Interpreter Process</text></g></svg>