<svg version="1.1" xmlns="http://www.w3.org/2000/svg" viewBox="0 0 880 508.6549687560207" width="880" height="508.6549687560207">
  <!-- svg-source:excalidraw -->
  
  <defs>
    <style>
      @font-face {
        font-family: "Virgil";
        src: url("https://excalidraw.com/Virgil.woff2");
      }
      @font-face {
        font-family: "Cascadia";
        src: url("https://excalidraw.com/Cascadia.woff2");
      }
    </style>
  </defs>
  <rect x="0" y="0" width="880" height="508.6549687560207" fill="#ffffff"></rect><g stroke-linecap="round" transform="translate(170 10) rotate(0 50 20)"><path d="M0.25 -0.26 L98.01 0.78 L100.43 41.74 L0.19 40.94" stroke="none" stroke-width="0" fill="#4c6ef5"></path><path d="M-1.45 -0.32 C34.7 -1.5, 68.62 -0.43, 100.08 1.3 M-0.46 -0.98 C27.23 0, 55.97 0.34, 100.05 -0.3 M101.62 -1.84 C101.31 8.57, 101.52 19.4, 99.81 38.25 M100.56 0.2 C100.6 9.9, 100.46 17.38, 100.15 40.97 M101.76 38.44 C63.19 39.74, 23.2 42.07, -0.3 39.07 M99.03 40.08 C73.35 38.69, 47.61 39.28, 0.7 39.51 M0.91 40.62 C-1.97 28.57, -2 16.65, -0.1 0.01 M0.76 39.71 C0.18 30.13, -0.46 18.38, 0.49 -0.77" stroke="#000000" stroke-width="1" fill="none"></path></g><g transform="translate(175 15) rotate(0 45 12.5)"><text x="45" y="18" font-family="Virgil, Segoe UI Emoji" font-size="20px" fill="#000000" text-anchor="middle" style="white-space: pre;" direction="ltr">Runner1</text></g><g stroke-linecap="round" transform="translate(290 10) rotate(0 50 20)"><path d="M-0.49 -0.98 L98.08 0.33 L98.96 41.29 L-1.93 40.96" stroke="none" stroke-width="0" fill="#4c6ef5"></path><path d="M0.86 -1.44 C37.9 0.47, 72.19 1.02, 98.17 1.84 M0.77 0.35 C30.24 0.03, 59.45 1.18, 99.85 -0.17 M99.74 -1.99 C100.48 14.37, 101.43 28.07, 100.94 41.16 M99.49 -0.21 C99.09 7.96, 98.87 16.03, 100.47 39.22 M99.86 38.72 C77.83 42.03, 58.35 39.35, 0.28 39.56 M100.51 40.25 C63.74 40.9, 27.37 40.91, 0.27 40.34 M1.4 38.54 C-1.16 23.37, -0.71 8.72, -1.41 -0.95 M0.52 39.93 C-0.35 25.02, 0.7 10.29, 0.91 0.22" stroke="#000000" stroke-width="1" fill="none"></path></g><g transform="translate(295 15) rotate(0 45 12.5)"><text x="45" y="18" font-family="Virgil, Segoe UI Emoji" font-size="20px" fill="#000000" text-anchor="middle" style="white-space: pre;" direction="ltr">Runner2</text></g><g stroke-linecap="round" transform="translate(10 230) rotate(0 70 120)"><path d="M-0.57 0.92 C42.76 4.33, 88.25 1.88, 136.87 3.75 M1.89 -0.31 C52.89 -0.62, 104.12 1.55, 139.38 0.18 M142.9 1.44 C144.52 56.48, 139.09 112.35, 141.84 237.94 M140.37 0.82 C141.51 58.34, 143.37 113.71, 140.49 239.47 M143.91 242.85 C105.41 243.63, 72.61 240.91, -0.28 243.9 M140.69 239.98 C83.07 239.92, 27.44 241.47, 0.57 239.86 M-1.35 238.26 C-4.35 191.26, -0.94 139, -3.02 -1.31 M-0.16 240.9 C4.18 160.66, 3.31 84.72, 1.39 -0.66" stroke="#000000" stroke-width="2" fill="none"></path></g><g stroke-linecap="round" transform="translate(30 250) rotate(0 50 90)"><path d="M0.85 -1.47 L98.36 0.09 L101.81 178.76 L0.67 180.59" stroke="none" stroke-width="0" fill="#fab005"></path><path d="M-1.36 0.18 C24.65 -1.42, 51.72 0.24, 101.81 -1.65 M0.36 -0.52 C27.04 -0.9, 53.45 -1.49, 100.29 0.73 M98.43 -1 C101.02 54.22, 101.17 110.94, 100.14 180.03 M99.02 0.98 C100.4 46.89, 101.48 96.34, 99.67 179.92 M98.08 180.47 C78.91 178.76, 56.43 178.8, -0.67 179.02 M100.89 180.98 C61.68 181.34, 23.2 181.05, 0.07 180.13 M1.17 181.56 C1.06 122.09, 1.12 68, -1.83 -0.57 M0.69 180.36 C-1.63 108.81, -0.98 37.24, 0.67 -0.4" stroke="#000000" stroke-width="1" fill="none"></path></g><g transform="translate(35 255) rotate(0 45 25)"><text x="45" y="18" font-family="Virgil, Segoe UI Emoji" font-size="20px" fill="#000000" text-anchor="middle" style="white-space: pre;" direction="ltr">Renderer</text><text x="45" y="43" font-family="Virgil, Segoe UI Emoji" font-size="20px" fill="#000000" text-anchor="middle" style="white-space: pre;" direction="ltr">App</text></g><g stroke-linecap="round"><g transform="translate(90 230) rotate(0 70.50863138695246 -60.51018225038891)"><path d="M0.9 0.26 C4.36 -9.68, 0.19 -45.41, 20.24 -58.49 C40.3 -71.58, 101.18 -68.14, 121.23 -78.25 C141.28 -88.36, 137.38 -112.39, 140.56 -119.16 M-0.09 -0.65 C3.28 -10.46, -0.82 -47.22, 19.37 -60.5 C39.57 -73.78, 100.78 -70.22, 121.06 -80.35 C141.35 -90.48, 138.11 -114.41, 141.1 -121.28" stroke="#000000" stroke-width="1" fill="none"></path></g><g transform="translate(90 230) rotate(0 70.50863138695246 -60.51018225038891)"><path d="M-2.88 -22.01 C-1.66 -14.63, -0.17 -9.83, 2.29 0.83 M-3.99 -22.35 C-0.53 -12.76, 0.64 -3.97, 1.81 -0.02" stroke="#000000" stroke-width="1" fill="none"></path></g><g transform="translate(90 230) rotate(0 70.50863138695246 -60.51018225038891)"><path d="M12.58 -19.45 C9.83 -12.61, 7.36 -8.47, 2.29 0.83 M11.47 -19.79 C8.85 -11.13, 3.94 -3.34, 1.81 -0.02" stroke="#000000" stroke-width="1" fill="none"></path></g><g transform="translate(90 230) rotate(0 70.50863138695246 -60.51018225038891)"><path d="M145.39 -98.43 C144.13 -102.54, 143.55 -109.29, 142.5 -120.71 M144.28 -98.78 C144.24 -106.86, 142.24 -115.77, 142.01 -121.57" stroke="#000000" stroke-width="1" fill="none"></path></g><g transform="translate(90 230) rotate(0 70.50863138695246 -60.51018225038891)"><path d="M129.96 -101.25 C132.68 -104.74, 136.04 -110.77, 142.5 -120.71 M128.86 -101.59 C134.89 -108.64, 138.94 -116.45, 142.01 -121.57" stroke="#000000" stroke-width="1" fill="none"></path></g></g><g stroke-linecap="round"><g transform="translate(330.6070528342109 131.0873601951916) rotate(0 -0.7879798700720357 59.53092987303154)"><path d="M0.56 -0.03 C-2.89 6.52, -22.98 25.69, -19.92 38.77 C-16.87 51.85, 15.64 65.07, 18.9 78.44 C22.16 91.81, 2.73 112.42, -0.36 119 M-0.61 -1.09 C-4.23 5.69, -23.59 26.8, -20.51 40.23 C-17.43 53.67, 14.45 66.19, 17.87 79.51 C21.29 92.83, 3.09 113.77, 0.02 120.15" stroke="#000000" stroke-width="1" fill="none"></path></g><g transform="translate(330.6070528342109 131.0873601951916) rotate(0 -0.7879798700720357 59.53092987303154)"><path d="M-5.24 22.72 C-3.24 12.83, -1.68 6.16, 0.7 1.6 M-5.39 21.69 C-3.68 16.92, -3.12 11.8, 1.55 -0.71" stroke="#000000" stroke-width="1" fill="none"></path></g><g transform="translate(330.6070528342109 131.0873601951916) rotate(0 -0.7879798700720357 59.53092987303154)"><path d="M-17.78 13.97 C-11.23 7.22, -5.08 3.75, 0.7 1.6 M-17.94 12.94 C-13.57 10.05, -10.28 6.83, 1.55 -0.71" stroke="#000000" stroke-width="1" fill="none"></path></g><g transform="translate(330.6070528342109 131.0873601951916) rotate(0 -0.7879798700720357 59.53092987303154)"><path d="M4.95 99.49 C2.85 105.52, 0.48 114.73, 0.16 121.78 M4.79 98.46 C3.79 103.16, 2.02 107.48, 1.01 119.47" stroke="#000000" stroke-width="1" fill="none"></path></g><g transform="translate(330.6070528342109 131.0873601951916) rotate(0 -0.7879798700720357 59.53092987303154)"><path d="M17.8 107.79 C11.03 110.85, 3.96 117.02, 0.16 121.78 M17.64 106.75 C13.92 109.67, 9.35 112.19, 1.01 119.47" stroke="#000000" stroke-width="1" fill="none"></path></g></g><g stroke-linecap="round" transform="translate(510 230) rotate(0 180 110)"><path d="M-0.6 -0.34 C114.29 0.18, 234.34 -1.08, 358.82 2.4 M0.16 0.15 C101.97 4.51, 203.82 4.78, 361.25 1.1 M357.78 2.56 C365.67 73.35, 361.55 153, 357.26 220.76 M361.09 0.29 C358.67 76.25, 357.21 152.96, 361.48 221.69 M360.79 219.06 C226.18 223.88, 95.13 222.94, 0.77 220.88 M358.87 220.39 C252.68 217.79, 143.55 218.66, -0.34 219.49 M1.59 221.36 C-0.99 164.13, 3.05 108.61, -0.92 -0.33 M0.58 221.17 C-1.81 141.38, -1.87 63.84, 0.43 0.31" stroke="#000000" stroke-width="1" fill="none"></path></g><g transform="translate(270 70) rotate(0 121.5 12.5)"><text x="0" y="18" font-family="Virgil, Segoe UI Emoji" font-size="20px" fill="#1864ab" text-anchor="start" style="white-space: pre;" direction="ltr">HVML Interpreter Server</text></g><g stroke-linecap="round" transform="translate(410 10) rotate(0 50 20)"><path d="M0.76 -0.23 L100.97 1.51 L101.33 39.5 L0.45 41.31" stroke="none" stroke-width="0" fill="#4c6ef5"></path><path d="M0.98 -1.55 C21.07 -2.21, 43.14 -1.06, 101.7 0.42 M0.82 -0.43 C25.88 -0.91, 53.94 0.02, 100.45 0.23 M99.2 1.46 C100.46 10.54, 100.73 16.48, 100.68 40.61 M99.35 0.12 C99.86 12.67, 99.46 25.69, 99.19 40.47 M101.91 39.54 C62.87 40.13, 23.36 38.36, -0.98 38.41 M99.83 39.8 C67.45 38.7, 34.73 40.21, 0.8 39.98 M1.39 39.47 C0.3 29.07, -1.81 16.97, -1.06 1.06 M0.61 39.88 C0.98 23.72, 0.68 9.1, -0.43 -0.61" stroke="#000000" stroke-width="1" fill="none"></path></g><g transform="translate(415 15) rotate(0 45 12.5)"><text x="45" y="18" font-family="Virgil, Segoe UI Emoji" font-size="20px" fill="#000000" text-anchor="middle" style="white-space: pre;" direction="ltr">Runner3</text></g><g stroke-linecap="round" transform="translate(530 10) rotate(0 50 20)"><path d="M1.88 1.86 L99.93 0.28 L99.85 38.89 L-1.09 38.11" stroke="none" stroke-width="0" fill="#4c6ef5"></path><path d="M0.47 -1.66 C36 -2.02, 70.25 1.01, 100.37 1.86 M0.31 0.16 C33.44 0.5, 65.71 -0.22, 99.75 0.02 M100.93 1.76 C101 9.52, 102.07 18.4, 101.68 40.08 M99.2 0.29 C99.12 13.47, 99.49 27.69, 100.34 39.17 M99.97 40.19 C66.59 38.96, 31.26 40.27, 0.63 41.44 M100.53 40.86 C76.57 40.3, 55.43 39.35, 0.64 39.14 M-1.22 40.76 C-0.21 27.6, 1.53 14.6, -0.5 0.45 M-0.09 40.71 C-0.01 24.94, 0.75 11.56, -0.35 -0.31" stroke="#000000" stroke-width="1" fill="none"></path></g><g transform="translate(535 15) rotate(0 45 12.5)"><text x="45" y="18" font-family="Virgil, Segoe UI Emoji" font-size="20px" fill="#000000" text-anchor="middle" style="white-space: pre;" direction="ltr">Runner4</text></g><g stroke-linecap="round"><g transform="translate(110 30) rotate(0 279.01303642064335 56.97229182826216)"><path d="M-0.55 0.96 C12.62 17.94, 53.22 90.59, 77.69 101.42 C102.15 112.24, 125.85 69.44, 146.23 65.91 C166.61 62.39, 183.94 71.67, 199.96 80.26 C215.97 88.85, 224.61 120.32, 242.32 117.43 C260.03 114.54, 283.14 65.49, 306.24 62.93 C329.33 60.36, 361.56 101.49, 380.89 102.02 C400.22 102.54, 402.61 66.15, 422.22 66.06 C441.83 65.97, 481.11 105.61, 498.52 101.49 C515.93 97.36, 516.06 57.95, 526.69 41.32 C537.33 24.69, 556.83 8.3, 562.32 1.71 M-4.3 -0.99 C9.85 15.2, 57.87 86.75, 82.83 97.18 C107.79 107.61, 125.85 63.96, 145.47 61.6 C165.08 59.24, 184.74 73.78, 200.51 83.01 C216.29 92.23, 223.19 120.78, 240.1 116.96 C257.02 113.13, 278.19 62.9, 301.99 60.07 C325.78 57.23, 362 98.85, 382.88 99.93 C403.77 101.01, 407.39 66.71, 427.31 66.56 C447.23 66.41, 486.77 102.18, 502.41 99.03 C518.05 95.87, 512.29 64.74, 521.17 47.62 C530.05 30.5, 549.87 3.97, 555.7 -3.67" stroke="#000000" stroke-width="1" fill="none"></path></g></g><g stroke-linecap="round" transform="translate(210 250) rotate(0 120 80)"><path d="M1.61 1.31 C64.47 0.78, 131.89 -4.1, 239.77 0.07 M-0.27 0.37 C70.68 2.19, 143.38 -0.45, 239.46 1.56 M241.62 -2.45 C242.34 32.95, 240.91 67.44, 236.23 163.39 M238.46 -0.08 C239.86 35.06, 237.62 67.74, 241.34 161.4 M241.53 159.37 C175.08 160.17, 113.65 158.67, -0.53 163.1 M238.48 160.77 C163.62 154.92, 90.05 157.45, 1.13 160.98 M-0.56 161.49 C-3.71 123.21, -1.11 82.21, -1.9 -3.31 M-0.67 160.35 C1.86 121.76, 1.13 78.32, -0.34 -1.08" stroke="#000000" stroke-width="1" fill="none"></path></g><g stroke-linecap="round"><g transform="translate(637.5410376040624 453.9478846214712) rotate(0 50.9614915746522 20.379599756539164)"><path d="M2.71 1.87 C-0.82 8.91, -41.66 35.26, -22.41 41.3 C-3.16 47.34, 97.84 44.77, 118.22 38.11 C138.59 31.46, 102.99 7.91, 99.84 1.35 M0.74 0.42 C-1.83 6.7, -37.87 30.36, -17.31 36.99 C3.25 43.62, 104.47 47.03, 124.08 40.2 C143.69 33.38, 103.66 2.92, 100.34 -3.95" stroke="#000000" stroke-width="1" fill="none"></path></g></g><g stroke-linecap="round" transform="translate(70 450) rotate(0 10 10)"><path d="M20 10 C20 10.58, 19.95 11.17, 19.85 11.74 C19.75 12.31, 19.59 12.88, 19.4 13.42 C19.2 13.96, 18.95 14.5, 18.66 15 C18.37 15.5, 18.03 15.98, 17.66 16.43 C17.29 16.87, 16.87 17.29, 16.43 17.66 C15.98 18.03, 15.5 18.37, 15 18.66 C14.5 18.95, 13.96 19.2, 13.42 19.4 C12.88 19.59, 12.31 19.75, 11.74 19.85 C11.17 19.95, 10.58 20, 10 20 C9.42 20, 8.83 19.95, 8.26 19.85 C7.69 19.75, 7.12 19.59, 6.58 19.4 C6.04 19.2, 5.5 18.95, 5 18.66 C4.5 18.37, 4.02 18.03, 3.57 17.66 C3.13 17.29, 2.71 16.87, 2.34 16.43 C1.97 15.98, 1.63 15.5, 1.34 15 C1.05 14.5, 0.8 13.96, 0.6 13.42 C0.41 12.88, 0.25 12.31, 0.15 11.74 C0.05 11.17, 0 10.58, 0 10 C0 9.42, 0.05 8.83, 0.15 8.26 C0.25 7.69, 0.41 7.12, 0.6 6.58 C0.8 6.04, 1.05 5.5, 1.34 5 C1.63 4.5, 1.97 4.02, 2.34 3.57 C2.71 3.13, 3.13 2.71, 3.57 2.34 C4.02 1.97, 4.5 1.63, 5 1.34 C5.5 1.05, 6.04 0.8, 6.58 0.6 C7.12 0.41, 7.69 0.25, 8.26 0.15 C8.83 0.05, 9.42 0, 10 0 C10.58 0, 11.17 0.05, 11.74 0.15 C12.31 0.25, 12.88 0.41, 13.42 0.6 C13.96 0.8, 14.5 1.05, 15 1.34 C15.5 1.63, 15.98 1.97, 16.43 2.34 C16.87 2.71, 17.29 3.13, 17.66 3.57 C18.03 4.02, 18.37 4.5, 18.66 5 C18.95 5.5, 19.2 6.04, 19.4 6.58 C19.59 7.12, 19.75 7.69, 19.85 8.26 C19.95 8.83, 19.97 9.71, 20 10 C20.03 10.29, 20.03 9.71, 20 10" stroke="none" stroke-width="0" fill="#868e96"></path><path d="M20 10 C20 10.58, 19.95 11.17, 19.85 11.74 C19.75 12.31, 19.59 12.88, 19.4 13.42 C19.2 13.96, 18.95 14.5, 18.66 15 C18.37 15.5, 18.03 15.98, 17.66 16.43 C17.29 16.87, 16.87 17.29, 16.43 17.66 C15.98 18.03, 15.5 18.37, 15 18.66 C14.5 18.95, 13.96 19.2, 13.42 19.4 C12.88 19.59, 12.31 19.75, 11.74 19.85 C11.17 19.95, 10.58 20, 10 20 C9.42 20, 8.83 19.95, 8.26 19.85 C7.69 19.75, 7.12 19.59, 6.58 19.4 C6.04 19.2, 5.5 18.95, 5 18.66 C4.5 18.37, 4.02 18.03, 3.57 17.66 C3.13 17.29, 2.71 16.87, 2.34 16.43 C1.97 15.98, 1.63 15.5, 1.34 15 C1.05 14.5, 0.8 13.96, 0.6 13.42 C0.41 12.88, 0.25 12.31, 0.15 11.74 C0.05 11.17, 0 10.58, 0 10 C0 9.42, 0.05 8.83, 0.15 8.26 C0.25 7.69, 0.41 7.12, 0.6 6.58 C0.8 6.04, 1.05 5.5, 1.34 5 C1.63 4.5, 1.97 4.02, 2.34 3.57 C2.71 3.13, 3.13 2.71, 3.57 2.34 C4.02 1.97, 4.5 1.63, 5 1.34 C5.5 1.05, 6.04 0.8, 6.58 0.6 C7.12 0.41, 7.69 0.25, 8.26 0.15 C8.83 0.05, 9.42 0, 10 0 C10.58 0, 11.17 0.05, 11.74 0.15 C12.31 0.25, 12.88 0.41, 13.42 0.6 C13.96 0.8, 14.5 1.05, 15 1.34 C15.5 1.63, 15.98 1.97, 16.43 2.34 C16.87 2.71, 17.29 3.13, 17.66 3.57 C18.03 4.02, 18.37 4.5, 18.66 5 C18.95 5.5, 19.2 6.04, 19.4 6.58 C19.59 7.12, 19.75 7.69, 19.85 8.26 C19.95 8.83, 19.97 9.71, 20 10 C20.03 10.29, 20.03 9.71, 20 10" stroke="#000000" stroke-width="1" fill="none"></path></g><g stroke-linecap="round" transform="translate(410 310) rotate(0 10 10)"><path d="M20 10 C20 10.58, 19.95 11.17, 19.85 11.74 C19.75 12.31, 19.59 12.88, 19.4 13.42 C19.2 13.96, 18.95 14.5, 18.66 15 C18.37 15.5, 18.03 15.98, 17.66 16.43 C17.29 16.87, 16.87 17.29, 16.43 17.66 C15.98 18.03, 15.5 18.37, 15 18.66 C14.5 18.95, 13.96 19.2, 13.42 19.4 C12.88 19.59, 12.31 19.75, 11.74 19.85 C11.17 19.95, 10.58 20, 10 20 C9.42 20, 8.83 19.95, 8.26 19.85 C7.69 19.75, 7.12 19.59, 6.58 19.4 C6.04 19.2, 5.5 18.95, 5 18.66 C4.5 18.37, 4.02 18.03, 3.57 17.66 C3.13 17.29, 2.71 16.87, 2.34 16.43 C1.97 15.98, 1.63 15.5, 1.34 15 C1.05 14.5, 0.8 13.96, 0.6 13.42 C0.41 12.88, 0.25 12.31, 0.15 11.74 C0.05 11.17, 0 10.58, 0 10 C0 9.42, 0.05 8.83, 0.15 8.26 C0.25 7.69, 0.41 7.12, 0.6 6.58 C0.8 6.04, 1.05 5.5, 1.34 5 C1.63 4.5, 1.97 4.02, 2.34 3.57 C2.71 3.13, 3.13 2.71, 3.57 2.34 C4.02 1.97, 4.5 1.63, 5 1.34 C5.5 1.05, 6.04 0.8, 6.58 0.6 C7.12 0.41, 7.69 0.25, 8.26 0.15 C8.83 0.05, 9.42 0, 10 0 C10.58 0, 11.17 0.05, 11.74 0.15 C12.31 0.25, 12.88 0.41, 13.42 0.6 C13.96 0.8, 14.5 1.05, 15 1.34 C15.5 1.63, 15.98 1.97, 16.43 2.34 C16.87 2.71, 17.29 3.13, 17.66 3.57 C18.03 4.02, 18.37 4.5, 18.66 5 C18.95 5.5, 19.2 6.04, 19.4 6.58 C19.59 7.12, 19.75 7.69, 19.85 8.26 C19.95 8.83, 19.97 9.71, 20 10 C20.03 10.29, 20.03 9.71, 20 10" stroke="none" stroke-width="0" fill="#868e96"></path><path d="M20 10 C20 10.58, 19.95 11.17, 19.85 11.74 C19.75 12.31, 19.59 12.88, 19.4 13.42 C19.2 13.96, 18.95 14.5, 18.66 15 C18.37 15.5, 18.03 15.98, 17.66 16.43 C17.29 16.87, 16.87 17.29, 16.43 17.66 C15.98 18.03, 15.5 18.37, 15 18.66 C14.5 18.95, 13.96 19.2, 13.42 19.4 C12.88 19.59, 12.31 19.75, 11.74 19.85 C11.17 19.95, 10.58 20, 10 20 C9.42 20, 8.83 19.95, 8.26 19.85 C7.69 19.75, 7.12 19.59, 6.58 19.4 C6.04 19.2, 5.5 18.95, 5 18.66 C4.5 18.37, 4.02 18.03, 3.57 17.66 C3.13 17.29, 2.71 16.87, 2.34 16.43 C1.97 15.98, 1.63 15.5, 1.34 15 C1.05 14.5, 0.8 13.96, 0.6 13.42 C0.41 12.88, 0.25 12.31, 0.15 11.74 C0.05 11.17, 0 10.58, 0 10 C0 9.42, 0.05 8.83, 0.15 8.26 C0.25 7.69, 0.41 7.12, 0.6 6.58 C0.8 6.04, 1.05 5.5, 1.34 5 C1.63 4.5, 1.97 4.02, 2.34 3.57 C2.71 3.13, 3.13 2.71, 3.57 2.34 C4.02 1.97, 4.5 1.63, 5 1.34 C5.5 1.05, 6.04 0.8, 6.58 0.6 C7.12 0.41, 7.69 0.25, 8.26 0.15 C8.83 0.05, 9.42 0, 10 0 C10.58 0, 11.17 0.05, 11.74 0.15 C12.31 0.25, 12.88 0.41, 13.42 0.6 C13.96 0.8, 14.5 1.05, 15 1.34 C15.5 1.63, 15.98 1.97, 16.43 2.34 C16.87 2.71, 17.29 3.13, 17.66 3.57 C18.03 4.02, 18.37 4.5, 18.66 5 C18.95 5.5, 19.2 6.04, 19.4 6.58 C19.59 7.12, 19.75 7.69, 19.85 8.26 C19.95 8.83, 19.97 9.71, 20 10 C20.03 10.29, 20.03 9.71, 20 10" stroke="#000000" stroke-width="1" fill="none"></path></g><g stroke-linecap="round" transform="translate(230 270) rotate(0 80 60)"><path d="M-0.64 -1.07 L161.56 -1.03 L161.02 118.04 L0.31 119.78" stroke="none" stroke-width="0" fill="#fab005"></path><path d="M-1.65 1.56 C57.78 0.08, 114.35 0.11, 161.48 -0.61 M0.81 0.74 C58.06 0.5, 116.92 1.37, 160.13 0.49 M158.92 1.24 C160 28.56, 159.24 52.69, 161.42 121.86 M160.06 0.77 C159.86 44.17, 160.55 85.69, 159.77 119.96 M159.85 120.01 C116.09 120.57, 72.62 122.91, 1.2 121.65 M160.37 119.05 C112.05 120.76, 62.64 121.75, -0.7 119.26 M-1.49 119.37 C2.53 75.96, 0.2 31.58, 0.26 -1.37 M-0.98 119.5 C-0.06 71.85, -1.47 24.57, 0.87 -0.28" stroke="#000000" stroke-width="1" fill="none"></path></g><g transform="translate(235 275) rotate(0 75 25)"><text x="75" y="18" font-family="Virgil, Segoe UI Emoji" font-size="20px" fill="#000000" text-anchor="middle" style="white-space: pre;" direction="ltr">Renderer</text><text x="75" y="43" font-family="Virgil, Segoe UI Emoji" font-size="20px" fill="#000000" text-anchor="middle" style="white-space: pre;" direction="ltr">App</text></g><g stroke-linecap="round" transform="translate(530 250) rotate(0 80 60)"><path d="M0.29 -0.52 L161.19 1.45 L160.91 119.09 L-0.58 120.02" stroke="none" stroke-width="0" fill="#fab005"></path><path d="M-0.15 0.01 C44.14 -2.07, 88.72 0.27, 161.2 1.65 M0.37 -0.95 C48.89 -1.39, 96.32 -0.4, 159.3 -0.74 M158.51 -0.63 C161.05 43.65, 158.72 86.95, 160.26 118.63 M159.02 -0.5 C161.97 47.29, 160.56 95.46, 160.87 119.72 M158.97 121.02 C115.2 121.56, 74.09 120.05, 0.1 119.51 M159.61 120.78 C125.56 119.41, 89.71 119.65, 0.27 119.09 M0.41 120.52 C-0.18 76.78, 0.84 31.29, 0.7 -0.53 M0.82 120.47 C-0.06 83.5, 1.47 45.02, -0.3 -0.27" stroke="#000000" stroke-width="1" fill="none"></path></g><g transform="translate(535 255) rotate(0 75 25)"><text x="75" y="18" font-family="Virgil, Segoe UI Emoji" font-size="20px" fill="#000000" text-anchor="middle" style="white-space: pre;" direction="ltr">Renderer</text><text x="75" y="43" font-family="Virgil, Segoe UI Emoji" font-size="20px" fill="#000000" text-anchor="middle" style="white-space: pre;" direction="ltr">App</text></g><g stroke-linecap="round" transform="translate(670 310) rotate(0 80 60)"><path d="M0.74 -1.73 L158.86 0.44 L158.74 118.56 L0.87 120.86" stroke="none" stroke-width="0" fill="#fab005"></path><path d="M-0.86 -0.92 C32.36 0.21, 64.11 -2.18, 158.93 1.56 M0.16 -0.11 C39.16 1.62, 79.28 0.74, 159.99 0.16 M158.32 -1.94 C159.72 31.81, 159.11 63.78, 161.84 121.3 M160.12 0.97 C159.42 38.79, 160.05 76.98, 159.6 120.14 M161.22 121.99 C97.34 118.54, 37.2 119.43, -0.52 121.19 M159.71 120.01 C100.79 119.71, 40.72 118.51, 0.64 120.43 M-0.53 118.57 C1.24 93.72, 2.48 66.23, -1.45 -1.7 M-0.17 119.07 C1.26 79.93, 1.77 41.44, 0.4 0.99" stroke="#000000" stroke-width="1" fill="none"></path></g><g transform="translate(675 315) rotate(0 75 25)"><text x="75" y="18" font-family="Virgil, Segoe UI Emoji" font-size="20px" fill="#000000" text-anchor="middle" style="white-space: pre;" direction="ltr">Renderer</text><text x="75" y="43" font-family="Virgil, Segoe UI Emoji" font-size="20px" fill="#000000" text-anchor="middle" style="white-space: pre;" direction="ltr">App</text></g><g stroke-linecap="round"><g transform="translate(510 110) rotate(0 39.98538900683633 69.98327003406825)"><path d="M0.27 -0.75 C7.04 6.06, 32.8 26.63, 39.58 40.19 C46.37 53.74, 34.14 63.98, 40.96 80.57 C47.78 97.16, 73.96 129.89, 80.51 139.75 M-1.05 1.47 C6.18 7.98, 34.92 25.47, 41.84 38.34 C48.76 51.21, 33.94 61.64, 40.47 78.7 C47 95.76, 74.61 130.51, 81.03 140.72" stroke="#000000" stroke-width="1" fill="none"></path></g><g transform="translate(510 110) rotate(0 39.98538900683633 69.98327003406825)"><path d="M26.57 9.66 C22.87 9.49, 17.62 6.94, -0.15 -0.3 M27.27 11.1 C19.94 7.05, 11.57 3.53, 0.98 0.22" stroke="#000000" stroke-width="1" fill="none"></path></g><g transform="translate(510 110) rotate(0 39.98538900683633 69.98327003406825)"><path d="M12.5 24.6 C11.9 21.2, 9.65 15.47, -0.15 -0.3 M13.2 26.04 C9.7 17.96, 5.24 10.29, 0.98 0.22" stroke="#000000" stroke-width="1" fill="none"></path></g><g transform="translate(510 110) rotate(0 39.98538900683633 69.98327003406825)"><path d="M55.13 122.16 C62.43 128.06, 68.33 131.71, 80.61 141.17 M55.83 123.6 C63.17 128.04, 69.31 132.58, 81.73 141.69" stroke="#000000" stroke-width="1" fill="none"></path></g><g transform="translate(510 110) rotate(0 39.98538900683633 69.98327003406825)"><path d="M71.9 110.33 C75.54 118.8, 77.86 124.98, 80.61 141.17 M72.6 111.77 C75.34 119.36, 76.82 127.18, 81.73 141.69" stroke="#000000" stroke-width="1" fill="none"></path></g></g><g stroke-linecap="round"><g transform="translate(630.9477572051156 91.18193061724304) rotate(0 59.57795631759336 108.92552406767851)"><path d="M0.34 -1.18 C3.5 5.31, 2.62 22.07, 19.22 38.88 C35.82 55.69, 83.23 69.79, 99.95 99.69 C116.68 129.58, 116.48 198.31, 119.58 218.24 M-0.95 0.81 C2.03 7.51, 1.41 24.24, 18.18 40.4 C34.95 56.57, 82.67 68.03, 99.66 97.8 C116.65 127.57, 116.63 198.69, 120.1 219.03" stroke="#000000" stroke-width="1" fill="none"></path></g><g transform="translate(630.9477572051156 91.18193061724304) rotate(0 59.57795631759336 108.92552406767851)"><path d="M16.74 22.25 C12.82 16.53, 8.46 8.35, -0.64 -1.99 M19.11 22.25 C12.08 14.69, 6.41 7.57, 0.33 -0.52" stroke="#000000" stroke-width="1" fill="none"></path></g><g transform="translate(630.9477572051156 91.18193061724304) rotate(0 59.57795631759336 108.92552406767851)"><path d="M-2.8 28.51 C-0.5 20.74, 1.38 10.57, -0.64 -1.99 M-0.44 28.51 C-0.88 18.76, 0.01 9.54, 0.33 -0.52" stroke="#000000" stroke-width="1" fill="none"></path></g><g transform="translate(630.9477572051156 91.18193061724304) rotate(0 59.57795631759336 108.92552406767851)"><path d="M105.32 191.62 C111.3 202.02, 116.88 210.04, 119.13 218.23 M107.68 191.62 C110.96 200.98, 115.75 210.93, 120.1 219.7" stroke="#000000" stroke-width="1" fill="none"></path></g><g transform="translate(630.9477572051156 91.18193061724304) rotate(0 59.57795631759336 108.92552406767851)"><path d="M125.75 189.73 C125.22 200.79, 124.3 209.41, 119.13 218.23 M128.12 189.73 C124.52 199.82, 122.46 210.41, 120.1 219.7" stroke="#000000" stroke-width="1" fill="none"></path></g></g></svg>