<svg version="1.1" xmlns="http://www.w3.org/2000/svg" viewBox="0 0 679 345" width="679" height="345">
  <!-- svg-source:excalidraw -->
  
  <defs>
    <style>
      @font-face {
        font-family: "Virgil";
        src: url("https://excalidraw.com/Virgil.woff2");
      }
      @font-face {
        font-family: "Cascadia";
        src: url("https://excalidraw.com/Cascadia.woff2");
      }
    </style>
  </defs>
  <rect x="0" y="0" width="679" height="345" fill="#ffffff"></rect><g stroke-linecap="round" transform="translate(50 50) rotate(0 50 20)"><path d="M0.25 -0.26 L98.01 0.78 L100.43 41.74 L0.19 40.94" stroke="none" stroke-width="0" fill="#4c6ef5"></path><path d="M-1.45 -0.32 C34.7 -1.5, 68.62 -0.43, 100.08 1.3 M-0.46 -0.98 C27.23 0, 55.97 0.34, 100.05 -0.3 M101.62 -1.84 C101.31 8.57, 101.52 19.4, 99.81 38.25 M100.56 0.2 C100.6 9.9, 100.46 17.38, 100.15 40.97 M101.76 38.44 C63.19 39.74, 23.2 42.07, -0.3 39.07 M99.03 40.08 C73.35 38.69, 47.61 39.28, 0.7 39.51 M0.91 40.62 C-1.97 28.57, -2 16.65, -0.1 0.01 M0.76 39.71 C0.18 30.13, -0.46 18.38, 0.49 -0.77" stroke="#000000" stroke-width="1" fill="none"></path></g><g transform="translate(55 55) rotate(0 45 12.5)"><text x="45" y="18" font-family="Virgil, Segoe UI Emoji" font-size="20px" fill="#000000" text-anchor="middle" style="white-space: pre;" direction="ltr">Runner1</text></g><g stroke-linecap="round" transform="translate(50 130) rotate(0 50 20)"><path d="M-0.49 -0.98 L98.08 0.33 L98.96 41.29 L-1.93 40.96" stroke="none" stroke-width="0" fill="#4c6ef5"></path><path d="M0.86 -1.44 C37.9 0.47, 72.19 1.02, 98.17 1.84 M0.77 0.35 C30.24 0.03, 59.45 1.18, 99.85 -0.17 M99.74 -1.99 C100.48 14.37, 101.43 28.07, 100.94 41.16 M99.49 -0.21 C99.09 7.96, 98.87 16.03, 100.47 39.22 M99.86 38.72 C77.83 42.03, 58.35 39.35, 0.28 39.56 M100.51 40.25 C63.74 40.9, 27.37 40.91, 0.27 40.34 M1.4 38.54 C-1.16 23.37, -0.71 8.72, -1.41 -0.95 M0.52 39.93 C-0.35 25.02, 0.7 10.29, 0.91 0.22" stroke="#000000" stroke-width="1" fill="none"></path></g><g transform="translate(55 135) rotate(0 45 12.5)"><text x="45" y="18" font-family="Virgil, Segoe UI Emoji" font-size="20px" fill="#000000" text-anchor="middle" style="white-space: pre;" direction="ltr">Runner2</text></g><g stroke-linecap="round" transform="translate(30 30) rotate(0 100 120)"><path d="M-0.51 0.83 C62.06 4.83, 126.58 2.62, 197.18 3.38 M1.7 -0.28 C75.05 -0.05, 148.61 1.9, 199.44 0.16 M202.9 1.44 C204.52 56.48, 199.09 112.35, 201.84 237.94 M200.37 0.82 C201.51 58.34, 203.37 113.71, 200.49 239.47 M203.52 242.56 C150.73 244.19, 103.07 241.74, -0.25 243.51 M200.62 239.98 C119.48 240.25, 40.14 241.65, 0.51 239.87 M-1.35 238.26 C-4.35 191.26, -0.94 139, -3.02 -1.31 M-0.16 240.9 C4.18 160.66, 3.31 84.72, 1.39 -0.66" stroke="#000000" stroke-width="1" fill="none"></path></g><g stroke-linecap="round"><g transform="translate(150.08637456650848 73.8458227133658) rotate(0 110.46544410369819 -3.0922934334805348)"><path d="M0.9 0.26 C11 3.23, 36.71 19.12, 60.07 18.94 C83.43 18.76, 114.32 6.18, 141.06 -0.81 C167.79 -7.81, 207.28 -19.36, 220.48 -23.01 M-0.09 -0.65 C9.92 2.45, 35.71 17.31, 59.2 16.94 C82.7 16.56, 113.92 4.1, 140.89 -2.91 C167.86 -9.92, 208.01 -21.38, 221.02 -25.13" stroke="#000000" stroke-width="1" fill="none"></path></g><g transform="translate(150.08637456650848 73.8458227133658) rotate(0 110.46544410369819 -3.0922934334805348)"><path d="M31.32 1.52 C23.58 3.14, 16.31 1.91, 2.29 0.83 M30.21 1.18 C20.07 1.69, 7.82 1.25, 1.81 -0.02" stroke="#000000" stroke-width="1" fill="none"></path></g><g transform="translate(150.08637456650848 73.8458227133658) rotate(0 110.46544410369819 -3.0922934334805348)"><path d="M23.66 20.56 C17.7 17.25, 12.39 11.15, 2.29 0.83 M22.55 20.22 C15.28 13.22, 6.03 5.31, 1.81 -0.02" stroke="#000000" stroke-width="1" fill="none"></path></g><g transform="translate(150.08637456650848 73.8458227133658) rotate(0 110.46544410369819 -3.0922934334805348)"><path d="M197.17 -7.26 C203.15 -10.3, 209.77 -15.77, 222.41 -24.56 M196.06 -7.6 C207.1 -13.86, 216.14 -20.82, 221.93 -25.41" stroke="#000000" stroke-width="1" fill="none"></path></g><g transform="translate(150.08637456650848 73.8458227133658) rotate(0 110.46544410369819 -3.0922934334805348)"><path d="M191.53 -26.99 C199.14 -25.03, 207.2 -25.45, 222.41 -24.56 M190.42 -27.33 C203.82 -25.87, 215.07 -25.09, 221.93 -25.41" stroke="#000000" stroke-width="1" fill="none"></path></g></g><g transform="translate(10 310) rotate(0 133.5 12.5)"><text x="0" y="18" font-family="Virgil, Segoe UI Emoji" font-size="20px" fill="#1864ab" text-anchor="start" style="white-space: pre;" direction="ltr">HVML Interpreter Instance</text></g><g stroke-linecap="round" transform="translate(50 210) rotate(0 50 20)"><path d="M0.76 -0.23 L100.97 1.51 L101.33 39.5 L0.45 41.31" stroke="none" stroke-width="0" fill="#4c6ef5"></path><path d="M0.98 -1.55 C21.07 -2.21, 43.14 -1.06, 101.7 0.42 M0.82 -0.43 C25.88 -0.91, 53.94 0.02, 100.45 0.23 M99.2 1.46 C100.46 10.54, 100.73 16.48, 100.68 40.61 M99.35 0.12 C99.86 12.67, 99.46 25.69, 99.19 40.47 M101.91 39.54 C62.87 40.13, 23.36 38.36, -0.98 38.41 M99.83 39.8 C67.45 38.7, 34.73 40.21, 0.8 39.98 M1.39 39.47 C0.3 29.07, -1.81 16.97, -1.06 1.06 M0.61 39.88 C0.98 23.72, 0.68 9.1, -0.43 -0.61" stroke="#000000" stroke-width="1" fill="none"></path></g><g transform="translate(55 215) rotate(0 45 12.5)"><text x="45" y="18" font-family="Virgil, Segoe UI Emoji" font-size="20px" fill="#000000" text-anchor="middle" style="white-space: pre;" direction="ltr">Runner3</text></g><g stroke-linecap="round"><g transform="translate(150.94775720511564 231.62944762106622) rotate(0 109.57795631759336 -20.392719703852663)"><path d="M0.34 -1.18 C13.44 -8.04, 52.28 -38.03, 78.88 -41.21 C105.48 -44.4, 136.5 -26.81, 159.95 -20.31 C183.4 -13.81, 209.81 -5.4, 219.58 -2.21 M-0.95 0.81 C11.97 -5.84, 51.07 -35.86, 77.84 -39.69 C104.61 -43.53, 135.95 -28.58, 159.66 -22.2 C183.37 -15.82, 209.96 -5.02, 220.1 -1.41" stroke="#000000" stroke-width="1" fill="none"></path></g><g transform="translate(150.94775720511564 231.62944762106622) rotate(0 109.57795631759336 -20.392719703852663)"><path d="M17.3 -24.74 C13.17 -15.48, 8.64 -8.69, -0.64 -1.99 M19.67 -24.74 C12.29 -16.52, 6.43 -7.87, 0.33 -0.52" stroke="#000000" stroke-width="1" fill="none"></path></g><g transform="translate(150.94775720511564 231.62944762106622) rotate(0 109.57795631759336 -20.392719703852663)"><path d="M27.83 -7.13 C20.35 -3.45, 12.47 -2.27, -0.64 -1.99 M30.19 -7.12 C19.35 -4.77, 9.95 -2.03, 0.33 -0.52" stroke="#000000" stroke-width="1" fill="none"></path></g><g transform="translate(150.94775720511564 231.62944762106622) rotate(0 109.57795631759336 -20.392719703852663)"><path d="M188.13 -1.95 C199.61 -0.17, 210.67 -0.71, 219.13 -2.22 M190.5 -1.95 C199.63 -1.69, 210.2 -0.76, 220.1 -0.75" stroke="#000000" stroke-width="1" fill="none"></path></g><g transform="translate(150.94775720511564 231.62944762106622) rotate(0 109.57795631759336 -20.392719703852663)"><path d="M195.31 -21.18 C204.49 -13.25, 213.26 -7.66, 219.13 -2.22 M197.68 -21.18 C204.34 -14.43, 212.49 -7.05, 220.1 -0.75" stroke="#000000" stroke-width="1" fill="none"></path></g></g><g transform="translate(490 230) rotate(0 89.5 25)"><text x="89.5" y="18" font-family="Virgil, Segoe UI Emoji" font-size="20px" fill="#000000" text-anchor="middle" style="white-space: pre;" direction="ltr">Headless Renderer</text><text x="89.5" y="43" font-family="Virgil, Segoe UI Emoji" font-size="20px" fill="#000000" text-anchor="middle" style="white-space: pre;" direction="ltr">discard</text></g><g stroke-linecap="round" transform="translate(400.5555555555552 204.58333333333326) rotate(0 34.375 52.70833333333337)"><path d="M18.21 -0.83 L55.02 -1.4 L65.2 3.89 L66.35 9.48 L68.8 18.91 L68.26 93.34 L65.98 100.53 L58.31 103.49 L11.93 103.8 L4.77 102.46 L0.34 97.1 L1.86 88.12 L1.76 14.7 L5.11 3.07 L10.07 2.32 L18.81 -1.13" stroke="none" stroke-width="0" fill="#868e96"></path><path d="M17.19 0 M17.19 0 C29.45 0.94, 42.57 -1.35, 51.56 0 M17.19 0 C26.8 0.53, 37.17 0.97, 51.56 0 M51.56 0 C64.79 1.78, 68.41 4.38, 68.75 17.19 M51.56 0 C63.59 0.69, 68.77 4.39, 68.75 17.19 M68.75 17.19 C69.25 41.68, 69.07 68.04, 68.75 88.23 M68.75 17.19 C68.62 34.77, 69.38 52.91, 68.75 88.23 M68.75 88.23 C67.88 99.38, 61.36 107.3, 51.56 105.42 M68.75 88.23 C69.64 101.89, 63.55 103.63, 51.56 105.42 M51.56 105.42 C43.6 105.6, 35.21 103.7, 17.19 105.42 M51.56 105.42 C38.07 105.69, 27.15 105.97, 17.19 105.42 M17.19 105.42 C6.39 105.16, -1.04 99.76, 0 88.23 M17.19 105.42 C6.92 104.65, -1.09 101.67, 0 88.23 M0 88.23 C-0.26 69.48, -2.42 46.33, 0 17.19 M0 88.23 C-0.08 65.37, 0.36 41.97, 0 17.19 M0 17.19 C-0.72 4.35, 4.1 -1.81, 17.19 0 M0 17.19 C0.78 7.4, 6.14 0.34, 17.19 0" stroke="#000000" stroke-width="1" fill="none"></path></g><g stroke-linecap="round" transform="translate(390 196.66666666666652) rotate(0 43.26388888888869 8.414317462064275)"><path d="M3.38 -0.57 L82.49 1.01 L85.86 1.04 L86.08 14.52 L84.04 16.61 L3.45 16.21 L2.09 13.69 L-0.85 2.98 L-0.3 -0.89 L3.67 -0.74" stroke="none" stroke-width="0" fill="#868e96"></path><path d="M4.21 0 M4.21 0 C34.42 1.58, 62.46 -1.18, 82.32 0 M4.21 0 C28.64 0.12, 54.69 -0.84, 82.32 0 M82.32 0 C84.49 0.87, 86.11 -0.02, 86.53 4.21 M82.32 0 C85 1.3, 84.77 0.22, 86.53 4.21 M86.53 4.21 C87.25 7.7, 86.36 9.13, 86.53 12.62 M86.53 4.21 C86.31 7.2, 86.21 9.97, 86.53 12.62 M86.53 12.62 C87.6 14.14, 86.02 16.13, 82.32 16.83 M86.53 12.62 C85.27 15.53, 83.35 16.46, 82.32 16.83 M82.32 16.83 C56.82 17.2, 31.39 19.39, 4.21 16.83 M82.32 16.83 C55.08 16.17, 28.52 17.53, 4.21 16.83 M4.21 16.83 C0.86 16.83, -1.52 13.53, 0 12.62 M4.21 16.83 C2.95 17.58, -1.49 13.42, 0 12.62 M0 12.62 C0.21 9.57, -0.51 6.76, 0 4.21 M0 12.62 C0.39 9.59, 0.44 6.49, 0 4.21 M0 4.21 C0.44 2.85, -0.31 -1.5, 4.21 0 M0 4.21 C0.64 1.1, 0.65 -0.39, 4.21 0" stroke="#000000" stroke-width="1" fill="none"></path></g><g stroke-linecap="round" transform="translate(406.66666666666595 190) rotate(0 27.708333333333087 3.2638888888888573)"><path d="M1.06 -1.67 L54.53 -0.4 L53.68 0.22 L55.47 6.61 L53.56 7.61 L1.28 8.35 L-0.77 4.05 L-0.82 -0.94 L-0.31 -0.54" stroke="none" stroke-width="0" fill="#868e96"></path><path d="M1.63 0 M1.63 0 C15.24 1, 30.61 0.32, 53.78 0 M1.63 0 C14.9 -0.89, 27.3 0.15, 53.78 0 M53.78 0 C54.47 -0.64, 56.29 0.12, 55.42 1.63 M53.78 0 C53.24 -0.13, 56.72 -1.21, 55.42 1.63 M55.42 1.63 C55.66 2.73, 55.72 3.2, 55.42 4.9 M55.42 1.63 C55.43 2.3, 55.53 3.02, 55.42 4.9 M55.42 4.9 C56.83 7.06, 53.59 7.43, 53.78 6.53 M55.42 4.9 C54.61 4.73, 54.98 4.75, 53.78 6.53 M53.78 6.53 C40.71 5.97, 23.84 5.17, 1.63 6.53 M53.78 6.53 C33.47 6.25, 11.84 6.16, 1.63 6.53 M1.63 6.53 C1.58 5.98, 0 4.46, 0 4.9 M1.63 6.53 C-1.64 8.07, 0.75 4.5, 0 4.9 M0 4.9 C0.24 4.31, -0.06 3.34, 0 1.63 M0 4.9 C-0.09 4.05, -0.04 3.07, 0 1.63 M0 1.63 C-0.98 0.98, 1.99 -1.72, 1.63 0 M0 1.63 C-1.73 1.19, 0.24 -0.75, 1.63 0" stroke="#000000" stroke-width="1" fill="none"></path></g><g stroke-linecap="round"><g transform="translate(415.3872152747101 226.4701967782778) rotate(0 1.1617711987885855 31.298513076851975)"><path d="M-0.24 -0.8 C0.62 9.43, 3.23 51.43, 4.15 61.84 M-1.83 1.4 C-1.05 11.8, 1.99 53.14, 3.14 63.39" stroke="#000000" stroke-width="1" fill="none"></path></g></g><g stroke-linecap="round"><g transform="translate(433.14809520670383 228.95671996875683) rotate(0 1.7487251528380057 30.811353639780464)"><path d="M-0.8 -0.11 C-0.16 10.4, 3.47 52.41, 4.29 62.84 M0.98 -1.22 C1.43 9, 2.98 50.98, 3.36 61.26" stroke="#000000" stroke-width="1" fill="none"></path></g></g><g stroke-linecap="round"><g transform="translate(451.9746279346173 231.79846075787566) rotate(0 1.8319607579502417 31.0734018812812)"><path d="M-0.11 0.03 C0.81 10.44, 4.46 51.42, 5.29 61.68 M-1.63 -1 C-0.75 9.68, 3.87 52.51, 4.89 63.14" stroke="#000000" stroke-width="1" fill="none"></path></g></g><g stroke-linecap="round" transform="translate(406.9425223214296 25.273995535714107) rotate(0 35.339290345615666 53.6254093970546)"><path d="M1.8 1.4 L69.62 0.49 L69.68 106.08 L-0.55 107.33" stroke="none" stroke-width="0" fill="#fff"></path><path d="M-0.05 1.01 C28.16 1.16, 56.68 1.87, 69.36 1.34 M-0.28 -0.54 C28.36 0.85, 56.39 -0.18, 69.92 -0.57 M71.93 0.89 C70.96 32.92, 69.4 66.17, 71.79 107.74 M70.85 -0.58 C70.62 31.83, 71.07 64.17, 71.01 106.39 M71.36 107.44 C46.27 106.23, 17.03 108.19, -1.51 106.49 M71.29 108.03 C52.04 106.15, 32.44 105.89, -0.87 107.27 M0.26 107.25 C0.35 66.04, -0.81 22.22, -0.52 -1.39 M0.64 108.25 C-1.51 64.9, 0.35 22.63, 0.52 0.46" stroke="#000000" stroke-width="2" fill="none"></path></g><g stroke-linecap="round" transform="translate(399.39508928571536 18.253906249999773) rotate(0 35.339290345615666 53.6254093970546)"><path d="M1.4 -1.06 L71.17 -1 L69.51 106.7 L0.08 107.02" stroke="none" stroke-width="0" fill="#fff"></path><path d="M1.01 0.11 C15.98 0.61, 31.75 -1.3, 72.02 1.94 M-0.54 0.3 C25.21 0.45, 48.85 -0.56, 70.11 0.13 M71.57 1.23 C70.6 22.44, 70.26 46.67, 71.17 107.27 M70.1 -0.91 C70.02 40.26, 70.07 81.76, 69.82 107.92 M70.87 108.78 C53.33 105.73, 38.76 105.98, -0.76 106.75 M71.46 108.04 C55.31 108.31, 40.39 106.82, 0.02 108.17 M0 107.22 C1.16 77.73, -0.59 50.06, -1.39 1.82 M1 106.32 C-1.33 70.24, -1.64 31.9, 0.46 0.9" stroke="#000000" stroke-width="2" fill="none"></path></g><g stroke-linecap="round" transform="translate(390 10) rotate(0 35.339290345615666 53.6254093970546)"><path d="M-1.06 0.49 L69.68 -1.17 L70.13 107.33 L-0.23 109.07" stroke="none" stroke-width="0" fill="#fff"></path><path d="M0.11 0.93 C19.48 1.29, 36.46 0.98, 72.62 0.98 M0.3 0.54 C18.29 -0.11, 35.32 -0.19, 70.81 -0.88 M71.9 -0.67 C71.02 37.06, 72.46 76.63, 70.7 108.84 M69.77 -0.46 C70.4 29.78, 71.2 59.53, 71.35 106.59 M72.21 106.44 C49.81 108.47, 30.96 106.56, -0.5 105.4 M71.47 106.54 C54.04 106.84, 35.29 107.82, 0.92 106.89 M-0.03 108.12 C-1.33 77.07, -0.66 47.26, 1.82 1.07 M-0.93 106.85 C0.24 65.09, -0.17 24.81, 0.9 0.7" stroke="#000000" stroke-width="2" fill="none"></path></g><g stroke-linecap="round"><g transform="translate(401.98642658691097 58.747237047352655) rotate(0 23.452997278263183 -1.4680307657722267)"><path d="M0.07 0.56 C6.87 0.65, 33.16 1.62, 40.78 1.14 C48.4 0.67, 44.63 -1.68, 45.79 -2.29 M-1.36 -0.2 C5.32 -0.48, 31.75 0.21, 40.02 -0.46 C48.29 -1.13, 47.44 -3.49, 48.27 -4.21" stroke="#000000" stroke-width="1" fill="none"></path></g></g><g stroke-linecap="round"><g transform="translate(403.84167882492534 27.281949748514137) rotate(0 22.88047525385656 -1.3795632687571242)"><path d="M0.56 0.35 C3.43 -0.26, 10.18 -3.68, 17.82 -3.6 C25.45 -3.51, 41.65 0.38, 46.37 0.84 M-0.61 -0.51 C2.13 -0.99, 9.62 -2.41, 17.39 -2.47 C25.16 -2.54, 41.14 -1.3, 46.03 -0.89" stroke="#000000" stroke-width="1" fill="none"></path></g></g><g stroke-linecap="round"><g transform="translate(403.76507930855587 94.6763240188713) rotate(0 23.439914498824123 0.32926893423044135)"><path d="M0.35 0.99 C4.61 0.98, 19.21 0.23, 25.62 0.55 C32.03 0.87, 35.09 3.38, 38.79 2.9 C42.48 2.43, 46.31 -1.55, 47.8 -2.31 M-0.92 0.46 C3.72 0.07, 21.32 -1.22, 27.92 -1.15 C34.51 -1.08, 35.32 0.91, 38.63 0.87 C41.94 0.83, 45.95 -1.06, 47.76 -1.38" stroke="#000000" stroke-width="1" fill="none"></path></g></g><g stroke-linecap="round"><g transform="translate(400.58103212702554 105.91947242715008) rotate(0 27.402961274075324 -0.12245289858233832)"><path d="M0.99 -0.79 C2.72 -0.85, 8.35 0.1, 10.97 0 C13.59 -0.1, 10.89 -1.37, 16.72 -1.38 C22.54 -1.38, 39.58 0.01, 45.92 -0.03 C52.26 -0.08, 53.3 -1.17, 54.76 -1.65 M0.04 1.41 C1.64 1.01, 7.74 -1.22, 10.44 -1.51 C13.15 -1.8, 10.34 -0.72, 16.26 -0.34 C22.19 0.03, 39.79 0.83, 45.99 0.73 C52.19 0.64, 52.37 -0.7, 53.48 -0.92" stroke="#000000" stroke-width="1" fill="none"></path></g></g><g stroke-linecap="round"><g transform="translate(400.86587502259135 42.3425513017753) rotate(0 22.79941028502452 0.4027730854685103)"><path d="M-0.79 0.8 C2.38 0.64, 11.5 -0.13, 19.36 0 C27.22 0.12, 41.9 1.17, 46.39 1.54 M0.99 0.18 C4.07 -0.42, 11.63 -2.23, 19.02 -1.82 C26.41 -1.4, 40.82 1.79, 45.34 2.68" stroke="#000000" stroke-width="1" fill="none"></path></g></g><g stroke-linecap="round"><g transform="translate(400.9733632187417 76.82588033761493) rotate(0 23.741446878832335 0.6344318102130728)"><path d="M0.8 1.17 C2.09 1.45, 5.84 1.29, 8.68 0.89 C11.52 0.49, 11.42 -1.51, 17.85 -1.24 C24.29 -0.96, 42.39 2.11, 47.28 2.53 M-0.23 0.73 C0.86 1.24, 5.19 2.31, 8.04 2.15 C10.9 1.98, 10.3 0.05, 16.91 -0.26 C23.52 -0.56, 42.88 0.04, 47.72 0.31" stroke="#000000" stroke-width="1" fill="none"></path></g></g><g transform="translate(490 50) rotate(0 89.5 25)"><text x="89.5" y="18" font-family="Virgil, Segoe UI Emoji" font-size="20px" fill="#000000" text-anchor="middle" style="white-space: pre;" direction="ltr">Headless Renderer</text><text x="89.5" y="43" font-family="Virgil, Segoe UI Emoji" font-size="20px" fill="#000000" text-anchor="middle" style="white-space: pre;" direction="ltr">dump</text></g></svg>