<svg version="1.1" xmlns="http://www.w3.org/2000/svg" viewBox="0 0 891.5 585" width="891.5" height="585">
  <!-- svg-source:excalidraw -->
  
  <defs>
    <style>
      @font-face {
        font-family: "Virgil";
        src: url("https://excalidraw.com/Virgil.woff2");
      }
      @font-face {
        font-family: "Cascadia";
        src: url("https://excalidraw.com/Cascadia.woff2");
      }
    </style>
  </defs>
  <rect x="0" y="0" width="891.5" height="585" fill="#ffffff"></rect><g stroke-linecap="round" transform="translate(130 10) rotate(0 130 110)"><path d="M-1.68 -2.89 C61.57 -1.16, 129.99 -1.77, 262.28 2.77 M-1.07 1.03 C100.34 -0.66, 201.72 1.27, 261.39 1.45 M260.23 0.57 C262.99 64.55, 259.9 127.77, 261.59 218.89 M260.95 -0.85 C258.74 82.92, 258.69 166.51, 259.13 218.63 M257.56 221.51 C207.05 218.75, 152.92 219.53, 1.88 220 M260.27 219.02 C181.99 223.97, 104.52 223.52, -0.85 220.19 M-0.61 217.11 C0.53 173.14, -4.78 128.28, 1.66 -0.93 M-0.01 218.85 C0.45 145.75, 0.45 71.71, -0.92 -0.89" stroke="#000000" stroke-width="2" fill="none"></path></g><g stroke-linecap="round" transform="translate(150 30) rotate(0 50 50)"><path d="M-3.17 3.25 L99.47 2.81 L97.76 97.66 L1.87 103.75" stroke="none" stroke-width="0" fill="#228be6"></path><path d="M-2.47 3.01 C28.52 0.11, 53.99 2.98, 100.59 1.56 M-0.37 -1.16 C27.92 -2.06, 53.93 -1.1, 100.7 -0.1 M99.17 -1.01 C99.81 24.91, 102.56 53.31, 96.88 100.59 M100.68 0.79 C100.49 25.48, 100.06 51.94, 99.72 99.61 M101.54 98.16 C67.17 100.19, 26.25 98.87, -2.17 100.9 M100.09 101.44 C63.8 103.18, 28.58 102.88, 0.24 101.06 M3.32 97.53 C-5.5 64.34, -3.05 32.01, 1.84 -2.99 M-1.61 98.11 C-2.4 68.46, -1.5 37.17, 1.81 1.93" stroke="#000000" stroke-width="2" fill="none"></path></g><g stroke-linecap="round" transform="translate(590 90) rotate(0 70 50)"><path d="M-3.63 -1.7 L142.09 2.97 L142.66 99.75 L-1.93 97.66" stroke="none" stroke-width="0" fill="#228be6"></path><path d="M2.9 3.36 C34.58 1.12, 69.01 1.24, 142.36 2.4 M1.52 1.47 C45.33 -2.13, 85.34 -2.12, 139.23 -0.78 M142.07 -1.78 C135.29 30.82, 135.78 69.34, 139.07 100.81 M141.62 -0.27 C143.33 37.95, 140.75 79.08, 141.88 100.17 M141.76 97.03 C100.61 102.63, 58.31 102.32, 0.53 96.55 M140.87 100.19 C100.23 98.66, 58.77 99.43, -0.63 100.61 M-1.14 97.81 C0.94 66.98, -0.39 31.37, 2.18 3.85 M-1.65 101.6 C-3.01 74.81, -1.85 46.61, -1.33 -1.94" stroke="#000000" stroke-width="2" fill="none"></path></g><g transform="translate(155 35) rotate(0 45 12.5)"><text x="45" y="18" font-family="Virgil, Segoe UI Emoji" font-size="20px" fill="#000000" text-anchor="middle" style="white-space: pre;" direction="ltr">WinA-1</text></g><g transform="translate(595 95) rotate(0 65 12.5)"><text x="65" y="18" font-family="Virgil, Segoe UI Emoji" font-size="20px" fill="#000000" text-anchor="middle" style="white-space: pre;" direction="ltr">WinA-2</text></g><g stroke-linecap="round" transform="translate(430 30) rotate(0 90 70)"><path d="M3.58 3.89 L183.47 2.87 L176.02 137.96 L0.84 140.09" stroke="none" stroke-width="0" fill="#15aabf"></path><path d="M1.22 -0.78 C36.98 0.1, 75.51 0.76, 180.18 1.51 M-1.99 -1.06 C69.46 3.14, 139.04 1.03, 181.87 -0.21 M180.27 -3.84 C185.52 45.47, 185.73 91.12, 178.34 138.84 M178.36 -0.93 C180.21 46.57, 181.38 92.7, 178.66 141.61 M181.53 136.89 C119.23 140.14, 64.74 144.14, -1.1 140.89 M181.89 139.71 C114.84 140.85, 50.95 138.84, -0.38 138.22 M-0.87 141.72 C1.97 92.11, 5.7 36.19, -2.45 -2.84 M-1.68 141.23 C0.59 93.83, -0.13 42.21, 0.81 -1.76" stroke="#000000" stroke-width="2" fill="none"></path></g><g stroke-linecap="round" transform="translate(210 70) rotate(0 80 60)"><path d="M-0.64 -1.36 L157.21 -0.14 L162.22 116.62 L1.75 122.82" stroke="none" stroke-width="0" fill="#15aabf"></path><path d="M1.77 -3.06 C29.65 5.05, 63.77 2.81, 162.6 -2.67 M-0.88 1.96 C47.42 -3.79, 97.59 -2.29, 160 -0.65 M159.76 2.75 C157.52 23.51, 162.1 53.38, 157.92 123.53 M158.48 0.95 C158.62 40.05, 158.58 82.35, 158.55 120.26 M160.76 119.34 C93.64 117.96, 30.26 121.3, -3.58 119.19 M161.56 121.6 C114.58 118.35, 69.5 120.41, -0.57 118.58 M3.49 118.15 C-5.4 95.73, -4.99 71.8, 3.89 3.47 M0.42 120.05 C4.3 73.95, 3.75 28.96, -1.7 1.49" stroke="#000000" stroke-width="2" fill="none"></path></g><g transform="translate(215 75) rotate(0 75 12.5)"><text x="75" y="18" font-family="Virgil, Segoe UI Emoji" font-size="20px" fill="#000000" text-anchor="middle" style="white-space: pre;" direction="ltr">WiinB-2</text></g><g transform="translate(435 35) rotate(0 85 12.5)"><text x="85" y="18" font-family="Virgil, Segoe UI Emoji" font-size="20px" fill="#000000" text-anchor="middle" style="white-space: pre;" direction="ltr">WinB-1</text></g><g stroke-linecap="round" transform="translate(70 390) rotate(0 170 70)"><path d="M-1.68 -0.43 C119.59 -1.64, 237.61 -2.07, 341 1.7 M-0.58 0.44 C69.56 -1.92, 139.81 -2.71, 340.73 1.2 M337.65 -3.17 C344.58 44.3, 339.3 94.63, 343.86 136.43 M341.61 1.04 C344.06 30.89, 343.52 59.51, 339.9 139.68 M339.13 140.21 C242.47 137.44, 142.03 135.46, -2.08 137.52 M340.23 140.53 C270.2 139.43, 197.92 140.78, -0.13 138.95 M2.77 141.08 C4.78 89.37, -1.75 35.19, -0.05 -2.57 M-0.23 140.5 C0.73 102.19, 0.7 67.85, -0.5 -0.31" stroke="#000000" stroke-width="2" fill="none"></path></g><g stroke-linecap="round" transform="translate(250 410) rotate(0 70 50)"><path d="M2.87 0.85 L141.96 0.68 L138.38 101.34 L0 98.79" stroke="none" stroke-width="0" fill="#228be6"></path><path d="M1.17 -3.44 C37.56 2.61, 76.3 -3.52, 138.02 0.85 M1.64 -0.29 C43.43 -3.72, 85.43 0.03, 138.76 0.39 M142.7 1.86 C141.14 29.7, 140.46 67.92, 142.14 100.7 M138.79 -0.69 C138.62 22.59, 140.2 46.44, 140.21 99.01 M138.29 97.27 C91.67 100.7, 44.21 104.73, -2.08 103.81 M140.9 99.71 C98.7 99.95, 57.39 99.89, -0.95 101.81 M-2.57 103.73 C1.11 69.09, 1.26 39.85, -1.94 1.17 M0.24 99.11 C0.49 67.06, -0.17 37.62, 0.82 1.1" stroke="#000000" stroke-width="2" fill="none"></path></g><g transform="translate(255 415) rotate(0 65 12.5)"><text x="65" y="18" font-family="Virgil, Segoe UI Emoji" font-size="20px" fill="#000000" text-anchor="middle" style="white-space: pre;" direction="ltr">Runner2</text></g><g stroke-linecap="round" transform="translate(90 410) rotate(0 70 50)"><path d="M2.84 1.56 L142.73 2.26 L142.95 96.48 L1.23 99.84" stroke="none" stroke-width="0" fill="#228be6"></path><path d="M1.95 0.77 C43.9 0.61, 81.67 -1.44, 140.87 -2.89 M-0.95 -0.77 C32.89 3.19, 69.84 2.34, 141.44 0.43 M141.34 0 C139.13 36.52, 139.17 73.27, 138.6 97.67 M141.19 0.5 C143.03 29.17, 140.56 61.74, 140.38 98.07 M140.87 99.92 C102.93 95.07, 65.08 95.12, 1.3 96.36 M138.31 98.33 C107.47 95.95, 79.19 99.39, 0.38 98.26 M0.49 102.52 C5.87 63.6, -1.86 21.5, -0.88 2.21 M-1.29 101.16 C-0.68 69.88, -0.93 37.25, 1.49 1.04" stroke="#000000" stroke-width="2" fill="none"></path></g><g transform="translate(95 415) rotate(0 65 12.5)"><text x="65" y="18" font-family="Virgil, Segoe UI Emoji" font-size="20px" fill="#000000" text-anchor="middle" style="white-space: pre;" direction="ltr">Runner1</text></g><g transform="translate(90 550) rotate(0 145 12.5)"><text x="145" y="18" font-family="Virgil, Segoe UI Emoji" font-size="20px" fill="#000000" text-anchor="middle" style="white-space: pre;" direction="ltr">HVML Interpreter Instance A</text></g><g stroke-linecap="round" transform="translate(450 390) rotate(0 170 70)"><path d="M-1.9 2.35 C112.07 -5.69, 222.06 -5.8, 342.55 0.04 M-1.08 -0.62 C88.87 2.24, 180.11 2.99, 340.15 -0.74 M343.67 3.13 C337.01 51.71, 343.56 99.14, 336.78 142.18 M339.69 -1.98 C337.62 34.82, 337.88 74.74, 339.63 138.48 M341.41 142.05 C261.06 135.8, 183.98 135.32, 2.34 140.42 M341.06 141.18 C254.71 138.06, 171.21 139.26, -0.07 139.65 M1.41 139.59 C3.64 96.06, 5.09 45.39, -1.99 1.37 M-0.46 141.56 C-1.17 93.48, 0.51 51.11, 1.08 -0.85" stroke="#000000" stroke-width="2" fill="none"></path></g><g stroke-linecap="round" transform="translate(630 410) rotate(0 70 50)"><path d="M-0.02 -2.56 L141.64 -1.47 L140.3 97.91 L-1.07 99.72" stroke="none" stroke-width="0" fill="#15aabf"></path><path d="M3.53 3.42 C31.16 5.71, 64.2 5.83, 140.06 -1.48 M-0.93 -0.81 C47.63 4.21, 96.56 2.49, 138.88 1.28 M143.13 -2.96 C141.53 33.47, 137.99 56.54, 142.18 98.48 M138.02 -0.73 C138.89 23.64, 142.13 47.84, 138.48 98.61 M143.07 99.16 C98.5 102.57, 56.45 105, 0.63 97.95 M141.77 98.92 C108.33 102.77, 78.53 102.12, -0.52 100.59 M-0.41 102.21 C3.03 78.77, -1.5 48.23, 1.37 0.91 M1.56 100.23 C-0.3 66.91, 2.52 31.07, -0.85 -1.34" stroke="#000000" stroke-width="2" fill="none"></path></g><g transform="translate(635 415) rotate(0 65 12.5)"><text x="65" y="18" font-family="Virgil, Segoe UI Emoji" font-size="20px" fill="#000000" text-anchor="middle" style="white-space: pre;" direction="ltr">Runner2</text></g><g stroke-linecap="round" transform="translate(470 410) rotate(0 70 50)"><path d="M1.64 -1.47 L140.3 -2.09 L138.93 99.72 L0.91 96.43" stroke="none" stroke-width="0" fill="#15aabf"></path><path d="M-2.05 3.71 C29.78 1.44, 64.06 -3.88, 141.66 -2.07 M-0.16 1.94 C31.61 1.35, 60.18 2.41, 139.98 0.79 M140.74 3.59 C138.78 35.96, 143.75 76.84, 137.64 101.5 M138.14 -0.47 C139.4 28.09, 136.51 55.53, 139.9 98.2 M139.82 101.09 C89.67 102.92, 41.79 97.36, -2.97 98.34 M139.92 100.54 C88.57 98.38, 33.19 99.08, -1.02 99.16 M2.19 103.66 C-2.13 64.48, 1.57 33.86, 2 -2.05 M-1.32 101.91 C-0.06 73.37, -2.41 43.23, -0.01 -1.28" stroke="#000000" stroke-width="2" fill="none"></path></g><g transform="translate(475 415) rotate(0 65 12.5)"><text x="65" y="18" font-family="Virgil, Segoe UI Emoji" font-size="20px" fill="#000000" text-anchor="middle" style="white-space: pre;" direction="ltr">Runner1</text></g><g transform="translate(470 550) rotate(0 145 12.5)"><text x="145" y="18" font-family="Virgil, Segoe UI Emoji" font-size="20px" fill="#000000" text-anchor="middle" style="white-space: pre;" direction="ltr">HVML Interpreter Instance A</text></g><g stroke-linecap="round" transform="translate(410 10) rotate(0 170 120)"><path d="M-1.91 0.55 C104.67 -1.51, 207.45 -1.28, 337.66 2.33 M0.88 -0.67 C76.92 -0.9, 154.34 -1.07, 340.91 -0.63 M339.12 0.74 C334.52 53.37, 334.97 108.74, 341.11 241.09 M341.16 1.16 C345.21 77.89, 344.49 151.98, 340.81 238.61 M342.34 240.97 C210.79 242.56, 79.35 243.1, -0.45 241.51 M341.3 240.63 C213.29 242.96, 89.93 244.5, 0.99 240.7 M2.06 237.99 C-0.13 173.51, -1.57 106.37, 3.15 0.8 M1.3 241.21 C1.05 164.18, 0.87 89.56, 1.25 -1.4" stroke="#000000" stroke-width="2" fill="none"></path></g><g transform="translate(10 130) rotate(0 57 27)"><text x="57" y="19" font-family="Virgil, Segoe UI Emoji" font-size="20px" fill="#000000" text-anchor="middle" style="white-space: pre;" direction="ltr">Renderer 甲</text><text x="57" y="46" font-family="Virgil, Segoe UI Emoji" font-size="20px" fill="#000000" text-anchor="middle" style="white-space: pre;" direction="ltr"></text></g><g transform="translate(766.5 110) rotate(0 57.5 14.5)"><text x="57.5" y="21" font-family="Virgil, Segoe UI Emoji" font-size="20px" fill="#000000" text-anchor="middle" style="white-space: pre;" direction="ltr">Renderer 乙</text></g><g stroke-linecap="round" transform="translate(30 270) rotate(0 410 20)"><path d="M0.24 1.07 C194.51 -2.25, 387.54 -4.66, 821.41 0.52 M-0.37 -0.39 C286.44 3.42, 571.83 3.87, 819.46 -0.48 M823.8 -1.54 C817.75 10.3, 822.62 20.96, 821.88 40.07 M821.49 1.03 C821.71 9.63, 818.84 19.09, 818.58 38.11 M821.25 39.71 C562.16 40.7, 302.16 42.21, 1.59 39.61 M820.53 39.55 C555.31 43.7, 291.34 43.9, -0.25 40.65 M2.08 40.09 C-2.34 29.12, -2.28 8, 0.48 3.18 M1.88 39.73 C-0.46 27.88, 2.24 20.92, 1.57 -1.34" stroke="#e67700" stroke-width="2" fill="none"></path></g><g stroke-linecap="round"><g transform="translate(170.05680571384983 133.25008475318552) rotate(0 1.1053469981790158 68.69863290056585)"><path d="M2.2 -0.51 C2.42 22.38, 2.09 114.53, 1.63 138.07 M-0.06 -3.25 C-0.08 19.87, 0.71 116.07, 0.28 140.65" stroke="#000000" stroke-width="2" fill="none"></path></g><g transform="translate(170.05680571384983 133.25008475318552) rotate(0 1.1053469981790158 68.69863290056585)"><path d="M11.68 30.03 C6.32 18.36, 6.92 14.33, 1.22 0.4 M11.27 27.6 C9.66 23.31, 7.94 15.01, 3.83 0.56" stroke="#000000" stroke-width="2" fill="none"></path></g><g transform="translate(170.05680571384983 133.25008475318552) rotate(0 1.1053469981790158 68.69863290056585)"><path d="M-8.84 29.99 C-7.83 18.01, -0.86 13.99, 1.22 0.4 M-9.25 27.56 C-6.42 23, -3.7 14.72, 3.83 0.56" stroke="#000000" stroke-width="2" fill="none"></path></g><g transform="translate(170.05680571384983 133.25008475318552) rotate(0 1.1053469981790158 68.69863290056585)"><path d="M-10.62 114.76 C-9.35 120.27, -2.42 133.75, -0.69 141.56 M-11.03 112.32 C-7.58 119.96, -4.88 123.88, 1.91 141.71" stroke="#000000" stroke-width="2" fill="none"></path></g><g transform="translate(170.05680571384983 133.25008475318552) rotate(0 1.1053469981790158 68.69863290056585)"><path d="M9.9 114.82 C4.81 120.63, 5.37 134.09, -0.69 141.56 M9.49 112.38 C8.5 120.29, 6.76 124.19, 1.91 141.71" stroke="#000000" stroke-width="2" fill="none"></path></g></g><g stroke-linecap="round"><g transform="translate(650.0382844232023 189.06739239707588) rotate(0 20.556211558215182 41.157500579133654)"><path d="M2.21 2.2 C8.59 14.93, 29.82 65.67, 35.77 78.52 M-0.04 0.93 C7.46 13.82, 35.1 67.86, 41.15 81.38" stroke="#000000" stroke-width="2" fill="none"></path></g><g transform="translate(650.0382844232023 189.06739239707588) rotate(0 20.556211558215182 41.157500579133654)"><path d="M26.1 21.19 C16.23 20.03, 13 18.29, 2.23 5.61 M21.79 22.47 C14.42 17.17, 6.49 7.19, 1.07 3.27" stroke="#000000" stroke-width="2" fill="none"></path></g><g transform="translate(650.0382844232023 189.06739239707588) rotate(0 20.556211558215182 41.157500579133654)"><path d="M7.32 29.45 C1.28 26.26, 2 22.77, 2.23 5.61 M3.01 30.74 C2.35 22.09, 1.26 9.1, 1.07 3.27" stroke="#000000" stroke-width="2" fill="none"></path></g><g transform="translate(650.0382844232023 189.06739239707588) rotate(0 20.556211558215182 41.157500579133654)"><path d="M22.76 57.82 C22.45 64.95, 28.13 72.16, 41.18 84.79 M18.45 59.1 C27.11 68.54, 34.58 74.05, 40.01 82.44" stroke="#000000" stroke-width="2" fill="none"></path></g><g transform="translate(650.0382844232023 189.06739239707588) rotate(0 20.556211558215182 41.157500579133654)"><path d="M41.22 48.86 C37.16 58.17, 38.95 67.27, 41.18 84.79 M36.91 50.14 C38.98 63.17, 39.72 71.95, 40.01 82.44" stroke="#000000" stroke-width="2" fill="none"></path></g></g><g stroke-linecap="round"><g transform="translate(511.35417730361223 171) rotate(0 0.9354646422717678 50.29141886934639)"><path d="M-1.35 1.31 C-0.67 17.22, 1.58 81.09, 2.01 97.61 M3.11 -0.45 C3.78 15.72, 1.37 84.91, 0.87 101.03" stroke="#000000" stroke-width="2" fill="none"></path></g><g transform="translate(511.35417730361223 171) rotate(0 0.9354646422717678 50.29141886934639)"><path d="M11.79 31.98 C6.4 24.48, 7.92 16.8, -3.63 2.44 M8 29.55 C4.87 19.77, 3 11.23, -0.08 3.24" stroke="#000000" stroke-width="2" fill="none"></path></g><g transform="translate(511.35417730361223 171) rotate(0 0.9354646422717678 50.29141886934639)"><path d="M-8.72 32.72 C-9.49 25.25, -3.33 17.41, -3.63 2.44 M-12.51 30.29 C-9.43 20.11, -5.08 11.35, -0.08 3.24" stroke="#000000" stroke-width="2" fill="none"></path></g><g transform="translate(511.35417730361223 171) rotate(0 0.9354646422717678 50.29141886934639)"><path d="M-6.62 75.4 C-6.49 80.82, -0.31 85.86, -1.41 102.17 M-10.41 72.97 C-7.05 80.07, -2.67 88.59, 2.14 102.97" stroke="#000000" stroke-width="2" fill="none"></path></g><g transform="translate(511.35417730361223 171) rotate(0 0.9354646422717678 50.29141886934639)"><path d="M13.89 76.06 C9.38 81.13, 10.93 86.02, -1.41 102.17 M10.1 73.62 C7.25 80.7, 5.41 89.03, 2.14 102.97" stroke="#000000" stroke-width="2" fill="none"></path></g></g><g stroke-linecap="round"><g transform="translate(291.55169548519837 190.12039960041642) rotate(0 1.0582149828794627 39.85454679951073)"><path d="M2.64 1.52 C2.49 14.64, -1.14 66.8, -1.55 79.83 M0.63 -0.12 C1.39 12.18, 4.05 63.68, 3.62 76.29" stroke="#000000" stroke-width="2" fill="none"></path></g><g transform="translate(291.55169548519837 190.12039960041642) rotate(0 1.0582149828794627 39.85454679951073)"><path d="M13.54 26.99 C12.59 21.66, 9.95 17.18, 3.46 5.22 M11.26 30.16 C9.95 20.95, 5.71 10.48, 4.59 1.6" stroke="#000000" stroke-width="2" fill="none"></path></g><g transform="translate(291.55169548519837 190.12039960041642) rotate(0 1.0582149828794627 39.85454679951073)"><path d="M-6.95 25.89 C-2.21 20.47, 0.83 16.3, 3.46 5.22 M-9.23 29.06 C-3.13 20.54, 0.05 10.47, 4.59 1.6" stroke="#000000" stroke-width="2" fill="none"></path></g><g transform="translate(291.55169548519837 190.12039960041642) rotate(0 1.0582149828794627 39.85454679951073)"><path d="M-4.91 45.03 C-0.02 55.06, 2.74 66.31, 4.45 79.99 M-7.2 48.2 C-2 59.81, 0.8 69.88, 5.58 76.37" stroke="#000000" stroke-width="2" fill="none"></path></g><g transform="translate(291.55169548519837 190.12039960041642) rotate(0 1.0582149828794627 39.85454679951073)"><path d="M15.61 44.71 C14.81 55.21, 11.88 66.55, 4.45 79.99 M13.32 47.88 C11.09 59.3, 6.46 69.49, 5.58 76.37" stroke="#000000" stroke-width="2" fill="none"></path></g></g><g stroke-linecap="round"><g transform="translate(170.98668177351357 311.2752822443843) rotate(0 0.31743022982755065 49.95741133019328)"><path d="M1.59 -1.28 C1.79 15.55, 0.91 84.22, 0.66 101.19 M-0.99 4.2 C-0.97 20.27, -0.66 82.22, -0.68 97.52" stroke="#000000" stroke-width="2" fill="none"></path></g><g transform="translate(170.98668177351357 311.2752822443843) rotate(0 0.31743022982755065 49.95741133019328)"><path d="M9.82 29.35 C12.28 20.73, 8.54 12.02, -0.35 -3.95 M12.46 26.85 C9.55 15.4, 4.09 3.73, 0.34 -2.9" stroke="#000000" stroke-width="2" fill="none"></path></g><g transform="translate(170.98668177351357 311.2752822443843) rotate(0 0.31743022982755065 49.95741133019328)"><path d="M-10.71 29.19 C-2.46 20.38, -0.43 11.71, -0.35 -3.95 M-8.06 26.69 C-3.07 15.54, -0.61 3.93, 0.34 -2.9" stroke="#000000" stroke-width="2" fill="none"></path></g><g transform="translate(170.98668177351357 311.2752822443843) rotate(0 0.31743022982755065 49.95741133019328)"><path d="M-12.83 71.71 C-4.52 78.74, -2.53 85.92, -2.62 94.85 M-10.18 69.2 C-5.77 79.75, -3.37 89.83, -1.93 95.89" stroke="#000000" stroke-width="2" fill="none"></path></g><g transform="translate(170.98668177351357 311.2752822443843) rotate(0 0.31743022982755065 49.95741133019328)"><path d="M7.7 71.66 C10.22 78.94, 6.43 86.13, -2.62 94.85 M10.34 69.16 C6.84 79.48, 1.33 89.59, -1.93 95.89" stroke="#000000" stroke-width="2" fill="none"></path></g></g><g stroke-linecap="round"><g transform="translate(314.3114624844492 308.2855868448317) rotate(0 -1.3903655645996764 50.69265099219979)"><path d="M-0.56 2.71 C-1.09 19.46, -3.27 83.53, -3.5 99.67 M-4.31 1.71 C-3.97 17.66, 1.53 79.72, 1.53 95.17" stroke="#000000" stroke-width="2" fill="none"></path></g><g transform="translate(314.3114624844492 308.2855868448317) rotate(0 -1.3903655645996764 50.69265099219979)"><path d="M12.67 27.62 C7.62 21.58, 4.73 11.96, 1.44 4.71 M9.08 32.1 C6.47 26.44, 4.23 18.4, 0.99 2.14" stroke="#000000" stroke-width="2" fill="none"></path></g><g transform="translate(314.3114624844492 308.2855868448317) rotate(0 -1.3903655645996764 50.69265099219979)"><path d="M-7.85 26.96 C-6.99 21.19, -3.97 11.77, 1.44 4.71 M-11.43 31.44 C-9.46 25.65, -7.12 17.76, 0.99 2.14" stroke="#000000" stroke-width="2" fill="none"></path></g><g transform="translate(314.3114624844492 308.2855868448317) rotate(0 -1.3903655645996764 50.69265099219979)"><path d="M-6.25 63.93 C-5.58 74.14, -2.41 80.69, 3.53 97.17 M-9.84 68.41 C-6.71 74.99, -4.26 79.47, 3.08 94.61" stroke="#000000" stroke-width="2" fill="none"></path></g><g transform="translate(314.3114624844492 308.2855868448317) rotate(0 -1.3903655645996764 50.69265099219979)"><path d="M14.25 62.91 C9.01 73.33, 6.27 80.18, 3.53 97.17 M10.66 67.39 C9.23 74.47, 7.11 79.19, 3.08 94.61" stroke="#000000" stroke-width="2" fill="none"></path></g></g><g stroke-linecap="round"><g transform="translate(530.7956391528248 311.4975460097194) rotate(0 1.5892185056961239 49.084190075844504)"><path d="M-0.8 -1.5 C-0.51 14.75, 1.36 83.34, 1.37 99.67 M3.97 3.86 C4.12 19.04, 1.47 79.42, 0.41 95.17" stroke="#000000" stroke-width="2" fill="none"></path></g><g transform="translate(530.7956391528248 311.4975460097194) rotate(0 1.5892185056961239 49.084190075844504)"><path d="M7.98 29.81 C7.88 18.71, 0.13 9.84, -0.64 -3.04 M8.77 25.45 C4.99 17.12, 2.71 11.58, -2.33 -2.71" stroke="#000000" stroke-width="2" fill="none"></path></g><g transform="translate(530.7956391528248 311.4975460097194) rotate(0 1.5892185056961239 49.084190075844504)"><path d="M-12.54 30.29 C-6.72 19.16, -8.56 10.16, -0.64 -3.04 M-11.75 25.92 C-9.82 17.15, -6.4 11.47, -2.33 -2.71" stroke="#000000" stroke-width="2" fill="none"></path></g><g transform="translate(530.7956391528248 311.4975460097194) rotate(0 1.5892185056961239 49.084190075844504)"><path d="M-10.48 69.84 C-4.03 75.19, -6.1 82.67, 0.57 93.62 M-9.69 65.47 C-6.91 72.61, -3.72 82.83, -1.12 93.96" stroke="#000000" stroke-width="2" fill="none"></path></g><g transform="translate(530.7956391528248 311.4975460097194) rotate(0 1.5892185056961239 49.084190075844504)"><path d="M10.01 70.93 C10.54 75.85, 2.54 83.01, 0.57 93.62 M10.8 66.56 C7.86 73.71, 5.34 83.64, -1.12 93.96" stroke="#000000" stroke-width="2" fill="none"></path></g></g><g stroke-linecap="round"><g transform="translate(672.4578562975805 309.52230105414986) rotate(0 -0.5081326639344752 50.272980208620424)"><path d="M-2.43 1.91 C-2.71 18.25, -0.63 84.19, -0.28 100.07 M1.44 0.48 C0.73 15.8, -1.59 79.29, -2.14 95.79" stroke="#000000" stroke-width="2" fill="none"></path></g><g transform="translate(672.4578562975805 309.52230105414986) rotate(0 -0.5081326639344752 50.272980208620424)"><path d="M11.13 30.89 C6.13 20.8, -1.78 9.58, -1.39 1.12 M9.87 30 C6.76 22.91, 1.16 14.59, -0.44 2.63" stroke="#000000" stroke-width="2" fill="none"></path></g><g transform="translate(672.4578562975805 309.52230105414986) rotate(0 -0.5081326639344752 50.272980208620424)"><path d="M-9.39 31.31 C-7.24 21.43, -8 10.06, -1.39 1.12 M-10.64 30.42 C-8.46 22.94, -8.74 14.51, -0.44 2.63" stroke="#000000" stroke-width="2" fill="none"></path></g><g transform="translate(672.4578562975805 309.52230105414986) rotate(0 -0.5081326639344752 50.272980208620424)"><path d="M-8.67 68.25 C-5.84 78.21, -6.74 86.69, -1.1 95 M-9.92 67.37 C-7.9 74.62, -8.3 80.9, -0.15 96.51" stroke="#000000" stroke-width="2" fill="none"></path></g><g transform="translate(672.4578562975805 309.52230105414986) rotate(0 -0.5081326639344752 50.272980208620424)"><path d="M11.84 68.98 C7.51 78.33, -0.54 86.55, -1.1 95 M10.59 68.09 C7.31 75.43, 1.61 81.54, -0.15 96.51" stroke="#000000" stroke-width="2" fill="none"></path></g></g></svg>