<svg version="1.1" xmlns="http://www.w3.org/2000/svg" viewBox="0 0 740 545" width="740" height="545">
  <!-- svg-source:excalidraw -->
  
  <defs>
    <style>
      @font-face {
        font-family: "Virgil";
        src: url("https://excalidraw.com/Virgil.woff2");
      }
      @font-face {
        font-family: "Cascadia";
        src: url("https://excalidraw.com/Cascadia.woff2");
      }
    </style>
  </defs>
  <rect x="0" y="0" width="740" height="545" fill="#ffffff"></rect><g stroke-linecap="round" transform="translate(70 10) rotate(0 300 120)"><path d="M-0.84 -1.44 C147.34 -1.78, 298.11 -2.08, 601.14 1.38 M-0.54 0.52 C232.18 0, 464.87 0.96, 600.69 0.73 M600.22 0.55 C603.05 70.13, 600.08 138.98, 601.53 238.94 M600.91 -0.82 C598.58 90.49, 598.53 181.61, 599.16 238.69 M598.78 240.75 C478.79 240.21, 356.99 240.6, 0.94 240 M600.14 239.51 C419.17 243.59, 238.61 243.36, -0.42 240.09 M-0.59 237.22 C0.35 189.12, -4.75 140.17, 1.6 -0.89 M-0.01 238.89 C0.45 158.92, 0.45 78.02, -0.88 -0.85" stroke="#000000" stroke-width="2" fill="none"></path></g><g stroke-linecap="round" transform="translate(90 30) rotate(0 50 50)"><path d="M-3.17 3.25 L99.47 2.81 L97.76 97.66 L1.87 103.75" stroke="none" stroke-width="0" fill="#228be6"></path><path d="M-2.47 3.01 C28.52 0.11, 53.99 2.98, 100.59 1.56 M-0.37 -1.16 C27.92 -2.06, 53.93 -1.1, 100.7 -0.1 M99.17 -1.01 C99.81 24.91, 102.56 53.31, 96.88 100.59 M100.68 0.79 C100.49 25.48, 100.06 51.94, 99.72 99.61 M101.54 98.16 C67.17 100.19, 26.25 98.87, -2.17 100.9 M100.09 101.44 C63.8 103.18, 28.58 102.88, 0.24 101.06 M3.32 97.53 C-5.5 64.34, -3.05 32.01, 1.84 -2.99 M-1.61 98.11 C-2.4 68.46, -1.5 37.17, 1.81 1.93" stroke="#000000" stroke-width="2" fill="none"></path></g><g stroke-linecap="round" transform="translate(150 90) rotate(0 70 50)"><path d="M-3.63 -1.7 L142.09 2.97 L142.66 99.75 L-1.93 97.66" stroke="none" stroke-width="0" fill="#228be6"></path><path d="M2.9 3.36 C34.58 1.12, 69.01 1.24, 142.36 2.4 M1.52 1.47 C45.33 -2.13, 85.34 -2.12, 139.23 -0.78 M142.07 -1.78 C135.29 30.82, 135.78 69.34, 139.07 100.81 M141.62 -0.27 C143.33 37.95, 140.75 79.08, 141.88 100.17 M141.76 97.03 C100.61 102.63, 58.31 102.32, 0.53 96.55 M140.87 100.19 C100.23 98.66, 58.77 99.43, -0.63 100.61 M-1.14 97.81 C0.94 66.98, -0.39 31.37, 2.18 3.85 M-1.65 101.6 C-3.01 74.81, -1.85 46.61, -1.33 -1.94" stroke="#000000" stroke-width="2" fill="none"></path></g><g transform="translate(95 35) rotate(0 45 12.5)"><text x="45" y="18" font-family="Virgil, Segoe UI Emoji" font-size="20px" fill="#000000" text-anchor="middle" style="white-space: pre;" direction="ltr">WinA-1</text></g><g transform="translate(155 95) rotate(0 65 12.5)"><text x="65" y="18" font-family="Virgil, Segoe UI Emoji" font-size="20px" fill="#000000" text-anchor="middle" style="white-space: pre;" direction="ltr">WinA-2</text></g><g stroke-linecap="round" transform="translate(370 70) rotate(0 80 70)"><path d="M3.58 3.89 L163.47 2.87 L156.02 137.96 L0.84 140.09" stroke="none" stroke-width="0" fill="#15aabf"></path><path d="M1.22 -0.78 C32.64 -0.2, 66.85 0.46, 160.18 1.51 M-1.99 -1.06 C61.65 2.89, 123.42 0.78, 161.87 -0.21 M160.27 -3.84 C165.52 45.47, 165.73 91.12, 158.34 138.84 M158.36 -0.93 C160.21 46.57, 161.38 92.7, 158.66 141.61 M161.53 136.89 C105.74 139.79, 57.76 143.79, -1.1 140.89 M161.89 139.71 C102 140.8, 45.25 138.78, -0.38 138.22 M-0.87 141.72 C1.97 92.11, 5.7 36.19, -2.45 -2.84 M-1.68 141.23 C0.59 93.83, -0.13 42.21, 0.81 -1.76" stroke="#000000" stroke-width="2" fill="none"></path></g><g stroke-linecap="round" transform="translate(490 110) rotate(0 80 60)"><path d="M-0.64 -1.36 L157.21 -0.14 L162.22 116.62 L1.75 122.82" stroke="none" stroke-width="0" fill="#15aabf"></path><path d="M1.77 -3.06 C29.65 5.05, 63.77 2.81, 162.6 -2.67 M-0.88 1.96 C47.42 -3.79, 97.59 -2.29, 160 -0.65 M159.76 2.75 C157.52 23.51, 162.1 53.38, 157.92 123.53 M158.48 0.95 C158.62 40.05, 158.58 82.35, 158.55 120.26 M160.76 119.34 C93.64 117.96, 30.26 121.3, -3.58 119.19 M161.56 121.6 C114.58 118.35, 69.5 120.41, -0.57 118.58 M3.49 118.15 C-5.4 95.73, -4.99 71.8, 3.89 3.47 M0.42 120.05 C4.3 73.95, 3.75 28.96, -1.7 1.49" stroke="#000000" stroke-width="2" fill="none"></path></g><g transform="translate(495 115) rotate(0 75 12.5)"><text x="75" y="18" font-family="Virgil, Segoe UI Emoji" font-size="20px" fill="#000000" text-anchor="middle" style="white-space: pre;" direction="ltr">WiinB-2</text></g><g transform="translate(375 75) rotate(0 75 12.5)"><text x="75" y="18" font-family="Virgil, Segoe UI Emoji" font-size="20px" fill="#000000" text-anchor="middle" style="white-space: pre;" direction="ltr">WinB-1</text></g><g stroke-linecap="round" transform="translate(10 350) rotate(0 170 70)"><path d="M-1.68 -0.43 C119.59 -1.64, 237.61 -2.07, 341 1.7 M-0.58 0.44 C69.56 -1.92, 139.81 -2.71, 340.73 1.2 M337.65 -3.17 C344.58 44.3, 339.3 94.63, 343.86 136.43 M341.61 1.04 C344.06 30.89, 343.52 59.51, 339.9 139.68 M339.13 140.21 C242.47 137.44, 142.03 135.46, -2.08 137.52 M340.23 140.53 C270.2 139.43, 197.92 140.78, -0.13 138.95 M2.77 141.08 C4.78 89.37, -1.75 35.19, -0.05 -2.57 M-0.23 140.5 C0.73 102.19, 0.7 67.85, -0.5 -0.31" stroke="#000000" stroke-width="2" fill="none"></path></g><g stroke-linecap="round" transform="translate(190 370) rotate(0 70 50)"><path d="M2.87 0.85 L141.96 0.68 L138.38 101.34 L0 98.79" stroke="none" stroke-width="0" fill="#228be6"></path><path d="M1.17 -3.44 C37.56 2.61, 76.3 -3.52, 138.02 0.85 M1.64 -0.29 C43.43 -3.72, 85.43 0.03, 138.76 0.39 M142.7 1.86 C141.14 29.7, 140.46 67.92, 142.14 100.7 M138.79 -0.69 C138.62 22.59, 140.2 46.44, 140.21 99.01 M138.29 97.27 C91.67 100.7, 44.21 104.73, -2.08 103.81 M140.9 99.71 C98.7 99.95, 57.39 99.89, -0.95 101.81 M-2.57 103.73 C1.11 69.09, 1.26 39.85, -1.94 1.17 M0.24 99.11 C0.49 67.06, -0.17 37.62, 0.82 1.1" stroke="#000000" stroke-width="2" fill="none"></path></g><g transform="translate(195 375) rotate(0 65 12.5)"><text x="65" y="18" font-family="Virgil, Segoe UI Emoji" font-size="20px" fill="#000000" text-anchor="middle" style="white-space: pre;" direction="ltr">Runner2</text></g><g stroke-linecap="round" transform="translate(30 370) rotate(0 70 50)"><path d="M2.84 1.56 L142.73 2.26 L142.95 96.48 L1.23 99.84" stroke="none" stroke-width="0" fill="#228be6"></path><path d="M1.95 0.77 C43.9 0.61, 81.67 -1.44, 140.87 -2.89 M-0.95 -0.77 C32.89 3.19, 69.84 2.34, 141.44 0.43 M141.34 0 C139.13 36.52, 139.17 73.27, 138.6 97.67 M141.19 0.5 C143.03 29.17, 140.56 61.74, 140.38 98.07 M140.87 99.92 C102.93 95.07, 65.08 95.12, 1.3 96.36 M138.31 98.33 C107.47 95.95, 79.19 99.39, 0.38 98.26 M0.49 102.52 C5.87 63.6, -1.86 21.5, -0.88 2.21 M-1.29 101.16 C-0.68 69.88, -0.93 37.25, 1.49 1.04" stroke="#000000" stroke-width="2" fill="none"></path></g><g transform="translate(35 375) rotate(0 65 12.5)"><text x="65" y="18" font-family="Virgil, Segoe UI Emoji" font-size="20px" fill="#000000" text-anchor="middle" style="white-space: pre;" direction="ltr">Runner1</text></g><g transform="translate(30 510) rotate(0 145 12.5)"><text x="145" y="18" font-family="Virgil, Segoe UI Emoji" font-size="20px" fill="#000000" text-anchor="middle" style="white-space: pre;" direction="ltr">HVML Interpreter Instance A</text></g><g stroke-linecap="round" transform="translate(390 350) rotate(0 170 70)"><path d="M-1.9 2.35 C112.07 -5.69, 222.06 -5.8, 342.55 0.04 M-1.08 -0.62 C88.87 2.24, 180.11 2.99, 340.15 -0.74 M343.67 3.13 C337.01 51.71, 343.56 99.14, 336.78 142.18 M339.69 -1.98 C337.62 34.82, 337.88 74.74, 339.63 138.48 M341.41 142.05 C261.06 135.8, 183.98 135.32, 2.34 140.42 M341.06 141.18 C254.71 138.06, 171.21 139.26, -0.07 139.65 M1.41 139.59 C3.64 96.06, 5.09 45.39, -1.99 1.37 M-0.46 141.56 C-1.17 93.48, 0.51 51.11, 1.08 -0.85" stroke="#000000" stroke-width="2" fill="none"></path></g><g stroke-linecap="round" transform="translate(570 370) rotate(0 70 50)"><path d="M-0.02 -2.56 L141.64 -1.47 L140.3 97.91 L-1.07 99.72" stroke="none" stroke-width="0" fill="#15aabf"></path><path d="M3.53 3.42 C31.16 5.71, 64.2 5.83, 140.06 -1.48 M-0.93 -0.81 C47.63 4.21, 96.56 2.49, 138.88 1.28 M143.13 -2.96 C141.53 33.47, 137.99 56.54, 142.18 98.48 M138.02 -0.73 C138.89 23.64, 142.13 47.84, 138.48 98.61 M143.07 99.16 C98.5 102.57, 56.45 105, 0.63 97.95 M141.77 98.92 C108.33 102.77, 78.53 102.12, -0.52 100.59 M-0.41 102.21 C3.03 78.77, -1.5 48.23, 1.37 0.91 M1.56 100.23 C-0.3 66.91, 2.52 31.07, -0.85 -1.34" stroke="#000000" stroke-width="2" fill="none"></path></g><g transform="translate(575 375) rotate(0 65 12.5)"><text x="65" y="18" font-family="Virgil, Segoe UI Emoji" font-size="20px" fill="#000000" text-anchor="middle" style="white-space: pre;" direction="ltr">Runner2</text></g><g stroke-linecap="round" transform="translate(410 370) rotate(0 70 50)"><path d="M1.64 -1.47 L140.3 -2.09 L138.93 99.72 L0.91 96.43" stroke="none" stroke-width="0" fill="#15aabf"></path><path d="M-2.05 3.71 C29.78 1.44, 64.06 -3.88, 141.66 -2.07 M-0.16 1.94 C31.61 1.35, 60.18 2.41, 139.98 0.79 M140.74 3.59 C138.78 35.96, 143.75 76.84, 137.64 101.5 M138.14 -0.47 C139.4 28.09, 136.51 55.53, 139.9 98.2 M139.82 101.09 C89.67 102.92, 41.79 97.36, -2.97 98.34 M139.92 100.54 C88.57 98.38, 33.19 99.08, -1.02 99.16 M2.19 103.66 C-2.13 64.48, 1.57 33.86, 2 -2.05 M-1.32 101.91 C-0.06 73.37, -2.41 43.23, -0.01 -1.28" stroke="#000000" stroke-width="2" fill="none"></path></g><g transform="translate(415 375) rotate(0 65 12.5)"><text x="65" y="18" font-family="Virgil, Segoe UI Emoji" font-size="20px" fill="#000000" text-anchor="middle" style="white-space: pre;" direction="ltr">Runner1</text></g><g transform="translate(410 510) rotate(0 145 12.5)"><text x="145" y="18" font-family="Virgil, Segoe UI Emoji" font-size="20px" fill="#000000" text-anchor="middle" style="white-space: pre;" direction="ltr">HVML Interpreter Instance A</text></g><g stroke-linecap="round"><g transform="translate(130 130) rotate(0 -19.244373419135798 120.43952464498581)"><path d="M1.51 -1.5 C-1.5 22.14, -12.95 102.05, -19.58 142.22 C-26.21 182.39, -34.97 223.35, -38.25 239.53 M-1.11 3.86 C-4.32 26.71, -15.11 98.67, -21.59 138.42 C-28.07 178.17, -37.07 225.2, -40 242.38" stroke="#000000" stroke-width="2" fill="none"></path></g><g transform="translate(130 130) rotate(0 -19.244373419135798 120.43952464498581)"><path d="M5.55 28.46 C9.27 20.87, 3.9 12.24, 0.49 2.18 M5.79 26.19 C3.21 16.62, 2.95 8.41, 3.37 -3.1" stroke="#000000" stroke-width="2" fill="none"></path></g><g transform="translate(130 130) rotate(0 -19.244373419135798 120.43952464498581)"><path d="M-14.77 25.56 C-6.05 18.46, -6.43 10.54, 0.49 2.18 M-14.53 23.29 C-9.89 14.58, -2.97 7.39, 3.37 -3.1" stroke="#000000" stroke-width="2" fill="none"></path></g><g transform="translate(130 130) rotate(0 -19.244373419135798 120.43952464498581)"><path d="M-47.26 213.42 C-40.61 220.17, -43.21 226, -41.03 246.06 M-47.02 211.15 C-44.93 222.31, -41.2 234.93, -38.14 240.78" stroke="#000000" stroke-width="2" fill="none"></path></g><g transform="translate(130 130) rotate(0 -19.244373419135798 120.43952464498581)"><path d="M-27.06 217.05 C-25.38 223.12, -32.93 228.06, -41.03 246.06 M-26.82 214.78 C-31.92 224.83, -35.32 236.16, -38.14 240.78" stroke="#000000" stroke-width="2" fill="none"></path></g></g><g stroke-linecap="round"><g transform="translate(232.54925299137835 193.38036605015395) rotate(0 16.63327484131628 87.532524445951)"><path d="M-2.55 -0.59 C-2.65 15.08, -6.82 64.52, -0.2 94.36 C6.43 124.2, 31.02 164.41, 37.2 178.45 M1.26 -3.38 C0.97 12.53, -6.83 67.21, -1.16 96.76 C4.51 126.31, 28.87 161.11, 35.26 173.91" stroke="#000000" stroke-width="2" fill="none"></path></g><g transform="translate(232.54925299137835 193.38036605015395) rotate(0 16.63327484131628 87.532524445951)"><path d="M6.38 31.13 C0.86 18.34, 3.63 9.04, 0.2 -2 M5.93 26.66 C2.62 19.45, 1.6 13.09, -2.82 0.95" stroke="#000000" stroke-width="2" fill="none"></path></g><g transform="translate(232.54925299137835 193.38036605015395) rotate(0 16.63327484131628 87.532524445951)"><path d="M-14.13 30.78 C-13.22 18.48, -4.01 9.29, 0.2 -2 M-14.59 26.31 C-12.96 19.24, -9.04 12.97, -2.82 0.95" stroke="#000000" stroke-width="2" fill="none"></path></g><g transform="translate(232.54925299137835 193.38036605015395) rotate(0 16.63327484131628 87.532524445951)"><path d="M11.47 157.94 C16.33 160.71, 29.37 166.38, 38.02 172.5 M11.01 153.47 C16.3 157.82, 23.15 162.92, 35 175.44" stroke="#000000" stroke-width="2" fill="none"></path></g><g transform="translate(232.54925299137835 193.38036605015395) rotate(0 16.63327484131628 87.532524445951)"><path d="M29.26 147.71 C28.57 153.37, 36.02 162.24, 38.02 172.5 M28.8 143.24 C29.97 150, 32.54 157.56, 35 175.44" stroke="#000000" stroke-width="2" fill="none"></path></g></g><g stroke-linecap="round"><g transform="translate(430 210) rotate(0 23.676465537368188 78.84944889463483)"><path d="M2.78 -2.26 C8.87 11.49, 31.77 53.55, 38.34 80.19 C44.9 106.83, 42.14 144.05, 42.17 157.61 M0.84 2.68 C7.68 17.14, 37.06 57.71, 43.84 83.92 C50.62 110.13, 42.47 147.8, 41.54 159.96" stroke="#000000" stroke-width="2" fill="none"></path></g><g transform="translate(430 210) rotate(0 23.676465537368188 78.84944889463483)"><path d="M20.84 16.5 C16.93 14.69, 6.91 1.72, 6.41 -2.56 M24.81 17.95 C15.17 9.34, 7.7 2.21, 1.97 -3.56" stroke="#000000" stroke-width="2" fill="none"></path></g><g transform="translate(430 210) rotate(0 23.676465537368188 78.84944889463483)"><path d="M2.28 25.24 C5.28 19.88, 2.02 3.72, 6.41 -2.56 M6.25 26.7 C3.72 14.76, 3.26 4.33, 1.97 -3.56" stroke="#000000" stroke-width="2" fill="none"></path></g><g transform="translate(430 210) rotate(0 23.676465537368188 78.84944889463483)"><path d="M31.77 128.31 C37.17 144.32, 37.29 149.72, 45.17 159.66 M35.74 129.76 C35.98 140.15, 39.02 152.06, 40.73 158.66" stroke="#000000" stroke-width="2" fill="none"></path></g><g transform="translate(430 210) rotate(0 23.676465537368188 78.84944889463483)"><path d="M52.12 130.96 C50.15 146.41, 42.85 150.84, 45.17 159.66 M56.09 132.41 C48.68 141.82, 44.03 152.74, 40.73 158.66" stroke="#000000" stroke-width="2" fill="none"></path></g></g><g stroke-linecap="round"><g transform="translate(593.820095525831 231.60923287421463) rotate(0 18.937921496795525 68.00706436060369)"><path d="M-0.24 -1.61 C5.94 11.18, 28.52 56.02, 34.5 78.87 C40.48 101.73, 34.94 125.33, 35.61 135.53 M-3.82 3.69 C3.51 15.37, 33.77 51.8, 39.99 74.12 C46.21 96.45, 33.42 127.4, 33.49 137.62" stroke="#000000" stroke-width="2" fill="none"></path></g><g transform="translate(593.820095525831 231.60923287421463) rotate(0 18.937921496795525 68.00706436060369)"><path d="M18.29 16.87 C16.64 14.08, 8.96 13.92, 3.54 -0.11 M21.74 17.95 C11.83 11.7, 5.18 5.99, -0.01 -2.16" stroke="#000000" stroke-width="2" fill="none"></path></g><g transform="translate(593.820095525831 231.60923287421463) rotate(0 18.937921496795525 68.00706436060369)"><path d="M-0.01 25.38 C2.01 20.86, -1.87 18.93, 3.54 -0.11 M3.45 26.46 C-0.91 17.38, -1.84 9.01, -0.01 -2.16" stroke="#000000" stroke-width="2" fill="none"></path></g><g transform="translate(593.820095525831 231.60923287421463) rotate(0 18.937921496795525 68.00706436060369)"><path d="M26.23 106.14 C30.69 113.77, 28.37 123.99, 37.28 139.12 M29.68 107.22 C28.82 116.37, 30.23 126.29, 33.73 137.08" stroke="#000000" stroke-width="2" fill="none"></path></g><g transform="translate(593.820095525831 231.60923287421463) rotate(0 18.937921496795525 68.00706436060369)"><path d="M46.08 109.76 C46.37 116.6, 39.92 126.06, 37.28 139.12 M49.53 110.83 C42.39 119.03, 37.59 127.82, 33.73 137.08" stroke="#000000" stroke-width="2" fill="none"></path></g></g><g transform="translate(270 270) rotate(0 78.5 12.5)"><text x="78.5" y="18" font-family="Virgil, Segoe UI Emoji" font-size="20px" fill="#000000" text-anchor="middle" style="white-space: pre;" direction="ltr">Renderer Server</text></g></svg>